G04*
G04 #@! TF.GenerationSoftware,Altium Limited,Altium Designer,22.10.1 (41)*
G04*
G04 Layer_Physical_Order=4*
G04 Layer_Color=16711680*
%FSLAX25Y25*%
%MOIN*%
G70*
G04*
G04 #@! TF.SameCoordinates,AFF1C5C8-DCE1-4C05-9ECF-CC8E2439A733*
G04*
G04*
G04 #@! TF.FilePolarity,Positive*
G04*
G01*
G75*
%ADD17C,0.00500*%
%ADD18C,0.01000*%
%ADD22R,0.03937X0.03543*%
%ADD23R,0.07165X0.04764*%
%ADD24R,0.03543X0.02756*%
%ADD25R,0.02756X0.03543*%
%ADD29R,0.03543X0.03937*%
%ADD39R,0.04764X0.07165*%
%ADD41R,0.03543X0.09449*%
%ADD64C,0.08661*%
%ADD71C,0.02000*%
%ADD72C,0.02500*%
%ADD73C,0.06496*%
%ADD74C,0.05000*%
%ADD75C,0.04000*%
%ADD76C,0.01500*%
%ADD77C,0.04500*%
%ADD78C,0.00606*%
%ADD80C,0.06496*%
%ADD81R,0.06496X0.06496*%
%ADD82C,0.06000*%
%ADD83C,0.25591*%
%ADD84C,0.06299*%
%ADD85R,0.06299X0.06299*%
%ADD86C,0.07000*%
%ADD87C,0.02362*%
%ADD88C,0.04724*%
%ADD89O,0.06102X0.02362*%
%ADD90R,0.09055X0.16929*%
%ADD91R,0.03150X0.03150*%
%ADD92O,0.01181X0.06102*%
G04:AMPARAMS|DCode=93|XSize=47.24mil|YSize=108.27mil|CornerRadius=7.8mil|HoleSize=0mil|Usage=FLASHONLY|Rotation=0.000|XOffset=0mil|YOffset=0mil|HoleType=Round|Shape=RoundedRectangle|*
%AMROUNDEDRECTD93*
21,1,0.04724,0.09268,0,0,0.0*
21,1,0.03165,0.10827,0,0,0.0*
1,1,0.01559,0.01583,-0.04634*
1,1,0.01559,-0.01583,-0.04634*
1,1,0.01559,-0.01583,0.04634*
1,1,0.01559,0.01583,0.04634*
%
%ADD93ROUNDEDRECTD93*%
%ADD94R,0.03347X0.03740*%
%ADD95R,0.05807X0.01772*%
%ADD96R,0.03937X0.12598*%
%ADD97R,0.11811X0.14173*%
%ADD98R,0.11811X0.10236*%
D17*
X220132Y31049D02*
X221555Y29429D01*
X217028Y35138D02*
X218451Y33518D01*
X218845Y32847D01*
X219738Y31720D01*
X220132Y31049D01*
D18*
X176142Y295590D02*
X206142D01*
X156142Y275590D02*
X176142Y295590D01*
X206142D02*
Y315591D01*
X175669Y259449D02*
X198653Y282433D01*
X122441Y259449D02*
X175669D01*
X174819Y262795D02*
X197425Y285402D01*
X125000Y262795D02*
X174819D01*
X173965Y266142D02*
X196193Y288370D01*
X127559Y266142D02*
X173965D01*
X130118Y269488D02*
X173114D01*
X194965Y291339D01*
X112205Y269685D02*
X122441Y259449D01*
X112205Y275590D02*
X125000Y262795D01*
X112205Y281496D02*
X127559Y266142D01*
X112205Y287402D02*
X130118Y269488D01*
X238319Y251838D02*
Y261942D01*
X198653Y282433D02*
X213630D01*
X123031Y229331D02*
X226378D01*
X104626Y210925D02*
X123031Y229331D01*
X123003Y225394D02*
X224410D01*
X105975Y208366D02*
X123003Y225394D01*
X107036Y205807D02*
X122685Y221457D01*
X108096Y203248D02*
X122367Y217520D01*
X90551Y203248D02*
X108096D01*
X163386Y185039D02*
X184055Y205709D01*
X205512D01*
X151575Y185039D02*
X163386D01*
X135925Y200689D02*
X151575Y185039D01*
X86614Y200689D02*
X135925D01*
X182087Y199803D02*
X205512D01*
X163386Y181102D02*
X182087Y199803D01*
X151575Y181102D02*
X163386D01*
X134547Y198130D02*
X151575Y181102D01*
X221850Y199803D02*
X236614Y214567D01*
X211811Y199803D02*
X221850D01*
X236614Y214567D02*
Y230315D01*
X270472Y264173D01*
X223425Y205709D02*
X232283Y214567D01*
X211811Y205709D02*
X223425D01*
X232283Y214567D02*
Y254724D01*
X221260Y265748D02*
X232283Y254724D01*
X270472Y264173D02*
Y265748D01*
X122685Y221457D02*
X226378D01*
X122367Y217520D02*
X224410D01*
X4118Y264220D02*
Y326725D01*
Y264220D02*
X13173Y255165D01*
X5906Y264961D02*
X14961Y255906D01*
X13173Y247291D02*
Y255165D01*
X26142Y305591D02*
X66142D01*
X76142Y315591D01*
X24803Y294646D02*
Y305591D01*
X26142D01*
X20079Y285591D02*
X22835Y282835D01*
X20079Y285591D02*
Y291890D01*
X22835Y294646D01*
X24803D01*
X22835Y282835D02*
X24803D01*
X104331Y230315D02*
Y233071D01*
X101575Y227559D02*
X104331Y230315D01*
X99213Y227559D02*
X101575D01*
X194965Y291339D02*
X217319D01*
X95669Y325984D02*
Y327953D01*
X91752Y322067D02*
X95669Y325984D01*
X107480Y246063D02*
X112205D01*
X104331Y242913D02*
X107480Y246063D01*
X104331Y239370D02*
Y242913D01*
Y266929D02*
X107480Y263779D01*
X101181Y257874D02*
X101181Y257874D01*
X107480Y251969D02*
X112205D01*
X101181Y251969D02*
X101181Y251969D01*
X95669Y257874D02*
X101181D01*
X95669Y251969D02*
X101181D01*
X95669Y246063D02*
X101181D01*
X107480Y269685D02*
X112205D01*
X107480Y263779D02*
X112205D01*
X107480Y257874D02*
X112205D01*
X112205Y251969D02*
X112205Y251969D01*
X107480Y275590D02*
X112205D01*
X105532Y322067D02*
X109055D01*
X98425Y314961D02*
X105532Y322067D01*
X105256Y317067D02*
X109055D01*
X102362Y314173D02*
X105256Y317067D01*
X102362Y305118D02*
Y314173D01*
X98425Y301181D02*
X102362Y305118D01*
X103986Y300394D02*
X104331D01*
X100730Y297138D02*
X103986Y300394D01*
X96120Y297138D02*
X100730D01*
X107480Y287402D02*
X112205D01*
X95276Y303150D02*
X98425Y306299D01*
X98425Y300394D02*
Y301181D01*
X95276Y298031D02*
Y303150D01*
Y298031D02*
X95366Y297941D01*
Y297892D02*
Y297941D01*
Y297892D02*
X96120Y297138D01*
X98425Y306299D02*
Y314961D01*
X95669Y287402D02*
X101181D01*
X107480Y281496D02*
X112205D01*
X101181Y281496D02*
X101181Y281496D01*
X104331Y266929D02*
Y294094D01*
X95669Y275590D02*
X101181D01*
X95669Y263779D02*
X101181D01*
X95669Y269685D02*
X101181D01*
X95669Y281496D02*
X101181D01*
X87795Y322067D02*
X91752D01*
X17717Y240158D02*
Y245276D01*
X15929Y239417D02*
Y244535D01*
X13173Y247291D02*
X15929Y244535D01*
X14961Y248031D02*
X17717Y245276D01*
X14961Y248031D02*
Y255906D01*
X14567Y327953D02*
X14622Y328008D01*
X7134Y329740D02*
X13992D01*
X4118Y326725D02*
X7134Y329740D01*
X7874Y327953D02*
X14567D01*
X5906Y325984D02*
X7874Y327953D01*
X5906Y264961D02*
Y325984D01*
X15929Y239417D02*
X23063Y232283D01*
X78528D01*
X17717Y240158D02*
X23803Y234071D01*
X79268D01*
X83071Y230268D01*
Y224803D02*
Y230268D01*
X78528Y232283D02*
X81283Y229528D01*
Y225543D02*
Y229528D01*
X76953Y221213D02*
X81283Y225543D01*
X78740Y220472D02*
X83071Y224803D01*
X64961Y214567D02*
X77953Y227559D01*
X64961Y142520D02*
Y214567D01*
X52256Y366429D02*
X52756Y366929D01*
X52756Y366929D01*
X52756Y366929D02*
X52756D01*
X21260Y345669D02*
X29921Y354331D01*
X52256Y361524D02*
Y366429D01*
X47244Y356512D02*
X52256Y361524D01*
X69685Y354331D02*
X69685Y354331D01*
X29921Y354331D02*
X69685D01*
X28559Y356512D02*
X47244D01*
X18898Y346850D02*
X28559Y356512D01*
X21260Y334646D02*
Y345669D01*
X18898Y334646D02*
Y346850D01*
X13992Y329740D02*
X18898Y334646D01*
X14622Y328008D02*
X21260Y334646D01*
X9055Y248819D02*
X13780Y244094D01*
Y237402D02*
Y244094D01*
Y237402D02*
X15748Y235433D01*
Y229528D02*
Y235433D01*
Y229528D02*
X27559Y217717D01*
Y143701D02*
Y217717D01*
X7874Y240158D02*
X13780Y234252D01*
X7874Y240158D02*
Y241535D01*
X13780Y228346D02*
Y234252D01*
Y228346D02*
X25591Y216535D01*
Y147638D02*
Y216535D01*
X267717Y70866D02*
X273622D01*
X277559Y66929D01*
X277656D01*
X289335Y55250D01*
Y52102D02*
Y55250D01*
Y52102D02*
X289370Y52067D01*
X177165Y38189D02*
X185039Y46063D01*
X185039D01*
X177165Y35433D02*
Y38189D01*
X186024Y22539D02*
Y26575D01*
X177165Y35433D02*
X186024Y26575D01*
X183071Y33071D02*
X187958Y28184D01*
X294882Y86614D02*
X306012D01*
X294882D02*
X294882D01*
X306890Y85736D02*
X306890Y85736D01*
X306012Y86614D02*
X306890Y85736D01*
X272638Y81791D02*
X272638Y81791D01*
X272638Y81791D02*
Y99410D01*
X169291Y52264D02*
X169291Y52264D01*
X169291Y52264D02*
Y66929D01*
X208661Y29134D02*
X216732D01*
X217028Y29429D01*
X291339Y52067D02*
Y57087D01*
X287402Y61024D02*
X291339Y57087D01*
X229921Y21654D02*
Y38189D01*
Y21654D02*
X231102Y20472D01*
X243953Y25091D02*
X244339Y24705D01*
X240902Y25091D02*
X243953D01*
X237214Y28778D02*
X240902Y25091D01*
X237214Y28778D02*
Y31743D01*
X235748Y33209D02*
X237214Y31743D01*
X183071Y33071D02*
Y33465D01*
X187958Y22574D02*
X187992Y22539D01*
X187958Y22574D02*
Y28185D01*
X218012Y27165D02*
Y28445D01*
X217028Y29429D02*
X218012Y28445D01*
Y27165D02*
X219587Y25591D01*
X223524D02*
X226772Y28839D01*
Y36955D01*
X219587Y25591D02*
X223524D01*
X225197Y43732D02*
X225590Y43339D01*
X238066D01*
X221555Y35335D02*
X225197Y38976D01*
X221555Y35138D02*
Y35335D01*
X225197Y38976D02*
Y43732D01*
X273622Y47047D02*
Y52067D01*
X267717Y47047D02*
X273622D01*
X248353Y43626D02*
X251394Y40585D01*
X247742Y32382D02*
X251394Y36033D01*
X250000Y37199D02*
Y40008D01*
X247742Y29823D02*
X252787Y34868D01*
X248930Y45020D02*
X252787Y41162D01*
X251394Y36033D02*
Y40585D01*
X252787Y34868D02*
Y41162D01*
X244339Y32382D02*
X247742D01*
X244339Y29823D02*
X247742D01*
X247775Y42232D02*
X250000Y40008D01*
X244339Y34941D02*
X247742D01*
X250000Y37199D01*
X239747Y45020D02*
X248930D01*
X240324Y43626D02*
X248353D01*
X240902Y42232D02*
X247775D01*
X279528Y52067D02*
Y57087D01*
X273622Y52067D02*
Y57087D01*
X279528D01*
X231762Y41945D02*
X238643D01*
X226772Y36955D02*
X231762Y41945D01*
X229921Y38189D02*
X232283Y40551D01*
X238066Y43339D02*
X239747Y45020D01*
X238643Y41945D02*
X240324Y43626D01*
X239221Y40551D02*
X240902Y42232D01*
X232283Y40551D02*
X239221D01*
X164370Y27559D02*
X170276D01*
X158465D02*
X164370D01*
X295276Y52067D02*
Y60827D01*
X293307Y52067D02*
Y60827D01*
X191929Y22539D02*
Y31299D01*
X189961Y22539D02*
Y31299D01*
X234252Y47047D02*
Y52067D01*
X267717Y47047D02*
Y52067D01*
X261811Y47047D02*
Y52067D01*
Y47047D02*
X267717D01*
X255906D02*
Y52067D01*
Y47047D02*
X256890D01*
X250000D02*
Y52067D01*
X234252Y47047D02*
X250000D01*
X255906D01*
X256890Y43110D02*
Y47047D01*
X261811D01*
X153543Y27559D02*
X158465D01*
X153543D02*
Y31496D01*
X146654Y27559D02*
X152559D01*
X130905D02*
X146654D01*
Y22539D02*
Y27559D01*
X152559D02*
X153543D01*
X152559Y22539D02*
Y27559D01*
X158465Y22539D02*
Y27559D01*
X164370Y22539D02*
Y27559D01*
X170276D02*
X176181D01*
X170276Y22539D02*
Y27559D01*
X176181Y22539D02*
Y27559D01*
X130905Y22539D02*
Y27559D01*
X125000Y22539D02*
Y31299D01*
X123031Y22539D02*
Y31299D01*
X306890Y85433D02*
Y85736D01*
X306890Y85433D02*
X306890Y85433D01*
X297488Y85433D02*
X306890D01*
X296260Y84203D02*
X297490Y85433D01*
X296260Y81791D02*
Y84203D01*
X294291Y81791D02*
Y86024D01*
X294882Y86614D01*
X292323Y81791D02*
Y86614D01*
X296260Y90551D01*
X123425Y57087D02*
X124016Y56496D01*
Y52264D02*
Y56496D01*
X110630Y55905D02*
Y56209D01*
X111508Y57087D02*
X123425D01*
X110630Y56209D02*
X111508Y57087D01*
X122047Y52264D02*
Y54675D01*
X110630Y55905D02*
X120817D01*
X122047Y54675D01*
X110630Y55905D02*
X110630Y55905D01*
X213707Y63027D02*
X215640Y64961D01*
X222441D01*
X228346Y59055D01*
Y52067D02*
Y59055D01*
X213707Y63027D02*
X222406D01*
X226378Y59055D01*
Y52067D02*
Y59055D01*
X188976Y57087D02*
X192913Y61024D01*
X188976Y52264D02*
Y57087D01*
X190945Y56496D02*
X191535Y57087D01*
X190945Y52264D02*
Y56496D01*
X204331Y55905D02*
Y56209D01*
X191535Y57087D02*
X203453D01*
X204331Y56209D01*
X192913Y52264D02*
Y54675D01*
X194143Y55905D02*
X204331D01*
X192913Y54675D02*
X194143Y55905D01*
X204331D02*
X204331Y55905D01*
X213976Y85433D02*
X213976Y85433D01*
X224164D02*
X225394Y84203D01*
X213976Y85433D02*
X224164D01*
X225394Y81791D02*
Y84203D01*
X213976Y85736D02*
X214854Y86614D01*
X226772D01*
X213976Y85433D02*
Y85736D01*
X227362Y81791D02*
Y86024D01*
X226772Y86614D02*
X227362Y86024D01*
X79527Y127953D02*
X108268D01*
X64961Y142520D02*
X79527Y127953D01*
X76953Y196110D02*
X80051Y193012D01*
X90551D01*
X76953Y196110D02*
Y221213D01*
X78740Y196850D02*
Y220472D01*
Y196850D02*
X80020Y195571D01*
X100394Y143701D02*
Y151575D01*
X86614Y205807D02*
X107036D01*
X217319Y291339D02*
X242518Y266140D01*
X196193Y288370D02*
X216089D01*
X240419Y264041D01*
X214860Y285402D02*
X238319Y261942D01*
X197425Y285402D02*
X214860D01*
X213630Y282433D02*
X236221Y259842D01*
X13780Y129921D02*
X27559Y143701D01*
X11024Y129921D02*
X13780D01*
X11024Y135827D02*
X13780D01*
X25591Y147638D01*
X23622Y151575D02*
Y215787D01*
X13780Y141732D02*
X23622Y151575D01*
X11024Y141732D02*
X13780D01*
X21654Y155905D02*
Y207756D01*
X11024Y147638D02*
X11347Y147961D01*
X13709D01*
X21654Y155905D01*
X19685Y159449D02*
Y199724D01*
X11024Y153543D02*
X13780D01*
X19685Y159449D01*
X13780D02*
X17717Y163386D01*
X11024Y159449D02*
X13780D01*
Y165354D02*
X15748Y167323D01*
X11024Y165354D02*
X13780D01*
X15748Y167323D02*
Y183661D01*
X7874Y231535D02*
X23622Y215787D01*
X7874Y221535D02*
X21654Y207756D01*
X17717Y163386D02*
Y191693D01*
X7874Y211535D02*
X19685Y199724D01*
X7874Y181535D02*
X11024Y178386D01*
Y171260D02*
Y178386D01*
X7874Y201535D02*
X17717Y191693D01*
X7874Y191535D02*
X15748Y183661D01*
X90551Y208366D02*
X105975D01*
X86614Y210925D02*
X104626D01*
X82677Y204626D02*
X86614Y200689D01*
X80020Y195571D02*
X86614D01*
X90551Y198130D02*
X134547D01*
X85335D02*
X90551D01*
X80709Y215354D02*
X88976Y223622D01*
X80709Y202756D02*
Y215354D01*
Y202756D02*
X85335Y198130D01*
X88189Y217323D02*
X88976D01*
X82677Y211811D02*
X88189Y217323D01*
X82677Y204626D02*
Y211811D01*
X42126Y375984D02*
X62205D01*
X34252Y377953D02*
X251969D01*
X291339Y375984D02*
X301181Y385827D01*
X26772Y381890D02*
X64882D01*
X77953Y362598D02*
Y366929D01*
X69685Y354331D02*
X77953Y362598D01*
X11811Y366929D02*
X26772Y381890D01*
X62205Y375984D02*
X81102D01*
X62205Y366929D02*
Y375984D01*
X81102D02*
X89882Y367205D01*
Y354331D02*
Y367205D01*
X37008Y370866D02*
X42126Y375984D01*
X37008Y366929D02*
Y370866D01*
X27559Y371260D02*
X34252Y377953D01*
X27559Y366929D02*
Y371260D01*
X251969Y377953D02*
X253937Y375984D01*
X291339D01*
X236221Y250000D02*
Y259842D01*
X240419Y255644D02*
Y264041D01*
Y255644D02*
X244094Y251969D01*
X238319Y251838D02*
X242126Y248031D01*
X301181Y385827D02*
X307087D01*
X242126Y244094D02*
X244094D01*
X236221Y250000D02*
X242126Y244094D01*
Y248031D02*
X246063D01*
X242518Y259451D02*
Y266140D01*
Y259451D02*
X246063Y255906D01*
D22*
X24803Y276535D02*
D03*
Y282835D02*
D03*
Y294646D02*
D03*
Y288347D02*
D03*
X104331Y233071D02*
D03*
Y239370D02*
D03*
Y300394D02*
D03*
Y294094D02*
D03*
X304331Y29134D02*
D03*
Y22835D02*
D03*
X298031Y22835D02*
D03*
Y29134D02*
D03*
X101969Y337402D02*
D03*
Y343701D02*
D03*
X108268D02*
D03*
Y337402D02*
D03*
D23*
X206142Y261299D02*
D03*
Y249882D02*
D03*
X309646Y103347D02*
D03*
Y91929D02*
D03*
X207087Y62402D02*
D03*
Y73819D02*
D03*
X211221Y91929D02*
D03*
Y103347D02*
D03*
X107874Y62402D02*
D03*
Y73819D02*
D03*
D24*
X51142Y262835D02*
D03*
Y268347D02*
D03*
X274213Y31890D02*
D03*
Y26378D02*
D03*
X208661Y29134D02*
D03*
Y34646D02*
D03*
D25*
X95669Y327953D02*
D03*
X101181D02*
D03*
X110630Y327953D02*
D03*
X105118D02*
D03*
X225197Y43732D02*
D03*
X219685D02*
D03*
X278346Y20866D02*
D03*
X272835D02*
D03*
X312402Y80315D02*
D03*
X306890D02*
D03*
X312402Y85433D02*
D03*
X306890D02*
D03*
X213976Y80315D02*
D03*
X208465D02*
D03*
X213976Y85433D02*
D03*
X208465D02*
D03*
X204331Y55512D02*
D03*
X209842D02*
D03*
X204331Y50787D02*
D03*
X209842D02*
D03*
X110630Y55512D02*
D03*
X105118D02*
D03*
X110630Y50787D02*
D03*
X105118D02*
D03*
D29*
X211811Y205709D02*
D03*
X205512D02*
D03*
X211811Y199803D02*
D03*
X205512D02*
D03*
X101181Y246063D02*
D03*
X107480D02*
D03*
X101181Y287402D02*
D03*
X107480D02*
D03*
X101181Y269685D02*
D03*
X107480D02*
D03*
X101181Y257874D02*
D03*
X107480D02*
D03*
X101181Y263779D02*
D03*
X107480D02*
D03*
X101181Y251969D02*
D03*
X107480D02*
D03*
X98425Y300394D02*
D03*
X92126D02*
D03*
X101181Y275590D02*
D03*
X107480D02*
D03*
X101181Y281496D02*
D03*
X107480D02*
D03*
X205118Y20472D02*
D03*
X211417D02*
D03*
X223622D02*
D03*
X217323D02*
D03*
X203543Y14173D02*
D03*
X209842D02*
D03*
X222047D02*
D03*
X215748D02*
D03*
X304331Y40551D02*
D03*
X298031D02*
D03*
Y34646D02*
D03*
X304331D02*
D03*
X237402Y20472D02*
D03*
X231102D02*
D03*
X274410Y41732D02*
D03*
X280709D02*
D03*
X11024Y165354D02*
D03*
Y159449D02*
D03*
Y153543D02*
D03*
Y129921D02*
D03*
Y135827D02*
D03*
Y141732D02*
D03*
Y147638D02*
D03*
Y171260D02*
D03*
X4724D02*
D03*
Y165354D02*
D03*
Y159449D02*
D03*
Y129921D02*
D03*
Y153543D02*
D03*
Y141732D02*
D03*
Y147638D02*
D03*
Y135827D02*
D03*
X95276Y223622D02*
D03*
X88976D02*
D03*
X95276Y217323D02*
D03*
X88976D02*
D03*
D39*
X73819Y297244D02*
D03*
X85236D02*
D03*
D41*
X39134Y104862D02*
D03*
X54134D02*
D03*
X69134D02*
D03*
X44134D02*
D03*
X49134D02*
D03*
X59134D02*
D03*
X64134D02*
D03*
D64*
X79213Y113917D02*
D03*
X29055D02*
D03*
X235748Y33209D02*
D03*
X285906D02*
D03*
D71*
X82677Y322372D02*
Y332677D01*
Y312067D02*
Y322372D01*
X51142Y319272D02*
X67123D01*
X70223Y322372D01*
X82677D01*
X11811Y276535D02*
X24803D01*
Y288347D02*
X39578D01*
X40523Y287402D01*
X41260D01*
X86614Y294882D02*
X92126Y300394D01*
X77323Y285591D02*
X86614Y294882D01*
X85236Y296260D02*
X86614Y294882D01*
X85236Y296260D02*
Y297244D01*
X51142Y268347D02*
Y275590D01*
X51142Y275590D02*
X51142Y275590D01*
Y255591D02*
Y262835D01*
X51142Y255591D02*
X51142Y255591D01*
X82677Y307303D02*
Y312067D01*
X87795D01*
X82913Y307067D02*
X87795D01*
X82677Y307303D02*
X82913Y307067D01*
X73819Y298445D02*
X82677Y307303D01*
X15748Y125984D02*
X23622Y133858D01*
X73819Y297244D02*
Y298445D01*
X76142Y285591D02*
X77323D01*
X101181Y327953D02*
X105118D01*
X101181Y327953D02*
Y327953D01*
Y324016D02*
Y327953D01*
X89370Y243307D02*
X92520Y240158D01*
X93307Y304724D02*
Y316142D01*
X92126Y303543D02*
X93307Y304724D01*
X92126Y300394D02*
Y303543D01*
X89370Y281496D02*
Y287402D01*
Y275590D02*
Y281496D01*
Y269685D02*
Y275590D01*
Y263779D02*
Y269685D01*
Y257874D02*
Y263779D01*
Y251969D02*
Y257874D01*
Y246063D02*
Y251969D01*
Y243307D02*
Y246063D01*
X93307Y316142D02*
X101181Y324016D01*
X87795Y317067D02*
X92382D01*
X93307Y316142D01*
X307087Y104728D02*
X308469Y103347D01*
X307087Y104728D02*
Y108268D01*
X308469Y103347D02*
X309646D01*
X310823D02*
X312205Y104728D01*
Y108268D01*
X309646Y103347D02*
X310823D01*
X309646D02*
Y108268D01*
X24528Y30118D02*
X34528D01*
X24528Y40118D02*
X34528D01*
X114173Y327953D02*
Y331496D01*
Y312067D02*
Y327953D01*
X108661D02*
X114173D01*
Y307067D02*
Y312067D01*
X107087D02*
X114173D01*
X108268Y337402D02*
X114173Y331496D01*
X107087Y307067D02*
X114173D01*
X82677Y332677D02*
X87401Y337402D01*
X101969D01*
X294291Y346575D02*
X300079Y352362D01*
X294291Y334646D02*
Y346575D01*
X290551Y275590D02*
X300394Y265748D01*
X261024Y275590D02*
X290551D01*
X251181Y265748D02*
X261024Y275590D01*
D72*
X133858Y279528D02*
X141732D01*
X196850Y334646D01*
X70866Y145669D02*
X120079Y194882D01*
X70866Y142520D02*
Y145669D01*
X312205Y74409D02*
Y83712D01*
X115157Y61024D02*
X118110Y63976D01*
X118110D02*
X121063Y61024D01*
X118110Y63976D02*
X118110D01*
X115157D02*
X118110D01*
X118110D02*
X121063D01*
Y61024D02*
Y63976D01*
X110207Y61270D02*
X110630Y60847D01*
X109075Y62402D02*
X110207Y61270D01*
X114911D01*
X109006D02*
X110207D01*
X107874Y62402D02*
X109006Y61270D01*
X114911D02*
X115157Y61024D01*
X118110D02*
X121063D01*
X115157D02*
X118110D01*
X107874Y62402D02*
X109006Y63534D01*
X107874Y62402D02*
X107874Y62402D01*
X109006Y63534D02*
X114715D01*
X115157Y63976D01*
X104331Y40748D02*
X107283Y37795D01*
X103740Y47244D02*
X110236Y40748D01*
X107480Y37795D02*
X110335Y40650D01*
X107283Y37795D02*
Y40748D01*
X104331D02*
X107283D01*
X104331D02*
X104331D01*
X101378D02*
X104331D01*
X101378Y37795D02*
X104331Y40748D01*
X101378Y37795D02*
Y40748D01*
X107283D02*
X110236D01*
X110335Y40650D01*
X113583Y37402D01*
X107283Y37795D02*
X107480D01*
X104331D02*
X107283D01*
X101378D02*
X104331D01*
X287598Y64961D02*
X290551Y67913D01*
X290551D02*
X293504Y64961D01*
X290551Y67913D02*
X290551D01*
X287598D02*
X290551D01*
X290551D02*
X293504D01*
X294026D01*
X296978Y64961D01*
X297013Y64926D02*
X299734Y67648D01*
X294291Y62205D02*
X297013Y64926D01*
X296978Y64961D02*
X297013Y64926D01*
X293504Y64961D02*
X296978D01*
X290551D02*
X293504D01*
X287598D02*
X290551D01*
X287598D02*
Y67913D01*
X299734Y67648D02*
X305443D01*
X306890Y85736D02*
Y89370D01*
Y85433D02*
Y85736D01*
Y80315D02*
Y85433D01*
X305445Y67648D02*
X312205Y74409D01*
X205443Y38120D02*
X212205Y44882D01*
X196388Y38120D02*
X205443D01*
X54134Y96457D02*
X69134D01*
X39134D02*
X54134D01*
Y104862D01*
X39134Y96457D02*
Y104862D01*
X69134Y96457D02*
Y104862D01*
X29055Y113917D02*
X34769Y108203D01*
X39134Y104862D02*
Y107682D01*
X34769Y108203D02*
X38612D01*
X39134Y107682D01*
X69134D02*
X69656Y108203D01*
X73499D01*
X69134Y104862D02*
Y107682D01*
X73499Y108203D02*
X79213Y113917D01*
X306102Y47244D02*
Y47539D01*
X301575Y52067D02*
Y55118D01*
X215551Y47539D02*
X220079Y52067D01*
Y55118D01*
X215551Y47244D02*
Y47539D01*
X301575Y52067D02*
X306102Y47539D01*
X212205Y44882D02*
Y54184D01*
X211221Y55168D02*
X212205Y54184D01*
X209842Y55512D02*
Y55905D01*
Y50787D02*
Y55512D01*
X105118Y50787D02*
Y55905D01*
X103740Y47244D02*
Y55168D01*
X190945Y32677D02*
X196388Y38120D01*
X294291Y60827D02*
Y62205D01*
Y60827D02*
X295276D01*
X293307D02*
X294291D01*
X190945Y31299D02*
Y32677D01*
Y31299D02*
X191929D01*
X189961D02*
X190945D01*
X112205Y33169D02*
X116732Y28642D01*
X113583Y37402D02*
X119291D01*
X124016Y31299D02*
X125000D01*
X123031D02*
X124016D01*
Y32677D01*
X119291Y37402D02*
X124016Y32677D01*
X202756Y33169D02*
Y33465D01*
X198228Y25591D02*
Y28642D01*
X202756Y33169D01*
X116732Y25591D02*
Y28642D01*
X112205Y33169D02*
Y33465D01*
X305709Y90551D02*
X306890Y89370D01*
X204331Y55512D02*
Y59842D01*
X110630Y56209D02*
Y60847D01*
Y50787D02*
Y55905D01*
X213976Y80315D02*
Y85433D01*
Y85736D02*
Y90374D01*
X212421Y91929D02*
X213976Y90374D01*
X204331Y50787D02*
Y55512D01*
X203150Y61024D02*
X204331Y59842D01*
X208465Y80315D02*
Y85433D01*
Y74951D02*
Y80315D01*
X207333Y73819D02*
X208465Y74951D01*
X207087Y73819D02*
X207333D01*
X196850Y334646D02*
X210039D01*
D73*
X156142Y235591D02*
X206142D01*
X41260Y295276D02*
X61024D01*
X51142Y287402D02*
X61024D01*
X41260D02*
X51142D01*
X11811Y276535D02*
Y309449D01*
Y267717D02*
Y276535D01*
Y309449D02*
X21634Y319272D01*
X51142D01*
X11811Y267717D02*
X26142Y253386D01*
Y245590D02*
Y253386D01*
X61024Y287402D02*
Y295276D01*
X51142Y287402D02*
Y291910D01*
Y275590D02*
Y287402D01*
X41260D02*
Y295276D01*
X51142Y275590D02*
X76142Y285591D01*
X26142Y265591D02*
X51142Y275590D01*
Y255591D02*
X76142Y265591D01*
X26142Y245590D02*
X51142Y255591D01*
D74*
X299213Y97441D02*
X302165D01*
X296260D02*
X299213D01*
X302165Y94488D02*
Y97441D01*
Y91732D02*
Y94488D01*
X299213D02*
X302165D01*
X296260D02*
Y97441D01*
Y90551D02*
Y94488D01*
X300984Y90551D02*
X305709D01*
X296260D02*
X300984D01*
X302165Y91732D01*
X296260Y90551D02*
X296260D01*
X196850Y74803D02*
Y78740D01*
X192913Y70866D02*
Y74803D01*
X196850Y70866D02*
Y74803D01*
X192913Y70866D02*
X196850D01*
X192913Y74803D02*
Y82677D01*
X183071Y70866D02*
Y82677D01*
Y70866D02*
X192913Y61024D01*
X203150D01*
X226378Y96457D02*
Y104331D01*
X230315Y92520D02*
Y100394D01*
X218504Y112205D02*
X226378Y104331D01*
X206693Y112205D02*
X218504D01*
X192913Y92520D02*
Y98425D01*
X206693Y112205D01*
X192913Y82677D02*
X196850Y78740D01*
X183071Y82677D02*
X192913Y92520D01*
X220472D02*
X224410Y96457D01*
X226378D01*
X230315Y92520D01*
X226378Y104331D02*
X230315Y100394D01*
D75*
X206142Y235591D02*
Y249882D01*
Y261299D02*
Y275590D01*
X64882Y381890D02*
X255079D01*
D76*
X95276Y217323D02*
X104331D01*
X262129Y34033D02*
X263779Y32382D01*
X259842Y37168D02*
Y37402D01*
Y37168D02*
X262129Y34882D01*
Y34033D02*
Y34882D01*
X267472Y32382D02*
X274213D01*
X263779D02*
X267472D01*
X310236Y34646D02*
X310236Y34646D01*
X304331Y34646D02*
X310236D01*
X304331D02*
Y40551D01*
X272835Y20472D02*
X277559Y15748D01*
X283465D01*
X272835Y20472D02*
Y20866D01*
X272207Y21888D02*
X272835Y21260D01*
X271555Y22146D02*
X271813Y21888D01*
X272835Y20866D02*
Y21260D01*
X271813Y21888D02*
X272207D01*
X267472Y22146D02*
X271555D01*
X257874Y33465D02*
Y33465D01*
Y33465D02*
X261516Y29823D01*
X267472D01*
X198819Y14173D02*
X203543D01*
Y18701D01*
X205118Y20276D02*
Y20472D01*
X203543Y18701D02*
X205118Y20276D01*
X208908Y34892D02*
X216781D01*
X208661Y34646D02*
X208908Y34892D01*
X217028Y40681D02*
X219685Y43339D01*
X216142Y42286D02*
X217028Y41401D01*
X216142Y42286D02*
Y42520D01*
X217028Y40681D02*
Y41401D01*
X237169Y20705D02*
Y24691D01*
X235748Y26112D02*
X237169Y24691D01*
X235748Y26112D02*
Y33209D01*
X237169Y20705D02*
X237402Y20472D01*
X240039Y37500D02*
X244339D01*
X235748Y33209D02*
X240039Y37500D01*
X224644Y19202D02*
Y19451D01*
Y19202D02*
X225522Y18323D01*
X223069Y15195D02*
Y15444D01*
X223948Y16323D01*
X222047Y14173D02*
X223069Y15195D01*
X223622Y20472D02*
X224644Y19451D01*
X225522Y18323D02*
X226944D01*
X226115Y16323D02*
X230627Y11811D01*
X223948Y16323D02*
X226115D01*
X226944Y18323D02*
X231456Y13811D01*
X256944Y26984D02*
X263788D01*
X243771Y13811D02*
X256944Y26984D01*
X257772Y24984D02*
X263788D01*
X244599Y11811D02*
X257772Y24984D01*
X230627Y11811D02*
X244599D01*
X231456Y13811D02*
X243771D01*
X263788Y24984D02*
X263932Y24840D01*
X267337D01*
X263788Y26984D02*
X263932Y27128D01*
X267337Y24840D02*
X267472Y24705D01*
X267337Y27128D02*
X267472Y27264D01*
X263932Y27128D02*
X267337D01*
X216781Y34892D02*
X217028Y35138D01*
X219685Y43339D02*
Y43732D01*
X217028Y35138D02*
Y40681D01*
X277718Y21494D02*
Y23266D01*
X274213Y26378D02*
X274606D01*
X277718Y23266D01*
Y21494D02*
X278346Y20866D01*
X274213Y31890D02*
Y32382D01*
X277034Y37220D02*
X280037Y34217D01*
X271013Y37364D02*
X271157Y37220D01*
X280037Y30778D02*
Y34217D01*
X271157Y35221D02*
X276206D01*
X271157Y37220D02*
X277034D01*
X278037Y29950D02*
Y33389D01*
X276206Y35221D02*
X278037Y33389D01*
X271013Y29687D02*
X273191Y27509D01*
Y27006D02*
X273819Y26378D01*
X274213D01*
X267472Y29823D02*
X267608Y29687D01*
X271013D01*
X273191Y27006D02*
Y27509D01*
X284535Y34579D02*
X285906Y33209D01*
X284535Y34579D02*
Y37709D01*
X280709Y41535D02*
X284535Y37709D01*
X280709Y41535D02*
Y41732D01*
X274410Y41535D02*
Y41732D01*
X272933Y40059D02*
X274410Y41535D01*
X267472Y40059D02*
X272933D01*
X299081Y17970D02*
X300181Y19070D01*
X302181Y20934D02*
X303060Y21813D01*
X303309D01*
X300181Y19070D02*
Y20934D01*
X299053Y21813D02*
X299302D01*
X300181Y20934D01*
X303309Y21813D02*
X304331Y22835D01*
X302181Y18241D02*
Y20934D01*
X299910Y15970D02*
X302181Y18241D01*
X298031Y22835D02*
X299053Y21813D01*
X280037Y30778D02*
X292845Y17970D01*
X278037Y29950D02*
X292017Y15970D01*
X292845Y17970D02*
X299081D01*
X292017Y15970D02*
X299910D01*
X271013Y35077D02*
X271157Y35221D01*
X267472Y34941D02*
X267608Y35077D01*
X267472Y37500D02*
X267608Y37364D01*
Y35077D02*
X271013D01*
X267608Y37364D02*
X271013D01*
X4724Y165354D02*
Y171260D01*
Y159449D02*
Y165354D01*
Y153543D02*
Y159449D01*
Y147638D02*
Y153543D01*
Y141732D02*
Y147638D01*
Y135827D02*
Y141732D01*
Y129921D02*
Y135827D01*
Y127165D02*
Y129921D01*
Y127165D02*
X7874Y124016D01*
X169106Y328740D02*
X195484Y355118D01*
X145669Y328740D02*
X145669D01*
X130709Y343701D02*
X145669Y328740D01*
X167514Y327148D02*
X169106Y328740D01*
X169106D01*
X147262Y327148D02*
X167514D01*
X145669Y328740D02*
X147262Y327148D01*
X165262Y332585D02*
X192445Y359768D01*
X149514Y332585D02*
X165262D01*
X132961Y349138D02*
X149514Y332585D01*
X95276Y217323D02*
Y223622D01*
X104331Y217323D02*
Y218110D01*
X284965Y359768D02*
X305118Y379921D01*
X192445Y359768D02*
X284965D01*
X195484Y355118D02*
X295079D01*
X112598Y343701D02*
X130709D01*
X106016Y349138D02*
X132961D01*
X102831Y345953D02*
X106016Y349138D01*
X102831Y344451D02*
Y345953D01*
X102719Y344451D02*
X102831D01*
X101969Y343701D02*
X102719Y344451D01*
X112598Y343701D02*
X112598Y343701D01*
X108268Y343701D02*
X112598D01*
D77*
X107874Y62402D02*
X109075D01*
X107874D02*
X107874D01*
X207333Y73819D02*
X208287D01*
X207087D02*
Y84696D01*
X307067Y90551D02*
X308445Y91929D01*
X309646D01*
X305709Y90551D02*
X307067D01*
X204508Y61024D02*
X205886Y62402D01*
X207087D01*
X203150Y61024D02*
X204508D01*
X106673Y73819D02*
X107874D01*
X101254Y57655D02*
X103740Y55168D01*
X101254Y57655D02*
Y68400D01*
X106673Y73819D01*
X213707Y63027D02*
Y68400D01*
Y57655D02*
Y63027D01*
X211221Y55168D02*
X213707Y57655D01*
X208287Y73819D02*
X213707Y68400D01*
X212421Y91929D02*
X219882D01*
X211221D02*
X212421D01*
X219882D02*
X220472Y92520D01*
X204600Y97927D02*
X210020Y103347D01*
X204600Y87182D02*
Y97927D01*
Y87182D02*
X207087Y84696D01*
X210020Y103347D02*
X211221D01*
X196850Y74803D02*
X197835Y73819D01*
X207087D01*
X39882Y387795D02*
X257874D01*
X29882D02*
X39882D01*
X257874D02*
X265748Y379921D01*
X275079D01*
D78*
X214608Y15314D02*
Y16488D01*
Y15314D02*
X215748Y14173D01*
X215075Y18520D02*
X218182D01*
X211311Y20366D02*
X211417Y20472D01*
X211311Y17949D02*
X211666Y17594D01*
X211311Y17949D02*
Y20366D01*
X218182Y18520D02*
X219185Y17516D01*
X214149Y17594D02*
X215075Y18520D01*
X211666Y17594D02*
X214149D01*
X211311Y15642D02*
Y16132D01*
X209842Y14173D02*
X211311Y15642D01*
X219185Y11753D02*
Y17516D01*
X211666Y16488D02*
X214608D01*
X215533Y17413D01*
X217724D01*
X211311Y16132D02*
X211666Y16488D01*
X217724Y17413D02*
X218079Y17058D01*
Y11295D02*
Y17058D01*
X219185Y11753D02*
X219930Y11008D01*
Y9139D02*
Y11008D01*
X218824Y9597D02*
Y10550D01*
X218079Y11295D02*
X218824Y10550D01*
X217559Y6768D02*
X219930Y9139D01*
X217101Y7874D02*
X218824Y9597D01*
X184486Y7874D02*
X217101D01*
X172675Y18121D02*
X184028Y6768D01*
X217559D01*
X172675Y18121D02*
Y19239D01*
X172354Y19560D02*
X172675Y19239D01*
X172354Y19560D02*
Y22429D01*
X172244Y22539D02*
X172354Y22429D01*
X173782Y18579D02*
Y19239D01*
Y18579D02*
X184486Y7874D01*
X174103Y22429D02*
X174213Y22539D01*
X174103Y19560D02*
Y22429D01*
X173782Y19239D02*
X174103Y19560D01*
X297835Y40157D02*
X298425D01*
X297835Y35039D02*
X298425D01*
X296563Y36311D02*
Y36690D01*
Y36311D02*
X297835Y35039D01*
X296208Y37045D02*
X296563Y36690D01*
X294947Y37045D02*
X296208D01*
X286642Y45351D02*
X294947Y37045D01*
X296563Y38886D02*
X297835Y40157D01*
X296563Y38507D02*
Y38886D01*
X287100Y46457D02*
X295405Y38151D01*
X296208D01*
X296563Y38507D01*
X278320Y45351D02*
X286642D01*
X276022Y47648D02*
X278320Y45351D01*
X275701Y49088D02*
X276022Y48766D01*
Y47648D02*
Y48766D01*
X275701Y49088D02*
Y51957D01*
X275591Y52067D02*
X275701Y51957D01*
X278778Y46457D02*
X287100D01*
X277128Y48107D02*
X278778Y46457D01*
X277449Y51957D02*
X277559Y52067D01*
X277128Y48107D02*
Y48766D01*
X277449Y49088D01*
Y51957D01*
X298031Y34646D02*
X298425Y35039D01*
X298031Y40551D02*
X298425Y40157D01*
Y38114D02*
Y40157D01*
Y35039D02*
Y37008D01*
X301469Y32225D02*
Y37072D01*
X298425Y38114D02*
X300427D01*
X301469Y37072D01*
X298425Y37008D02*
X299969D01*
X300362Y36614D01*
Y31767D02*
Y36614D01*
X299426Y30529D02*
X300273D01*
X300628Y30884D01*
X300362Y31767D02*
X300628Y31502D01*
Y30884D02*
Y31502D01*
X302089Y30529D02*
X302936D01*
X304331Y29134D01*
X301734Y30884D02*
X302089Y30529D01*
X301469Y32225D02*
X301734Y31960D01*
Y30884D02*
Y31960D01*
X298031Y29134D02*
X299426Y30529D01*
X162292Y22429D02*
X162402Y22539D01*
X162292Y19560D02*
Y22429D01*
X161970Y19239D02*
X162292Y19560D01*
X161970Y18121D02*
Y19239D01*
X160967Y17118D02*
X161970Y18121D01*
X114780Y17118D02*
X160967D01*
X97240Y34657D02*
X114780Y17118D01*
X97240Y34657D02*
Y106479D01*
X82314Y121405D02*
X97240Y106479D01*
X57639Y121405D02*
X82314D01*
X47187Y110954D02*
X57639Y121405D01*
X47187Y109639D02*
Y110954D01*
Y109639D02*
X47542Y109283D01*
X47665D01*
X49134Y107815D01*
Y104862D02*
Y107815D01*
X160433Y22539D02*
X160543Y22429D01*
Y19560D02*
Y22429D01*
X160864Y18579D02*
Y19239D01*
X160509Y18224D02*
X160864Y18579D01*
X98347Y35115D02*
Y106937D01*
X57180Y122511D02*
X82772D01*
X46081Y111412D02*
X57180Y122511D01*
X46081Y109639D02*
Y111412D01*
X45726Y109283D02*
X46081Y109639D01*
X45602Y109283D02*
X45726D01*
X44134Y107815D02*
X45602Y109283D01*
X44134Y104862D02*
Y107815D01*
X82772Y122511D02*
X98347Y106937D01*
Y35115D02*
X115238Y18224D01*
X160543Y19560D02*
X160864Y19239D01*
X115238Y18224D02*
X160509D01*
X59134Y104862D02*
Y107815D01*
X60602Y109283D01*
X60726D01*
X61081Y109639D01*
Y111412D01*
X64850Y115181D01*
X70870D01*
X76134Y120445D01*
X81916D01*
X93209Y109152D01*
Y31821D02*
Y109152D01*
Y31821D02*
X109380Y15650D01*
X163841D01*
X166770Y18579D01*
Y19239D01*
X166449Y19560D02*
X166770Y19239D01*
X166449Y19560D02*
Y22429D01*
X166339Y22539D02*
X166449Y22429D01*
X64134Y104862D02*
Y107815D01*
X62665Y109283D02*
X64134Y107815D01*
X62542Y109283D02*
X62665D01*
X62187Y110954D02*
X65308Y114075D01*
X71329D01*
X76592Y119339D02*
X81458D01*
X92103Y108694D01*
Y31363D02*
Y108694D01*
Y31363D02*
X108922Y14544D01*
X164299D01*
X167876Y18121D01*
Y19239D01*
X168197Y19560D01*
Y22429D01*
X168307Y22539D01*
X62187Y109639D02*
X62542Y109283D01*
X62187Y109639D02*
Y110954D01*
X71329Y114075D02*
X76592Y119339D01*
X268898Y61801D02*
X270074Y60625D01*
X265748Y62142D02*
X268047Y59842D01*
X269291D01*
X265748Y62142D02*
Y62205D01*
X268898Y61801D02*
Y62205D01*
X270074Y60625D02*
X271222Y59476D01*
X269795Y52177D02*
Y55046D01*
X271544Y52177D02*
Y55046D01*
X270116Y55368D02*
Y59018D01*
X269685Y52067D02*
X269795Y52177D01*
X271222Y55368D02*
Y59476D01*
X269795Y55046D02*
X270116Y55368D01*
X269291Y59842D02*
X270116Y59018D01*
X271544Y52177D02*
X271654Y52067D01*
X271222Y55368D02*
X271544Y55046D01*
X256933Y61902D02*
X258571D01*
X254724Y64110D02*
Y64173D01*
X257874Y64163D02*
Y64173D01*
Y64163D02*
X265317Y56720D01*
X254724Y64110D02*
X256933Y61902D01*
X258571D02*
X259449Y61024D01*
X264211Y56262D01*
X263890Y55046D02*
X264211Y55368D01*
Y56262D01*
X265638Y52177D02*
X265748Y52067D01*
X265317Y55368D02*
X265638Y55046D01*
X265317Y55368D02*
Y56720D01*
X265638Y52177D02*
Y55046D01*
X263890Y52177D02*
Y55046D01*
X263780Y52067D02*
X263890Y52177D01*
D80*
X156142Y275590D02*
D03*
Y315591D02*
D03*
X76142D02*
D03*
X156142Y235591D02*
D03*
X76142Y285591D02*
D03*
X206142Y275590D02*
D03*
Y235591D02*
D03*
Y315591D02*
D03*
X26142Y305591D02*
D03*
Y265591D02*
D03*
D81*
Y245590D02*
D03*
X76142Y265591D02*
D03*
D82*
X83740Y60118D02*
D03*
Y50118D02*
D03*
Y40118D02*
D03*
Y30118D02*
D03*
X73740Y70118D02*
D03*
Y60118D02*
D03*
Y50118D02*
D03*
Y40118D02*
D03*
Y30118D02*
D03*
Y80118D02*
D03*
X83740Y70118D02*
D03*
Y80118D02*
D03*
X34528D02*
D03*
Y70118D02*
D03*
X24528Y80118D02*
D03*
Y30118D02*
D03*
Y40118D02*
D03*
Y50118D02*
D03*
Y60118D02*
D03*
Y70118D02*
D03*
X34528Y30118D02*
D03*
Y40118D02*
D03*
Y50118D02*
D03*
Y60118D02*
D03*
D83*
X260827Y231299D02*
D03*
X157480Y201772D02*
D03*
Y351378D02*
D03*
D84*
X7874Y181535D02*
D03*
Y191535D02*
D03*
Y211535D02*
D03*
Y231535D02*
D03*
Y241535D02*
D03*
Y221535D02*
D03*
Y201535D02*
D03*
D85*
Y251535D02*
D03*
D86*
X221260Y265748D02*
D03*
X251181D02*
D03*
X270472D02*
D03*
X300394D02*
D03*
D87*
X206142Y295590D02*
D03*
X133858Y279528D02*
D03*
X120079Y194882D02*
D03*
X135827Y181496D02*
D03*
Y179134D02*
D03*
X133858Y192913D02*
D03*
Y190551D02*
D03*
X226378Y229331D02*
D03*
X224410Y225394D02*
D03*
X226378Y221457D02*
D03*
X224410Y217520D02*
D03*
X112205Y246063D02*
D03*
X92520Y240158D02*
D03*
X99213Y227559D02*
D03*
X112205Y281496D02*
D03*
Y287402D02*
D03*
Y275590D02*
D03*
Y269685D02*
D03*
Y263779D02*
D03*
Y257874D02*
D03*
Y251969D02*
D03*
X77953Y227559D02*
D03*
X50788Y219291D02*
D03*
X259842Y37402D02*
D03*
X106299Y162205D02*
D03*
X267717Y70866D02*
D03*
X185039Y46063D02*
D03*
X183071Y33465D02*
D03*
X165354Y62992D02*
D03*
X115157Y61024D02*
D03*
X118110D02*
D03*
X121063D02*
D03*
Y63976D02*
D03*
X118110D02*
D03*
X115157D02*
D03*
X101378Y37795D02*
D03*
X104331D02*
D03*
X107283D02*
D03*
Y40748D02*
D03*
X104331D02*
D03*
X101378D02*
D03*
X188976Y39370D02*
D03*
X287598Y64961D02*
D03*
X290551D02*
D03*
X293504D02*
D03*
Y67913D02*
D03*
X290551D02*
D03*
X287598D02*
D03*
X296260Y97441D02*
D03*
X299213D02*
D03*
X302165D02*
D03*
Y94488D02*
D03*
X299213D02*
D03*
X296260D02*
D03*
X272638Y99410D02*
D03*
X169291Y66929D02*
D03*
X310236Y34646D02*
D03*
X257874Y33465D02*
D03*
X283465Y15748D02*
D03*
X198819Y14173D02*
D03*
X216142Y42520D02*
D03*
X287402Y61024D02*
D03*
X307087Y108268D02*
D03*
X312205D02*
D03*
X309646D02*
D03*
X306102Y47244D02*
D03*
X215551D02*
D03*
X256890Y43110D02*
D03*
X153543Y31496D02*
D03*
X202756Y33465D02*
D03*
X112205D02*
D03*
X265748Y62205D02*
D03*
X268898D02*
D03*
X254724Y64173D02*
D03*
X257874D02*
D03*
X37795Y153543D02*
D03*
X41929D02*
D03*
X15748Y125984D02*
D03*
X23622Y133858D02*
D03*
X108268Y127953D02*
D03*
X222835Y118110D02*
D03*
X223228Y129921D02*
D03*
X220079D02*
D03*
X144095Y176378D02*
D03*
X153543Y371654D02*
D03*
X166142Y374016D02*
D03*
X163386D02*
D03*
X7874Y124016D02*
D03*
X70866Y142520D02*
D03*
X133858Y157480D02*
D03*
X107480Y150787D02*
D03*
X94488Y187008D02*
D03*
X88583Y188976D02*
D03*
X96457Y155512D02*
D03*
X88583Y143701D02*
D03*
X108268D02*
D03*
X100394D02*
D03*
Y151575D02*
D03*
X183071Y92520D02*
D03*
X92520Y181102D02*
D03*
X33465Y198819D02*
D03*
X141732Y145669D02*
D03*
X153543Y114173D02*
D03*
X121654Y97244D02*
D03*
X122603Y128902D02*
D03*
X123256Y124759D02*
D03*
X125984Y88583D02*
D03*
X90551Y203248D02*
D03*
Y208366D02*
D03*
X86614Y210925D02*
D03*
Y205807D02*
D03*
Y200689D02*
D03*
Y195571D02*
D03*
X90551Y198130D02*
D03*
X104331Y218110D02*
D03*
X300079Y352362D02*
D03*
X244094Y251969D02*
D03*
X307087Y385827D02*
D03*
X90551Y193012D02*
D03*
X305118Y379921D02*
D03*
X295079Y355118D02*
D03*
X246063Y248031D02*
D03*
X244094Y244094D02*
D03*
X246063Y255906D02*
D03*
D88*
X9882Y319685D02*
D03*
Y324016D02*
D03*
X41260Y295276D02*
D03*
Y287402D02*
D03*
X61024D02*
D03*
Y295276D02*
D03*
X87008Y328740D02*
D03*
X192913Y82677D02*
D03*
X196850Y78740D02*
D03*
X192913Y74803D02*
D03*
X196850Y70866D02*
D03*
X226378Y104331D02*
D03*
X230315Y100394D02*
D03*
Y92520D02*
D03*
X226378Y96457D02*
D03*
X177165Y361811D02*
D03*
X173228D02*
D03*
X141732D02*
D03*
X64882Y381890D02*
D03*
X29882Y387795D02*
D03*
X39882D02*
D03*
X94882Y354331D02*
D03*
X89882D02*
D03*
X9882Y385827D02*
D03*
X19882D02*
D03*
X275079Y379921D02*
D03*
X255079Y381890D02*
D03*
D89*
X87795Y307067D02*
D03*
Y312067D02*
D03*
Y317067D02*
D03*
Y322067D02*
D03*
X109055Y307067D02*
D03*
Y312067D02*
D03*
Y317067D02*
D03*
Y322067D02*
D03*
D90*
X51142Y291910D02*
D03*
Y319272D02*
D03*
D91*
X95669Y287402D02*
D03*
X89370D02*
D03*
X95669Y281496D02*
D03*
X89370D02*
D03*
X95669Y275590D02*
D03*
X89370D02*
D03*
X95669Y269685D02*
D03*
X89370D02*
D03*
X95669Y251969D02*
D03*
X89370D02*
D03*
X95669Y257874D02*
D03*
X89370D02*
D03*
X95669Y246063D02*
D03*
X89370D02*
D03*
X95669Y263779D02*
D03*
X89370D02*
D03*
D92*
X193898Y22539D02*
D03*
X192913Y52264D02*
D03*
X191929Y22539D02*
D03*
X190945Y52264D02*
D03*
X189961Y22539D02*
D03*
X188976Y52264D02*
D03*
X187992Y22539D02*
D03*
X187008Y52264D02*
D03*
X186024Y22539D02*
D03*
X185039Y52264D02*
D03*
X184055Y22539D02*
D03*
X183071Y52264D02*
D03*
X182087Y22539D02*
D03*
X181102Y52264D02*
D03*
X180118Y22539D02*
D03*
X179134Y52264D02*
D03*
X178150Y22539D02*
D03*
X177165Y52264D02*
D03*
X176181Y22539D02*
D03*
X175197Y52264D02*
D03*
X174213Y22539D02*
D03*
X173228Y52264D02*
D03*
X172244Y22539D02*
D03*
X171260Y52264D02*
D03*
X170276Y22539D02*
D03*
X169291Y52264D02*
D03*
X167323D02*
D03*
X166339Y22539D02*
D03*
X165354Y52264D02*
D03*
X164370Y22539D02*
D03*
X163386Y52264D02*
D03*
X161417D02*
D03*
X160433Y22539D02*
D03*
X159449Y52264D02*
D03*
X158465Y22539D02*
D03*
X157480Y52264D02*
D03*
X156496Y22539D02*
D03*
X155512Y52264D02*
D03*
X154528Y22539D02*
D03*
X153543Y52264D02*
D03*
X152559Y22539D02*
D03*
X151575Y52264D02*
D03*
X150591Y22539D02*
D03*
X149606Y52264D02*
D03*
X148622Y22539D02*
D03*
X147638Y52264D02*
D03*
X146654Y22539D02*
D03*
X145669Y52264D02*
D03*
X144685Y22539D02*
D03*
X143701Y52264D02*
D03*
X142717Y22539D02*
D03*
X141732Y52264D02*
D03*
X140748Y22539D02*
D03*
X139764Y52264D02*
D03*
X138779Y22539D02*
D03*
X137795Y52264D02*
D03*
X136811Y22539D02*
D03*
X135827Y52264D02*
D03*
X134843Y22539D02*
D03*
X133858Y52264D02*
D03*
X132874Y22539D02*
D03*
X131890Y52264D02*
D03*
X130905Y22539D02*
D03*
X129921Y52264D02*
D03*
X128937Y22539D02*
D03*
X127953Y52264D02*
D03*
X126969Y22539D02*
D03*
X125984Y52264D02*
D03*
X125000Y22539D02*
D03*
X124016Y52264D02*
D03*
X123031Y22539D02*
D03*
X122047Y52264D02*
D03*
X121063Y22539D02*
D03*
X162402D02*
D03*
X168307D02*
D03*
X224410Y52067D02*
D03*
X225394Y81791D02*
D03*
X226378Y52067D02*
D03*
X227362Y81791D02*
D03*
X228346Y52067D02*
D03*
X229331Y81791D02*
D03*
X230315Y52067D02*
D03*
X231299Y81791D02*
D03*
X232283Y52067D02*
D03*
X233268Y81791D02*
D03*
X234252Y52067D02*
D03*
X235236Y81791D02*
D03*
X236221Y52067D02*
D03*
X237205Y81791D02*
D03*
X238189Y52067D02*
D03*
X239173Y81791D02*
D03*
X240158Y52067D02*
D03*
X241142Y81791D02*
D03*
X242126Y52067D02*
D03*
X243110Y81791D02*
D03*
X244094Y52067D02*
D03*
X245079Y81791D02*
D03*
X246063Y52067D02*
D03*
X247047Y81791D02*
D03*
X248031Y52067D02*
D03*
X249016Y81791D02*
D03*
X250000Y52067D02*
D03*
X250984Y81791D02*
D03*
X251969Y52067D02*
D03*
X252953Y81791D02*
D03*
X253937Y52067D02*
D03*
X254921Y81791D02*
D03*
X255906Y52067D02*
D03*
X256890Y81791D02*
D03*
X257874Y52067D02*
D03*
X258858Y81791D02*
D03*
X259842Y52067D02*
D03*
X260827Y81791D02*
D03*
X261811Y52067D02*
D03*
X262795Y81791D02*
D03*
X263780Y52067D02*
D03*
X264764Y81791D02*
D03*
X265748Y52067D02*
D03*
X266732Y81791D02*
D03*
X267717Y52067D02*
D03*
X268701Y81791D02*
D03*
X269685Y52067D02*
D03*
X270669Y81791D02*
D03*
X271654Y52067D02*
D03*
X272638Y81791D02*
D03*
X273622Y52067D02*
D03*
X274606Y81791D02*
D03*
X275591Y52067D02*
D03*
X276575Y81791D02*
D03*
X277559Y52067D02*
D03*
X278543Y81791D02*
D03*
X279528Y52067D02*
D03*
X280512Y81791D02*
D03*
X281496Y52067D02*
D03*
X282480Y81791D02*
D03*
X283465Y52067D02*
D03*
X284449Y81791D02*
D03*
X285433Y52067D02*
D03*
X286417Y81791D02*
D03*
X287402Y52067D02*
D03*
X288386Y81791D02*
D03*
X289370Y52067D02*
D03*
X290354Y81791D02*
D03*
X291339Y52067D02*
D03*
X292323Y81791D02*
D03*
X293307Y52067D02*
D03*
X294291Y81791D02*
D03*
X295276Y52067D02*
D03*
X296260Y81791D02*
D03*
X297244Y52067D02*
D03*
D93*
X116732Y25591D02*
D03*
X198228D02*
D03*
X301575Y55118D02*
D03*
X220079D02*
D03*
D94*
X221555Y35138D02*
D03*
Y29429D02*
D03*
X217028D02*
D03*
Y35138D02*
D03*
D95*
X267472Y34941D02*
D03*
Y37500D02*
D03*
X244339Y32382D02*
D03*
Y34941D02*
D03*
Y37500D02*
D03*
Y29823D02*
D03*
X267472Y22146D02*
D03*
Y24705D02*
D03*
Y27264D02*
D03*
Y29823D02*
D03*
Y32382D02*
D03*
Y40059D02*
D03*
X244339D02*
D03*
Y27264D02*
D03*
Y24705D02*
D03*
Y22146D02*
D03*
D96*
X27559Y340158D02*
D03*
Y366929D02*
D03*
X11811Y340158D02*
D03*
Y366929D02*
D03*
X37008Y366929D02*
D03*
Y340158D02*
D03*
X52756Y366929D02*
D03*
Y340158D02*
D03*
X62205Y366929D02*
D03*
X77953Y340158D02*
D03*
Y366929D02*
D03*
X62205Y340158D02*
D03*
D97*
X210039Y334646D02*
D03*
D98*
X294291D02*
D03*
M02*
