G04*
G04 #@! TF.GenerationSoftware,Altium Limited,Altium Designer,22.10.1 (41)*
G04*
G04 Layer_Color=8421504*
%FSLAX25Y25*%
%MOIN*%
G70*
G04*
G04 #@! TF.SameCoordinates,AFF1C5C8-DCE1-4C05-9ECF-CC8E2439A733*
G04*
G04*
G04 #@! TF.FilePolarity,Positive*
G04*
G01*
G75*
%ADD22R,0.03937X0.03543*%
%ADD23R,0.07165X0.04764*%
%ADD24R,0.03543X0.02756*%
%ADD25R,0.02756X0.03543*%
G04:AMPARAMS|DCode=26|XSize=59.06mil|YSize=17.72mil|CornerRadius=1.95mil|HoleSize=0mil|Usage=FLASHONLY|Rotation=0.000|XOffset=0mil|YOffset=0mil|HoleType=Round|Shape=RoundedRectangle|*
%AMROUNDEDRECTD26*
21,1,0.05906,0.01382,0,0,0.0*
21,1,0.05516,0.01772,0,0,0.0*
1,1,0.00390,0.02758,-0.00691*
1,1,0.00390,-0.02758,-0.00691*
1,1,0.00390,-0.02758,0.00691*
1,1,0.00390,0.02758,0.00691*
%
%ADD26ROUNDEDRECTD26*%
G04:AMPARAMS|DCode=27|XSize=37.4mil|YSize=101.97mil|CornerRadius=4.68mil|HoleSize=0mil|Usage=FLASHONLY|Rotation=90.000|XOffset=0mil|YOffset=0mil|HoleType=Round|Shape=RoundedRectangle|*
%AMROUNDEDRECTD27*
21,1,0.03740,0.09262,0,0,90.0*
21,1,0.02805,0.10197,0,0,90.0*
1,1,0.00935,0.04631,0.01403*
1,1,0.00935,0.04631,-0.01403*
1,1,0.00935,-0.04631,-0.01403*
1,1,0.00935,-0.04631,0.01403*
%
%ADD27ROUNDEDRECTD27*%
G04:AMPARAMS|DCode=28|XSize=221.65mil|YSize=233.86mil|CornerRadius=11.08mil|HoleSize=0mil|Usage=FLASHONLY|Rotation=90.000|XOffset=0mil|YOffset=0mil|HoleType=Round|Shape=RoundedRectangle|*
%AMROUNDEDRECTD28*
21,1,0.22165,0.21169,0,0,90.0*
21,1,0.19949,0.23386,0,0,90.0*
1,1,0.02217,0.10585,0.09974*
1,1,0.02217,0.10585,-0.09974*
1,1,0.02217,-0.10585,-0.09974*
1,1,0.02217,-0.10585,0.09974*
%
%ADD28ROUNDEDRECTD28*%
%ADD29R,0.03543X0.03937*%
G04:AMPARAMS|DCode=30|XSize=21.65mil|YSize=66.93mil|CornerRadius=1.95mil|HoleSize=0mil|Usage=FLASHONLY|Rotation=180.000|XOffset=0mil|YOffset=0mil|HoleType=Round|Shape=RoundedRectangle|*
%AMROUNDEDRECTD30*
21,1,0.02165,0.06303,0,0,180.0*
21,1,0.01776,0.06693,0,0,180.0*
1,1,0.00390,-0.00888,0.03152*
1,1,0.00390,0.00888,0.03152*
1,1,0.00390,0.00888,-0.03152*
1,1,0.00390,-0.00888,-0.03152*
%
%ADD30ROUNDEDRECTD30*%
G04:AMPARAMS|DCode=31|XSize=74.98mil|YSize=22.36mil|CornerRadius=11.18mil|HoleSize=0mil|Usage=FLASHONLY|Rotation=270.000|XOffset=0mil|YOffset=0mil|HoleType=Round|Shape=RoundedRectangle|*
%AMROUNDEDRECTD31*
21,1,0.07498,0.00000,0,0,270.0*
21,1,0.05262,0.02236,0,0,270.0*
1,1,0.02236,0.00000,-0.02631*
1,1,0.02236,0.00000,0.02631*
1,1,0.02236,0.00000,0.02631*
1,1,0.02236,0.00000,-0.02631*
%
%ADD31ROUNDEDRECTD31*%
%ADD32R,0.02236X0.07498*%
%ADD33O,0.06890X0.02362*%
%ADD34R,0.06102X0.02362*%
%ADD35R,0.03543X0.03740*%
%ADD36R,0.01968X0.02362*%
%ADD37R,0.04331X0.07480*%
G04:AMPARAMS|DCode=38|XSize=155mil|YSize=50mil|CornerRadius=7.5mil|HoleSize=0mil|Usage=FLASHONLY|Rotation=90.000|XOffset=0mil|YOffset=0mil|HoleType=Round|Shape=RoundedRectangle|*
%AMROUNDEDRECTD38*
21,1,0.15500,0.03500,0,0,90.0*
21,1,0.14000,0.05000,0,0,90.0*
1,1,0.01500,0.01750,0.07000*
1,1,0.01500,0.01750,-0.07000*
1,1,0.01500,-0.01750,-0.07000*
1,1,0.01500,-0.01750,0.07000*
%
%ADD38ROUNDEDRECTD38*%
%ADD39R,0.04764X0.07165*%
%ADD40R,0.16929X0.09055*%
%ADD41R,0.03543X0.09449*%
%ADD42R,0.03150X0.03150*%
D22*
X220472Y305630D02*
D03*
Y299331D02*
D03*
Y285551D02*
D03*
Y291850D02*
D03*
X7874Y103150D02*
D03*
Y109449D02*
D03*
X309841Y58662D02*
D03*
Y64961D02*
D03*
X162205Y111811D02*
D03*
Y105512D02*
D03*
Y92914D02*
D03*
Y86614D02*
D03*
Y126378D02*
D03*
Y120079D02*
D03*
Y138977D02*
D03*
Y145276D02*
D03*
X176772Y92914D02*
D03*
Y86614D02*
D03*
Y111811D02*
D03*
Y105512D02*
D03*
Y126378D02*
D03*
Y120079D02*
D03*
X169488Y145276D02*
D03*
Y138977D02*
D03*
Y126378D02*
D03*
Y120079D02*
D03*
X176772Y145276D02*
D03*
Y138977D02*
D03*
X169488Y111811D02*
D03*
Y105512D02*
D03*
Y92914D02*
D03*
Y86614D02*
D03*
X151969Y153937D02*
D03*
Y160236D02*
D03*
X163779Y153937D02*
D03*
Y160236D02*
D03*
X157874Y153937D02*
D03*
Y160236D02*
D03*
X163779Y165748D02*
D03*
Y172047D02*
D03*
X157874Y165748D02*
D03*
Y172047D02*
D03*
X151969Y165748D02*
D03*
Y172047D02*
D03*
X90787Y169370D02*
D03*
Y175669D02*
D03*
X83504Y169370D02*
D03*
Y175669D02*
D03*
X76221Y169370D02*
D03*
Y175669D02*
D03*
X90787Y155591D02*
D03*
Y161890D02*
D03*
X83504Y155591D02*
D03*
Y161890D02*
D03*
X76221Y155591D02*
D03*
Y161890D02*
D03*
X50787Y152362D02*
D03*
Y158661D02*
D03*
X63780Y132677D02*
D03*
Y126378D02*
D03*
X307087Y318110D02*
D03*
Y311811D02*
D03*
X185039Y66142D02*
D03*
Y59842D02*
D03*
X7874Y130709D02*
D03*
Y137008D02*
D03*
D23*
X127953Y191929D02*
D03*
Y180512D02*
D03*
X220472Y159646D02*
D03*
Y171063D02*
D03*
D24*
X120079Y185827D02*
D03*
Y180315D02*
D03*
X221654Y126772D02*
D03*
Y121260D02*
D03*
X126378Y91733D02*
D03*
Y97244D02*
D03*
Y125197D02*
D03*
Y130709D02*
D03*
X46063Y219291D02*
D03*
Y213779D02*
D03*
X55512Y219291D02*
D03*
Y213779D02*
D03*
D25*
X99213Y222441D02*
D03*
X93701D02*
D03*
X163386Y369291D02*
D03*
X168898D02*
D03*
X126378Y150394D02*
D03*
X120866D02*
D03*
X42618Y148819D02*
D03*
X37106D02*
D03*
D26*
X191339Y138091D02*
D03*
Y135531D02*
D03*
Y132972D02*
D03*
Y130413D02*
D03*
Y127854D02*
D03*
Y125295D02*
D03*
Y122736D02*
D03*
Y120177D02*
D03*
X214173D02*
D03*
Y122736D02*
D03*
Y125295D02*
D03*
Y127854D02*
D03*
Y130413D02*
D03*
Y132972D02*
D03*
Y135531D02*
D03*
Y138091D02*
D03*
X80709Y210925D02*
D03*
Y208366D02*
D03*
Y205807D02*
D03*
Y203248D02*
D03*
Y195571D02*
D03*
Y198130D02*
D03*
Y200689D02*
D03*
Y193012D02*
D03*
Y182776D02*
D03*
Y185335D02*
D03*
Y187894D02*
D03*
Y190453D02*
D03*
X103543Y210925D02*
D03*
Y205807D02*
D03*
Y187894D02*
D03*
Y185335D02*
D03*
Y182776D02*
D03*
Y198130D02*
D03*
Y195571D02*
D03*
Y193012D02*
D03*
Y190453D02*
D03*
Y200689D02*
D03*
Y203248D02*
D03*
Y208366D02*
D03*
D27*
X208701Y174354D02*
D03*
Y156354D02*
D03*
D28*
X181732Y165354D02*
D03*
D29*
X303937Y330315D02*
D03*
X310236D02*
D03*
X301969Y324016D02*
D03*
X308268D02*
D03*
X243307D02*
D03*
X237008D02*
D03*
X177953Y39370D02*
D03*
X184252D02*
D03*
X110630Y137795D02*
D03*
X104331D02*
D03*
X125591Y109055D02*
D03*
X119291D02*
D03*
X125591Y102756D02*
D03*
X119291D02*
D03*
X125591Y136221D02*
D03*
X119291D02*
D03*
X125591Y142520D02*
D03*
X119291D02*
D03*
X109055Y172441D02*
D03*
X115354D02*
D03*
Y160630D02*
D03*
X109055D02*
D03*
Y166535D02*
D03*
X115354D02*
D03*
X109055Y154724D02*
D03*
X115354D02*
D03*
X73622Y181496D02*
D03*
X67323D02*
D03*
X66142Y166929D02*
D03*
X59842D02*
D03*
X86221Y137795D02*
D03*
X92520D02*
D03*
X66142Y174803D02*
D03*
X59842D02*
D03*
X67323Y187401D02*
D03*
X73622D02*
D03*
X99606Y217323D02*
D03*
X93307D02*
D03*
X221260Y320079D02*
D03*
X227559D02*
D03*
X221260Y313779D02*
D03*
X227559D02*
D03*
X237008Y317717D02*
D03*
X243307D02*
D03*
X237008Y330315D02*
D03*
X243307D02*
D03*
X199606Y135531D02*
D03*
X205906D02*
D03*
X178740Y59842D02*
D03*
X172441D02*
D03*
D30*
X259528Y311614D02*
D03*
X264528D02*
D03*
X269528D02*
D03*
X274528D02*
D03*
X279528D02*
D03*
X284528D02*
D03*
X289528D02*
D03*
X294528D02*
D03*
Y275000D02*
D03*
X289528D02*
D03*
X284528D02*
D03*
X279528D02*
D03*
X274528D02*
D03*
X269528D02*
D03*
X264528D02*
D03*
X259528D02*
D03*
X299528D02*
D03*
Y311614D02*
D03*
D31*
X50807Y171256D02*
D03*
X45807D02*
D03*
X40807D02*
D03*
X35807D02*
D03*
Y190948D02*
D03*
X40807D02*
D03*
X45807D02*
D03*
D32*
X50807D02*
D03*
D33*
X133957Y107894D02*
D03*
Y102894D02*
D03*
Y97894D02*
D03*
Y92894D02*
D03*
X152657Y107894D02*
D03*
Y102894D02*
D03*
Y97894D02*
D03*
Y92894D02*
D03*
Y126358D02*
D03*
Y131358D02*
D03*
Y136358D02*
D03*
Y141358D02*
D03*
X133957Y126358D02*
D03*
Y131358D02*
D03*
Y136358D02*
D03*
Y141358D02*
D03*
D34*
X144095Y156673D02*
D03*
Y161673D02*
D03*
Y166673D02*
D03*
Y171673D02*
D03*
X122835D02*
D03*
Y166673D02*
D03*
Y161673D02*
D03*
Y156673D02*
D03*
D35*
X63780Y141732D02*
D03*
X51378D02*
D03*
X46063D02*
D03*
X33661D02*
D03*
D36*
X51378Y134252D02*
D03*
X47638Y126378D02*
D03*
X55118D02*
D03*
D37*
X45866Y205118D02*
D03*
X55709D02*
D03*
D38*
X69882Y342081D02*
D03*
X79882D02*
D03*
X9882Y366581D02*
D03*
X19882D02*
D03*
X29882D02*
D03*
X39882D02*
D03*
X49882D02*
D03*
X59882D02*
D03*
X69882D02*
D03*
X79882D02*
D03*
X89882D02*
D03*
X99882D02*
D03*
X9882Y342081D02*
D03*
X19882D02*
D03*
X29882D02*
D03*
X39882D02*
D03*
X49882D02*
D03*
X59882D02*
D03*
X89882D02*
D03*
X99882D02*
D03*
X109882Y366581D02*
D03*
X119882D02*
D03*
X129882D02*
D03*
X109882Y342081D02*
D03*
X119882D02*
D03*
X129882D02*
D03*
X185079Y366581D02*
D03*
X195079D02*
D03*
X205079D02*
D03*
X215079D02*
D03*
X225079D02*
D03*
X235079D02*
D03*
X245079D02*
D03*
X255079D02*
D03*
X265079D02*
D03*
X275079D02*
D03*
X185079Y342081D02*
D03*
X195079D02*
D03*
X205079D02*
D03*
X215079D02*
D03*
X225079D02*
D03*
X235079D02*
D03*
X245079D02*
D03*
X255079D02*
D03*
X265079D02*
D03*
X275079D02*
D03*
X285079Y366581D02*
D03*
X295079D02*
D03*
X305079D02*
D03*
X285079Y342081D02*
D03*
X295079D02*
D03*
X305079D02*
D03*
D39*
X206496Y112598D02*
D03*
X217913D02*
D03*
X187598Y145669D02*
D03*
X199016D02*
D03*
Y112598D02*
D03*
X187598D02*
D03*
X158071Y371654D02*
D03*
X146654D02*
D03*
D40*
X216437Y202756D02*
D03*
X189075D02*
D03*
D41*
X275827Y24154D02*
D03*
X260827D02*
D03*
X245827D02*
D03*
X250827D02*
D03*
X255827D02*
D03*
X265827D02*
D03*
X270827D02*
D03*
D42*
X7874Y148819D02*
D03*
Y142520D02*
D03*
M02*
