G04*
G04 #@! TF.GenerationSoftware,Altium Limited,Altium Designer,22.10.1 (41)*
G04*
G04 Layer_Physical_Order=2*
G04 Layer_Color=36540*
%FSLAX25Y25*%
%MOIN*%
G70*
G04*
G04 #@! TF.SameCoordinates,AFF1C5C8-DCE1-4C05-9ECF-CC8E2439A733*
G04*
G04*
G04 #@! TF.FilePolarity,Positive*
G04*
G01*
G75*
%ADD81R,0.06496X0.06496*%
%ADD87C,0.02362*%
%ADD88C,0.04724*%
G36*
X224410Y269315D02*
X223948Y269124D01*
X223892Y269179D01*
X222915Y269743D01*
X221824Y270035D01*
X220695D01*
X219605Y269743D01*
X218627Y269179D01*
X217829Y268381D01*
X217265Y267403D01*
X216972Y266313D01*
Y265184D01*
X217265Y264093D01*
X217829Y263116D01*
X218627Y262317D01*
X219605Y261753D01*
X220695Y261461D01*
X221824D01*
X222915Y261753D01*
X223892Y262317D01*
X223948Y262372D01*
X224410Y262181D01*
Y229722D01*
Y227362D01*
X224018D01*
X223294Y227063D01*
X222741Y226509D01*
X222441Y225785D01*
Y225002D01*
X222741Y224279D01*
X223294Y223725D01*
X224018Y223425D01*
X224410D01*
Y219488D01*
X224018D01*
X223294Y219188D01*
X222741Y218635D01*
X222441Y217911D01*
Y217128D01*
X222741Y216405D01*
X223294Y215851D01*
X224018Y215551D01*
X224410D01*
Y132104D01*
X223909Y131770D01*
X223620Y131890D01*
X222837D01*
X222113Y131590D01*
X221654Y131130D01*
X221194Y131590D01*
X220470Y131890D01*
X219687D01*
X218964Y131590D01*
X218410Y131036D01*
X218110Y130313D01*
Y129530D01*
X218410Y128806D01*
X218964Y128252D01*
X219687Y127953D01*
X220470D01*
X221194Y128252D01*
X221654Y128712D01*
X222113Y128252D01*
X222837Y127953D01*
X223620D01*
X223909Y128073D01*
X224410Y127739D01*
Y106816D01*
X223892Y106299D01*
X185039D01*
Y78740D01*
X87703D01*
X87398Y79137D01*
X87528Y79619D01*
Y80617D01*
X87269Y81580D01*
X86771Y82444D01*
X86066Y83149D01*
X85202Y83647D01*
X84239Y83906D01*
X83241D01*
X82278Y83647D01*
X81415Y83149D01*
X80709Y82444D01*
X80211Y81580D01*
X79953Y80617D01*
Y79619D01*
X80082Y79137D01*
X79778Y78740D01*
X77703D01*
X77398Y79137D01*
X77528Y79619D01*
Y80617D01*
X77269Y81580D01*
X76771Y82444D01*
X76066Y83149D01*
X75202Y83647D01*
X74239Y83906D01*
X73242D01*
X72278Y83647D01*
X71415Y83149D01*
X70710Y82444D01*
X70211Y81580D01*
X69953Y80617D01*
Y79619D01*
X70082Y79137D01*
X69778Y78740D01*
X38490D01*
X38186Y79137D01*
X38315Y79619D01*
Y80617D01*
X38057Y81580D01*
X37558Y82444D01*
X36853Y83149D01*
X35989Y83647D01*
X35026Y83906D01*
X34029D01*
X33066Y83647D01*
X32202Y83149D01*
X31497Y82444D01*
X30998Y81580D01*
X30740Y80617D01*
Y79619D01*
X30869Y79137D01*
X30565Y78740D01*
X28490D01*
X28186Y79137D01*
X28315Y79619D01*
Y80617D01*
X28057Y81580D01*
X27558Y82444D01*
X26853Y83149D01*
X25989Y83647D01*
X25026Y83906D01*
X24029D01*
X23066Y83647D01*
X22202Y83149D01*
X21497Y82444D01*
X20998Y81580D01*
X20740Y80617D01*
Y79619D01*
X20869Y79137D01*
X20565Y78740D01*
X1020D01*
Y228346D01*
X5523D01*
X6354Y227867D01*
X7356Y227598D01*
X8392D01*
X9394Y227867D01*
X10225Y228346D01*
X75720D01*
X75984Y227951D01*
Y227168D01*
X76284Y226444D01*
X76838Y225890D01*
X77561Y225590D01*
X78344D01*
X79068Y225890D01*
X79622Y226444D01*
X79921Y227168D01*
Y227951D01*
X80186Y228346D01*
X82677D01*
Y392681D01*
X224410D01*
Y269315D01*
D02*
G37*
G36*
X81874Y229149D02*
X80186D01*
X80108Y229134D01*
X80029D01*
X79956Y229104D01*
X79878Y229088D01*
X79813Y229044D01*
X79740Y229014D01*
X79684Y228958D01*
X79618Y228914D01*
X79163Y229133D01*
X79068Y229228D01*
X78344Y229528D01*
X77561D01*
X76838Y229228D01*
X76743Y229133D01*
X76287Y228914D01*
X76222Y228958D01*
X76166Y229014D01*
X76093Y229044D01*
X76027Y229088D01*
X75949Y229104D01*
X75876Y229134D01*
X75797D01*
X75720Y229149D01*
X11542D01*
X11293Y229582D01*
X11543Y230016D01*
X11811Y231017D01*
Y232054D01*
X11543Y233055D01*
X11024Y233953D01*
X10291Y234686D01*
X9394Y235204D01*
X8392Y235472D01*
X7356D01*
X6354Y235204D01*
X5457Y234686D01*
X4724Y233953D01*
X4205Y233055D01*
X3937Y232054D01*
Y231017D01*
X4205Y230016D01*
X4456Y229582D01*
X4206Y229149D01*
X1020D01*
Y383858D01*
Y384727D01*
X1359Y386432D01*
X2024Y388037D01*
X2989Y389483D01*
X4218Y390711D01*
X5663Y391677D01*
X7269Y392342D01*
X8974Y392681D01*
X81874D01*
Y229149D01*
D02*
G37*
G36*
X313941Y110022D02*
X313441Y109815D01*
X313320Y109936D01*
X312596Y110236D01*
X311813D01*
X311090Y109936D01*
X310925Y109772D01*
X310761Y109936D01*
X310037Y110236D01*
X309254D01*
X308531Y109936D01*
X308366Y109772D01*
X308202Y109936D01*
X307478Y110236D01*
X306695D01*
X305972Y109936D01*
X305418Y109383D01*
X305118Y108659D01*
Y107876D01*
X305418Y107153D01*
X305972Y106599D01*
X306695Y106299D01*
X307478D01*
X308202Y106599D01*
X308366Y106763D01*
X308531Y106599D01*
X309254Y106299D01*
X310037D01*
X310761Y106599D01*
X310925Y106763D01*
X311090Y106599D01*
X311813Y106299D01*
X312596D01*
X313320Y106599D01*
X313441Y106720D01*
X313941Y106513D01*
Y9843D01*
Y8974D01*
X313602Y7269D01*
X312937Y5663D01*
X311971Y4218D01*
X310742Y2989D01*
X309297Y2024D01*
X307692Y1359D01*
X305987Y1020D01*
X90551D01*
Y77937D01*
X185039D01*
X185347Y77998D01*
X185607Y78172D01*
X185781Y78433D01*
X185842Y78740D01*
Y105496D01*
X223892D01*
X223892Y105496D01*
X224200Y105558D01*
X224460Y105731D01*
X224460Y105731D01*
X224977Y106249D01*
X225151Y106509D01*
X225212Y106816D01*
Y127739D01*
X225197Y127816D01*
Y127895D01*
X225167Y127968D01*
X225151Y128046D01*
X225107Y128112D01*
X225077Y128185D01*
X225021Y128241D01*
X224977Y128306D01*
X224897Y128806D01*
X225197Y129530D01*
Y130313D01*
X224897Y131036D01*
X224977Y131536D01*
X225021Y131602D01*
X225077Y131658D01*
X225107Y131731D01*
X225151Y131797D01*
X225167Y131874D01*
X225197Y131947D01*
Y132026D01*
X225212Y132104D01*
Y147638D01*
X313941D01*
Y110022D01*
D02*
G37*
%LPC*%
G36*
X166533Y375984D02*
X165750D01*
X165027Y375685D01*
X164764Y375422D01*
X164501Y375685D01*
X163777Y375984D01*
X162994D01*
X162271Y375685D01*
X161717Y375131D01*
X161417Y374407D01*
Y373624D01*
X161717Y372901D01*
X162271Y372347D01*
X162994Y372047D01*
X163777D01*
X164501Y372347D01*
X164764Y372610D01*
X165027Y372347D01*
X165750Y372047D01*
X166533D01*
X167257Y372347D01*
X167810Y372901D01*
X168110Y373624D01*
Y374407D01*
X167810Y375131D01*
X167257Y375685D01*
X166533Y375984D01*
D02*
G37*
G36*
X153935Y373622D02*
X153152D01*
X152428Y373322D01*
X151874Y372769D01*
X151575Y372045D01*
Y371262D01*
X151874Y370538D01*
X152428Y369985D01*
X153152Y369685D01*
X153935D01*
X154658Y369985D01*
X155212Y370538D01*
X155512Y371262D01*
Y372045D01*
X155212Y372769D01*
X154658Y373322D01*
X153935Y373622D01*
D02*
G37*
G36*
X95297Y357480D02*
X94467D01*
X93666Y357266D01*
X92948Y356851D01*
X92382Y356285D01*
X91816Y356851D01*
X91098Y357266D01*
X90297Y357480D01*
X89467D01*
X88666Y357266D01*
X87948Y356851D01*
X87362Y356265D01*
X86947Y355546D01*
X86732Y354745D01*
Y353916D01*
X86947Y353115D01*
X87362Y352397D01*
X87948Y351810D01*
X88666Y351396D01*
X89467Y351181D01*
X90297D01*
X91098Y351396D01*
X91816Y351810D01*
X92382Y352377D01*
X92948Y351810D01*
X93666Y351396D01*
X94467Y351181D01*
X95297D01*
X96098Y351396D01*
X96816Y351810D01*
X97402Y352397D01*
X97817Y353115D01*
X98032Y353916D01*
Y354745D01*
X97817Y355546D01*
X97402Y356265D01*
X96816Y356851D01*
X96098Y357266D01*
X95297Y357480D01*
D02*
G37*
G36*
X158549Y364961D02*
X156411D01*
X154300Y364626D01*
X152266Y363966D01*
X150361Y362995D01*
X148632Y361738D01*
X147120Y360226D01*
X145863Y358497D01*
X144893Y356592D01*
X144232Y354559D01*
X143898Y352447D01*
Y350309D01*
X144232Y348197D01*
X144893Y346164D01*
X145863Y344259D01*
X147120Y342529D01*
X148632Y341018D01*
X150361Y339761D01*
X152266Y338790D01*
X154300Y338130D01*
X156411Y337795D01*
X158549D01*
X160661Y338130D01*
X162694Y338790D01*
X164599Y339761D01*
X166329Y341018D01*
X167841Y342529D01*
X169097Y344259D01*
X170068Y346164D01*
X170729Y348197D01*
X171063Y350309D01*
Y352447D01*
X170729Y354559D01*
X170068Y356592D01*
X169097Y358497D01*
X167841Y360226D01*
X166329Y361738D01*
X164599Y362995D01*
X162694Y363966D01*
X160661Y364626D01*
X158549Y364961D01*
D02*
G37*
G36*
X87423Y331890D02*
X86593D01*
X85792Y331675D01*
X85074Y331260D01*
X84488Y330674D01*
X84073Y329956D01*
X83858Y329155D01*
Y328326D01*
X84073Y327524D01*
X84488Y326806D01*
X85074Y326220D01*
X85792Y325805D01*
X86593Y325591D01*
X87423D01*
X88224Y325805D01*
X88942Y326220D01*
X89528Y326806D01*
X89943Y327524D01*
X90158Y328326D01*
Y329155D01*
X89943Y329956D01*
X89528Y330674D01*
X88942Y331260D01*
X88224Y331675D01*
X87423Y331890D01*
D02*
G37*
G36*
X206673Y319626D02*
X205610D01*
X204584Y319351D01*
X203664Y318820D01*
X202913Y318068D01*
X202381Y317148D01*
X202106Y316122D01*
Y315059D01*
X202381Y314033D01*
X202913Y313113D01*
X203664Y312361D01*
X204584Y311830D01*
X205610Y311555D01*
X206673D01*
X207699Y311830D01*
X208619Y312361D01*
X209371Y313113D01*
X209902Y314033D01*
X210177Y315059D01*
Y316122D01*
X209902Y317148D01*
X209371Y318068D01*
X208619Y318820D01*
X207699Y319351D01*
X206673Y319626D01*
D02*
G37*
G36*
X156673D02*
X155611D01*
X154584Y319351D01*
X153664Y318820D01*
X152913Y318068D01*
X152381Y317148D01*
X152106Y316122D01*
Y315059D01*
X152381Y314033D01*
X152913Y313113D01*
X153664Y312361D01*
X154584Y311830D01*
X155611Y311555D01*
X156673D01*
X157699Y311830D01*
X158619Y312361D01*
X159371Y313113D01*
X159902Y314033D01*
X160177Y315059D01*
Y316122D01*
X159902Y317148D01*
X159371Y318068D01*
X158619Y318820D01*
X157699Y319351D01*
X156673Y319626D01*
D02*
G37*
G36*
X206533Y297559D02*
X205750D01*
X205027Y297259D01*
X204473Y296706D01*
X204173Y295982D01*
Y295199D01*
X204473Y294476D01*
X205027Y293922D01*
X205750Y293622D01*
X206533D01*
X207257Y293922D01*
X207811Y294476D01*
X208110Y295199D01*
Y295982D01*
X207811Y296706D01*
X207257Y297259D01*
X206533Y297559D01*
D02*
G37*
G36*
X112596Y289370D02*
X111813D01*
X111090Y289070D01*
X110536Y288517D01*
X110236Y287793D01*
Y287010D01*
X110536Y286286D01*
X111090Y285733D01*
X111813Y285433D01*
X112596D01*
X113320Y285733D01*
X113874Y286286D01*
X114173Y287010D01*
Y287793D01*
X113874Y288517D01*
X113320Y289070D01*
X112596Y289370D01*
D02*
G37*
G36*
Y283465D02*
X111813D01*
X111090Y283165D01*
X110536Y282611D01*
X110236Y281888D01*
Y281104D01*
X110536Y280381D01*
X111090Y279827D01*
X111813Y279528D01*
X112596D01*
X113320Y279827D01*
X113874Y280381D01*
X114173Y281104D01*
Y281888D01*
X113874Y282611D01*
X113320Y283165D01*
X112596Y283465D01*
D02*
G37*
G36*
X134250Y281496D02*
X133467D01*
X132743Y281196D01*
X132190Y280643D01*
X131890Y279919D01*
Y279136D01*
X132190Y278413D01*
X132743Y277859D01*
X133467Y277559D01*
X134250D01*
X134973Y277859D01*
X135527Y278413D01*
X135827Y279136D01*
Y279919D01*
X135527Y280643D01*
X134973Y281196D01*
X134250Y281496D01*
D02*
G37*
G36*
X112596Y277559D02*
X111813D01*
X111090Y277259D01*
X110536Y276706D01*
X110236Y275982D01*
Y275199D01*
X110536Y274476D01*
X111090Y273922D01*
X111813Y273622D01*
X112596D01*
X113320Y273922D01*
X113874Y274476D01*
X114173Y275199D01*
Y275982D01*
X113874Y276706D01*
X113320Y277259D01*
X112596Y277559D01*
D02*
G37*
G36*
X206673Y279626D02*
X205610D01*
X204584Y279351D01*
X203664Y278820D01*
X202913Y278068D01*
X202381Y277148D01*
X202106Y276122D01*
Y275059D01*
X202381Y274033D01*
X202913Y273113D01*
X203664Y272361D01*
X204584Y271830D01*
X205610Y271555D01*
X206673D01*
X207699Y271830D01*
X208619Y272361D01*
X209371Y273113D01*
X209902Y274033D01*
X210177Y275059D01*
Y276122D01*
X209902Y277148D01*
X209371Y278068D01*
X208619Y278820D01*
X207699Y279351D01*
X206673Y279626D01*
D02*
G37*
G36*
X156673D02*
X155611D01*
X154584Y279351D01*
X153664Y278820D01*
X152913Y278068D01*
X152381Y277148D01*
X152106Y276122D01*
Y275059D01*
X152381Y274033D01*
X152913Y273113D01*
X153664Y272361D01*
X154584Y271830D01*
X155611Y271555D01*
X156673D01*
X157699Y271830D01*
X158619Y272361D01*
X159371Y273113D01*
X159902Y274033D01*
X160177Y275059D01*
Y276122D01*
X159902Y277148D01*
X159371Y278068D01*
X158619Y278820D01*
X157699Y279351D01*
X156673Y279626D01*
D02*
G37*
G36*
X112596Y271654D02*
X111813D01*
X111090Y271354D01*
X110536Y270800D01*
X110236Y270077D01*
Y269293D01*
X110536Y268570D01*
X111090Y268016D01*
X111813Y267717D01*
X112596D01*
X113320Y268016D01*
X113874Y268570D01*
X114173Y269293D01*
Y270077D01*
X113874Y270800D01*
X113320Y271354D01*
X112596Y271654D01*
D02*
G37*
G36*
Y265748D02*
X111813D01*
X111090Y265448D01*
X110536Y264895D01*
X110236Y264171D01*
Y263388D01*
X110536Y262665D01*
X111090Y262111D01*
X111813Y261811D01*
X112596D01*
X113320Y262111D01*
X113874Y262665D01*
X114173Y263388D01*
Y264171D01*
X113874Y264895D01*
X113320Y265448D01*
X112596Y265748D01*
D02*
G37*
G36*
Y259842D02*
X111813D01*
X111090Y259543D01*
X110536Y258989D01*
X110236Y258266D01*
Y257483D01*
X110536Y256759D01*
X111090Y256205D01*
X111813Y255906D01*
X112596D01*
X113320Y256205D01*
X113874Y256759D01*
X114173Y257483D01*
Y258266D01*
X113874Y258989D01*
X113320Y259543D01*
X112596Y259842D01*
D02*
G37*
G36*
Y253937D02*
X111813D01*
X111090Y253637D01*
X110536Y253084D01*
X110236Y252360D01*
Y251577D01*
X110536Y250853D01*
X111090Y250300D01*
X111813Y250000D01*
X112596D01*
X113320Y250300D01*
X113874Y250853D01*
X114173Y251577D01*
Y252360D01*
X113874Y253084D01*
X113320Y253637D01*
X112596Y253937D01*
D02*
G37*
G36*
Y248031D02*
X111813D01*
X111090Y247732D01*
X110536Y247178D01*
X110236Y246455D01*
Y245671D01*
X110536Y244948D01*
X111090Y244394D01*
X111813Y244094D01*
X112596D01*
X113320Y244394D01*
X113874Y244948D01*
X114173Y245671D01*
Y246455D01*
X113874Y247178D01*
X113320Y247732D01*
X112596Y248031D01*
D02*
G37*
G36*
X92911Y242126D02*
X92128D01*
X91405Y241826D01*
X90851Y241273D01*
X90551Y240549D01*
Y239766D01*
X90851Y239042D01*
X91405Y238489D01*
X92128Y238189D01*
X92911D01*
X93635Y238489D01*
X94188Y239042D01*
X94488Y239766D01*
Y240549D01*
X94188Y241273D01*
X93635Y241826D01*
X92911Y242126D01*
D02*
G37*
G36*
X206673Y239626D02*
X205610D01*
X204584Y239351D01*
X203664Y238820D01*
X202913Y238068D01*
X202381Y237148D01*
X202106Y236122D01*
Y235059D01*
X202381Y234033D01*
X202913Y233113D01*
X203664Y232361D01*
X204584Y231830D01*
X205610Y231555D01*
X206673D01*
X207699Y231830D01*
X208619Y232361D01*
X209371Y233113D01*
X209902Y234033D01*
X210177Y235059D01*
Y236122D01*
X209902Y237148D01*
X209371Y238068D01*
X208619Y238820D01*
X207699Y239351D01*
X206673Y239626D01*
D02*
G37*
G36*
X156673D02*
X155611D01*
X154584Y239351D01*
X153664Y238820D01*
X152913Y238068D01*
X152381Y237148D01*
X152106Y236122D01*
Y235059D01*
X152381Y234033D01*
X152913Y233113D01*
X153664Y232361D01*
X154584Y231830D01*
X155611Y231555D01*
X156673D01*
X157699Y231830D01*
X158619Y232361D01*
X159371Y233113D01*
X159902Y234033D01*
X160177Y235059D01*
Y236122D01*
X159902Y237148D01*
X159371Y238068D01*
X158619Y238820D01*
X157699Y239351D01*
X156673Y239626D01*
D02*
G37*
G36*
X99604Y229528D02*
X98821D01*
X98097Y229228D01*
X97544Y228674D01*
X97244Y227951D01*
Y227168D01*
X97544Y226444D01*
X98097Y225890D01*
X98821Y225591D01*
X99604D01*
X100328Y225890D01*
X100881Y226444D01*
X101181Y227168D01*
Y227951D01*
X100881Y228674D01*
X100328Y229228D01*
X99604Y229528D01*
D02*
G37*
G36*
X8392Y225472D02*
X7356D01*
X6354Y225204D01*
X5457Y224686D01*
X4724Y223953D01*
X4205Y223055D01*
X3937Y222054D01*
Y221017D01*
X4205Y220016D01*
X4724Y219118D01*
X5457Y218385D01*
X6354Y217867D01*
X7356Y217598D01*
X8392D01*
X9394Y217867D01*
X10291Y218385D01*
X11024Y219118D01*
X11543Y220016D01*
X11811Y221017D01*
Y222054D01*
X11543Y223055D01*
X11024Y223953D01*
X10291Y224686D01*
X9394Y225204D01*
X8392Y225472D01*
D02*
G37*
G36*
X51179Y221260D02*
X50396D01*
X49672Y220960D01*
X49119Y220406D01*
X48819Y219683D01*
Y218900D01*
X49119Y218176D01*
X49672Y217622D01*
X50396Y217323D01*
X51179D01*
X51903Y217622D01*
X52456Y218176D01*
X52756Y218900D01*
Y219683D01*
X52456Y220406D01*
X51903Y220960D01*
X51179Y221260D01*
D02*
G37*
G36*
X104722Y220079D02*
X103939D01*
X103216Y219779D01*
X102662Y219225D01*
X102362Y218502D01*
Y217719D01*
X102662Y216995D01*
X103216Y216441D01*
X103939Y216142D01*
X104722D01*
X105446Y216441D01*
X106000Y216995D01*
X106299Y217719D01*
Y218502D01*
X106000Y219225D01*
X105446Y219779D01*
X104722Y220079D01*
D02*
G37*
G36*
X87006Y212894D02*
X86223D01*
X85499Y212594D01*
X84945Y212040D01*
X84646Y211317D01*
Y210534D01*
X84945Y209810D01*
X85499Y209256D01*
X86223Y208957D01*
X87006D01*
X87729Y209256D01*
X88283Y209810D01*
X88583Y210534D01*
Y211317D01*
X88283Y212040D01*
X87729Y212594D01*
X87006Y212894D01*
D02*
G37*
G36*
X8392Y215472D02*
X7356D01*
X6354Y215204D01*
X5457Y214686D01*
X4724Y213953D01*
X4205Y213055D01*
X3937Y212054D01*
Y211017D01*
X4205Y210016D01*
X4724Y209118D01*
X5457Y208385D01*
X6354Y207867D01*
X7356Y207598D01*
X8392D01*
X9394Y207867D01*
X10291Y208385D01*
X11024Y209118D01*
X11543Y210016D01*
X11811Y211017D01*
Y212054D01*
X11543Y213055D01*
X11024Y213953D01*
X10291Y214686D01*
X9394Y215204D01*
X8392Y215472D01*
D02*
G37*
G36*
X90943Y210335D02*
X90160D01*
X89436Y210035D01*
X88882Y209481D01*
X88583Y208758D01*
Y207975D01*
X88882Y207251D01*
X89436Y206697D01*
X90160Y206398D01*
X90943D01*
X91666Y206697D01*
X92220Y207251D01*
X92520Y207975D01*
Y208758D01*
X92220Y209481D01*
X91666Y210035D01*
X90943Y210335D01*
D02*
G37*
G36*
X87006Y207776D02*
X86223D01*
X85499Y207476D01*
X84945Y206922D01*
X84646Y206199D01*
Y205416D01*
X84945Y204692D01*
X85499Y204138D01*
X86223Y203839D01*
X87006D01*
X87729Y204138D01*
X88283Y204692D01*
X88583Y205416D01*
Y206199D01*
X88283Y206922D01*
X87729Y207476D01*
X87006Y207776D01*
D02*
G37*
G36*
X90943Y205217D02*
X90160D01*
X89436Y204917D01*
X88882Y204363D01*
X88583Y203640D01*
Y202856D01*
X88882Y202133D01*
X89436Y201579D01*
X90160Y201279D01*
X90943D01*
X91666Y201579D01*
X92220Y202133D01*
X92520Y202856D01*
Y203640D01*
X92220Y204363D01*
X91666Y204917D01*
X90943Y205217D01*
D02*
G37*
G36*
X87006Y202658D02*
X86223D01*
X85499Y202358D01*
X84945Y201804D01*
X84646Y201080D01*
Y200297D01*
X84945Y199574D01*
X85499Y199020D01*
X86223Y198721D01*
X87006D01*
X87729Y199020D01*
X88283Y199574D01*
X88583Y200297D01*
Y201080D01*
X88283Y201804D01*
X87729Y202358D01*
X87006Y202658D01*
D02*
G37*
G36*
X8392Y205472D02*
X7356D01*
X6354Y205204D01*
X5457Y204686D01*
X4724Y203953D01*
X4205Y203055D01*
X3937Y202054D01*
Y201017D01*
X4205Y200016D01*
X4724Y199118D01*
X5457Y198385D01*
X6354Y197867D01*
X7356Y197598D01*
X8392D01*
X9394Y197867D01*
X10291Y198385D01*
X11024Y199118D01*
X11543Y200016D01*
X11811Y201017D01*
Y202054D01*
X11543Y203055D01*
X11024Y203953D01*
X10291Y204686D01*
X9394Y205204D01*
X8392Y205472D01*
D02*
G37*
G36*
X33856Y200787D02*
X33073D01*
X32350Y200488D01*
X31796Y199934D01*
X31496Y199211D01*
Y198427D01*
X31796Y197704D01*
X32350Y197150D01*
X33073Y196850D01*
X33856D01*
X34580Y197150D01*
X35133Y197704D01*
X35433Y198427D01*
Y199211D01*
X35133Y199934D01*
X34580Y200488D01*
X33856Y200787D01*
D02*
G37*
G36*
X90943Y200098D02*
X90160D01*
X89436Y199799D01*
X88882Y199245D01*
X88583Y198521D01*
Y197738D01*
X88882Y197015D01*
X89436Y196461D01*
X90160Y196161D01*
X90943D01*
X91666Y196461D01*
X92220Y197015D01*
X92520Y197738D01*
Y198521D01*
X92220Y199245D01*
X91666Y199799D01*
X90943Y200098D01*
D02*
G37*
G36*
X87006Y197539D02*
X86223D01*
X85499Y197240D01*
X84945Y196686D01*
X84646Y195962D01*
Y195179D01*
X84945Y194456D01*
X85499Y193902D01*
X86223Y193602D01*
X87006D01*
X87729Y193902D01*
X88283Y194456D01*
X88583Y195179D01*
Y195962D01*
X88283Y196686D01*
X87729Y197240D01*
X87006Y197539D01*
D02*
G37*
G36*
X120470Y196850D02*
X119687D01*
X118964Y196551D01*
X118410Y195997D01*
X118110Y195273D01*
Y194490D01*
X118410Y193767D01*
X118964Y193213D01*
X119687Y192913D01*
X120470D01*
X121194Y193213D01*
X121748Y193767D01*
X122047Y194490D01*
Y195273D01*
X121748Y195997D01*
X121194Y196551D01*
X120470Y196850D01*
D02*
G37*
G36*
X90943Y194980D02*
X90160D01*
X89436Y194681D01*
X88882Y194127D01*
X88583Y193403D01*
Y192620D01*
X88882Y191897D01*
X89436Y191343D01*
X90160Y191043D01*
X90943D01*
X91666Y191343D01*
X92220Y191897D01*
X92520Y192620D01*
Y193403D01*
X92220Y194127D01*
X91666Y194681D01*
X90943Y194980D01*
D02*
G37*
G36*
X134250Y194882D02*
X133467D01*
X132743Y194582D01*
X132190Y194028D01*
X131890Y193305D01*
Y192522D01*
X132190Y191798D01*
X132255Y191732D01*
X132190Y191666D01*
X131890Y190943D01*
Y190160D01*
X132190Y189436D01*
X132743Y188882D01*
X133467Y188583D01*
X134250D01*
X134973Y188882D01*
X135527Y189436D01*
X135827Y190160D01*
Y190943D01*
X135527Y191666D01*
X135461Y191732D01*
X135527Y191798D01*
X135827Y192522D01*
Y193305D01*
X135527Y194028D01*
X134973Y194582D01*
X134250Y194882D01*
D02*
G37*
G36*
X158549Y215354D02*
X156411D01*
X154300Y215020D01*
X152266Y214359D01*
X150361Y213389D01*
X148632Y212132D01*
X147120Y210620D01*
X145863Y208891D01*
X144893Y206986D01*
X144232Y204952D01*
X143898Y202841D01*
Y200703D01*
X144232Y198591D01*
X144893Y196558D01*
X145863Y194653D01*
X147120Y192923D01*
X148632Y191411D01*
X150361Y190155D01*
X152266Y189184D01*
X154300Y188523D01*
X156411Y188189D01*
X158549D01*
X160661Y188523D01*
X162694Y189184D01*
X164599Y190155D01*
X166329Y191411D01*
X167841Y192923D01*
X169097Y194653D01*
X170068Y196558D01*
X170729Y198591D01*
X171063Y200703D01*
Y202841D01*
X170729Y204952D01*
X170068Y206986D01*
X169097Y208891D01*
X167841Y210620D01*
X166329Y212132D01*
X164599Y213389D01*
X162694Y214359D01*
X160661Y215020D01*
X158549Y215354D01*
D02*
G37*
G36*
X8392Y195472D02*
X7356D01*
X6354Y195204D01*
X5457Y194686D01*
X4724Y193953D01*
X4205Y193055D01*
X3937Y192054D01*
Y191017D01*
X4205Y190016D01*
X4724Y189118D01*
X5457Y188385D01*
X6354Y187867D01*
X7356Y187598D01*
X8392D01*
X9394Y187867D01*
X10291Y188385D01*
X11024Y189118D01*
X11543Y190016D01*
X11811Y191017D01*
Y192054D01*
X11543Y193055D01*
X11024Y193953D01*
X10291Y194686D01*
X9394Y195204D01*
X8392Y195472D01*
D02*
G37*
G36*
X92911Y183071D02*
X92128D01*
X91405Y182771D01*
X90851Y182217D01*
X90551Y181494D01*
Y180711D01*
X90851Y179987D01*
X91405Y179434D01*
X92128Y179134D01*
X92911D01*
X93635Y179434D01*
X94188Y179987D01*
X94488Y180711D01*
Y181494D01*
X94188Y182217D01*
X93635Y182771D01*
X92911Y183071D01*
D02*
G37*
G36*
X8392Y185472D02*
X7356D01*
X6354Y185204D01*
X5457Y184686D01*
X4724Y183953D01*
X4205Y183055D01*
X3937Y182054D01*
Y181017D01*
X4205Y180016D01*
X4724Y179118D01*
X5457Y178385D01*
X6354Y177867D01*
X7356Y177598D01*
X8392D01*
X9394Y177867D01*
X10291Y178385D01*
X11024Y179118D01*
X11543Y180016D01*
X11811Y181017D01*
Y182054D01*
X11543Y183055D01*
X11024Y183953D01*
X10291Y184686D01*
X9394Y185204D01*
X8392Y185472D01*
D02*
G37*
G36*
X144486Y178346D02*
X143703D01*
X142979Y178047D01*
X142426Y177493D01*
X142126Y176769D01*
Y175986D01*
X142426Y175263D01*
X142979Y174709D01*
X143703Y174409D01*
X144486D01*
X145210Y174709D01*
X145763Y175263D01*
X146063Y175986D01*
Y176769D01*
X145763Y177493D01*
X145210Y178047D01*
X144486Y178346D01*
D02*
G37*
G36*
X106691Y164173D02*
X105908D01*
X105184Y163874D01*
X104630Y163320D01*
X104331Y162596D01*
Y161813D01*
X104630Y161090D01*
X105184Y160536D01*
X105908Y160236D01*
X106691D01*
X107414Y160536D01*
X107968Y161090D01*
X108268Y161813D01*
Y162596D01*
X107968Y163320D01*
X107414Y163874D01*
X106691Y164173D01*
D02*
G37*
G36*
X42321Y155512D02*
X41538D01*
X40814Y155212D01*
X40260Y154658D01*
X39961Y153935D01*
Y153152D01*
X40260Y152428D01*
X40814Y151874D01*
X41538Y151575D01*
X42321D01*
X43044Y151874D01*
X43598Y152428D01*
X43898Y153152D01*
Y153935D01*
X43598Y154658D01*
X43044Y155212D01*
X42321Y155512D01*
D02*
G37*
G36*
X100785Y153543D02*
X100002D01*
X99279Y153244D01*
X98725Y152690D01*
X98425Y151966D01*
Y151183D01*
X98725Y150460D01*
X99279Y149906D01*
X100002Y149606D01*
X100785D01*
X101509Y149906D01*
X102062Y150460D01*
X102362Y151183D01*
Y151966D01*
X102062Y152690D01*
X101509Y153244D01*
X100785Y153543D01*
D02*
G37*
G36*
X142124Y147638D02*
X141341D01*
X140617Y147338D01*
X140064Y146784D01*
X139764Y146061D01*
Y145278D01*
X140064Y144554D01*
X140617Y144000D01*
X141341Y143701D01*
X142124D01*
X142847Y144000D01*
X143401Y144554D01*
X143701Y145278D01*
Y146061D01*
X143401Y146784D01*
X142847Y147338D01*
X142124Y147638D01*
D02*
G37*
G36*
X100785Y145669D02*
X100002D01*
X99279Y145370D01*
X98725Y144816D01*
X98425Y144092D01*
Y143309D01*
X98725Y142586D01*
X99279Y142032D01*
X100002Y141732D01*
X100785D01*
X101509Y142032D01*
X102062Y142586D01*
X102362Y143309D01*
Y144092D01*
X102062Y144816D01*
X101509Y145370D01*
X100785Y145669D01*
D02*
G37*
G36*
X71258Y144488D02*
X70475D01*
X69751Y144188D01*
X69197Y143635D01*
X68898Y142911D01*
Y142128D01*
X69197Y141404D01*
X69751Y140851D01*
X70475Y140551D01*
X71258D01*
X71981Y140851D01*
X72535Y141404D01*
X72835Y142128D01*
Y142911D01*
X72535Y143635D01*
X71981Y144188D01*
X71258Y144488D01*
D02*
G37*
G36*
X24014Y135827D02*
X23231D01*
X22507Y135527D01*
X21953Y134973D01*
X21654Y134250D01*
Y133467D01*
X21953Y132743D01*
X22507Y132190D01*
X23231Y131890D01*
X24014D01*
X24737Y132190D01*
X25291Y132743D01*
X25591Y133467D01*
Y134250D01*
X25291Y134973D01*
X24737Y135527D01*
X24014Y135827D01*
D02*
G37*
G36*
X122995Y130871D02*
X122212D01*
X121488Y130571D01*
X120934Y130017D01*
X120635Y129294D01*
Y128511D01*
X120934Y127787D01*
X121488Y127233D01*
X122212Y126934D01*
X122995D01*
X123718Y127233D01*
X124272Y127787D01*
X124572Y128511D01*
Y129294D01*
X124272Y130017D01*
X123718Y130571D01*
X122995Y130871D01*
D02*
G37*
G36*
X108659Y129921D02*
X107876D01*
X107153Y129622D01*
X106599Y129068D01*
X106299Y128344D01*
Y127561D01*
X106599Y126838D01*
X107153Y126284D01*
X107876Y125984D01*
X108659D01*
X109383Y126284D01*
X109936Y126838D01*
X110236Y127561D01*
Y128344D01*
X109936Y129068D01*
X109383Y129622D01*
X108659Y129921D01*
D02*
G37*
G36*
X16140Y127953D02*
X15357D01*
X14633Y127653D01*
X14079Y127099D01*
X13780Y126376D01*
Y125593D01*
X14079Y124869D01*
X14633Y124315D01*
X15357Y124016D01*
X16140D01*
X16863Y124315D01*
X17417Y124869D01*
X17717Y125593D01*
Y126376D01*
X17417Y127099D01*
X16863Y127653D01*
X16140Y127953D01*
D02*
G37*
G36*
X153935Y116142D02*
X153152D01*
X152428Y115842D01*
X151874Y115288D01*
X151575Y114565D01*
Y113782D01*
X151874Y113058D01*
X152428Y112504D01*
X153152Y112205D01*
X153935D01*
X154658Y112504D01*
X155212Y113058D01*
X155512Y113782D01*
Y114565D01*
X155212Y115288D01*
X154658Y115842D01*
X153935Y116142D01*
D02*
G37*
G36*
X79886Y119035D02*
X78539D01*
X77237Y118687D01*
X76070Y118013D01*
X75117Y117060D01*
X74443Y115893D01*
X74094Y114591D01*
Y113243D01*
X74443Y111942D01*
X75117Y110775D01*
X76070Y109822D01*
X77237Y109148D01*
X78539Y108799D01*
X79886D01*
X81188Y109148D01*
X82355Y109822D01*
X83308Y110775D01*
X83982Y111942D01*
X84331Y113243D01*
Y114591D01*
X83982Y115893D01*
X83308Y117060D01*
X82355Y118013D01*
X81188Y118687D01*
X79886Y119035D01*
D02*
G37*
G36*
X29729D02*
X28381D01*
X27080Y118687D01*
X25912Y118013D01*
X24960Y117060D01*
X24286Y115893D01*
X23937Y114591D01*
Y113243D01*
X24286Y111942D01*
X24960Y110775D01*
X25912Y109822D01*
X27080Y109148D01*
X28381Y108799D01*
X29729D01*
X31031Y109148D01*
X32198Y109822D01*
X33151Y110775D01*
X33824Y111942D01*
X34173Y113243D01*
Y114591D01*
X33824Y115893D01*
X33151Y117060D01*
X32198Y118013D01*
X31031Y118687D01*
X29729Y119035D01*
D02*
G37*
G36*
X122045Y99213D02*
X121262D01*
X120539Y98913D01*
X119985Y98359D01*
X119685Y97636D01*
Y96852D01*
X119985Y96129D01*
X120539Y95575D01*
X121262Y95276D01*
X122045D01*
X122769Y95575D01*
X123322Y96129D01*
X123622Y96852D01*
Y97636D01*
X123322Y98359D01*
X122769Y98913D01*
X122045Y99213D01*
D02*
G37*
G36*
X40297Y390945D02*
X39467D01*
X38666Y390730D01*
X37948Y390316D01*
X37362Y389729D01*
X36947Y389011D01*
X36732Y388210D01*
Y387381D01*
X36947Y386580D01*
X37362Y385861D01*
X37948Y385275D01*
X38666Y384860D01*
X39467Y384646D01*
X40297D01*
X41098Y384860D01*
X41816Y385275D01*
X42402Y385861D01*
X42817Y386580D01*
X43031Y387381D01*
Y388210D01*
X42817Y389011D01*
X42402Y389729D01*
X41816Y390316D01*
X41098Y390730D01*
X40297Y390945D01*
D02*
G37*
G36*
X30296D02*
X29467D01*
X28666Y390730D01*
X27948Y390316D01*
X27362Y389729D01*
X26947Y389011D01*
X26732Y388210D01*
Y387381D01*
X26947Y386580D01*
X27362Y385861D01*
X27948Y385275D01*
X28666Y384860D01*
X29467Y384646D01*
X30296D01*
X31098Y384860D01*
X31816Y385275D01*
X32402Y385861D01*
X32817Y386580D01*
X33031Y387381D01*
Y388210D01*
X32817Y389011D01*
X32402Y389729D01*
X31816Y390316D01*
X31098Y390730D01*
X30296Y390945D01*
D02*
G37*
G36*
X65297Y385039D02*
X64467D01*
X63666Y384825D01*
X62948Y384410D01*
X62362Y383824D01*
X61947Y383105D01*
X61732Y382304D01*
Y381475D01*
X61947Y380674D01*
X62362Y379956D01*
X62948Y379369D01*
X63666Y378955D01*
X64467Y378740D01*
X65297D01*
X66098Y378955D01*
X66816Y379369D01*
X67402Y379956D01*
X67817Y380674D01*
X68032Y381475D01*
Y382304D01*
X67817Y383105D01*
X67402Y383824D01*
X66816Y384410D01*
X66098Y384825D01*
X65297Y385039D01*
D02*
G37*
G36*
X76673Y319626D02*
X75611D01*
X74584Y319351D01*
X73664Y318820D01*
X72913Y318068D01*
X72381Y317148D01*
X72106Y316122D01*
Y315059D01*
X72381Y314033D01*
X72913Y313113D01*
X73664Y312361D01*
X74584Y311830D01*
X75611Y311555D01*
X76673D01*
X77699Y311830D01*
X78619Y312361D01*
X79371Y313113D01*
X79902Y314033D01*
X80177Y315059D01*
Y316122D01*
X79902Y317148D01*
X79371Y318068D01*
X78619Y318820D01*
X77699Y319351D01*
X76673Y319626D01*
D02*
G37*
G36*
X26673Y309626D02*
X25611D01*
X24584Y309351D01*
X23664Y308820D01*
X22913Y308068D01*
X22381Y307148D01*
X22106Y306122D01*
Y305059D01*
X22381Y304033D01*
X22913Y303113D01*
X23664Y302361D01*
X24584Y301830D01*
X25611Y301555D01*
X26673D01*
X27699Y301830D01*
X28620Y302361D01*
X29371Y303113D01*
X29902Y304033D01*
X30177Y305059D01*
Y306122D01*
X29902Y307148D01*
X29371Y308068D01*
X28620Y308820D01*
X27699Y309351D01*
X26673Y309626D01*
D02*
G37*
G36*
X61438Y298425D02*
X60609D01*
X59808Y298211D01*
X59090Y297796D01*
X58503Y297210D01*
X58089Y296491D01*
X57874Y295690D01*
Y294861D01*
X58089Y294060D01*
X58503Y293342D01*
X59090Y292755D01*
X59808Y292341D01*
X60609Y292126D01*
X61438D01*
X62239Y292341D01*
X62958Y292755D01*
X63544Y293342D01*
X63959Y294060D01*
X64173Y294861D01*
Y295690D01*
X63959Y296491D01*
X63544Y297210D01*
X62958Y297796D01*
X62239Y298211D01*
X61438Y298425D01*
D02*
G37*
G36*
X41675D02*
X40845D01*
X40044Y298211D01*
X39326Y297796D01*
X38739Y297210D01*
X38325Y296491D01*
X38110Y295690D01*
Y294861D01*
X38325Y294060D01*
X38739Y293342D01*
X39326Y292755D01*
X40044Y292341D01*
X40845Y292126D01*
X41675D01*
X42476Y292341D01*
X43194Y292755D01*
X43780Y293342D01*
X44195Y294060D01*
X44409Y294861D01*
Y295690D01*
X44195Y296491D01*
X43780Y297210D01*
X43194Y297796D01*
X42476Y298211D01*
X41675Y298425D01*
D02*
G37*
G36*
X61438Y290551D02*
X60609D01*
X59808Y290336D01*
X59090Y289922D01*
X58503Y289335D01*
X58089Y288617D01*
X57874Y287816D01*
Y286987D01*
X58089Y286186D01*
X58503Y285468D01*
X59090Y284881D01*
X59808Y284467D01*
X60609Y284252D01*
X61438D01*
X62239Y284467D01*
X62958Y284881D01*
X63544Y285468D01*
X63959Y286186D01*
X64173Y286987D01*
Y287816D01*
X63959Y288617D01*
X63544Y289335D01*
X62958Y289922D01*
X62239Y290336D01*
X61438Y290551D01*
D02*
G37*
G36*
X41675D02*
X40845D01*
X40044Y290336D01*
X39326Y289922D01*
X38739Y289335D01*
X38325Y288617D01*
X38110Y287816D01*
Y286987D01*
X38325Y286186D01*
X38739Y285468D01*
X39326Y284881D01*
X40044Y284467D01*
X40845Y284252D01*
X41675D01*
X42476Y284467D01*
X43194Y284881D01*
X43780Y285468D01*
X44195Y286186D01*
X44409Y286987D01*
Y287816D01*
X44195Y288617D01*
X43780Y289335D01*
X43194Y289922D01*
X42476Y290336D01*
X41675Y290551D01*
D02*
G37*
G36*
X76673Y289626D02*
X75611D01*
X74584Y289351D01*
X73664Y288820D01*
X72913Y288068D01*
X72381Y287148D01*
X72106Y286122D01*
Y285059D01*
X72381Y284033D01*
X72913Y283113D01*
X73664Y282361D01*
X74584Y281830D01*
X75611Y281555D01*
X76673D01*
X77699Y281830D01*
X78619Y282361D01*
X79371Y283113D01*
X79902Y284033D01*
X80177Y285059D01*
Y286122D01*
X79902Y287148D01*
X79371Y288068D01*
X78619Y288820D01*
X77699Y289351D01*
X76673Y289626D01*
D02*
G37*
G36*
X80177Y269626D02*
X76642D01*
Y266090D01*
X80177D01*
Y269626D01*
D02*
G37*
G36*
X75642D02*
X72106D01*
Y266090D01*
X75642D01*
Y269626D01*
D02*
G37*
G36*
X80177Y265090D02*
X76642D01*
Y261555D01*
X80177D01*
Y265090D01*
D02*
G37*
G36*
X75642D02*
X72106D01*
Y261555D01*
X75642D01*
Y265090D01*
D02*
G37*
G36*
X26673Y269626D02*
X25611D01*
X24584Y269351D01*
X23664Y268820D01*
X22913Y268068D01*
X22381Y267148D01*
X22106Y266122D01*
Y265059D01*
X22381Y264033D01*
X22913Y263113D01*
X23664Y262361D01*
X24584Y261830D01*
X25611Y261555D01*
X26673D01*
X27699Y261830D01*
X28620Y262361D01*
X29371Y263113D01*
X29902Y264033D01*
X30177Y265059D01*
Y266122D01*
X29902Y267148D01*
X29371Y268068D01*
X28620Y268820D01*
X27699Y269351D01*
X26673Y269626D01*
D02*
G37*
G36*
X11811Y255472D02*
X3937D01*
Y247598D01*
X11811D01*
Y255472D01*
D02*
G37*
G36*
X30177Y249626D02*
X26642D01*
Y246091D01*
X30177D01*
Y249626D01*
D02*
G37*
G36*
X25642D02*
X22106D01*
Y246091D01*
X25642D01*
Y249626D01*
D02*
G37*
G36*
X30177Y245091D02*
X26642D01*
Y241555D01*
X30177D01*
Y245091D01*
D02*
G37*
G36*
X25642D02*
X22106D01*
Y241555D01*
X25642D01*
Y245091D01*
D02*
G37*
G36*
X8392Y245472D02*
X7356D01*
X6354Y245204D01*
X5457Y244686D01*
X4724Y243953D01*
X4205Y243055D01*
X3937Y242054D01*
Y241017D01*
X4205Y240016D01*
X4724Y239118D01*
X5457Y238385D01*
X6354Y237867D01*
X7356Y237598D01*
X8392D01*
X9394Y237867D01*
X10291Y238385D01*
X11024Y239118D01*
X11543Y240016D01*
X11811Y241017D01*
Y242054D01*
X11543Y243055D01*
X11024Y243953D01*
X10291Y244686D01*
X9394Y245204D01*
X8392Y245472D01*
D02*
G37*
G36*
X273029Y101378D02*
X272246D01*
X271523Y101078D01*
X270969Y100524D01*
X270669Y99801D01*
Y99018D01*
X270969Y98294D01*
X271523Y97741D01*
X272246Y97441D01*
X273029D01*
X273753Y97741D01*
X274307Y98294D01*
X274606Y99018D01*
Y99801D01*
X274307Y100524D01*
X273753Y101078D01*
X273029Y101378D01*
D02*
G37*
G36*
X221845Y75787D02*
X221068D01*
X220317Y75586D01*
X219644Y75197D01*
X219094Y74648D01*
X218705Y73974D01*
X218504Y73223D01*
Y72446D01*
X218705Y71695D01*
X219094Y71022D01*
X219644Y70472D01*
X220317Y70083D01*
X221068Y69882D01*
X221845D01*
X222596Y70083D01*
X223270Y70472D01*
X223819Y71022D01*
X224208Y71695D01*
X224410Y72446D01*
Y73223D01*
X224208Y73974D01*
X223819Y74648D01*
X223270Y75197D01*
X222596Y75586D01*
X221845Y75787D01*
D02*
G37*
G36*
X293896Y69882D02*
X293112D01*
X292389Y69582D01*
X292028Y69221D01*
X291666Y69582D01*
X290943Y69882D01*
X290160D01*
X289436Y69582D01*
X289075Y69221D01*
X288714Y69582D01*
X287990Y69882D01*
X287207D01*
X286483Y69582D01*
X285930Y69028D01*
X285630Y68305D01*
Y67522D01*
X285930Y66798D01*
X286291Y66437D01*
X285930Y66076D01*
X285630Y65352D01*
Y64569D01*
X285930Y63846D01*
X286483Y63292D01*
X286455Y62762D01*
X286286Y62692D01*
X285733Y62139D01*
X285433Y61415D01*
Y60632D01*
X285733Y59909D01*
X286286Y59355D01*
X287010Y59055D01*
X287793D01*
X288517Y59355D01*
X289070Y59909D01*
X289370Y60632D01*
Y61415D01*
X289070Y62139D01*
X288517Y62692D01*
X288545Y63222D01*
X288714Y63292D01*
X289075Y63653D01*
X289436Y63292D01*
X290160Y62992D01*
X290943D01*
X291666Y63292D01*
X292028Y63653D01*
X292389Y63292D01*
X293112Y62992D01*
X293896D01*
X294619Y63292D01*
X295173Y63846D01*
X295472Y64569D01*
Y65352D01*
X295173Y66076D01*
X294811Y66437D01*
X295173Y66798D01*
X295472Y67522D01*
Y68305D01*
X295173Y69028D01*
X294619Y69582D01*
X293896Y69882D01*
D02*
G37*
G36*
X300715Y76772D02*
X299678D01*
X298677Y76503D01*
X297779Y75985D01*
X297046Y75252D01*
X296528Y74354D01*
X296260Y73353D01*
Y72316D01*
X296528Y71315D01*
X297046Y70417D01*
X297779Y69684D01*
X298677Y69166D01*
X299678Y68898D01*
X300715D01*
X301716Y69166D01*
X302614Y69684D01*
X303347Y70417D01*
X303866Y71315D01*
X304134Y72316D01*
Y73353D01*
X303866Y74354D01*
X303347Y75252D01*
X302614Y75985D01*
X301716Y76503D01*
X300715Y76772D01*
D02*
G37*
G36*
X268108Y72835D02*
X267325D01*
X266601Y72535D01*
X266048Y71981D01*
X265748Y71258D01*
Y70475D01*
X266048Y69751D01*
X266601Y69197D01*
X267325Y68898D01*
X268108D01*
X268832Y69197D01*
X269385Y69751D01*
X269685Y70475D01*
Y71258D01*
X269385Y71981D01*
X268832Y72535D01*
X268108Y72835D01*
D02*
G37*
G36*
X193328Y85827D02*
X192499D01*
X191698Y85612D01*
X190980Y85198D01*
X190393Y84611D01*
X189978Y83893D01*
X189764Y83092D01*
Y82262D01*
X189978Y81462D01*
X190393Y80743D01*
X190980Y80157D01*
X191698Y79742D01*
X192499Y79527D01*
X193283D01*
X193413Y79475D01*
X193649Y79240D01*
X193701Y79110D01*
Y78370D01*
X193649Y78240D01*
X193413Y78005D01*
X193283Y77953D01*
X192499D01*
X191698Y77738D01*
X190980Y77324D01*
X190393Y76737D01*
X189978Y76019D01*
X189764Y75218D01*
Y74388D01*
X189978Y73587D01*
X190393Y72869D01*
X190980Y72283D01*
X191698Y71868D01*
X192499Y71653D01*
X193283D01*
X193413Y71601D01*
X193649Y71366D01*
X193701Y71236D01*
Y70451D01*
X193915Y69650D01*
X194330Y68932D01*
X194916Y68346D01*
X195635Y67931D01*
X196436Y67716D01*
X197265D01*
X198066Y67931D01*
X198784Y68346D01*
X199371Y68932D01*
X199785Y69650D01*
X200000Y70451D01*
Y71281D01*
X199785Y72082D01*
X199371Y72800D01*
X198784Y73386D01*
X198066Y73801D01*
X197265Y74016D01*
X196481D01*
X196350Y74068D01*
X196115Y74303D01*
X196063Y74433D01*
Y75173D01*
X196115Y75303D01*
X196350Y75538D01*
X196481Y75590D01*
X197265D01*
X198066Y75805D01*
X198784Y76220D01*
X199371Y76806D01*
X199785Y77524D01*
X200000Y78325D01*
Y79155D01*
X199785Y79956D01*
X199371Y80674D01*
X198784Y81261D01*
X198066Y81675D01*
X197265Y81890D01*
X196481D01*
X196350Y81942D01*
X196115Y82177D01*
X196063Y82307D01*
Y83092D01*
X195848Y83893D01*
X195434Y84611D01*
X194847Y85198D01*
X194129Y85612D01*
X193328Y85827D01*
D02*
G37*
G36*
X258266Y66142D02*
X257483D01*
X256759Y65842D01*
X256299Y65382D01*
X255839Y65842D01*
X255116Y66142D01*
X254333D01*
X253609Y65842D01*
X253056Y65288D01*
X252756Y64565D01*
Y63782D01*
X253056Y63058D01*
X253609Y62504D01*
X254333Y62205D01*
X255116D01*
X255839Y62504D01*
X256299Y62964D01*
X256759Y62504D01*
X257483Y62205D01*
X258266D01*
X258989Y62504D01*
X259543Y63058D01*
X259842Y63782D01*
Y64565D01*
X259543Y65288D01*
X258989Y65842D01*
X258266Y66142D01*
D02*
G37*
G36*
X169683Y68898D02*
X168900D01*
X168176Y68598D01*
X167622Y68044D01*
X167323Y67321D01*
Y66538D01*
X167622Y65814D01*
X168176Y65260D01*
X168900Y64961D01*
X169683D01*
X170406Y65260D01*
X170960Y65814D01*
X171260Y66538D01*
Y67321D01*
X170960Y68044D01*
X170406Y68598D01*
X169683Y68898D01*
D02*
G37*
G36*
X269289Y64173D02*
X268506D01*
X267783Y63873D01*
X267323Y63414D01*
X266863Y63873D01*
X266140Y64173D01*
X265356D01*
X264633Y63873D01*
X264079Y63320D01*
X263779Y62596D01*
Y61813D01*
X264079Y61090D01*
X264633Y60536D01*
X265356Y60236D01*
X266140D01*
X266863Y60536D01*
X267323Y60996D01*
X267783Y60536D01*
X268506Y60236D01*
X269289D01*
X270013Y60536D01*
X270567Y61090D01*
X270866Y61813D01*
Y62596D01*
X270567Y63320D01*
X270013Y63873D01*
X269289Y64173D01*
D02*
G37*
G36*
X165746Y64961D02*
X164963D01*
X164239Y64661D01*
X163686Y64107D01*
X163386Y63384D01*
Y62601D01*
X163686Y61877D01*
X164239Y61323D01*
X164963Y61024D01*
X165746D01*
X166469Y61323D01*
X167023Y61877D01*
X167323Y62601D01*
Y63384D01*
X167023Y64107D01*
X166469Y64661D01*
X165746Y64961D01*
D02*
G37*
G36*
X306494Y49213D02*
X305711D01*
X304987Y48913D01*
X304434Y48359D01*
X304134Y47636D01*
Y46852D01*
X304434Y46129D01*
X304987Y45575D01*
X305711Y45276D01*
X306494D01*
X307218Y45575D01*
X307771Y46129D01*
X308071Y46852D01*
Y47636D01*
X307771Y48359D01*
X307218Y48913D01*
X306494Y49213D01*
D02*
G37*
G36*
X215943D02*
X215160D01*
X214436Y48913D01*
X213882Y48359D01*
X213583Y47636D01*
Y46852D01*
X213882Y46129D01*
X214436Y45575D01*
X215160Y45276D01*
X215943D01*
X216666Y45575D01*
X217220Y46129D01*
X217520Y46852D01*
Y47636D01*
X217220Y48359D01*
X216666Y48913D01*
X215943Y49213D01*
D02*
G37*
G36*
X185431Y48031D02*
X184648D01*
X183924Y47732D01*
X183371Y47178D01*
X183071Y46455D01*
Y45671D01*
X183371Y44948D01*
X183924Y44394D01*
X184648Y44094D01*
X185431D01*
X186154Y44394D01*
X186708Y44948D01*
X187008Y45671D01*
Y46455D01*
X186708Y47178D01*
X186154Y47732D01*
X185431Y48031D01*
D02*
G37*
G36*
X107675Y42717D02*
X106892D01*
X106168Y42417D01*
X105807Y42055D01*
X105446Y42417D01*
X104722Y42717D01*
X103939D01*
X103216Y42417D01*
X102854Y42055D01*
X102493Y42417D01*
X101769Y42717D01*
X100986D01*
X100263Y42417D01*
X99709Y41863D01*
X99410Y41140D01*
Y40356D01*
X99709Y39633D01*
X100070Y39272D01*
X99709Y38910D01*
X99410Y38187D01*
Y37404D01*
X99709Y36680D01*
X100263Y36127D01*
X100986Y35827D01*
X101769D01*
X102493Y36127D01*
X102854Y36488D01*
X103216Y36127D01*
X103939Y35827D01*
X104722D01*
X105446Y36127D01*
X105807Y36488D01*
X106168Y36127D01*
X106892Y35827D01*
X107675D01*
X108398Y36127D01*
X108952Y36680D01*
X109252Y37404D01*
Y38187D01*
X108952Y38910D01*
X108591Y39272D01*
X108952Y39633D01*
X109252Y40356D01*
Y41140D01*
X108952Y41863D01*
X108398Y42417D01*
X107675Y42717D01*
D02*
G37*
G36*
X257281Y45079D02*
X256498D01*
X255775Y44779D01*
X255221Y44225D01*
X254921Y43502D01*
Y42719D01*
X255221Y41995D01*
X255775Y41441D01*
X256498Y41142D01*
X257281D01*
X258005Y41441D01*
X258559Y41995D01*
X258858Y42719D01*
Y43502D01*
X258559Y44225D01*
X258005Y44779D01*
X257281Y45079D01*
D02*
G37*
G36*
X216533Y44488D02*
X215750D01*
X215027Y44188D01*
X214473Y43635D01*
X214173Y42911D01*
Y42128D01*
X214473Y41405D01*
X215027Y40851D01*
X215750Y40551D01*
X216533D01*
X217257Y40851D01*
X217811Y41405D01*
X218110Y42128D01*
Y42911D01*
X217811Y43635D01*
X217257Y44188D01*
X216533Y44488D01*
D02*
G37*
G36*
X118499Y46260D02*
X117721D01*
X116971Y46059D01*
X116297Y45670D01*
X115747Y45120D01*
X115359Y44447D01*
X115157Y43696D01*
Y42918D01*
X115359Y42167D01*
X115747Y41494D01*
X116297Y40944D01*
X116971Y40556D01*
X117721Y40354D01*
X118499D01*
X119250Y40556D01*
X119923Y40944D01*
X120473Y41494D01*
X120862Y42167D01*
X121063Y42918D01*
Y43696D01*
X120862Y44447D01*
X120473Y45120D01*
X119923Y45670D01*
X119250Y46059D01*
X118499Y46260D01*
D02*
G37*
G36*
X197369Y47244D02*
X196332D01*
X195331Y46976D01*
X194433Y46457D01*
X193700Y45724D01*
X193182Y44827D01*
X192913Y43825D01*
Y42789D01*
X193182Y41787D01*
X193700Y40890D01*
X194433Y40157D01*
X195331Y39638D01*
X196332Y39370D01*
X197369D01*
X198370Y39638D01*
X199268Y40157D01*
X200001Y40890D01*
X200519Y41787D01*
X200787Y42789D01*
Y43825D01*
X200519Y44827D01*
X200001Y45724D01*
X199268Y46457D01*
X198370Y46976D01*
X197369Y47244D01*
D02*
G37*
G36*
X310628Y36614D02*
X309845D01*
X309121Y36314D01*
X308567Y35761D01*
X308268Y35037D01*
Y34254D01*
X308567Y33531D01*
X309121Y32977D01*
X309845Y32677D01*
X310628D01*
X311351Y32977D01*
X311905Y33531D01*
X312205Y34254D01*
Y35037D01*
X311905Y35761D01*
X311351Y36314D01*
X310628Y36614D01*
D02*
G37*
G36*
X258266Y35433D02*
X257483D01*
X256759Y35133D01*
X256205Y34580D01*
X255906Y33856D01*
Y33073D01*
X256205Y32350D01*
X256759Y31796D01*
X257483Y31496D01*
X258266D01*
X258989Y31796D01*
X259543Y32350D01*
X259842Y33073D01*
Y33856D01*
X259543Y34580D01*
X258989Y35133D01*
X258266Y35433D01*
D02*
G37*
G36*
X203148D02*
X202364D01*
X201641Y35133D01*
X201087Y34580D01*
X200787Y33856D01*
Y33073D01*
X201087Y32350D01*
X201641Y31796D01*
X202364Y31496D01*
X203148D01*
X203871Y31796D01*
X204425Y32350D01*
X204724Y33073D01*
Y33856D01*
X204425Y34580D01*
X203871Y35133D01*
X203148Y35433D01*
D02*
G37*
G36*
X112596D02*
X111813D01*
X111090Y35133D01*
X110536Y34580D01*
X110236Y33856D01*
Y33073D01*
X110536Y32350D01*
X111090Y31796D01*
X111813Y31496D01*
X112596D01*
X113320Y31796D01*
X113874Y32350D01*
X114173Y33073D01*
Y33856D01*
X113874Y34580D01*
X113320Y35133D01*
X112596Y35433D01*
D02*
G37*
G36*
X183462Y35433D02*
X182679D01*
X181956Y35133D01*
X181402Y34580D01*
X181102Y33856D01*
Y33073D01*
X181402Y32350D01*
X181956Y31796D01*
X182679Y31496D01*
X183462D01*
X184186Y31796D01*
X184740Y32350D01*
X185039Y33073D01*
Y33856D01*
X184740Y34580D01*
X184186Y35133D01*
X183462Y35433D01*
D02*
G37*
G36*
X153935Y33465D02*
X153152D01*
X152428Y33165D01*
X151874Y32611D01*
X151575Y31888D01*
Y31104D01*
X151874Y30381D01*
X152428Y29827D01*
X153152Y29528D01*
X153935D01*
X154658Y29827D01*
X155212Y30381D01*
X155512Y31104D01*
Y31888D01*
X155212Y32611D01*
X154658Y33165D01*
X153935Y33465D01*
D02*
G37*
G36*
X286579Y38327D02*
X285232D01*
X283930Y37978D01*
X282763Y37304D01*
X281810Y36351D01*
X281136Y35184D01*
X280787Y33882D01*
Y32535D01*
X281136Y31233D01*
X281810Y30066D01*
X282763Y29113D01*
X283930Y28439D01*
X285232Y28091D01*
X286579D01*
X287881Y28439D01*
X289048Y29113D01*
X290001Y30066D01*
X290675Y31233D01*
X291024Y32535D01*
Y33882D01*
X290675Y35184D01*
X290001Y36351D01*
X289048Y37304D01*
X287881Y37978D01*
X286579Y38327D01*
D02*
G37*
G36*
X236422D02*
X235074D01*
X233772Y37978D01*
X232605Y37304D01*
X231652Y36351D01*
X230979Y35184D01*
X230630Y33882D01*
Y32535D01*
X230979Y31233D01*
X231652Y30066D01*
X232605Y29113D01*
X233772Y28439D01*
X235074Y28091D01*
X236422D01*
X237723Y28439D01*
X238891Y29113D01*
X239844Y30066D01*
X240517Y31233D01*
X240866Y32535D01*
Y33882D01*
X240517Y35184D01*
X239844Y36351D01*
X238891Y37304D01*
X237723Y37978D01*
X236422Y38327D01*
D02*
G37*
G36*
X199211Y16142D02*
X198427D01*
X197704Y15842D01*
X197150Y15288D01*
X196850Y14565D01*
Y13782D01*
X197150Y13058D01*
X197704Y12504D01*
X198427Y12205D01*
X199211D01*
X199934Y12504D01*
X200488Y13058D01*
X200787Y13782D01*
Y14565D01*
X200488Y15288D01*
X199934Y15842D01*
X199211Y16142D01*
D02*
G37*
%LPD*%
D81*
X26142Y245590D02*
D03*
X76142Y265591D02*
D03*
D87*
X135827Y181496D02*
D03*
Y179134D02*
D03*
X259842Y37402D02*
D03*
X115157Y61024D02*
D03*
X118110D02*
D03*
X121063D02*
D03*
Y63976D02*
D03*
X118110D02*
D03*
X115157D02*
D03*
X188976Y39370D02*
D03*
X296260Y97441D02*
D03*
X299213D02*
D03*
X302165D02*
D03*
Y94488D02*
D03*
X299213D02*
D03*
X296260D02*
D03*
X283465Y15748D02*
D03*
X37795Y153543D02*
D03*
X222835Y118110D02*
D03*
X7874Y124016D02*
D03*
X133858Y157480D02*
D03*
X107480Y150787D02*
D03*
X94488Y187008D02*
D03*
X88583Y188976D02*
D03*
X96457Y155512D02*
D03*
X88583Y143701D02*
D03*
X108268D02*
D03*
X183071Y92520D02*
D03*
X123256Y124759D02*
D03*
X125984Y88583D02*
D03*
D88*
X9882Y319685D02*
D03*
Y324016D02*
D03*
X226378Y104331D02*
D03*
X230315Y100394D02*
D03*
Y92520D02*
D03*
X226378Y96457D02*
D03*
X177165Y361811D02*
D03*
X173228D02*
D03*
X141732D02*
D03*
X9882Y385827D02*
D03*
X19882D02*
D03*
M02*
