M48
;Layer_Color=9474304
;FILE_FORMAT=2:5
INCH,TZ
;TYPE=PLATED
T1F00S00C0.00787
T2F00S00C0.01181
T3F00S00C0.04000
T4F00S00C0.04016
T5F00S00C0.04331
%
T01
X78707Y41542
X78740Y46063
X78346Y51575
Y56299
X75009Y61486
X74803Y66142
X81102Y111811
Y114173
X68852Y120482
X58323Y122496
X102404Y125484
X102756Y116929
X127165Y105118
X133858
Y86614
X131799Y150000
Y152756
Y155512
X131693Y158268
X138878
Y155512
Y152897
Y150394
X127854Y200787
X124016
T02
X61417Y83858
X94882Y79921
X107087Y80315
X125197Y79921
X120472Y101575
X124803Y110630
X122441Y131496
X121260Y143307
X103937Y146063
X85039Y136221
X83071Y127559
X88189
X76378Y115748
X85039Y159843
X98425Y173622
X99213Y207087
X122020Y190202
X122673Y186058
X157480Y83858
X43701Y81496
X23622Y202756
X37008Y228740
X49606Y250000
X21260Y270472
X21654Y322441
X11024Y332677
X64961Y214173
X99606Y228346
X106299
X119291Y226378
X123622Y217717
X118898Y253150
X109843Y247638
T03
X150787Y115354
X180709
Y169685
X150787
T04
X38189Y23701
Y33701
Y43701
Y53701
X48189
Y43701
Y33701
Y23701
X148449Y23701
Y33701
Y43701
Y53701
X158449
Y43701
Y33701
Y23701
Y63701
X148449
Y73701
X158449
X48189Y73701
X38189
Y63701
X48189
T05
X100000Y91417
Y101417
Y111417
Y121417
Y131417
Y141417
Y151417
Y161417
X38976
Y151417
Y141417
Y131417
Y121417
Y111417
Y101417
Y91417
M30
