G04*
G04 #@! TF.GenerationSoftware,Altium Limited,Altium Designer,21.1.1 (26)*
G04*
G04 Layer_Color=16711935*
%FSLAX25Y25*%
%MOIN*%
G70*
G04*
G04 #@! TF.SameCoordinates,A0B2FF02-B728-4D00-99DE-4778D014F070*
G04*
G04*
G04 #@! TF.FilePolarity,Negative*
G04*
G01*
G75*
%ADD38R,0.04343X0.04737*%
%ADD50C,0.07800*%
%ADD51C,0.06824*%
%ADD52R,0.06824X0.06824*%
%ADD53C,0.07099*%
%ADD54R,0.07099X0.07099*%
D38*
X110630Y161417D02*
D03*
X116929D02*
D03*
Y151417D02*
D03*
X110630D02*
D03*
X116929Y141417D02*
D03*
X110630D02*
D03*
X116929Y131417D02*
D03*
X110630D02*
D03*
X116929Y101417D02*
D03*
X110630D02*
D03*
X116929Y111417D02*
D03*
X110630D02*
D03*
X116929Y121417D02*
D03*
X110630D02*
D03*
X116929Y91417D02*
D03*
X110630D02*
D03*
D50*
X180709Y169685D02*
D03*
X150787D02*
D03*
X180709Y115354D02*
D03*
X150787D02*
D03*
D51*
X148449Y73701D02*
D03*
Y63701D02*
D03*
Y53701D02*
D03*
Y43701D02*
D03*
Y33701D02*
D03*
Y23701D02*
D03*
X158449Y73701D02*
D03*
Y63701D02*
D03*
Y53701D02*
D03*
Y43701D02*
D03*
Y33701D02*
D03*
X38189Y33701D02*
D03*
Y43701D02*
D03*
Y53701D02*
D03*
Y63701D02*
D03*
Y73701D02*
D03*
X48189Y23701D02*
D03*
Y33701D02*
D03*
Y43701D02*
D03*
Y53701D02*
D03*
Y63701D02*
D03*
Y73701D02*
D03*
D52*
X158449Y23701D02*
D03*
X38189Y23701D02*
D03*
D53*
X100000Y161417D02*
D03*
Y151417D02*
D03*
Y131417D02*
D03*
Y111417D02*
D03*
Y101417D02*
D03*
Y121417D02*
D03*
Y141417D02*
D03*
X38976Y91417D02*
D03*
Y101417D02*
D03*
Y121417D02*
D03*
Y141417D02*
D03*
Y151417D02*
D03*
Y131417D02*
D03*
Y111417D02*
D03*
D54*
X100000Y91417D02*
D03*
X38976Y161417D02*
D03*
M02*
