G04*
G04 #@! TF.GenerationSoftware,Altium Limited,Altium Designer,21.1.1 (26)*
G04*
G04 Layer_Color=65535*
%FSLAX25Y25*%
%MOIN*%
G70*
G04*
G04 #@! TF.SameCoordinates,A0B2FF02-B728-4D00-99DE-4778D014F070*
G04*
G04*
G04 #@! TF.FilePolarity,Positive*
G04*
G01*
G75*
%ADD10C,0.00984*%
%ADD11C,0.01000*%
%ADD12C,0.01968*%
%ADD13C,0.01575*%
%ADD14C,0.00394*%
%ADD15C,0.00500*%
%ADD16C,0.00787*%
%ADD17C,0.00591*%
%ADD18C,0.00600*%
%ADD19R,0.06248X0.02000*%
G36*
X9120Y91409D02*
X7415Y92394D01*
Y90425D01*
X9120Y91409D01*
D02*
G37*
G36*
X71252Y32219D02*
X72236Y33923D01*
X70268D01*
X71252Y32219D01*
D02*
G37*
G36*
X9120Y101409D02*
X7415Y102394D01*
Y100425D01*
X9120Y101409D01*
D02*
G37*
G36*
Y111409D02*
X7415Y112394D01*
Y110425D01*
X9120Y111409D01*
D02*
G37*
G36*
Y121409D02*
X7415Y122394D01*
Y120425D01*
X9120Y121409D01*
D02*
G37*
G36*
X9120Y131409D02*
X7415Y132394D01*
Y130425D01*
X9120Y131409D01*
D02*
G37*
G36*
Y141409D02*
X7415Y142394D01*
Y140425D01*
X9120Y141409D01*
D02*
G37*
G36*
Y151409D02*
X7415Y152394D01*
Y150425D01*
X9120Y151409D01*
D02*
G37*
G36*
Y161409D02*
X7415Y162394D01*
Y160425D01*
X9120Y161409D01*
D02*
G37*
G36*
X133465Y192886D02*
X114419D01*
Y199558D01*
X133465D01*
Y192886D01*
D02*
G37*
G36*
X33021Y228160D02*
X837D01*
Y234832D01*
X33021D01*
Y228160D01*
D02*
G37*
G36*
X79428Y154931D02*
X52855D01*
Y161604D01*
X79428D01*
Y154931D01*
D02*
G37*
G36*
X75738Y283278D02*
X58121D01*
Y289950D01*
X75738D01*
Y283278D01*
D02*
G37*
G36*
X134252Y228947D02*
X114026D01*
Y235620D01*
X134252D01*
Y228947D01*
D02*
G37*
%LPC*%
G36*
X127211Y198572D02*
X127172D01*
X127000Y198567D01*
X126832Y198547D01*
X126675Y198513D01*
X126528Y198473D01*
X126390Y198424D01*
X126267Y198375D01*
X126149Y198316D01*
X126045Y198257D01*
X125952Y198198D01*
X125868Y198144D01*
X125799Y198090D01*
X125740Y198040D01*
X125691Y198001D01*
X125662Y197971D01*
X125637Y197947D01*
X125632Y197942D01*
X125529Y197819D01*
X125440Y197686D01*
X125361Y197548D01*
X125297Y197406D01*
X125238Y197258D01*
X125194Y197110D01*
X125155Y196968D01*
X125125Y196825D01*
X125101Y196697D01*
X125081Y196574D01*
X125071Y196461D01*
X125061Y196368D01*
X125056Y196289D01*
X125051Y196259D01*
Y196180D01*
X125056Y195984D01*
X125076Y195802D01*
X125106Y195630D01*
X125140Y195467D01*
X125184Y195315D01*
X125233Y195177D01*
X125288Y195049D01*
X125342Y194936D01*
X125396Y194832D01*
X125450Y194744D01*
X125499Y194670D01*
X125543Y194606D01*
X125578Y194557D01*
X125607Y194523D01*
X125627Y194498D01*
X125632Y194493D01*
X125745Y194385D01*
X125863Y194291D01*
X125986Y194208D01*
X126109Y194139D01*
X126232Y194080D01*
X126355Y194030D01*
X126478Y193986D01*
X126591Y193957D01*
X126700Y193927D01*
X126803Y193912D01*
X126892Y193898D01*
X126965Y193888D01*
X127029Y193883D01*
X127078Y193878D01*
X127118D01*
X127251Y193883D01*
X127379Y193893D01*
X127502Y193912D01*
X127615Y193932D01*
X127723Y193962D01*
X127821Y193991D01*
X127915Y194026D01*
X127994Y194060D01*
X128072Y194089D01*
X128136Y194124D01*
X128190Y194153D01*
X128240Y194183D01*
X128274Y194203D01*
X128304Y194222D01*
X128318Y194232D01*
X128323Y194237D01*
X128412Y194311D01*
X128490Y194390D01*
X128564Y194473D01*
X128633Y194567D01*
X128692Y194655D01*
X128751Y194749D01*
X128800Y194842D01*
X128845Y194931D01*
X128884Y195015D01*
X128919Y195093D01*
X128943Y195167D01*
X128968Y195226D01*
X128988Y195280D01*
X128997Y195315D01*
X129007Y195339D01*
Y195349D01*
X128117Y195624D01*
X128092Y195536D01*
X128067Y195447D01*
X128038Y195369D01*
X128008Y195300D01*
X127974Y195231D01*
X127944Y195172D01*
X127910Y195118D01*
X127881Y195069D01*
X127851Y195029D01*
X127821Y194990D01*
X127797Y194960D01*
X127777Y194936D01*
X127758Y194916D01*
X127743Y194901D01*
X127738Y194896D01*
X127733Y194892D01*
X127684Y194852D01*
X127629Y194818D01*
X127526Y194759D01*
X127423Y194719D01*
X127324Y194690D01*
X127236Y194675D01*
X127201Y194665D01*
X127167D01*
X127143Y194660D01*
X127108D01*
X127020Y194665D01*
X126931Y194675D01*
X126847Y194695D01*
X126774Y194719D01*
X126700Y194744D01*
X126636Y194773D01*
X126572Y194808D01*
X126518Y194842D01*
X126468Y194877D01*
X126424Y194911D01*
X126390Y194941D01*
X126355Y194965D01*
X126336Y194990D01*
X126316Y195010D01*
X126306Y195019D01*
X126301Y195024D01*
X126247Y195098D01*
X126203Y195182D01*
X126158Y195270D01*
X126124Y195369D01*
X126094Y195472D01*
X126070Y195570D01*
X126035Y195772D01*
X126021Y195871D01*
X126011Y195959D01*
X126006Y196038D01*
X126001Y196112D01*
X125996Y196166D01*
Y196210D01*
Y196240D01*
Y196249D01*
X126001Y196397D01*
X126011Y196535D01*
X126026Y196658D01*
X126045Y196776D01*
X126070Y196884D01*
X126094Y196977D01*
X126124Y197066D01*
X126154Y197140D01*
X126178Y197209D01*
X126208Y197268D01*
X126232Y197317D01*
X126257Y197356D01*
X126277Y197386D01*
X126291Y197411D01*
X126301Y197420D01*
X126306Y197425D01*
X126365Y197489D01*
X126434Y197543D01*
X126498Y197593D01*
X126567Y197637D01*
X126636Y197671D01*
X126705Y197701D01*
X126774Y197725D01*
X126837Y197745D01*
X126897Y197760D01*
X126951Y197770D01*
X127000Y197780D01*
X127044Y197784D01*
X127078Y197789D01*
X127128D01*
X127260Y197780D01*
X127379Y197755D01*
X127482Y197725D01*
X127575Y197686D01*
X127649Y197647D01*
X127679Y197632D01*
X127703Y197617D01*
X127723Y197602D01*
X127738Y197593D01*
X127743Y197588D01*
X127748Y197583D01*
X127836Y197499D01*
X127910Y197411D01*
X127969Y197317D01*
X128013Y197229D01*
X128048Y197150D01*
X128062Y197115D01*
X128072Y197086D01*
X128077Y197061D01*
X128082Y197041D01*
X128087Y197032D01*
Y197027D01*
X128992Y197243D01*
X128963Y197342D01*
X128928Y197435D01*
X128889Y197519D01*
X128855Y197602D01*
X128815Y197676D01*
X128776Y197745D01*
X128736Y197804D01*
X128702Y197863D01*
X128663Y197912D01*
X128633Y197957D01*
X128604Y197991D01*
X128574Y198021D01*
X128554Y198045D01*
X128540Y198060D01*
X128530Y198070D01*
X128525Y198075D01*
X128422Y198163D01*
X128318Y198237D01*
X128205Y198306D01*
X128092Y198360D01*
X127979Y198409D01*
X127866Y198449D01*
X127758Y198483D01*
X127654Y198508D01*
X127556Y198532D01*
X127462Y198547D01*
X127379Y198557D01*
X127310Y198562D01*
X127251Y198567D01*
X127211Y198572D01*
D02*
G37*
G36*
X119713Y198498D02*
X118336D01*
X117529Y195398D01*
X116712Y198498D01*
X115339D01*
Y193957D01*
X116186D01*
Y197529D01*
X117081Y193957D01*
X117967D01*
X118862Y197529D01*
X118867Y193957D01*
X119713D01*
Y198498D01*
D02*
G37*
G36*
X122911D02*
X121937D01*
X120171Y193957D01*
X121140D01*
X121519Y194990D01*
X123334D01*
X123733Y193957D01*
X124732D01*
X122911Y198498D01*
D02*
G37*
G36*
X131098Y198513D02*
X131069D01*
X130950Y198508D01*
X130837Y198493D01*
X130729Y198468D01*
X130631Y198439D01*
X130537Y198404D01*
X130454Y198365D01*
X130375Y198321D01*
X130306Y198281D01*
X130247Y198237D01*
X130193Y198193D01*
X130149Y198153D01*
X130109Y198119D01*
X130080Y198090D01*
X130060Y198065D01*
X130045Y198050D01*
X130040Y198045D01*
X129962Y197932D01*
X129893Y197804D01*
X129834Y197666D01*
X129785Y197519D01*
X129740Y197366D01*
X129706Y197214D01*
X129676Y197061D01*
X129652Y196909D01*
X129637Y196766D01*
X129622Y196633D01*
X129612Y196515D01*
X129603Y196407D01*
Y196363D01*
Y196323D01*
X129597Y196289D01*
Y196200D01*
X129603Y195964D01*
X129617Y195748D01*
X129637Y195546D01*
X129662Y195364D01*
X129691Y195196D01*
X129726Y195049D01*
X129760Y194916D01*
X129799Y194798D01*
X129839Y194700D01*
X129873Y194611D01*
X129908Y194537D01*
X129937Y194478D01*
X129962Y194434D01*
X129986Y194404D01*
X129996Y194385D01*
X130001Y194380D01*
X130080Y194291D01*
X130163Y194212D01*
X130252Y194144D01*
X130341Y194085D01*
X130429Y194040D01*
X130518Y193996D01*
X130601Y193962D01*
X130685Y193937D01*
X130764Y193917D01*
X130837Y193898D01*
X130901Y193888D01*
X130960Y193883D01*
X131005Y193878D01*
X131039Y193873D01*
X131069D01*
X131187Y193878D01*
X131300Y193893D01*
X131408Y193917D01*
X131507Y193947D01*
X131600Y193981D01*
X131684Y194021D01*
X131762Y194060D01*
X131831Y194104D01*
X131890Y194149D01*
X131944Y194188D01*
X131994Y194227D01*
X132028Y194262D01*
X132057Y194291D01*
X132082Y194316D01*
X132092Y194331D01*
X132097Y194335D01*
X132176Y194449D01*
X132245Y194577D01*
X132304Y194719D01*
X132358Y194862D01*
X132397Y195015D01*
X132436Y195172D01*
X132466Y195324D01*
X132491Y195477D01*
X132505Y195620D01*
X132520Y195753D01*
X132530Y195876D01*
X132540Y195979D01*
Y196028D01*
Y196067D01*
X132545Y196102D01*
Y196190D01*
X132540Y196422D01*
X132525Y196638D01*
X132505Y196840D01*
X132476Y197022D01*
X132441Y197189D01*
X132407Y197342D01*
X132363Y197479D01*
X132323Y197598D01*
X132284Y197706D01*
X132245Y197794D01*
X132205Y197873D01*
X132171Y197932D01*
X132141Y197981D01*
X132122Y198016D01*
X132107Y198035D01*
X132102Y198040D01*
X132028Y198124D01*
X131949Y198198D01*
X131866Y198262D01*
X131782Y198316D01*
X131698Y198360D01*
X131610Y198399D01*
X131526Y198429D01*
X131448Y198453D01*
X131369Y198473D01*
X131295Y198488D01*
X131231Y198498D01*
X131177Y198508D01*
X131133D01*
X131098Y198513D01*
D02*
G37*
%LPD*%
G36*
X123044Y195757D02*
X121799D01*
X122414Y197440D01*
X123044Y195757D01*
D02*
G37*
G36*
X131128Y197784D02*
X131177Y197775D01*
X131226Y197755D01*
X131270Y197740D01*
X131300Y197721D01*
X131329Y197701D01*
X131344Y197691D01*
X131349Y197686D01*
X131393Y197642D01*
X131433Y197583D01*
X131467Y197519D01*
X131497Y197450D01*
X131521Y197386D01*
X131536Y197337D01*
X131541Y197317D01*
X131546Y197302D01*
X131551Y197292D01*
Y197287D01*
X131565Y197224D01*
X131580Y197155D01*
X131590Y197076D01*
X131600Y196987D01*
X131615Y196810D01*
X131625Y196628D01*
X131630Y196540D01*
Y196461D01*
X131634Y196382D01*
Y196318D01*
Y196264D01*
Y196225D01*
Y196200D01*
Y196190D01*
Y196048D01*
X131630Y195910D01*
X131625Y195787D01*
X131620Y195674D01*
X131615Y195570D01*
X131605Y195477D01*
X131595Y195393D01*
X131590Y195319D01*
X131580Y195255D01*
X131570Y195201D01*
X131561Y195157D01*
X131556Y195118D01*
X131551Y195088D01*
X131546Y195069D01*
X131541Y195059D01*
Y195054D01*
X131511Y194965D01*
X131482Y194887D01*
X131452Y194827D01*
X131418Y194778D01*
X131393Y194739D01*
X131369Y194714D01*
X131354Y194700D01*
X131349Y194695D01*
X131300Y194660D01*
X131256Y194636D01*
X131206Y194621D01*
X131162Y194611D01*
X131123Y194601D01*
X131093Y194596D01*
X131069D01*
X131010Y194601D01*
X130960Y194611D01*
X130911Y194626D01*
X130872Y194646D01*
X130837Y194665D01*
X130808Y194680D01*
X130793Y194690D01*
X130788Y194695D01*
X130744Y194739D01*
X130704Y194798D01*
X130670Y194862D01*
X130641Y194931D01*
X130616Y194990D01*
X130601Y195039D01*
X130596Y195059D01*
X130591Y195073D01*
X130587Y195083D01*
Y195088D01*
X130572Y195152D01*
X130562Y195221D01*
X130552Y195300D01*
X130542Y195388D01*
X130527Y195570D01*
X130518Y195753D01*
X130513Y195841D01*
Y195920D01*
Y195994D01*
X130508Y196062D01*
Y196117D01*
Y196156D01*
Y196180D01*
Y196190D01*
Y196333D01*
X130513Y196466D01*
X130518Y196594D01*
X130523Y196702D01*
X130527Y196805D01*
X130537Y196899D01*
X130542Y196983D01*
X130552Y197056D01*
X130562Y197120D01*
X130567Y197179D01*
X130577Y197224D01*
X130581Y197263D01*
X130587Y197292D01*
X130591Y197312D01*
X130596Y197322D01*
Y197327D01*
X130626Y197415D01*
X130655Y197494D01*
X130690Y197553D01*
X130719Y197602D01*
X130744Y197642D01*
X130769Y197666D01*
X130783Y197681D01*
X130788Y197686D01*
X130837Y197721D01*
X130882Y197745D01*
X130931Y197765D01*
X130975Y197775D01*
X131015Y197784D01*
X131044Y197789D01*
X131069D01*
X131128Y197784D01*
D02*
G37*
%LPC*%
G36*
X30216Y233772D02*
X28838D01*
X28031Y230672D01*
X27214Y233772D01*
X25842D01*
Y229230D01*
X26688D01*
Y232802D01*
X27583Y229230D01*
X28469D01*
X29364Y232802D01*
X29369Y229230D01*
X30216D01*
Y233772D01*
D02*
G37*
G36*
X18383D02*
X16336D01*
Y229230D01*
X17251D01*
Y231125D01*
X17547D01*
X17640Y231115D01*
X17719Y231110D01*
X17783Y231100D01*
X17832Y231090D01*
X17866Y231080D01*
X17891Y231075D01*
X17896Y231070D01*
X17950Y231051D01*
X17999Y231021D01*
X18048Y230992D01*
X18088Y230957D01*
X18122Y230928D01*
X18152Y230908D01*
X18167Y230888D01*
X18171Y230884D01*
X18201Y230854D01*
X18230Y230815D01*
X18265Y230770D01*
X18304Y230721D01*
X18383Y230613D01*
X18467Y230500D01*
X18540Y230392D01*
X18575Y230347D01*
X18599Y230303D01*
X18624Y230269D01*
X18644Y230244D01*
X18654Y230224D01*
X18658Y230219D01*
X19323Y229230D01*
X20420D01*
X19864Y230111D01*
X19805Y230209D01*
X19746Y230293D01*
X19692Y230377D01*
X19643Y230451D01*
X19598Y230519D01*
X19554Y230578D01*
X19515Y230633D01*
X19480Y230682D01*
X19451Y230721D01*
X19421Y230756D01*
X19397Y230785D01*
X19377Y230810D01*
X19362Y230824D01*
X19352Y230839D01*
X19342Y230849D01*
X19269Y230923D01*
X19185Y230997D01*
X19101Y231061D01*
X19023Y231115D01*
X18954Y231164D01*
X18900Y231198D01*
X18880Y231213D01*
X18865Y231218D01*
X18855Y231228D01*
X18850D01*
X18959Y231248D01*
X19062Y231272D01*
X19155Y231302D01*
X19244Y231331D01*
X19328Y231366D01*
X19401Y231400D01*
X19465Y231435D01*
X19524Y231474D01*
X19579Y231508D01*
X19623Y231543D01*
X19662Y231572D01*
X19697Y231597D01*
X19721Y231622D01*
X19736Y231636D01*
X19746Y231646D01*
X19751Y231651D01*
X19805Y231715D01*
X19849Y231784D01*
X19888Y231853D01*
X19923Y231927D01*
X19952Y231995D01*
X19977Y232064D01*
X20011Y232202D01*
X20026Y232261D01*
X20036Y232320D01*
X20041Y232369D01*
X20046Y232414D01*
X20051Y232448D01*
Y232473D01*
Y232492D01*
Y232497D01*
X20041Y232645D01*
X20021Y232778D01*
X19987Y232901D01*
X19952Y233004D01*
X19933Y233048D01*
X19913Y233093D01*
X19898Y233127D01*
X19879Y233157D01*
X19869Y233181D01*
X19859Y233196D01*
X19849Y233206D01*
Y233211D01*
X19770Y233319D01*
X19682Y233412D01*
X19598Y233486D01*
X19515Y233550D01*
X19436Y233594D01*
X19406Y233609D01*
X19377Y233624D01*
X19352Y233634D01*
X19338Y233644D01*
X19328Y233649D01*
X19323D01*
X19259Y233668D01*
X19185Y233688D01*
X19101Y233708D01*
X19018Y233717D01*
X18846Y233742D01*
X18668Y233757D01*
X18590Y233762D01*
X18511Y233767D01*
X18442D01*
X18383Y233772D01*
D02*
G37*
G36*
X13778D02*
X12105D01*
Y229230D01*
X13020D01*
Y230943D01*
X13729D01*
X13837Y230947D01*
X13935D01*
X14029Y230952D01*
X14112Y230957D01*
X14191Y230962D01*
X14265Y230967D01*
X14329Y230977D01*
X14383Y230982D01*
X14432Y230987D01*
X14477Y230992D01*
X14511Y230997D01*
X14536Y231002D01*
X14555D01*
X14565Y231007D01*
X14570D01*
X14659Y231031D01*
X14747Y231061D01*
X14826Y231095D01*
X14895Y231130D01*
X14959Y231164D01*
X15003Y231193D01*
X15033Y231213D01*
X15037Y231218D01*
X15042D01*
X15126Y231287D01*
X15205Y231361D01*
X15269Y231435D01*
X15328Y231503D01*
X15372Y231567D01*
X15402Y231622D01*
X15416Y231641D01*
X15426Y231656D01*
X15431Y231661D01*
Y231666D01*
X15480Y231779D01*
X15520Y231897D01*
X15544Y232015D01*
X15564Y232123D01*
X15569Y232177D01*
X15574Y232222D01*
X15579Y232266D01*
X15584Y232300D01*
Y232369D01*
X15579Y232468D01*
X15574Y232566D01*
X15559Y232655D01*
X15544Y232738D01*
X15525Y232817D01*
X15500Y232891D01*
X15475Y232955D01*
X15451Y233019D01*
X15426Y233073D01*
X15402Y233117D01*
X15382Y233161D01*
X15357Y233196D01*
X15342Y233221D01*
X15328Y233240D01*
X15323Y233250D01*
X15318Y233255D01*
X15269Y233319D01*
X15214Y233373D01*
X15160Y233422D01*
X15101Y233471D01*
X14993Y233550D01*
X14890Y233609D01*
X14801Y233653D01*
X14762Y233668D01*
X14727Y233683D01*
X14703Y233693D01*
X14683Y233698D01*
X14668Y233703D01*
X14663D01*
X14609Y233713D01*
X14545Y233727D01*
X14472Y233737D01*
X14388Y233742D01*
X14299Y233747D01*
X14211Y233757D01*
X14024Y233762D01*
X13935Y233767D01*
X13857D01*
X13778Y233772D01*
D02*
G37*
G36*
X11239D02*
X7874D01*
Y229230D01*
X11328D01*
Y229998D01*
X8789D01*
Y231233D01*
X11067D01*
Y232000D01*
X8789D01*
Y233004D01*
X11239D01*
Y233772D01*
D02*
G37*
G36*
X7008D02*
X3643D01*
Y229230D01*
X7096D01*
Y229998D01*
X4558D01*
Y231233D01*
X6836D01*
Y232000D01*
X4558D01*
Y233004D01*
X7008D01*
Y233772D01*
D02*
G37*
G36*
X22968Y233845D02*
X22924D01*
X22722Y233836D01*
X22535Y233816D01*
X22452Y233801D01*
X22368Y233786D01*
X22294Y233772D01*
X22226Y233757D01*
X22162Y233737D01*
X22107Y233722D01*
X22058Y233708D01*
X22019Y233693D01*
X21989Y233678D01*
X21965Y233673D01*
X21950Y233663D01*
X21945D01*
X21827Y233609D01*
X21719Y233545D01*
X21615Y233476D01*
X21532Y233407D01*
X21458Y233348D01*
X21429Y233324D01*
X21404Y233299D01*
X21384Y233280D01*
X21369Y233265D01*
X21360Y233260D01*
X21355Y233255D01*
X21261Y233147D01*
X21178Y233043D01*
X21104Y232935D01*
X21045Y232842D01*
X21000Y232753D01*
X20981Y232719D01*
X20966Y232689D01*
X20951Y232665D01*
X20941Y232645D01*
X20936Y232635D01*
Y232630D01*
X20902Y232542D01*
X20868Y232443D01*
X20818Y232251D01*
X20779Y232054D01*
X20769Y231961D01*
X20754Y231872D01*
X20750Y231784D01*
X20740Y231710D01*
X20735Y231641D01*
Y231582D01*
X20730Y231533D01*
Y231464D01*
X20735Y231267D01*
X20754Y231080D01*
X20784Y230903D01*
X20823Y230741D01*
X20868Y230588D01*
X20917Y230451D01*
X20971Y230323D01*
X21030Y230209D01*
X21084Y230106D01*
X21138Y230018D01*
X21187Y229939D01*
X21232Y229875D01*
X21271Y229826D01*
X21301Y229791D01*
X21320Y229772D01*
X21325Y229762D01*
X21443Y229654D01*
X21566Y229560D01*
X21694Y229476D01*
X21827Y229408D01*
X21960Y229348D01*
X22098Y229299D01*
X22226Y229255D01*
X22353Y229225D01*
X22471Y229196D01*
X22580Y229181D01*
X22683Y229166D01*
X22767Y229157D01*
X22836Y229152D01*
X22890Y229147D01*
X22934D01*
X23116Y229152D01*
X23293Y229171D01*
X23456Y229206D01*
X23608Y229245D01*
X23751Y229289D01*
X23884Y229344D01*
X24002Y229398D01*
X24110Y229457D01*
X24208Y229516D01*
X24292Y229570D01*
X24366Y229624D01*
X24425Y229668D01*
X24474Y229708D01*
X24503Y229742D01*
X24528Y229762D01*
X24533Y229767D01*
X24641Y229890D01*
X24730Y230018D01*
X24813Y230155D01*
X24882Y230298D01*
X24936Y230441D01*
X24986Y230583D01*
X25025Y230726D01*
X25059Y230859D01*
X25084Y230987D01*
X25104Y231110D01*
X25114Y231213D01*
X25123Y231307D01*
X25128Y231385D01*
X25133Y231415D01*
Y231489D01*
X25128Y231690D01*
X25109Y231882D01*
X25079Y232059D01*
X25040Y232227D01*
X24995Y232379D01*
X24941Y232522D01*
X24887Y232655D01*
X24833Y232768D01*
X24774Y232876D01*
X24720Y232965D01*
X24671Y233043D01*
X24622Y233107D01*
X24582Y233157D01*
X24553Y233191D01*
X24533Y233216D01*
X24528Y233221D01*
X24410Y233329D01*
X24287Y233427D01*
X24159Y233511D01*
X24026Y233580D01*
X23889Y233644D01*
X23756Y233693D01*
X23628Y233732D01*
X23500Y233767D01*
X23382Y233791D01*
X23273Y233811D01*
X23175Y233826D01*
X23091Y233836D01*
X23023Y233840D01*
X22968Y233845D01*
D02*
G37*
%LPD*%
G36*
X18304Y232999D02*
X18422D01*
X18472Y232994D01*
X18545D01*
X18570Y232989D01*
X18609D01*
X18629Y232984D01*
X18634D01*
X18713Y232965D01*
X18786Y232940D01*
X18846Y232915D01*
X18895Y232881D01*
X18934Y232856D01*
X18959Y232832D01*
X18978Y232812D01*
X18983Y232807D01*
X19023Y232748D01*
X19052Y232689D01*
X19077Y232630D01*
X19092Y232571D01*
X19101Y232517D01*
X19106Y232478D01*
Y232448D01*
Y232443D01*
Y232438D01*
X19101Y232364D01*
X19092Y232296D01*
X19077Y232237D01*
X19062Y232187D01*
X19042Y232148D01*
X19027Y232118D01*
X19018Y232099D01*
X19013Y232094D01*
X18973Y232045D01*
X18934Y232005D01*
X18890Y231971D01*
X18846Y231946D01*
X18811Y231927D01*
X18781Y231912D01*
X18762Y231907D01*
X18752Y231902D01*
X18718Y231892D01*
X18668Y231882D01*
X18614Y231877D01*
X18555Y231872D01*
X18422Y231863D01*
X18280Y231853D01*
X18147D01*
X18088Y231848D01*
X17251D01*
Y233004D01*
X18235D01*
X18304Y232999D01*
D02*
G37*
G36*
X13709D02*
X13773D01*
X13832Y232994D01*
X13886D01*
X13935Y232989D01*
X13980D01*
X14014Y232984D01*
X14043Y232979D01*
X14068D01*
X14088Y232975D01*
X14112Y232970D01*
X14122D01*
X14201Y232950D01*
X14275Y232920D01*
X14339Y232891D01*
X14388Y232856D01*
X14432Y232822D01*
X14467Y232792D01*
X14486Y232773D01*
X14491Y232768D01*
X14540Y232704D01*
X14575Y232635D01*
X14604Y232566D01*
X14619Y232502D01*
X14629Y232448D01*
X14639Y232399D01*
Y232369D01*
Y232364D01*
Y232360D01*
X14634Y232286D01*
X14624Y232217D01*
X14604Y232158D01*
X14585Y232109D01*
X14565Y232064D01*
X14545Y232035D01*
X14536Y232010D01*
X14531Y232005D01*
X14491Y231951D01*
X14442Y231907D01*
X14393Y231868D01*
X14349Y231833D01*
X14309Y231808D01*
X14275Y231794D01*
X14255Y231784D01*
X14245Y231779D01*
X14206Y231769D01*
X14162Y231754D01*
X14112Y231749D01*
X14053Y231740D01*
X13935Y231725D01*
X13817Y231720D01*
X13704Y231715D01*
X13655Y231710D01*
X13020D01*
Y233004D01*
X13635D01*
X13709Y232999D01*
D02*
G37*
G36*
X23037Y233058D02*
X23136Y233048D01*
X23229Y233029D01*
X23313Y233004D01*
X23396Y232975D01*
X23470Y232940D01*
X23539Y232906D01*
X23603Y232871D01*
X23657Y232832D01*
X23706Y232797D01*
X23746Y232763D01*
X23780Y232733D01*
X23810Y232709D01*
X23829Y232689D01*
X23839Y232679D01*
X23844Y232674D01*
X23903Y232601D01*
X23957Y232512D01*
X24002Y232423D01*
X24046Y232330D01*
X24075Y232237D01*
X24105Y232138D01*
X24130Y232040D01*
X24144Y231946D01*
X24159Y231858D01*
X24169Y231774D01*
X24179Y231700D01*
X24184Y231636D01*
X24189Y231582D01*
Y231543D01*
Y231518D01*
Y231508D01*
X24184Y231366D01*
X24174Y231228D01*
X24154Y231105D01*
X24135Y230987D01*
X24105Y230884D01*
X24075Y230785D01*
X24046Y230697D01*
X24012Y230618D01*
X23977Y230549D01*
X23947Y230490D01*
X23918Y230436D01*
X23889Y230396D01*
X23869Y230362D01*
X23849Y230342D01*
X23839Y230328D01*
X23834Y230323D01*
X23765Y230254D01*
X23692Y230195D01*
X23618Y230141D01*
X23544Y230096D01*
X23470Y230057D01*
X23392Y230027D01*
X23323Y229998D01*
X23254Y229978D01*
X23185Y229963D01*
X23126Y229949D01*
X23072Y229939D01*
X23028Y229934D01*
X22988D01*
X22959Y229929D01*
X22934D01*
X22836Y229934D01*
X22737Y229949D01*
X22644Y229968D01*
X22560Y229993D01*
X22481Y230023D01*
X22408Y230057D01*
X22339Y230091D01*
X22275Y230131D01*
X22221Y230165D01*
X22171Y230200D01*
X22127Y230234D01*
X22093Y230264D01*
X22063Y230293D01*
X22043Y230313D01*
X22034Y230323D01*
X22029Y230328D01*
X21965Y230406D01*
X21911Y230495D01*
X21866Y230583D01*
X21822Y230677D01*
X21788Y230775D01*
X21763Y230874D01*
X21738Y230967D01*
X21719Y231061D01*
X21704Y231149D01*
X21694Y231233D01*
X21684Y231307D01*
X21679Y231371D01*
Y231425D01*
X21675Y231464D01*
Y231489D01*
Y231499D01*
X21679Y231641D01*
X21689Y231774D01*
X21704Y231897D01*
X21729Y232010D01*
X21753Y232118D01*
X21783Y232212D01*
X21817Y232300D01*
X21847Y232379D01*
X21881Y232448D01*
X21911Y232507D01*
X21940Y232556D01*
X21965Y232596D01*
X21989Y232630D01*
X22004Y232650D01*
X22014Y232665D01*
X22019Y232669D01*
X22088Y232738D01*
X22157Y232797D01*
X22235Y232852D01*
X22309Y232896D01*
X22388Y232935D01*
X22462Y232970D01*
X22535Y232994D01*
X22609Y233014D01*
X22673Y233029D01*
X22737Y233043D01*
X22791Y233053D01*
X22840Y233058D01*
X22880Y233063D01*
X22934D01*
X23037Y233058D01*
D02*
G37*
%LPC*%
G36*
X60828Y160617D02*
X60626D01*
X60513Y160607D01*
X60405Y160597D01*
X60302Y160583D01*
X60203Y160563D01*
X60115Y160543D01*
X60031Y160523D01*
X59957Y160504D01*
X59888Y160484D01*
X59829Y160465D01*
X59780Y160445D01*
X59736Y160425D01*
X59701Y160410D01*
X59677Y160400D01*
X59662Y160396D01*
X59657Y160391D01*
X59554Y160332D01*
X59455Y160268D01*
X59362Y160204D01*
X59278Y160135D01*
X59200Y160061D01*
X59131Y159992D01*
X59062Y159923D01*
X59008Y159854D01*
X58954Y159791D01*
X58909Y159731D01*
X58875Y159677D01*
X58840Y159633D01*
X58816Y159594D01*
X58801Y159564D01*
X58791Y159545D01*
X58786Y159539D01*
X58732Y159436D01*
X58688Y159328D01*
X58649Y159220D01*
X58614Y159111D01*
X58590Y159003D01*
X58565Y158900D01*
X58545Y158797D01*
X58530Y158703D01*
X58516Y158615D01*
X58506Y158536D01*
X58501Y158462D01*
X58496Y158398D01*
X58491Y158349D01*
Y158280D01*
X58496Y158157D01*
X58501Y158039D01*
X58516Y157926D01*
X58530Y157813D01*
X58555Y157709D01*
X58575Y157611D01*
X58599Y157517D01*
X58624Y157429D01*
X58649Y157350D01*
X58673Y157281D01*
X58698Y157217D01*
X58717Y157168D01*
X58732Y157124D01*
X58747Y157094D01*
X58752Y157075D01*
X58757Y157070D01*
X58811Y156966D01*
X58865Y156873D01*
X58929Y156784D01*
X58993Y156701D01*
X59057Y156627D01*
X59126Y156553D01*
X59190Y156489D01*
X59254Y156435D01*
X59313Y156381D01*
X59367Y156337D01*
X59421Y156302D01*
X59460Y156268D01*
X59500Y156243D01*
X59524Y156228D01*
X59544Y156219D01*
X59549Y156214D01*
X59652Y156159D01*
X59756Y156115D01*
X59859Y156076D01*
X59967Y156041D01*
X60075Y156017D01*
X60179Y155992D01*
X60277Y155973D01*
X60371Y155958D01*
X60459Y155943D01*
X60538Y155933D01*
X60612Y155928D01*
X60676Y155923D01*
X60725Y155918D01*
X60794D01*
X60897Y155923D01*
X61000Y155928D01*
X61202Y155953D01*
X61300Y155968D01*
X61389Y155987D01*
X61478Y156007D01*
X61556Y156027D01*
X61630Y156046D01*
X61699Y156061D01*
X61758Y156081D01*
X61807Y156096D01*
X61847Y156110D01*
X61876Y156120D01*
X61896Y156130D01*
X61901D01*
X61999Y156169D01*
X62093Y156214D01*
X62181Y156253D01*
X62260Y156297D01*
X62339Y156337D01*
X62407Y156376D01*
X62467Y156415D01*
X62525Y156455D01*
X62575Y156489D01*
X62619Y156519D01*
X62653Y156548D01*
X62683Y156573D01*
X62708Y156593D01*
X62722Y156607D01*
X62732Y156612D01*
X62737Y156617D01*
Y158432D01*
X60764D01*
Y157665D01*
X61812D01*
Y157085D01*
X61729Y157025D01*
X61645Y156976D01*
X61561Y156932D01*
X61483Y156893D01*
X61414Y156858D01*
X61360Y156834D01*
X61340Y156824D01*
X61325Y156819D01*
X61315Y156814D01*
X61310D01*
X61202Y156774D01*
X61099Y156750D01*
X61005Y156730D01*
X60917Y156716D01*
X60843Y156706D01*
X60808D01*
X60784Y156701D01*
X60735D01*
X60626Y156706D01*
X60528Y156720D01*
X60435Y156740D01*
X60341Y156765D01*
X60257Y156794D01*
X60184Y156829D01*
X60110Y156863D01*
X60046Y156902D01*
X59992Y156942D01*
X59938Y156976D01*
X59898Y157011D01*
X59859Y157040D01*
X59834Y157065D01*
X59810Y157089D01*
X59800Y157099D01*
X59795Y157104D01*
X59731Y157183D01*
X59677Y157271D01*
X59628Y157365D01*
X59588Y157463D01*
X59554Y157567D01*
X59524Y157665D01*
X59500Y157768D01*
X59480Y157862D01*
X59465Y157955D01*
X59455Y158044D01*
X59446Y158118D01*
X59441Y158186D01*
Y158241D01*
X59436Y158285D01*
Y158309D01*
Y158319D01*
X59441Y158457D01*
X59451Y158585D01*
X59470Y158703D01*
X59490Y158811D01*
X59519Y158915D01*
X59549Y159008D01*
X59578Y159092D01*
X59613Y159166D01*
X59647Y159234D01*
X59677Y159289D01*
X59706Y159338D01*
X59736Y159377D01*
X59756Y159412D01*
X59775Y159431D01*
X59785Y159446D01*
X59790Y159451D01*
X59859Y159520D01*
X59933Y159579D01*
X60011Y159628D01*
X60090Y159672D01*
X60169Y159712D01*
X60248Y159741D01*
X60326Y159766D01*
X60400Y159785D01*
X60469Y159800D01*
X60538Y159815D01*
X60597Y159825D01*
X60646Y159830D01*
X60685Y159835D01*
X60745D01*
X60887Y159825D01*
X61015Y159805D01*
X61128Y159771D01*
X61222Y159736D01*
X61261Y159717D01*
X61300Y159702D01*
X61330Y159682D01*
X61355Y159668D01*
X61379Y159658D01*
X61394Y159648D01*
X61399Y159638D01*
X61404D01*
X61497Y159559D01*
X61571Y159476D01*
X61635Y159387D01*
X61684Y159303D01*
X61724Y159230D01*
X61738Y159195D01*
X61748Y159166D01*
X61758Y159146D01*
X61763Y159126D01*
X61768Y159116D01*
Y159111D01*
X62678Y159284D01*
X62648Y159397D01*
X62614Y159505D01*
X62570Y159608D01*
X62525Y159702D01*
X62476Y159785D01*
X62422Y159869D01*
X62373Y159943D01*
X62319Y160007D01*
X62270Y160066D01*
X62221Y160120D01*
X62176Y160160D01*
X62142Y160199D01*
X62107Y160228D01*
X62083Y160248D01*
X62068Y160258D01*
X62063Y160263D01*
X61970Y160327D01*
X61871Y160381D01*
X61768Y160425D01*
X61660Y160469D01*
X61546Y160504D01*
X61438Y160529D01*
X61330Y160553D01*
X61227Y160573D01*
X61128Y160588D01*
X61040Y160597D01*
X60956Y160607D01*
X60882Y160612D01*
X60828Y160617D01*
D02*
G37*
G36*
X68700Y160543D02*
X67785D01*
Y156002D01*
X68700D01*
Y160543D01*
D02*
G37*
G36*
X65256D02*
X63583D01*
Y156002D01*
X64499D01*
Y157714D01*
X65207D01*
X65315Y157719D01*
X65414D01*
X65507Y157724D01*
X65591Y157729D01*
X65669Y157734D01*
X65743Y157739D01*
X65807Y157749D01*
X65861Y157754D01*
X65911Y157758D01*
X65955Y157763D01*
X65989Y157768D01*
X66014Y157773D01*
X66034D01*
X66043Y157778D01*
X66048D01*
X66137Y157803D01*
X66225Y157832D01*
X66304Y157867D01*
X66373Y157901D01*
X66437Y157936D01*
X66481Y157965D01*
X66511Y157985D01*
X66516Y157990D01*
X66521D01*
X66604Y158059D01*
X66683Y158132D01*
X66747Y158206D01*
X66806Y158275D01*
X66850Y158339D01*
X66880Y158393D01*
X66895Y158413D01*
X66904Y158428D01*
X66909Y158432D01*
Y158438D01*
X66958Y158551D01*
X66998Y158669D01*
X67022Y158787D01*
X67042Y158895D01*
X67047Y158949D01*
X67052Y158993D01*
X67057Y159038D01*
X67062Y159072D01*
Y159141D01*
X67057Y159239D01*
X67052Y159338D01*
X67037Y159426D01*
X67022Y159510D01*
X67003Y159589D01*
X66978Y159662D01*
X66953Y159727D01*
X66929Y159791D01*
X66904Y159845D01*
X66880Y159889D01*
X66860Y159933D01*
X66835Y159968D01*
X66821Y159992D01*
X66806Y160012D01*
X66801Y160022D01*
X66796Y160027D01*
X66747Y160091D01*
X66693Y160145D01*
X66639Y160194D01*
X66580Y160243D01*
X66471Y160322D01*
X66368Y160381D01*
X66280Y160425D01*
X66240Y160440D01*
X66206Y160455D01*
X66181Y160465D01*
X66161Y160469D01*
X66147Y160474D01*
X66142D01*
X66088Y160484D01*
X66024Y160499D01*
X65950Y160509D01*
X65866Y160514D01*
X65778Y160519D01*
X65689Y160529D01*
X65502Y160533D01*
X65414Y160538D01*
X65335D01*
X65256Y160543D01*
D02*
G37*
G36*
X71627Y160617D02*
X71583D01*
X71381Y160607D01*
X71195Y160588D01*
X71111Y160573D01*
X71027Y160558D01*
X70954Y160543D01*
X70885Y160529D01*
X70821Y160509D01*
X70767Y160494D01*
X70717Y160479D01*
X70678Y160465D01*
X70648Y160450D01*
X70624Y160445D01*
X70609Y160435D01*
X70604D01*
X70486Y160381D01*
X70378Y160317D01*
X70275Y160248D01*
X70191Y160179D01*
X70117Y160120D01*
X70088Y160096D01*
X70063Y160071D01*
X70043Y160051D01*
X70029Y160037D01*
X70019Y160031D01*
X70014Y160027D01*
X69920Y159918D01*
X69837Y159815D01*
X69763Y159707D01*
X69704Y159613D01*
X69660Y159525D01*
X69640Y159490D01*
X69625Y159461D01*
X69610Y159436D01*
X69600Y159416D01*
X69596Y159407D01*
Y159402D01*
X69561Y159313D01*
X69527Y159215D01*
X69477Y159023D01*
X69438Y158826D01*
X69428Y158733D01*
X69414Y158644D01*
X69409Y158555D01*
X69399Y158482D01*
X69394Y158413D01*
Y158354D01*
X69389Y158305D01*
Y158236D01*
X69394Y158039D01*
X69414Y157852D01*
X69443Y157675D01*
X69482Y157512D01*
X69527Y157360D01*
X69576Y157222D01*
X69630Y157094D01*
X69689Y156981D01*
X69743Y156878D01*
X69797Y156789D01*
X69846Y156711D01*
X69891Y156647D01*
X69930Y156597D01*
X69960Y156563D01*
X69979Y156543D01*
X69984Y156533D01*
X70102Y156425D01*
X70225Y156332D01*
X70353Y156248D01*
X70486Y156179D01*
X70619Y156120D01*
X70757Y156071D01*
X70885Y156027D01*
X71013Y155997D01*
X71131Y155968D01*
X71239Y155953D01*
X71342Y155938D01*
X71426Y155928D01*
X71495Y155923D01*
X71549Y155918D01*
X71593D01*
X71775Y155923D01*
X71952Y155943D01*
X72115Y155977D01*
X72267Y156017D01*
X72410Y156061D01*
X72543Y156115D01*
X72661Y156169D01*
X72769Y156228D01*
X72867Y156287D01*
X72951Y156342D01*
X73025Y156396D01*
X73084Y156440D01*
X73133Y156479D01*
X73163Y156514D01*
X73187Y156533D01*
X73192Y156538D01*
X73300Y156661D01*
X73389Y156789D01*
X73472Y156927D01*
X73541Y157070D01*
X73595Y157212D01*
X73645Y157355D01*
X73684Y157498D01*
X73719Y157631D01*
X73743Y157758D01*
X73763Y157881D01*
X73773Y157985D01*
X73782Y158078D01*
X73787Y158157D01*
X73792Y158186D01*
Y158260D01*
X73787Y158462D01*
X73768Y158654D01*
X73738Y158831D01*
X73699Y158998D01*
X73655Y159151D01*
X73601Y159293D01*
X73546Y159426D01*
X73492Y159539D01*
X73433Y159648D01*
X73379Y159736D01*
X73330Y159815D01*
X73281Y159879D01*
X73241Y159928D01*
X73212Y159963D01*
X73192Y159987D01*
X73187Y159992D01*
X73069Y160100D01*
X72946Y160199D01*
X72818Y160283D01*
X72685Y160351D01*
X72548Y160415D01*
X72415Y160465D01*
X72287Y160504D01*
X72159Y160538D01*
X72041Y160563D01*
X71933Y160583D01*
X71834Y160597D01*
X71750Y160607D01*
X71682Y160612D01*
X71627Y160617D01*
D02*
G37*
%LPD*%
G36*
X65187Y159771D02*
X65251D01*
X65310Y159766D01*
X65364D01*
X65414Y159761D01*
X65458D01*
X65492Y159756D01*
X65522Y159751D01*
X65546D01*
X65566Y159746D01*
X65591Y159741D01*
X65601D01*
X65679Y159722D01*
X65753Y159692D01*
X65817Y159662D01*
X65866Y159628D01*
X65911Y159594D01*
X65945Y159564D01*
X65965Y159545D01*
X65970Y159539D01*
X66019Y159476D01*
X66053Y159407D01*
X66083Y159338D01*
X66097Y159274D01*
X66107Y159220D01*
X66117Y159170D01*
Y159141D01*
Y159136D01*
Y159131D01*
X66112Y159057D01*
X66102Y158988D01*
X66083Y158930D01*
X66063Y158880D01*
X66043Y158836D01*
X66024Y158807D01*
X66014Y158782D01*
X66009Y158777D01*
X65970Y158723D01*
X65920Y158678D01*
X65871Y158639D01*
X65827Y158605D01*
X65788Y158580D01*
X65753Y158565D01*
X65733Y158555D01*
X65724Y158551D01*
X65684Y158541D01*
X65640Y158526D01*
X65591Y158521D01*
X65532Y158511D01*
X65414Y158496D01*
X65295Y158492D01*
X65182Y158487D01*
X65133Y158482D01*
X64499D01*
Y159776D01*
X65114D01*
X65187Y159771D01*
D02*
G37*
G36*
X71696Y159830D02*
X71795Y159820D01*
X71888Y159800D01*
X71972Y159776D01*
X72056Y159746D01*
X72129Y159712D01*
X72198Y159677D01*
X72262Y159643D01*
X72316Y159604D01*
X72365Y159569D01*
X72405Y159535D01*
X72439Y159505D01*
X72469Y159481D01*
X72488Y159461D01*
X72498Y159451D01*
X72503Y159446D01*
X72562Y159372D01*
X72616Y159284D01*
X72661Y159195D01*
X72705Y159102D01*
X72734Y159008D01*
X72764Y158910D01*
X72789Y158811D01*
X72803Y158718D01*
X72818Y158629D01*
X72828Y158546D01*
X72838Y158472D01*
X72843Y158408D01*
X72848Y158354D01*
Y158315D01*
Y158290D01*
Y158280D01*
X72843Y158137D01*
X72833Y158000D01*
X72813Y157877D01*
X72794Y157758D01*
X72764Y157655D01*
X72734Y157557D01*
X72705Y157468D01*
X72671Y157389D01*
X72636Y157321D01*
X72607Y157262D01*
X72577Y157208D01*
X72548Y157168D01*
X72528Y157134D01*
X72508Y157114D01*
X72498Y157099D01*
X72493Y157094D01*
X72425Y157025D01*
X72351Y156966D01*
X72277Y156912D01*
X72203Y156868D01*
X72129Y156829D01*
X72051Y156799D01*
X71982Y156770D01*
X71913Y156750D01*
X71844Y156735D01*
X71785Y156720D01*
X71731Y156711D01*
X71687Y156706D01*
X71647D01*
X71618Y156701D01*
X71593D01*
X71495Y156706D01*
X71396Y156720D01*
X71303Y156740D01*
X71219Y156765D01*
X71140Y156794D01*
X71067Y156829D01*
X70998Y156863D01*
X70934Y156902D01*
X70880Y156937D01*
X70831Y156971D01*
X70786Y157006D01*
X70752Y157035D01*
X70722Y157065D01*
X70703Y157085D01*
X70693Y157094D01*
X70688Y157099D01*
X70624Y157178D01*
X70570Y157266D01*
X70525Y157355D01*
X70481Y157448D01*
X70447Y157547D01*
X70422Y157645D01*
X70398Y157739D01*
X70378Y157832D01*
X70363Y157921D01*
X70353Y158004D01*
X70343Y158078D01*
X70338Y158142D01*
Y158196D01*
X70334Y158236D01*
Y158260D01*
Y158270D01*
X70338Y158413D01*
X70348Y158546D01*
X70363Y158669D01*
X70388Y158782D01*
X70412Y158890D01*
X70442Y158984D01*
X70476Y159072D01*
X70506Y159151D01*
X70540Y159220D01*
X70570Y159279D01*
X70599Y159328D01*
X70624Y159367D01*
X70648Y159402D01*
X70663Y159422D01*
X70673Y159436D01*
X70678Y159441D01*
X70747Y159510D01*
X70816Y159569D01*
X70894Y159623D01*
X70968Y159668D01*
X71047Y159707D01*
X71121Y159741D01*
X71195Y159766D01*
X71268Y159785D01*
X71332Y159800D01*
X71396Y159815D01*
X71450Y159825D01*
X71500Y159830D01*
X71539Y159835D01*
X71593D01*
X71696Y159830D01*
D02*
G37*
%LPC*%
G36*
X71256Y288961D02*
X71217D01*
X71045Y288956D01*
X70877Y288936D01*
X70720Y288902D01*
X70572Y288863D01*
X70435Y288813D01*
X70312Y288764D01*
X70194Y288705D01*
X70090Y288646D01*
X69997Y288587D01*
X69913Y288533D01*
X69844Y288479D01*
X69785Y288430D01*
X69736Y288390D01*
X69706Y288361D01*
X69682Y288336D01*
X69677Y288331D01*
X69574Y288208D01*
X69485Y288075D01*
X69406Y287938D01*
X69342Y287795D01*
X69283Y287647D01*
X69239Y287500D01*
X69200Y287357D01*
X69170Y287214D01*
X69146Y287087D01*
X69126Y286964D01*
X69116Y286850D01*
X69106Y286757D01*
X69101Y286678D01*
X69096Y286649D01*
Y286570D01*
X69101Y286373D01*
X69121Y286191D01*
X69151Y286019D01*
X69185Y285857D01*
X69229Y285704D01*
X69278Y285566D01*
X69333Y285438D01*
X69387Y285325D01*
X69441Y285222D01*
X69495Y285133D01*
X69544Y285059D01*
X69588Y284996D01*
X69623Y284946D01*
X69652Y284912D01*
X69672Y284887D01*
X69677Y284882D01*
X69790Y284774D01*
X69908Y284681D01*
X70031Y284597D01*
X70154Y284528D01*
X70277Y284469D01*
X70400Y284420D01*
X70523Y284376D01*
X70636Y284346D01*
X70745Y284316D01*
X70848Y284302D01*
X70937Y284287D01*
X71010Y284277D01*
X71074Y284272D01*
X71123Y284267D01*
X71163D01*
X71296Y284272D01*
X71424Y284282D01*
X71547Y284302D01*
X71660Y284321D01*
X71768Y284351D01*
X71866Y284381D01*
X71960Y284415D01*
X72039Y284449D01*
X72117Y284479D01*
X72181Y284513D01*
X72235Y284543D01*
X72285Y284572D01*
X72319Y284592D01*
X72348Y284612D01*
X72363Y284622D01*
X72368Y284627D01*
X72457Y284700D01*
X72536Y284779D01*
X72609Y284863D01*
X72678Y284956D01*
X72737Y285045D01*
X72796Y285138D01*
X72845Y285232D01*
X72890Y285320D01*
X72929Y285404D01*
X72964Y285483D01*
X72988Y285556D01*
X73013Y285615D01*
X73032Y285669D01*
X73042Y285704D01*
X73052Y285729D01*
Y285738D01*
X72162Y286014D01*
X72137Y285925D01*
X72112Y285837D01*
X72083Y285758D01*
X72053Y285689D01*
X72019Y285620D01*
X71989Y285561D01*
X71955Y285507D01*
X71925Y285458D01*
X71896Y285419D01*
X71866Y285379D01*
X71842Y285350D01*
X71822Y285325D01*
X71802Y285305D01*
X71788Y285291D01*
X71783Y285286D01*
X71778Y285281D01*
X71729Y285242D01*
X71675Y285207D01*
X71571Y285148D01*
X71468Y285109D01*
X71369Y285079D01*
X71281Y285064D01*
X71246Y285054D01*
X71212D01*
X71187Y285050D01*
X71153D01*
X71064Y285054D01*
X70976Y285064D01*
X70892Y285084D01*
X70818Y285109D01*
X70745Y285133D01*
X70681Y285163D01*
X70617Y285197D01*
X70563Y285232D01*
X70513Y285266D01*
X70469Y285300D01*
X70435Y285330D01*
X70400Y285355D01*
X70381Y285379D01*
X70361Y285399D01*
X70351Y285409D01*
X70346Y285414D01*
X70292Y285488D01*
X70248Y285571D01*
X70203Y285660D01*
X70169Y285758D01*
X70139Y285861D01*
X70115Y285960D01*
X70080Y286161D01*
X70066Y286260D01*
X70056Y286349D01*
X70051Y286427D01*
X70046Y286501D01*
X70041Y286555D01*
Y286599D01*
Y286629D01*
Y286639D01*
X70046Y286786D01*
X70056Y286924D01*
X70071Y287047D01*
X70090Y287165D01*
X70115Y287273D01*
X70139Y287367D01*
X70169Y287456D01*
X70199Y287529D01*
X70223Y287598D01*
X70253Y287657D01*
X70277Y287706D01*
X70302Y287746D01*
X70322Y287775D01*
X70336Y287800D01*
X70346Y287810D01*
X70351Y287815D01*
X70410Y287879D01*
X70479Y287933D01*
X70543Y287982D01*
X70612Y288026D01*
X70681Y288061D01*
X70749Y288090D01*
X70818Y288115D01*
X70882Y288134D01*
X70941Y288149D01*
X70995Y288159D01*
X71045Y288169D01*
X71089Y288174D01*
X71123Y288179D01*
X71173D01*
X71306Y288169D01*
X71424Y288144D01*
X71527Y288115D01*
X71620Y288075D01*
X71694Y288036D01*
X71724Y288021D01*
X71748Y288006D01*
X71768Y287992D01*
X71783Y287982D01*
X71788Y287977D01*
X71793Y287972D01*
X71881Y287888D01*
X71955Y287800D01*
X72014Y287706D01*
X72058Y287618D01*
X72093Y287539D01*
X72107Y287505D01*
X72117Y287475D01*
X72122Y287451D01*
X72127Y287431D01*
X72132Y287421D01*
Y287416D01*
X73037Y287633D01*
X73008Y287731D01*
X72973Y287825D01*
X72934Y287908D01*
X72900Y287992D01*
X72860Y288066D01*
X72821Y288134D01*
X72781Y288193D01*
X72747Y288252D01*
X72708Y288302D01*
X72678Y288346D01*
X72649Y288380D01*
X72619Y288410D01*
X72599Y288435D01*
X72585Y288449D01*
X72575Y288459D01*
X72570Y288464D01*
X72467Y288553D01*
X72363Y288626D01*
X72250Y288695D01*
X72137Y288749D01*
X72024Y288799D01*
X71911Y288838D01*
X71802Y288872D01*
X71699Y288897D01*
X71601Y288922D01*
X71507Y288936D01*
X71424Y288946D01*
X71355Y288951D01*
X71296Y288956D01*
X71256Y288961D01*
D02*
G37*
G36*
X68668Y288887D02*
X65067D01*
Y288120D01*
X66415D01*
Y284346D01*
X67330D01*
Y288120D01*
X68668D01*
Y288887D01*
D02*
G37*
G36*
X62853D02*
X60806D01*
Y284346D01*
X61721D01*
Y286240D01*
X62016D01*
X62110Y286230D01*
X62189Y286226D01*
X62253Y286216D01*
X62302Y286206D01*
X62336Y286196D01*
X62361Y286191D01*
X62366Y286186D01*
X62420Y286166D01*
X62469Y286137D01*
X62518Y286107D01*
X62558Y286073D01*
X62592Y286043D01*
X62622Y286024D01*
X62636Y286004D01*
X62641Y285999D01*
X62671Y285970D01*
X62700Y285930D01*
X62735Y285886D01*
X62774Y285837D01*
X62853Y285729D01*
X62937Y285615D01*
X63010Y285507D01*
X63045Y285463D01*
X63069Y285419D01*
X63094Y285384D01*
X63114Y285360D01*
X63124Y285340D01*
X63128Y285335D01*
X63793Y284346D01*
X64890D01*
X64334Y285227D01*
X64275Y285325D01*
X64216Y285409D01*
X64162Y285492D01*
X64112Y285566D01*
X64068Y285635D01*
X64024Y285694D01*
X63985Y285748D01*
X63950Y285797D01*
X63921Y285837D01*
X63891Y285871D01*
X63866Y285901D01*
X63847Y285925D01*
X63832Y285940D01*
X63822Y285955D01*
X63812Y285965D01*
X63739Y286038D01*
X63655Y286112D01*
X63571Y286176D01*
X63493Y286230D01*
X63424Y286280D01*
X63370Y286314D01*
X63350Y286329D01*
X63335Y286334D01*
X63325Y286344D01*
X63320D01*
X63429Y286363D01*
X63532Y286388D01*
X63625Y286417D01*
X63714Y286447D01*
X63798Y286481D01*
X63871Y286516D01*
X63935Y286550D01*
X63994Y286590D01*
X64048Y286624D01*
X64093Y286658D01*
X64132Y286688D01*
X64167Y286713D01*
X64191Y286737D01*
X64206Y286752D01*
X64216Y286762D01*
X64221Y286767D01*
X64275Y286831D01*
X64319Y286899D01*
X64358Y286968D01*
X64393Y287042D01*
X64422Y287111D01*
X64447Y287180D01*
X64481Y287318D01*
X64496Y287377D01*
X64506Y287436D01*
X64511Y287485D01*
X64516Y287529D01*
X64521Y287564D01*
Y287588D01*
Y287608D01*
Y287613D01*
X64511Y287760D01*
X64491Y287893D01*
X64457Y288016D01*
X64422Y288120D01*
X64403Y288164D01*
X64383Y288208D01*
X64368Y288243D01*
X64349Y288272D01*
X64339Y288297D01*
X64329Y288312D01*
X64319Y288321D01*
Y288326D01*
X64240Y288435D01*
X64152Y288528D01*
X64068Y288602D01*
X63985Y288666D01*
X63906Y288710D01*
X63876Y288725D01*
X63847Y288740D01*
X63822Y288749D01*
X63807Y288759D01*
X63798Y288764D01*
X63793D01*
X63729Y288784D01*
X63655Y288804D01*
X63571Y288823D01*
X63488Y288833D01*
X63315Y288858D01*
X63138Y288872D01*
X63060Y288877D01*
X62981Y288882D01*
X62912D01*
X62853Y288887D01*
D02*
G37*
%LPD*%
G36*
X62774Y288115D02*
X62892D01*
X62941Y288110D01*
X63015D01*
X63040Y288105D01*
X63079D01*
X63099Y288100D01*
X63104D01*
X63183Y288080D01*
X63256Y288056D01*
X63315Y288031D01*
X63365Y287997D01*
X63404Y287972D01*
X63429Y287948D01*
X63448Y287928D01*
X63453Y287923D01*
X63493Y287864D01*
X63522Y287805D01*
X63547Y287746D01*
X63561Y287687D01*
X63571Y287633D01*
X63576Y287593D01*
Y287564D01*
Y287559D01*
Y287554D01*
X63571Y287480D01*
X63561Y287411D01*
X63547Y287352D01*
X63532Y287303D01*
X63512Y287264D01*
X63497Y287234D01*
X63488Y287214D01*
X63483Y287210D01*
X63443Y287160D01*
X63404Y287121D01*
X63360Y287087D01*
X63315Y287062D01*
X63281Y287042D01*
X63251Y287027D01*
X63232Y287022D01*
X63222Y287018D01*
X63187Y287008D01*
X63138Y286998D01*
X63084Y286993D01*
X63025Y286988D01*
X62892Y286978D01*
X62750Y286968D01*
X62617D01*
X62558Y286964D01*
X61721D01*
Y288120D01*
X62705D01*
X62774Y288115D01*
D02*
G37*
%LPC*%
G36*
X127768Y234630D02*
X127728D01*
X127556Y234625D01*
X127389Y234606D01*
X127231Y234571D01*
X127084Y234532D01*
X126946Y234483D01*
X126823Y234434D01*
X126705Y234374D01*
X126602Y234315D01*
X126508Y234256D01*
X126424Y234202D01*
X126356Y234148D01*
X126296Y234099D01*
X126247Y234060D01*
X126218Y234030D01*
X126193Y234005D01*
X126188Y234000D01*
X126085Y233877D01*
X125996Y233745D01*
X125918Y233607D01*
X125854Y233464D01*
X125795Y233317D01*
X125750Y233169D01*
X125711Y233026D01*
X125681Y232884D01*
X125657Y232756D01*
X125637Y232633D01*
X125627Y232520D01*
X125618Y232426D01*
X125613Y232347D01*
X125608Y232318D01*
Y232239D01*
X125613Y232042D01*
X125632Y231860D01*
X125662Y231688D01*
X125696Y231526D01*
X125741Y231373D01*
X125790Y231236D01*
X125844Y231108D01*
X125898Y230994D01*
X125952Y230891D01*
X126006Y230802D01*
X126055Y230729D01*
X126100Y230665D01*
X126134Y230616D01*
X126164Y230581D01*
X126183Y230557D01*
X126188Y230552D01*
X126301Y230443D01*
X126419Y230350D01*
X126542Y230266D01*
X126665Y230197D01*
X126788Y230138D01*
X126911Y230089D01*
X127034Y230045D01*
X127148Y230015D01*
X127256Y229986D01*
X127359Y229971D01*
X127448Y229956D01*
X127522Y229946D01*
X127585Y229942D01*
X127635Y229937D01*
X127674D01*
X127807Y229942D01*
X127935Y229951D01*
X128058Y229971D01*
X128171Y229991D01*
X128279Y230020D01*
X128378Y230050D01*
X128471Y230084D01*
X128550Y230119D01*
X128629Y230148D01*
X128692Y230183D01*
X128747Y230212D01*
X128796Y230242D01*
X128830Y230261D01*
X128860Y230281D01*
X128875Y230291D01*
X128879Y230296D01*
X128968Y230370D01*
X129047Y230448D01*
X129121Y230532D01*
X129189Y230625D01*
X129248Y230714D01*
X129307Y230807D01*
X129357Y230901D01*
X129401Y230990D01*
X129440Y231073D01*
X129475Y231152D01*
X129499Y231226D01*
X129524Y231285D01*
X129544Y231339D01*
X129553Y231373D01*
X129563Y231398D01*
Y231408D01*
X128673Y231683D01*
X128648Y231595D01*
X128624Y231506D01*
X128594Y231427D01*
X128565Y231359D01*
X128530Y231290D01*
X128501Y231231D01*
X128466Y231176D01*
X128437Y231127D01*
X128407Y231088D01*
X128378Y231048D01*
X128353Y231019D01*
X128333Y230994D01*
X128314Y230975D01*
X128299Y230960D01*
X128294Y230955D01*
X128289Y230950D01*
X128240Y230911D01*
X128186Y230876D01*
X128082Y230817D01*
X127979Y230778D01*
X127881Y230748D01*
X127792Y230734D01*
X127758Y230724D01*
X127723D01*
X127699Y230719D01*
X127664D01*
X127576Y230724D01*
X127487Y230734D01*
X127403Y230753D01*
X127330Y230778D01*
X127256Y230802D01*
X127192Y230832D01*
X127128Y230867D01*
X127074Y230901D01*
X127025Y230935D01*
X126980Y230970D01*
X126946Y230999D01*
X126911Y231024D01*
X126892Y231048D01*
X126872Y231068D01*
X126862Y231078D01*
X126857Y231083D01*
X126803Y231157D01*
X126759Y231240D01*
X126715Y231329D01*
X126680Y231427D01*
X126651Y231531D01*
X126626Y231629D01*
X126592Y231831D01*
X126577Y231929D01*
X126567Y232018D01*
X126562Y232097D01*
X126557Y232170D01*
X126552Y232224D01*
Y232269D01*
Y232298D01*
Y232308D01*
X126557Y232456D01*
X126567Y232593D01*
X126582Y232716D01*
X126602Y232835D01*
X126626Y232943D01*
X126651Y233036D01*
X126680Y233125D01*
X126710Y233199D01*
X126734Y233267D01*
X126764Y233327D01*
X126788Y233376D01*
X126813Y233415D01*
X126833Y233445D01*
X126848Y233469D01*
X126857Y233479D01*
X126862Y233484D01*
X126921Y233548D01*
X126990Y233602D01*
X127054Y233651D01*
X127123Y233696D01*
X127192Y233730D01*
X127261Y233759D01*
X127330Y233784D01*
X127394Y233804D01*
X127453Y233819D01*
X127507Y233828D01*
X127556Y233838D01*
X127600Y233843D01*
X127635Y233848D01*
X127684D01*
X127817Y233838D01*
X127935Y233814D01*
X128038Y233784D01*
X128132Y233745D01*
X128205Y233705D01*
X128235Y233691D01*
X128260Y233676D01*
X128279Y233661D01*
X128294Y233651D01*
X128299Y233646D01*
X128304Y233641D01*
X128392Y233558D01*
X128466Y233469D01*
X128525Y233376D01*
X128569Y233287D01*
X128604Y233208D01*
X128619Y233174D01*
X128629Y233144D01*
X128633Y233120D01*
X128638Y233100D01*
X128643Y233090D01*
Y233085D01*
X129549Y233302D01*
X129519Y233400D01*
X129485Y233494D01*
X129445Y233577D01*
X129411Y233661D01*
X129371Y233735D01*
X129332Y233804D01*
X129293Y233863D01*
X129258Y233922D01*
X129219Y233971D01*
X129189Y234015D01*
X129160Y234050D01*
X129130Y234079D01*
X129111Y234104D01*
X129096Y234119D01*
X129086Y234128D01*
X129081Y234133D01*
X128978Y234222D01*
X128875Y234296D01*
X128761Y234365D01*
X128648Y234419D01*
X128535Y234468D01*
X128422Y234507D01*
X128314Y234542D01*
X128210Y234566D01*
X128112Y234591D01*
X128018Y234606D01*
X127935Y234615D01*
X127866Y234620D01*
X127807Y234625D01*
X127768Y234630D01*
D02*
G37*
G36*
X120269Y234557D02*
X118892D01*
X118085Y231457D01*
X117268Y234557D01*
X115896D01*
Y230015D01*
X116742D01*
Y233587D01*
X117637Y230015D01*
X118523D01*
X119418Y233587D01*
X119423Y230015D01*
X120269D01*
Y234557D01*
D02*
G37*
G36*
X132383Y234571D02*
X131674D01*
X131644Y234492D01*
X131610Y234419D01*
X131526Y234281D01*
X131438Y234158D01*
X131344Y234050D01*
X131300Y234000D01*
X131261Y233961D01*
X131226Y233922D01*
X131192Y233892D01*
X131167Y233868D01*
X131148Y233853D01*
X131133Y233843D01*
X131128Y233838D01*
X130980Y233730D01*
X130842Y233641D01*
X130719Y233568D01*
X130611Y233513D01*
X130562Y233489D01*
X130518Y233469D01*
X130483Y233454D01*
X130449Y233440D01*
X130424Y233430D01*
X130405Y233425D01*
X130395Y233420D01*
X130390D01*
Y232628D01*
X130508Y232672D01*
X130621Y232716D01*
X130734Y232766D01*
X130838Y232820D01*
X130936Y232874D01*
X131029Y232928D01*
X131113Y232982D01*
X131192Y233036D01*
X131266Y233085D01*
X131325Y233135D01*
X131384Y233179D01*
X131428Y233213D01*
X131462Y233243D01*
X131492Y233267D01*
X131507Y233282D01*
X131512Y233287D01*
Y230015D01*
X132383D01*
Y234571D01*
D02*
G37*
G36*
X123467Y234557D02*
X122493D01*
X120727Y230015D01*
X121696D01*
X122075Y231048D01*
X123891D01*
X124289Y230015D01*
X125288D01*
X123467Y234557D01*
D02*
G37*
%LPD*%
G36*
X123600Y231816D02*
X122355D01*
X122970Y233499D01*
X123600Y231816D01*
D02*
G37*
D10*
X141240Y303248D02*
G03*
X141240Y303248I-492J0D01*
G01*
Y277658D02*
G03*
X141240Y277658I-492J0D01*
G01*
Y226870D02*
G03*
X141240Y226870I-492J0D01*
G01*
Y252067D02*
G03*
X141240Y252067I-492J0D01*
G01*
X43098Y270492D02*
G03*
X43098Y270492I-492J0D01*
G01*
X93110Y225413D02*
G03*
X93110Y225413I-492J0D01*
G01*
X18504Y222461D02*
G03*
X18504Y222461I-492J0D01*
G01*
X93110Y191949D02*
G03*
X93110Y191949I-492J0D01*
G01*
D11*
X171248Y169685D02*
G03*
X171248Y169685I-5500J0D01*
G01*
X189370D02*
G03*
X189370Y169685I-23622J0D01*
G01*
X171248Y115354D02*
G03*
X171248Y115354I-5500J0D01*
G01*
X189370D02*
G03*
X189370Y115354I-23622J0D01*
G01*
X179134Y161024D02*
X183858D01*
X181496Y158661D02*
Y163386D01*
X179134Y106693D02*
X183858D01*
X181496Y104331D02*
Y109055D01*
X32101Y139056D02*
X28953D01*
X32101Y142204D01*
Y142992D01*
X31314Y143779D01*
X29740D01*
X28953Y142992D01*
X116945Y119795D02*
X118519D01*
X117732D01*
Y124518D01*
X116945Y123730D01*
X120881Y119795D02*
X122455D01*
X121668D01*
Y124518D01*
X120881Y123730D01*
X116945Y100582D02*
X117732Y99795D01*
X119306D01*
X120094Y100582D01*
Y103730D01*
X119306Y104517D01*
X117732D01*
X116945Y103730D01*
Y102943D01*
X117732Y102156D01*
X120094D01*
X118126Y149819D02*
X119700D01*
X118913D01*
Y154542D01*
X118126Y153755D01*
X124423Y149819D02*
Y154542D01*
X122062Y152181D01*
X125210D01*
X32101Y113779D02*
X28953D01*
Y111417D01*
X30527Y112205D01*
X31314D01*
X32101Y111417D01*
Y109843D01*
X31314Y109056D01*
X29740D01*
X28953Y109843D01*
X31314Y119056D02*
Y123779D01*
X28953Y121417D01*
X32101D01*
X31117Y103779D02*
X29543Y102992D01*
X27968Y101417D01*
Y99843D01*
X28756Y99056D01*
X30330D01*
X31117Y99843D01*
Y100630D01*
X30330Y101417D01*
X27968D01*
X28953Y162992D02*
X29740Y163779D01*
X31314D01*
X32101Y162992D01*
Y159843D01*
X31314Y159056D01*
X29740D01*
X28953Y159843D01*
Y162992D01*
X116945Y109795D02*
X118519D01*
X117732D01*
Y114517D01*
X116945Y113730D01*
X120881D02*
X121668Y114517D01*
X123242D01*
X124029Y113730D01*
Y110582D01*
X123242Y109795D01*
X121668D01*
X120881Y110582D01*
Y113730D01*
X28953Y93779D02*
X32101D01*
Y92992D01*
X28953Y89843D01*
Y89056D01*
X116945Y139795D02*
X118519D01*
X117732D01*
Y144518D01*
X116945Y143730D01*
X120881D02*
X121668Y144518D01*
X123242D01*
X124029Y143730D01*
Y142943D01*
X123242Y142156D01*
X122455D01*
X123242D01*
X124029Y141369D01*
Y140582D01*
X123242Y139795D01*
X121668D01*
X120881Y140582D01*
X116945Y159795D02*
X118519D01*
X117732D01*
Y164517D01*
X116945Y163730D01*
X124029Y164517D02*
X120881D01*
Y162156D01*
X122455Y162943D01*
X123242D01*
X124029Y162156D01*
Y160582D01*
X123242Y159795D01*
X121668D01*
X120881Y160582D01*
X28953Y132992D02*
X29740Y133779D01*
X31314D01*
X32101Y132992D01*
Y132204D01*
X31314Y131417D01*
X30527D01*
X31314D01*
X32101Y130630D01*
Y129843D01*
X31314Y129056D01*
X29740D01*
X28953Y129843D01*
Y149056D02*
X30527D01*
X29740D01*
Y153779D01*
X28953Y152992D01*
X116945Y129795D02*
X118519D01*
X117732D01*
Y134518D01*
X116945Y133730D01*
X124029Y129795D02*
X120881D01*
X124029Y132943D01*
Y133730D01*
X123242Y134518D01*
X121668D01*
X120881Y133730D01*
X116945Y93730D02*
X117732Y94517D01*
X119306D01*
X120094Y93730D01*
Y92943D01*
X119306Y92156D01*
X120094Y91369D01*
Y90582D01*
X119306Y89795D01*
X117732D01*
X116945Y90582D01*
Y91369D01*
X117732Y92156D01*
X116945Y92943D01*
Y93730D01*
X117732Y92156D02*
X119306D01*
X184646Y292127D02*
X183859Y291340D01*
Y289766D01*
X184646Y288978D01*
X185433D01*
X186220Y289766D01*
Y291340D01*
X187008Y292127D01*
X187795D01*
X188582Y291340D01*
Y289766D01*
X187795Y288978D01*
X183859Y293701D02*
X188582D01*
X187008Y295275D01*
X188582Y296850D01*
X183859D01*
X188582Y300786D02*
X183859D01*
X186220Y298424D01*
Y301573D01*
X184738Y266127D02*
X183951Y265340D01*
Y263765D01*
X184738Y262978D01*
X185525D01*
X186313Y263765D01*
Y265340D01*
X187100Y266127D01*
X187887D01*
X188674Y265340D01*
Y263765D01*
X187887Y262978D01*
X183951Y267701D02*
X188674D01*
X187100Y269275D01*
X188674Y270850D01*
X183951D01*
X184738Y272424D02*
X183951Y273211D01*
Y274785D01*
X184738Y275573D01*
X185525D01*
X186313Y274785D01*
Y273998D01*
Y274785D01*
X187100Y275573D01*
X187887D01*
X188674Y274785D01*
Y273211D01*
X187887Y272424D01*
X184646Y216536D02*
X183859Y215749D01*
Y214175D01*
X184646Y213388D01*
X185433D01*
X186221Y214175D01*
Y215749D01*
X187008Y216536D01*
X187795D01*
X188582Y215749D01*
Y214175D01*
X187795Y213388D01*
X183859Y218110D02*
X188582D01*
X187008Y219685D01*
X188582Y221259D01*
X183859D01*
X188582Y222833D02*
Y224408D01*
Y223621D01*
X183859D01*
X184646Y222833D01*
Y240159D02*
X183859Y239371D01*
Y237797D01*
X184646Y237010D01*
X185433D01*
X186221Y237797D01*
Y239371D01*
X187008Y240159D01*
X187795D01*
X188582Y239371D01*
Y237797D01*
X187795Y237010D01*
X183859Y241733D02*
X188582D01*
X187008Y243307D01*
X188582Y244881D01*
X183859D01*
X188582Y249604D02*
Y246456D01*
X185433Y249604D01*
X184646D01*
X183859Y248817D01*
Y247243D01*
X184646Y246456D01*
X179254Y197881D02*
Y191883D01*
X182253D01*
X183252Y192883D01*
Y193882D01*
X182253Y194882D01*
X179254D01*
X182253D01*
X183252Y195882D01*
Y196881D01*
X182253Y197881D01*
X179254D01*
X189250Y191883D02*
X185252D01*
X189250Y195882D01*
Y196881D01*
X188251Y197881D01*
X186251D01*
X185252Y196881D01*
X179254Y143944D02*
Y137946D01*
X182253D01*
X183252Y138945D01*
Y139945D01*
X182253Y140945D01*
X179254D01*
X182253D01*
X183252Y141945D01*
Y142944D01*
X182253Y143944D01*
X179254D01*
X185252Y137946D02*
X187251D01*
X186251D01*
Y143944D01*
X185252Y142944D01*
X8100Y373998D02*
Y368000D01*
X11099D01*
X12099Y369000D01*
Y369999D01*
X11099Y370999D01*
X8100D01*
X11099D01*
X12099Y371999D01*
Y372998D01*
X11099Y373998D01*
X8100D01*
X14098D02*
X18097D01*
X16097D01*
Y368000D01*
X20096D02*
X22095D01*
X21096D01*
Y373998D01*
X20096Y372998D01*
X50726Y282133D02*
Y277134D01*
X51725Y276135D01*
X53725D01*
X54724Y277134D01*
Y282133D01*
X56724Y276135D02*
X58723D01*
X57723D01*
Y282133D01*
X56724Y281133D01*
X31828Y286857D02*
Y285858D01*
X33827Y283858D01*
X35827Y285858D01*
Y286857D01*
X33827Y283858D02*
Y280859D01*
X37826D02*
X39825D01*
X38826D01*
Y286857D01*
X37826Y285858D01*
X96393Y231483D02*
Y226485D01*
X97393Y225485D01*
X99392D01*
X100392Y226485D01*
Y231483D01*
X105390Y225485D02*
Y231483D01*
X102391Y228484D01*
X106390D01*
X108389Y231483D02*
Y225485D01*
X111388D01*
X112388Y226485D01*
Y227484D01*
X111388Y228484D01*
X108389D01*
X111388D01*
X112388Y229484D01*
Y230483D01*
X111388Y231483D01*
X108389D01*
X105905Y296156D02*
Y292157D01*
X107905Y290158D01*
X109904Y292157D01*
Y296156D01*
X111904D02*
Y290158D01*
X114903D01*
X115902Y291157D01*
Y292157D01*
X114903Y293157D01*
X111904D01*
X114903D01*
X115902Y294156D01*
Y295156D01*
X114903Y296156D01*
X111904D01*
X117902Y290158D02*
Y294156D01*
X119901Y296156D01*
X121900Y294156D01*
Y290158D01*
Y293157D01*
X117902D01*
X123900Y296156D02*
X127898D01*
X125899D01*
Y290158D01*
X129898Y296156D02*
X133897D01*
X131897D01*
Y290158D01*
X106419Y84889D02*
X110418Y78891D01*
Y84889D02*
X106419Y78891D01*
X115416D02*
Y84889D01*
X112417Y81890D01*
X116416D01*
X21773Y203393D02*
Y198394D01*
X22773Y197395D01*
X24772D01*
X25772Y198394D01*
Y203393D01*
X31770Y197395D02*
X27771D01*
X31770Y201393D01*
Y202393D01*
X30770Y203393D01*
X28771D01*
X27771Y202393D01*
X56025Y85676D02*
Y80678D01*
X57025Y79678D01*
X59024D01*
X60024Y80678D01*
Y85676D01*
X62023Y84676D02*
X63023Y85676D01*
X65022D01*
X66022Y84676D01*
Y83677D01*
X65022Y82677D01*
X64023D01*
X65022D01*
X66022Y81678D01*
Y80678D01*
X65022Y79678D01*
X63023D01*
X62023Y80678D01*
X17929Y175046D02*
Y169048D01*
X21928D01*
X27926Y175046D02*
X23927D01*
Y169048D01*
X27926D01*
X23927Y172047D02*
X25927D01*
X29925Y175046D02*
Y169048D01*
X32924D01*
X33924Y170048D01*
Y174047D01*
X32924Y175046D01*
X29925D01*
X53361Y175014D02*
X52574Y175802D01*
X51000D01*
X50213Y175014D01*
Y171866D01*
X51000Y171079D01*
X52574D01*
X53361Y171866D01*
Y173440D01*
X51787D01*
X54935Y171079D02*
Y175802D01*
X58084Y171079D01*
Y175802D01*
X59658D02*
Y171079D01*
X62020D01*
X62807Y171866D01*
Y175014D01*
X62020Y175802D01*
X59658D01*
X13992Y202967D02*
X14779Y203754D01*
X16354D01*
X17141Y202967D01*
Y199819D01*
X16354Y199031D01*
X14779D01*
X13992Y199819D01*
Y202967D01*
X5330Y199031D02*
X2181D01*
X5330Y202180D01*
Y202967D01*
X4543Y203754D01*
X2968D01*
X2181Y202967D01*
X9268Y199031D02*
X10842D01*
X10055D01*
Y203754D01*
X9268Y202967D01*
X75000Y213205D02*
X76574D01*
X75787D01*
Y217928D01*
X75000Y217141D01*
X64386Y213205D02*
Y216353D01*
X65960Y217928D01*
X67534Y216353D01*
Y213205D01*
Y215566D01*
X64386D01*
X72257Y213205D02*
X69109D01*
X72257Y216353D01*
Y217141D01*
X71470Y217928D01*
X69896D01*
X69109Y217141D01*
X45882Y145487D02*
X46669Y146274D01*
X48243D01*
X49031Y145487D01*
Y144700D01*
X48243Y143913D01*
X47456D01*
X48243D01*
X49031Y143125D01*
Y142338D01*
X48243Y141551D01*
X46669D01*
X45882Y142338D01*
X50605Y146274D02*
Y143125D01*
X52179Y141551D01*
X53753Y143125D01*
Y146274D01*
X55328Y145487D02*
X56115Y146274D01*
X57689D01*
X58476Y145487D01*
Y144700D01*
X57689Y143913D01*
X56902D01*
X57689D01*
X58476Y143125D01*
Y142338D01*
X57689Y141551D01*
X56115D01*
X55328Y142338D01*
X49031Y128558D02*
X48243Y129345D01*
X46669D01*
X45882Y128558D01*
Y125409D01*
X46669Y124622D01*
X48243D01*
X49031Y125409D01*
Y126983D01*
X47456D01*
X50605Y124622D02*
Y129345D01*
X53753Y124622D01*
Y129345D01*
X55328D02*
Y124622D01*
X57689D01*
X58476Y125409D01*
Y128558D01*
X57689Y129345D01*
X55328D01*
X55240Y147744D02*
Y150893D01*
X56814Y152467D01*
X58389Y150893D01*
Y147744D01*
Y150106D01*
X55240D01*
X63112Y147744D02*
X59963D01*
X63112Y150893D01*
Y151680D01*
X62325Y152467D01*
X60750D01*
X59963Y151680D01*
X68217Y147744D02*
X69791D01*
X69004D01*
Y152467D01*
X68217Y151680D01*
X74713D02*
X75500Y152467D01*
X77075D01*
X77862Y151680D01*
Y148531D01*
X77075Y147744D01*
X75500D01*
X74713Y148531D01*
Y151680D01*
X81497Y217141D02*
X82284Y217928D01*
X83858D01*
X84645Y217141D01*
Y213992D01*
X83858Y213205D01*
X82284D01*
X81497Y213992D01*
Y217141D01*
Y183676D02*
X82284Y184463D01*
X83858D01*
X84645Y183676D01*
Y180527D01*
X83858Y179740D01*
X82284D01*
X81497Y180527D01*
Y183676D01*
X75000Y179740D02*
X76574D01*
X75787D01*
Y184463D01*
X75000Y183676D01*
X62024Y179740D02*
Y182889D01*
X63598Y184463D01*
X65172Y182889D01*
Y179740D01*
Y182102D01*
X62024D01*
X69895Y179740D02*
X66746D01*
X69895Y182889D01*
Y183676D01*
X69108Y184463D01*
X67534D01*
X66746Y183676D01*
X49819Y189975D02*
X50606Y190762D01*
X52180D01*
X52968Y189975D01*
Y189188D01*
X52180Y188401D01*
X51393D01*
X52180D01*
X52968Y187614D01*
Y186827D01*
X52180Y186039D01*
X50606D01*
X49819Y186827D01*
X54542Y190762D02*
Y187614D01*
X56116Y186039D01*
X57690Y187614D01*
Y190762D01*
X59265Y189975D02*
X60052Y190762D01*
X61626D01*
X62413Y189975D01*
Y189188D01*
X61626Y188401D01*
X60839D01*
X61626D01*
X62413Y187614D01*
Y186827D01*
X61626Y186039D01*
X60052D01*
X59265Y186827D01*
X88794Y202573D02*
X88007Y203361D01*
X86433D01*
X85646Y202573D01*
Y199425D01*
X86433Y198638D01*
X88007D01*
X88794Y199425D01*
Y200999D01*
X87220D01*
X90369Y198638D02*
Y203361D01*
X93517Y198638D01*
Y203361D01*
X95091D02*
Y198638D01*
X97453D01*
X98240Y199425D01*
Y202573D01*
X97453Y203361D01*
X95091D01*
X69110Y235251D02*
X69897Y236038D01*
X71472D01*
X72259Y235251D01*
Y234464D01*
X71472Y233676D01*
X70684D01*
X71472D01*
X72259Y232889D01*
Y232102D01*
X71472Y231315D01*
X69897D01*
X69110Y232102D01*
X73833Y236038D02*
Y232889D01*
X75407Y231315D01*
X76982Y232889D01*
Y236038D01*
X78556Y235251D02*
X79343Y236038D01*
X80917D01*
X81705Y235251D01*
Y234464D01*
X80917Y233676D01*
X80130D01*
X80917D01*
X81705Y232889D01*
Y232102D01*
X80917Y231315D01*
X79343D01*
X78556Y232102D01*
X61630Y23440D02*
X62417Y24227D01*
X63991D01*
X64779Y23440D01*
Y22652D01*
X63991Y21865D01*
X63204D01*
X63991D01*
X64779Y21078D01*
Y20291D01*
X63991Y19504D01*
X62417D01*
X61630Y20291D01*
X66353Y24227D02*
Y21078D01*
X67927Y19504D01*
X69501Y21078D01*
Y24227D01*
X71076Y23440D02*
X71863Y24227D01*
X73437D01*
X74224Y23440D01*
Y22652D01*
X73437Y21865D01*
X72650D01*
X73437D01*
X74224Y21078D01*
Y20291D01*
X73437Y19504D01*
X71863D01*
X71076Y20291D01*
X32889Y348243D02*
X31314D01*
X32102D01*
Y344307D01*
X31314Y343520D01*
X30527D01*
X29740Y344307D01*
X34463Y348243D02*
Y343520D01*
X37612D01*
X42334Y347455D02*
X41547Y348243D01*
X39973D01*
X39186Y347455D01*
Y344307D01*
X39973Y343520D01*
X41547D01*
X42334Y344307D01*
X47057Y348243D02*
X45483D01*
X46270D01*
Y344307D01*
X45483Y343520D01*
X44696D01*
X43909Y344307D01*
X48632Y348243D02*
Y343520D01*
X51780D01*
X56503Y347455D02*
X55716Y348243D01*
X54142D01*
X53355Y347455D01*
Y344307D01*
X54142Y343520D01*
X55716D01*
X56503Y344307D01*
X61226Y348243D02*
X59652D01*
X60439D01*
Y344307D01*
X59652Y343520D01*
X58865D01*
X58077Y344307D01*
X62800Y348243D02*
Y343520D01*
X65949D01*
X70672Y347455D02*
X69885Y348243D01*
X68310D01*
X67523Y347455D01*
Y344307D01*
X68310Y343520D01*
X69885D01*
X70672Y344307D01*
X75395Y348243D02*
X73820D01*
X74607D01*
Y344307D01*
X73820Y343520D01*
X73033D01*
X72246Y344307D01*
X76969Y348243D02*
Y343520D01*
X80118D01*
X84840Y347455D02*
X84053Y348243D01*
X82479D01*
X81692Y347455D01*
Y344307D01*
X82479Y343520D01*
X84053D01*
X84840Y344307D01*
X125104Y250000D02*
X129103D01*
X131102Y251999D01*
X129103Y253999D01*
X125104D01*
Y255998D02*
X131102D01*
Y258997D01*
X130103Y259997D01*
X126104D01*
X125104Y258997D01*
Y255998D01*
Y261996D02*
X131102D01*
Y264995D01*
X130103Y265995D01*
X126104D01*
X125104Y264995D01*
Y261996D01*
X1695Y175046D02*
X5693Y169048D01*
Y175046D02*
X1695Y169048D01*
X7693Y174047D02*
X8692Y175046D01*
X10692D01*
X11691Y174047D01*
Y173047D01*
X10692Y172047D01*
X9692D01*
X10692D01*
X11691Y171048D01*
Y170048D01*
X10692Y169048D01*
X8692D01*
X7693Y170048D01*
X12143Y14023D02*
X16142Y8025D01*
Y14023D02*
X12143Y8025D01*
X18141D02*
X20141D01*
X19141D01*
Y14023D01*
X18141Y13023D01*
X96393Y197983D02*
Y192985D01*
X97393Y191985D01*
X99392D01*
X100392Y192985D01*
Y197983D01*
X105390Y191985D02*
Y197983D01*
X102391Y194984D01*
X106390D01*
X108389Y191985D02*
Y195984D01*
X110388Y197983D01*
X112388Y195984D01*
Y191985D01*
Y194984D01*
X108389D01*
X12200Y269699D02*
X11201Y270699D01*
X9201D01*
X8202Y269699D01*
Y265701D01*
X9201Y264701D01*
X11201D01*
X12200Y265701D01*
X18198Y270699D02*
X16199Y269699D01*
X14200Y267700D01*
Y265701D01*
X15199Y264701D01*
X17199D01*
X18198Y265701D01*
Y266700D01*
X17199Y267700D01*
X14200D01*
X12200Y279199D02*
X11201Y280199D01*
X9201D01*
X8202Y279199D01*
Y275201D01*
X9201Y274201D01*
X11201D01*
X12200Y275201D01*
X18198Y280199D02*
X14200D01*
Y277200D01*
X16199Y278200D01*
X17199D01*
X18198Y277200D01*
Y275201D01*
X17199Y274201D01*
X15199D01*
X14200Y275201D01*
D12*
X59651Y269685D02*
G03*
X59651Y269685I-984J0D01*
G01*
D13*
X101575Y221063D02*
G03*
X101575Y221063I-787J0D01*
G01*
Y187598D02*
G03*
X101575Y187598I-787J0D01*
G01*
D14*
X102165Y293307D02*
G03*
X102165Y293307I-2953J0D01*
G01*
X123819Y259842D02*
G03*
X123819Y259842I-2953J0D01*
G01*
X39567Y257874D02*
G03*
X39567Y257874I-2953J0D01*
G01*
X80905Y262598D02*
G03*
X80905Y262598I-2953J0D01*
G01*
D15*
X14518Y113917D02*
G03*
X14518Y113917I-250J0D01*
G01*
X14518Y143917D02*
G03*
X14518Y143917I-250J0D01*
G01*
Y153917D02*
G03*
X14518Y153917I-250J0D01*
G01*
Y163917D02*
G03*
X14518Y163917I-250J0D01*
G01*
X14518Y103917D02*
G03*
X14518Y103917I-250J0D01*
G01*
Y93917D02*
G03*
X14518Y93917I-250J0D01*
G01*
X14518Y133917D02*
G03*
X14518Y133917I-250J0D01*
G01*
X14518Y123917D02*
G03*
X14518Y123917I-250J0D01*
G01*
X74010Y27071D02*
G03*
X74010Y27071I-250J0D01*
G01*
X65374Y87205D02*
X80650D01*
X65374Y118307D02*
X80650D01*
D16*
X117677Y267323D02*
G03*
X117677Y267323I-79J0D01*
G01*
X60576Y119291D02*
G03*
X60576Y119291I-557J0D01*
G01*
X38583Y16201D02*
G03*
X38583Y16201I-394J0D01*
G01*
X139961Y88976D02*
X140354D01*
X139961Y85827D02*
X140354D01*
X141535Y143701D02*
X141929D01*
X141535Y140551D02*
X141929D01*
X149409Y306595D02*
Y307480D01*
Y290847D02*
Y299705D01*
Y283071D02*
Y283957D01*
Y283071D02*
X175787D01*
Y306595D02*
Y307480D01*
Y290847D02*
Y299705D01*
Y283071D02*
Y283957D01*
X149409Y307480D02*
X175787D01*
X149409Y281004D02*
Y281890D01*
Y265256D02*
Y274114D01*
Y257480D02*
Y258366D01*
Y257480D02*
X175787D01*
Y281004D02*
Y281890D01*
Y265256D02*
Y274114D01*
Y257480D02*
Y258366D01*
X149409Y281890D02*
X175787D01*
X149409Y230217D02*
Y231102D01*
Y214469D02*
Y223327D01*
Y206693D02*
Y207579D01*
Y206693D02*
X175787D01*
Y230217D02*
Y231102D01*
Y214469D02*
Y223327D01*
Y206693D02*
Y207579D01*
X149409Y231102D02*
X175787D01*
X149409Y256299D02*
X175787D01*
Y231890D02*
Y232776D01*
Y239666D02*
Y248524D01*
Y255414D02*
Y256299D01*
X149409Y231890D02*
X175787D01*
X149409D02*
Y232776D01*
Y239666D02*
Y248524D01*
Y255414D02*
Y256299D01*
X7894Y301969D02*
Y364173D01*
X102343D01*
Y301969D02*
Y324508D01*
Y341634D02*
Y364173D01*
X7894Y301969D02*
X102343D01*
X115453Y331102D02*
Y335039D01*
X113484Y333071D02*
X117421D01*
X55714Y272638D02*
X63971D01*
Y253346D02*
Y272638D01*
X55714Y253346D02*
X63971D01*
X55714D02*
Y272638D01*
X38976Y269193D02*
Y271752D01*
X32677Y269193D02*
Y271752D01*
X102264Y274764D02*
Y279764D01*
X96161Y274764D02*
Y279764D01*
Y274764D02*
X102264D01*
X97638Y204921D02*
X106299D01*
X97638Y224213D02*
X106299D01*
Y204921D02*
Y224213D01*
X97638Y204921D02*
Y224213D01*
X66142Y40551D02*
X70079D01*
X66142Y47638D02*
X70079D01*
X94705Y167008D02*
X105295D01*
X94705Y85827D02*
Y167008D01*
Y85827D02*
X105295D01*
Y167008D01*
X43898Y227362D02*
X44291D01*
X43898Y230118D02*
X44291D01*
X28150Y205118D02*
X40354D01*
X28150Y224803D02*
X40354D01*
X108071Y265354D02*
Y268307D01*
Y265354D02*
X111827D01*
X108071Y276772D02*
X111827D01*
X113189Y270079D02*
Y272047D01*
X108071Y273819D02*
Y276772D01*
X73032Y83071D02*
X73425D01*
X73032Y79921D02*
X73425D01*
X127756Y118504D02*
X128150D01*
X127756Y115354D02*
X128150D01*
X110827Y152992D02*
X111220D01*
X110827Y149842D02*
X111220D01*
X110827Y142992D02*
X111220D01*
X110827Y139842D02*
X111220D01*
X110827Y92992D02*
X111220D01*
X110827Y89842D02*
X111220D01*
X110827Y102992D02*
X111220D01*
X110827Y99842D02*
X111220D01*
X110827Y112992D02*
X111220D01*
X110827Y109842D02*
X111220D01*
X110827Y122992D02*
X111220D01*
X110827Y119842D02*
X111220D01*
X110827Y162992D02*
X111220D01*
X110827Y159842D02*
X111220D01*
X110827Y132992D02*
X111220D01*
X110827Y129842D02*
X111220D01*
Y285039D02*
X111614D01*
X111220Y281890D02*
X111614D01*
X85236Y268898D02*
X85630D01*
X85236Y272047D02*
X85630D01*
X55315Y205118D02*
X55709D01*
X55315Y208268D02*
X55709D01*
X5512Y210039D02*
Y210433D01*
X2362Y210039D02*
Y210433D01*
X11417Y210039D02*
Y210433D01*
X8268Y210039D02*
Y210433D01*
X17323Y210039D02*
Y210433D01*
X14173Y210039D02*
Y210433D01*
X55315Y211024D02*
X55709D01*
X55315Y214173D02*
X55709D01*
X55315Y220079D02*
X55709D01*
X55315Y216929D02*
X55709D01*
X5512Y221850D02*
Y222244D01*
X2362Y221850D02*
Y222244D01*
X11417Y221850D02*
Y222244D01*
X8268Y221850D02*
Y222244D01*
X17323Y221850D02*
Y222244D01*
X14173Y221850D02*
Y222244D01*
X55315Y222835D02*
X55709D01*
X55315Y225984D02*
X55709D01*
X115945Y250591D02*
Y250984D01*
X113189Y250591D02*
Y250984D01*
X63295Y126862D02*
Y127256D01*
X60146Y126862D02*
Y127256D01*
X33681Y85827D02*
X44272D01*
Y167008D01*
X33681D02*
X44272D01*
X33681Y85827D02*
Y167008D01*
X70579Y126862D02*
Y127256D01*
X67429Y126862D02*
Y127256D01*
X77862Y126862D02*
Y127256D01*
X74713Y126862D02*
Y127256D01*
X77862Y140642D02*
Y141035D01*
X74713Y140642D02*
Y141035D01*
X63295Y140642D02*
Y141035D01*
X60146Y140642D02*
Y141035D01*
X70579Y140642D02*
Y141035D01*
X67429Y140642D02*
Y141035D01*
X21063Y159842D02*
X21457D01*
X21063Y162992D02*
X21457D01*
X21063Y139843D02*
X21457D01*
X21063Y142992D02*
X21457D01*
X21063Y149843D02*
X21457D01*
X21063Y152992D02*
X21457D01*
X21063Y102992D02*
X21457D01*
X21063Y99843D02*
X21457D01*
X21063Y112992D02*
X21457D01*
X21063Y109843D02*
X21457D01*
X21063Y129842D02*
X21457D01*
X21063Y132992D02*
X21457D01*
X21063Y122992D02*
X21457D01*
X21063Y119843D02*
X21457D01*
X21063Y92992D02*
X21457D01*
X21063Y89843D02*
X21457D01*
X81496Y172638D02*
Y173031D01*
X84646Y172638D02*
Y173031D01*
X85630Y121457D02*
X86024D01*
X85630Y124213D02*
X86024D01*
X77362Y172638D02*
Y173031D01*
X74213Y172638D02*
Y173031D01*
X70079Y172638D02*
Y173031D01*
X66929Y172638D02*
Y173031D01*
X77362Y191535D02*
Y191929D01*
X74213Y191535D02*
Y191929D01*
X70079Y191535D02*
Y191929D01*
X66929Y191535D02*
Y191929D01*
X84646Y191535D02*
Y191929D01*
X81496Y191535D02*
Y191929D01*
X84646Y225000D02*
Y225394D01*
X81496Y225000D02*
Y225394D01*
X70079Y225000D02*
Y225394D01*
X66929Y225000D02*
Y225394D01*
X77362Y225000D02*
Y225394D01*
X74213Y225000D02*
Y225394D01*
X70079Y206102D02*
Y206496D01*
X66929Y206102D02*
Y206496D01*
X77362Y206102D02*
Y206496D01*
X74213Y206102D02*
Y206496D01*
X84646Y206102D02*
Y206496D01*
X81496Y206102D02*
Y206496D01*
X97638Y171457D02*
Y190748D01*
X106299Y171457D02*
Y190748D01*
X97638D02*
X106299D01*
X97638Y171457D02*
X106299D01*
X128150Y124409D02*
X128543D01*
X128150Y127559D02*
X128543D01*
X91535Y242126D02*
X91929D01*
X91535Y238976D02*
X91929D01*
X77756D02*
X78150D01*
X77756Y242126D02*
X78150D01*
X32205Y15709D02*
Y81693D01*
X197D02*
X32205D01*
X197Y15709D02*
Y81693D01*
Y15709D02*
X32205D01*
X79528Y251378D02*
Y251772D01*
X82677Y251378D02*
Y251772D01*
X87008Y251378D02*
Y251772D01*
X90157Y251378D02*
Y251772D01*
X24213Y273819D02*
X24606D01*
X24213Y276575D02*
X24606D01*
X24213Y264370D02*
X24606D01*
X24213Y267126D02*
X24606D01*
X96161Y262047D02*
X102264D01*
Y257047D02*
Y262047D01*
X96161Y257047D02*
Y262047D01*
X120276Y186811D02*
Y187205D01*
X117520Y186811D02*
Y187205D01*
X122638Y170866D02*
X123031D01*
X122638Y174016D02*
X123031D01*
X122638Y177165D02*
X123031D01*
X122638Y180315D02*
X123031D01*
X120276Y220276D02*
Y220669D01*
X117520Y220276D02*
Y220669D01*
X122638Y210630D02*
X123031D01*
X122638Y213779D02*
X123031D01*
X122638Y204331D02*
X123031D01*
X122638Y207480D02*
X123031D01*
X66142Y56693D02*
X70079D01*
X66142Y49606D02*
X70079D01*
X65748Y32874D02*
Y33268D01*
X62598Y32874D02*
Y33268D01*
X67717Y65945D02*
X68110D01*
X67717Y63189D02*
X68110D01*
X67717Y61417D02*
X68110D01*
X67717Y58661D02*
X68110D01*
X134910Y90552D02*
Y94488D01*
X136878D01*
X137534Y93832D01*
Y92520D01*
X136878Y91864D01*
X134910D01*
X136222D02*
X137534Y90552D01*
X141469Y94488D02*
X138846D01*
Y92520D01*
X140157Y93176D01*
X140813D01*
X141469Y92520D01*
Y91208D01*
X140813Y90552D01*
X139502D01*
X138846Y91208D01*
X142781D02*
X143437Y90552D01*
X144749D01*
X145405Y91208D01*
Y93832D01*
X144749Y94488D01*
X143437D01*
X142781Y93832D01*
Y93176D01*
X143437Y92520D01*
X145405D01*
X136120Y145115D02*
Y149051D01*
X138087D01*
X138743Y148395D01*
Y147083D01*
X138087Y146427D01*
X136120D01*
X137432D02*
X138743Y145115D01*
X142679Y149051D02*
X141367Y148395D01*
X140055Y147083D01*
Y145771D01*
X140711Y145115D01*
X142023D01*
X142679Y145771D01*
Y146427D01*
X142023Y147083D01*
X140055D01*
X143991Y148395D02*
X144647Y149051D01*
X145959D01*
X146615Y148395D01*
Y145771D01*
X145959Y145115D01*
X144647D01*
X143991Y145771D01*
Y148395D01*
X79398Y79528D02*
Y83464D01*
X81366D01*
X82022Y82808D01*
Y81496D01*
X81366Y80840D01*
X79398D01*
X80710D02*
X82022Y79528D01*
X85958D02*
X83334D01*
X85958Y82152D01*
Y82808D01*
X85302Y83464D01*
X83990D01*
X83334Y82808D01*
X89237Y79528D02*
Y83464D01*
X87270Y81496D01*
X89893D01*
X129004Y109843D02*
Y113779D01*
X130972D01*
X131628Y113123D01*
Y111811D01*
X130972Y111155D01*
X129004D01*
X130316D02*
X131628Y109843D01*
X132940Y113123D02*
X133596Y113779D01*
X134908D01*
X135564Y113123D01*
Y112467D01*
X134908Y111811D01*
X134252D01*
X134908D01*
X135564Y111155D01*
Y110499D01*
X134908Y109843D01*
X133596D01*
X132940Y110499D01*
X136876Y113123D02*
X137532Y113779D01*
X138844D01*
X139500Y113123D01*
Y110499D01*
X138844Y109843D01*
X137532D01*
X136876Y110499D01*
Y113123D01*
X50592Y199804D02*
Y203740D01*
X52560D01*
X53216Y203083D01*
Y201772D01*
X52560Y201116D01*
X50592D01*
X51904D02*
X53216Y199804D01*
X54528D02*
X55840D01*
X55184D01*
Y203740D01*
X54528Y203083D01*
X57808D02*
X58464Y203740D01*
X59776D01*
X60431Y203083D01*
Y202428D01*
X59776Y201772D01*
X59119D01*
X59776D01*
X60431Y201116D01*
Y200460D01*
X59776Y199804D01*
X58464D01*
X57808Y200460D01*
X50592Y193898D02*
Y197834D01*
X52560D01*
X53216Y197178D01*
Y195866D01*
X52560Y195210D01*
X50592D01*
X51904D02*
X53216Y193898D01*
X54528D02*
X55840D01*
X55184D01*
Y197834D01*
X54528Y197178D01*
X59776Y193898D02*
Y197834D01*
X57808Y195866D01*
X60431D01*
X119161Y281497D02*
Y285432D01*
X121129D01*
X121785Y284776D01*
Y283465D01*
X121129Y282809D01*
X119161D01*
X120473D02*
X121785Y281497D01*
X125065D02*
Y285432D01*
X123097Y283465D01*
X125721D01*
X121868Y187402D02*
Y191338D01*
X123836D01*
X124492Y190682D01*
Y189370D01*
X123836Y188714D01*
X121868D01*
X123180D02*
X124492Y187402D01*
X128427Y191338D02*
X125803D01*
Y189370D01*
X127115Y190026D01*
X127771D01*
X128427Y189370D01*
Y188058D01*
X127771Y187402D01*
X126459D01*
X125803Y188058D01*
X131707Y187402D02*
Y191338D01*
X129739Y189370D01*
X132363D01*
X133675Y187402D02*
Y190026D01*
X134987Y191338D01*
X136299Y190026D01*
Y187402D01*
Y189370D01*
X133675D01*
X121868Y215770D02*
Y219706D01*
X123836D01*
X124492Y219050D01*
Y217738D01*
X123836Y217082D01*
X121868D01*
X123180D02*
X124492Y215770D01*
X128427Y219706D02*
X125803D01*
Y217738D01*
X127115Y218394D01*
X127771D01*
X128427Y217738D01*
Y216426D01*
X127771Y215770D01*
X126459D01*
X125803Y216426D01*
X132363Y219706D02*
X129739D01*
Y217738D01*
X131051Y218394D01*
X131707D01*
X132363Y217738D01*
Y216426D01*
X131707Y215770D01*
X130395D01*
X129739Y216426D01*
X133675Y219706D02*
Y215770D01*
X135643D01*
X136299Y216426D01*
Y217082D01*
X135643Y217738D01*
X133675D01*
X135643D01*
X136299Y218394D01*
Y219050D01*
X135643Y219706D01*
X133675D01*
X121868Y220867D02*
Y224802D01*
X123836D01*
X124492Y224147D01*
Y222835D01*
X123836Y222179D01*
X121868D01*
X123180D02*
X124492Y220867D01*
X128427Y224802D02*
X125803D01*
Y222835D01*
X127115Y223491D01*
X127771D01*
X128427Y222835D01*
Y221523D01*
X127771Y220867D01*
X126459D01*
X125803Y221523D01*
X131707Y220867D02*
Y224802D01*
X129739Y222835D01*
X132363D01*
X133675Y224802D02*
Y220867D01*
X135643D01*
X136299Y221523D01*
Y222179D01*
X135643Y222835D01*
X133675D01*
X135643D01*
X136299Y223491D01*
Y224147D01*
X135643Y224802D01*
X133675D01*
X97901Y238583D02*
Y242519D01*
X99869D01*
X100525Y241863D01*
Y240551D01*
X99869Y239895D01*
X97901D01*
X99213D02*
X100525Y238583D01*
X104461D02*
X101837D01*
X104461Y241207D01*
Y241863D01*
X103805Y242519D01*
X102493D01*
X101837Y241863D01*
X66274Y238977D02*
Y242913D01*
X68242D01*
X68898Y242257D01*
Y240945D01*
X68242Y240289D01*
X66274D01*
X67586D02*
X68898Y238977D01*
X70210D02*
X71522D01*
X70865D01*
Y242913D01*
X70210Y242257D01*
X128611Y128741D02*
Y132676D01*
X130578D01*
X131234Y132021D01*
Y130709D01*
X130578Y130053D01*
X128611D01*
X129922D02*
X131234Y128741D01*
X135170D02*
X132546D01*
X135170Y131365D01*
Y132021D01*
X134514Y132676D01*
X133202D01*
X132546Y132021D01*
X136482Y129397D02*
X137138Y128741D01*
X138450D01*
X139106Y129397D01*
Y132021D01*
X138450Y132676D01*
X137138D01*
X136482Y132021D01*
Y131365D01*
X137138Y130709D01*
X139106D01*
X79397Y274410D02*
Y278346D01*
X81365D01*
X82021Y277690D01*
Y276378D01*
X81365Y275722D01*
X79397D01*
X80709D02*
X82021Y274410D01*
X85957Y278346D02*
X83333D01*
Y276378D01*
X84645Y277034D01*
X85301D01*
X85957Y276378D01*
Y275066D01*
X85301Y274410D01*
X83989D01*
X83333Y275066D01*
X92390Y246457D02*
Y250393D01*
X94357D01*
X95013Y249737D01*
Y248425D01*
X94357Y247769D01*
X92390D01*
X93701D02*
X95013Y246457D01*
X98949Y250393D02*
X97637Y249737D01*
X96325Y248425D01*
Y247113D01*
X96981Y246457D01*
X98293D01*
X98949Y247113D01*
Y247769D01*
X98293Y248425D01*
X96325D01*
X69949Y246064D02*
Y249999D01*
X71916D01*
X72572Y249343D01*
Y248031D01*
X71916Y247375D01*
X69949D01*
X71260D02*
X72572Y246064D01*
X73884Y249999D02*
X76508D01*
Y249343D01*
X73884Y246720D01*
Y246064D01*
X121868Y182284D02*
Y186220D01*
X123836D01*
X124492Y185564D01*
Y184252D01*
X123836Y183596D01*
X121868D01*
X123180D02*
X124492Y182284D01*
X128427Y186220D02*
X125803D01*
Y184252D01*
X127115Y184908D01*
X127771D01*
X128427Y184252D01*
Y182940D01*
X127771Y182284D01*
X126459D01*
X125803Y182940D01*
X132363Y186220D02*
X129739D01*
Y184252D01*
X131051Y184908D01*
X131707D01*
X132363Y184252D01*
Y182940D01*
X131707Y182284D01*
X130395D01*
X129739Y182940D01*
X133675Y182284D02*
Y184908D01*
X134987Y186220D01*
X136299Y184908D01*
Y182284D01*
Y184252D01*
X133675D01*
X86615Y284645D02*
Y279922D01*
X88977D01*
X89764Y280709D01*
Y283858D01*
X88977Y284645D01*
X86615D01*
X93700Y279922D02*
Y284645D01*
X91338Y282283D01*
X94487D01*
X120474Y276377D02*
Y271654D01*
X122835D01*
X123622Y272442D01*
Y275590D01*
X122835Y276377D01*
X120474D01*
X128345Y271654D02*
X125197D01*
X128345Y274803D01*
Y275590D01*
X127558Y276377D01*
X125984D01*
X125197Y275590D01*
X12992Y253936D02*
X14304D01*
X13648D01*
Y250000D01*
X12992D01*
X14304D01*
X16272D02*
Y253936D01*
X18896Y250000D01*
Y253936D01*
X20208D02*
X22831D01*
X21520D01*
Y250000D01*
X24143Y249344D02*
X26767D01*
X28079Y250000D02*
Y253936D01*
X30047D01*
X30703Y253280D01*
Y251968D01*
X30047Y251312D01*
X28079D01*
X29391D02*
X30703Y250000D01*
X32015Y253936D02*
X34639D01*
X33327D01*
Y250000D01*
X38574Y253280D02*
X37918Y253936D01*
X36607D01*
X35951Y253280D01*
Y250656D01*
X36607Y250000D01*
X37918D01*
X38574Y250656D01*
X85563Y263450D02*
X84842Y264172D01*
X83399D01*
X82677Y263450D01*
Y260564D01*
X83399Y259842D01*
X84842D01*
X85563Y260564D01*
X87006Y264172D02*
Y259842D01*
X89893D01*
X91336Y264172D02*
Y259842D01*
Y261286D01*
X94222Y264172D01*
X92057Y262007D01*
X94222Y259842D01*
X104726Y262204D02*
Y257481D01*
X107087D01*
X107874Y258268D01*
Y261417D01*
X107087Y262204D01*
X104726D01*
X109449Y261417D02*
X110236Y262204D01*
X111810D01*
X112597Y261417D01*
Y260630D01*
X111810Y259842D01*
X111023D01*
X111810D01*
X112597Y259055D01*
Y258268D01*
X111810Y257481D01*
X110236D01*
X109449Y258268D01*
D17*
X9843Y113992D02*
X12780D01*
X13992Y112780D01*
Y109858D02*
Y112780D01*
X9843Y108843D02*
X12976D01*
X13992Y109858D01*
X2543Y113992D02*
X6693D01*
X2543Y108843D02*
Y113992D01*
Y108843D02*
X6693D01*
X2543Y138843D02*
X6693D01*
X2543D02*
Y143992D01*
X6693D01*
X12976Y138843D02*
X13992Y139858D01*
X9842Y138843D02*
X12976D01*
X13992Y139858D02*
Y142780D01*
X12779Y143992D02*
X13992Y142780D01*
X9842Y143992D02*
X12779D01*
X2543Y148842D02*
X6693D01*
X2543D02*
Y153992D01*
X6693D01*
X12976Y148842D02*
X13992Y149858D01*
X9842Y148842D02*
X12976D01*
X13992Y149858D02*
Y152779D01*
X12779Y153992D02*
X13992Y152779D01*
X9842Y153992D02*
X12779D01*
X2543Y158843D02*
X6693D01*
X2543D02*
Y163992D01*
X6693D01*
X12976Y158843D02*
X13992Y159858D01*
X9842Y158843D02*
X12976D01*
X13992Y159858D02*
Y162780D01*
X12779Y163992D02*
X13992Y162780D01*
X9842Y163992D02*
X12779D01*
X9843Y103992D02*
X12780D01*
X13992Y102780D01*
Y99858D02*
Y102780D01*
X9843Y98843D02*
X12976D01*
X13992Y99858D01*
X2543Y103992D02*
X6693D01*
X2543Y98843D02*
Y103992D01*
Y98843D02*
X6693D01*
X9843Y93992D02*
X12780D01*
X13992Y92780D01*
Y89858D02*
Y92780D01*
X9843Y88843D02*
X12976D01*
X13992Y89858D01*
X2543Y93992D02*
X6693D01*
X2543Y88843D02*
Y93992D01*
Y88843D02*
X6693D01*
X2543Y128842D02*
X6693D01*
X2543D02*
Y133992D01*
X6693D01*
X12976Y128842D02*
X13992Y129858D01*
X9842Y128842D02*
X12976D01*
X13992Y129858D02*
Y132779D01*
X12779Y133992D02*
X13992Y132779D01*
X9842Y133992D02*
X12779D01*
X9843Y123992D02*
X12780D01*
X13992Y122780D01*
Y119858D02*
Y122780D01*
X9843Y118843D02*
X12976D01*
X13992Y119858D01*
X2543Y123992D02*
X6693D01*
X2543Y118843D02*
Y123992D01*
Y118843D02*
X6693D01*
X73835Y28559D02*
Y31496D01*
X72622Y27346D02*
X73835Y28559D01*
X69701Y27346D02*
X72622D01*
X68685Y28362D02*
Y31496D01*
Y28362D02*
X69701Y27346D01*
X73835Y34646D02*
Y38795D01*
X68685D02*
X73835D01*
X68685Y34646D02*
Y38795D01*
D18*
X89975Y159921D02*
X89308Y160588D01*
Y161921D01*
X89975Y162587D01*
X90641D01*
X91308Y161921D01*
X91974Y162587D01*
X92641D01*
X93307Y161921D01*
Y160588D01*
X92641Y159921D01*
X91974D01*
X91308Y160588D01*
X90641Y159921D01*
X89975D01*
X91308Y160588D02*
Y161921D01*
X93307Y90945D02*
Y92278D01*
Y91611D01*
X89308D01*
X89975Y90945D01*
X49002Y92913D02*
X49668Y92247D01*
Y90914D01*
X49002Y90248D01*
X48335D01*
X47669Y90914D01*
X47002Y90248D01*
X46336D01*
X45669Y90914D01*
Y92247D01*
X46336Y92913D01*
X47002D01*
X47669Y92247D01*
X48335Y92913D01*
X49002D01*
X47669Y92247D02*
Y90914D01*
X45669Y161890D02*
Y160557D01*
Y161223D01*
X49668D01*
X49002Y161890D01*
D19*
X99089Y275765D02*
D03*
X99337Y261047D02*
D03*
M02*
