G04*
G04 #@! TF.GenerationSoftware,Altium Limited,Altium Designer,21.1.1 (26)*
G04*
G04 Layer_Physical_Order=2*
G04 Layer_Color=16711680*
%FSLAX25Y25*%
%MOIN*%
G70*
G04*
G04 #@! TF.SameCoordinates,A0B2FF02-B728-4D00-99DE-4778D014F070*
G04*
G04*
G04 #@! TF.FilePolarity,Positive*
G04*
G01*
G75*
%ADD11C,0.01000*%
%ADD16C,0.00787*%
%ADD17C,0.00591*%
%ADD20R,0.03543X0.03937*%
%ADD57C,0.07000*%
%ADD58C,0.06024*%
%ADD59R,0.06024X0.06024*%
%ADD60C,0.06299*%
%ADD61R,0.06299X0.06299*%
%ADD62C,0.02362*%
%ADD63C,0.01575*%
G36*
X187877Y392681D02*
X189581Y392342D01*
X191187Y391677D01*
X192632Y390711D01*
X193861Y389483D01*
X194827Y388037D01*
X195492Y386432D01*
X195831Y384727D01*
Y383858D01*
Y9843D01*
Y8974D01*
X195492Y7269D01*
X194827Y5663D01*
X193861Y4218D01*
X192632Y2989D01*
X191187Y2024D01*
X189581Y1359D01*
X187877Y1020D01*
X8974D01*
X7269Y1359D01*
X5663Y2024D01*
X4218Y2989D01*
X2989Y4218D01*
X2024Y5663D01*
X1359Y7269D01*
X1020Y8974D01*
Y9843D01*
Y383858D01*
Y384727D01*
X1359Y386432D01*
X2024Y388037D01*
X2989Y389483D01*
X4218Y390711D01*
X5663Y391677D01*
X7269Y392342D01*
X8974Y392681D01*
X9843Y392681D01*
X187008D01*
X187877Y392681D01*
D02*
G37*
%LPC*%
G36*
X106691Y230315D02*
X105908D01*
X105184Y230015D01*
X104720Y229551D01*
X101186D01*
X100722Y230015D01*
X99998Y230315D01*
X99215D01*
X98491Y230015D01*
X97938Y229462D01*
X97638Y228738D01*
Y227955D01*
X97938Y227231D01*
X98491Y226678D01*
X99215Y226378D01*
X99998D01*
X100722Y226678D01*
X101186Y227142D01*
X104720D01*
X105184Y226678D01*
X105908Y226378D01*
X106691D01*
X107414Y226678D01*
X107968Y227231D01*
X108268Y227955D01*
Y228738D01*
X107968Y229462D01*
X107414Y230015D01*
X106691Y230315D01*
D02*
G37*
G36*
X128167Y202362D02*
X127541D01*
X126962Y202122D01*
X126731Y201891D01*
X125139D01*
X124908Y202122D01*
X124329Y202362D01*
X123703D01*
X123124Y202122D01*
X122681Y201679D01*
X122441Y201101D01*
Y200474D01*
X122681Y199895D01*
X123124Y199452D01*
X123703Y199213D01*
X124329D01*
X124908Y199452D01*
X125139Y199683D01*
X126731D01*
X126962Y199452D01*
X127541Y199213D01*
X128167D01*
X128746Y199452D01*
X129189Y199895D01*
X129429Y200474D01*
Y201101D01*
X129189Y201679D01*
X128746Y202122D01*
X128167Y202362D01*
D02*
G37*
G36*
X119289Y255118D02*
X118506D01*
X117782Y254818D01*
X117229Y254265D01*
X116929Y253541D01*
Y252758D01*
X117229Y252034D01*
X117585Y251678D01*
Y227402D01*
X117323Y226770D01*
Y225986D01*
X117623Y225263D01*
X118176Y224709D01*
X118900Y224410D01*
X119404D01*
X130379Y213434D01*
Y199989D01*
X127025Y196635D01*
X126740Y196209D01*
X126640Y195706D01*
Y188091D01*
X126178Y187900D01*
X123988Y190090D01*
Y190594D01*
X123689Y191317D01*
X123135Y191871D01*
X122411Y192171D01*
X121628D01*
X120905Y191871D01*
X120351Y191317D01*
X120051Y190594D01*
Y189811D01*
X120351Y189087D01*
X120905Y188533D01*
X121628Y188234D01*
X122132D01*
X125459Y184907D01*
Y164651D01*
X125451Y164611D01*
Y143956D01*
X120013Y138518D01*
X119513Y138725D01*
Y140146D01*
X119488Y140273D01*
Y144173D01*
X118242D01*
Y148661D01*
X119488D01*
Y154173D01*
X118242D01*
Y158661D01*
X119488D01*
Y164173D01*
X114370D01*
Y158661D01*
X115617D01*
Y154173D01*
X114370D01*
Y148661D01*
X115617D01*
Y144173D01*
X114370D01*
Y138662D01*
X116888D01*
Y137533D01*
X116800Y137426D01*
X106024D01*
X106014Y137433D01*
X105512Y137533D01*
X102146D01*
X102012Y138033D01*
X102417Y138267D01*
X103150Y139000D01*
X103669Y139898D01*
X103780Y140313D01*
X108071D01*
Y138662D01*
X113189D01*
Y144173D01*
X108071D01*
Y142521D01*
X103780D01*
X103669Y142937D01*
X103150Y143835D01*
X102417Y144568D01*
X101520Y145086D01*
X100518Y145354D01*
X99482D01*
X98480Y145086D01*
X97583Y144568D01*
X96850Y143835D01*
X96331Y142937D01*
X96063Y141936D01*
Y140899D01*
X96331Y139898D01*
X96850Y139000D01*
X97583Y138267D01*
X97988Y138033D01*
X97854Y137533D01*
X91732D01*
X91230Y137433D01*
X90804Y137149D01*
X83183Y129527D01*
X82679D01*
X81956Y129228D01*
X81402Y128674D01*
X81103Y127951D01*
Y127167D01*
X81402Y126444D01*
X81956Y125890D01*
X82679Y125591D01*
X83463D01*
X84186Y125890D01*
X84740Y126444D01*
X85040Y127167D01*
Y127671D01*
X92276Y134908D01*
X97215D01*
X97423Y134408D01*
X96850Y133835D01*
X96331Y132937D01*
X96063Y131936D01*
Y130899D01*
X96331Y129898D01*
X96850Y129000D01*
X97583Y128267D01*
X98480Y127749D01*
X99482Y127480D01*
X100518D01*
X101520Y127749D01*
X102417Y128267D01*
X103150Y129000D01*
X103669Y129898D01*
X103780Y130314D01*
X108071D01*
Y128662D01*
X113189D01*
Y134173D01*
X108071D01*
Y132521D01*
X103780D01*
X103669Y132937D01*
X103150Y133835D01*
X102577Y134408D01*
X102785Y134908D01*
X105106D01*
X105116Y134901D01*
X105619Y134801D01*
X116747D01*
X116798Y134740D01*
Y134173D01*
X114370D01*
Y128662D01*
X116593D01*
Y124173D01*
X114370D01*
Y118661D01*
X116593D01*
Y114173D01*
X114370D01*
Y108661D01*
X116593D01*
Y104173D01*
X114370D01*
Y98662D01*
X116593D01*
Y94173D01*
X114370D01*
Y89025D01*
X113870Y88818D01*
X113210Y89477D01*
Y89941D01*
X113189Y90048D01*
Y94173D01*
X108071D01*
Y92521D01*
X103937D01*
Y95354D01*
X96063D01*
Y87480D01*
X103937D01*
Y90314D01*
X108071D01*
Y88661D01*
X111074D01*
X111086Y88598D01*
X111326Y88240D01*
X113732Y85834D01*
X114090Y85594D01*
X114512Y85510D01*
X132735D01*
X132966Y85279D01*
X133545Y85039D01*
X134171D01*
X134750Y85279D01*
X135193Y85722D01*
X135433Y86301D01*
Y86927D01*
X135193Y87506D01*
X134750Y87949D01*
X134171Y88189D01*
X133545D01*
X132966Y87949D01*
X132735Y87718D01*
X114970D01*
X114526Y88161D01*
X114733Y88661D01*
X119488D01*
Y94173D01*
X119218D01*
Y98662D01*
X119488D01*
Y99402D01*
X119904Y99680D01*
X120081Y99606D01*
X120864D01*
X121588Y99906D01*
X122141Y100460D01*
X122441Y101183D01*
Y101966D01*
X122141Y102690D01*
X121588Y103244D01*
X120864Y103543D01*
X120081D01*
X119904Y103470D01*
X119488Y103748D01*
Y104173D01*
X119218D01*
Y108661D01*
X119488D01*
Y114173D01*
X119218D01*
Y118661D01*
X119488D01*
Y124173D01*
X119218D01*
Y128662D01*
X119488D01*
Y134173D01*
X119779Y134553D01*
X120287Y135060D01*
X120324Y135116D01*
X127692Y142484D01*
X127977Y142910D01*
X128076Y143412D01*
Y164580D01*
X128084Y164619D01*
Y182983D01*
X128455Y183056D01*
X128881Y183341D01*
X129165Y183767D01*
X129265Y184269D01*
Y195163D01*
X132620Y198517D01*
X132904Y198943D01*
X133004Y199445D01*
Y213978D01*
X132904Y214480D01*
X132620Y214906D01*
X121260Y226266D01*
Y226770D01*
X120960Y227493D01*
X120406Y228047D01*
X120210Y228128D01*
Y251678D01*
X120566Y252034D01*
X120866Y252758D01*
Y253541D01*
X120566Y254265D01*
X120013Y254818D01*
X119289Y255118D01*
D02*
G37*
G36*
X181273Y173972D02*
X180144D01*
X179054Y173680D01*
X178076Y173116D01*
X177278Y172318D01*
X176713Y171340D01*
X176421Y170249D01*
Y169121D01*
X176713Y168030D01*
X177278Y167052D01*
X178076Y166254D01*
X179054Y165690D01*
X180144Y165398D01*
X181273D01*
X182363Y165690D01*
X183341Y166254D01*
X184139Y167052D01*
X184704Y168030D01*
X184996Y169121D01*
Y170249D01*
X184704Y171340D01*
X184139Y172318D01*
X183341Y173116D01*
X182363Y173680D01*
X181273Y173972D01*
D02*
G37*
G36*
X151352D02*
X150223D01*
X149133Y173680D01*
X148155Y173116D01*
X147357Y172318D01*
X146792Y171340D01*
X146500Y170249D01*
Y169121D01*
X146792Y168030D01*
X147357Y167052D01*
X148155Y166254D01*
X149133Y165690D01*
X150223Y165398D01*
X151352D01*
X152442Y165690D01*
X153420Y166254D01*
X154218Y167052D01*
X154783Y168030D01*
X155075Y169121D01*
Y170249D01*
X154783Y171340D01*
X154218Y172318D01*
X153420Y173116D01*
X152442Y173680D01*
X151352Y173972D01*
D02*
G37*
G36*
X139191Y159843D02*
X138565D01*
X137986Y159603D01*
X137755Y159372D01*
X132816D01*
X132585Y159603D01*
X132006Y159843D01*
X131380D01*
X130801Y159603D01*
X130358Y159160D01*
X130118Y158581D01*
Y157955D01*
X130358Y157376D01*
X130801Y156933D01*
X130570Y156510D01*
X130464Y156404D01*
X130224Y155825D01*
Y155199D01*
X130464Y154620D01*
X130623Y154461D01*
X130874Y154134D01*
X130623Y153807D01*
X130464Y153648D01*
X130224Y153069D01*
Y152443D01*
X130464Y151864D01*
X130623Y151705D01*
X130874Y151378D01*
X130623Y151051D01*
X130464Y150892D01*
X130224Y150313D01*
Y149687D01*
X130464Y149108D01*
X130907Y148665D01*
X131486Y148425D01*
X132113D01*
X132691Y148665D01*
X132922Y148896D01*
X136909D01*
X137332Y148980D01*
X137648Y149191D01*
X137853D01*
X137986Y149059D01*
X138565Y148819D01*
X139191D01*
X139770Y149059D01*
X140213Y149502D01*
X140453Y150080D01*
Y150707D01*
X140213Y151286D01*
X139853Y151645D01*
X140213Y152005D01*
X140453Y152584D01*
Y153210D01*
X140213Y153789D01*
X139798Y154204D01*
X140213Y154620D01*
X140453Y155199D01*
Y155825D01*
X140213Y156404D01*
X140054Y156563D01*
X139803Y156890D01*
X140054Y157216D01*
X140213Y157376D01*
X140453Y157955D01*
Y158581D01*
X140213Y159160D01*
X139770Y159603D01*
X139191Y159843D01*
D02*
G37*
G36*
X100518Y165354D02*
X99482D01*
X98480Y165086D01*
X97583Y164568D01*
X96850Y163835D01*
X96331Y162937D01*
X96063Y161936D01*
Y160899D01*
X96331Y159898D01*
X96850Y159000D01*
X97583Y158267D01*
X98480Y157749D01*
X99482Y157480D01*
X100518D01*
X101520Y157749D01*
X102417Y158267D01*
X103150Y159000D01*
X103669Y159898D01*
X103780Y160313D01*
X108071D01*
Y158661D01*
X113189D01*
Y164173D01*
X108071D01*
Y162521D01*
X103780D01*
X103669Y162937D01*
X103150Y163835D01*
X102417Y164568D01*
X101520Y165086D01*
X100518Y165354D01*
D02*
G37*
G36*
X42913D02*
X35039D01*
Y157480D01*
X42913D01*
Y165354D01*
D02*
G37*
G36*
X100518Y155354D02*
X99482D01*
X98480Y155086D01*
X97583Y154568D01*
X96850Y153835D01*
X96331Y152937D01*
X96063Y151936D01*
Y150899D01*
X96331Y149898D01*
X96850Y149000D01*
X97583Y148267D01*
X98480Y147749D01*
X99482Y147480D01*
X100518D01*
X101520Y147749D01*
X102417Y148267D01*
X103150Y149000D01*
X103669Y149898D01*
X103780Y150313D01*
X108071D01*
Y148661D01*
X113189D01*
Y154173D01*
X108071D01*
Y152521D01*
X103780D01*
X103669Y152937D01*
X103150Y153835D01*
X102417Y154568D01*
X101520Y155086D01*
X100518Y155354D01*
D02*
G37*
G36*
X39495D02*
X38458D01*
X37457Y155086D01*
X36559Y154568D01*
X35826Y153835D01*
X35308Y152937D01*
X35039Y151936D01*
Y150899D01*
X35308Y149898D01*
X35826Y149000D01*
X36559Y148267D01*
X37457Y147749D01*
X38458Y147480D01*
X39495D01*
X40496Y147749D01*
X41394Y148267D01*
X42127Y149000D01*
X42645Y149898D01*
X42913Y150899D01*
Y151936D01*
X42645Y152937D01*
X42127Y153835D01*
X41394Y154568D01*
X40496Y155086D01*
X39495Y155354D01*
D02*
G37*
G36*
Y145354D02*
X38458D01*
X37457Y145086D01*
X36559Y144568D01*
X35826Y143835D01*
X35308Y142937D01*
X35039Y141936D01*
Y140899D01*
X35308Y139898D01*
X35826Y139000D01*
X36559Y138267D01*
X37457Y137749D01*
X38458Y137480D01*
X39495D01*
X40496Y137749D01*
X41394Y138267D01*
X42127Y139000D01*
X42645Y139898D01*
X42913Y140899D01*
Y141936D01*
X42645Y142937D01*
X42127Y143835D01*
X41394Y144568D01*
X40496Y145086D01*
X39495Y145354D01*
D02*
G37*
G36*
Y135354D02*
X38458D01*
X37457Y135086D01*
X36559Y134568D01*
X35826Y133835D01*
X35308Y132937D01*
X35039Y131936D01*
Y130899D01*
X35308Y129898D01*
X35826Y129000D01*
X36559Y128267D01*
X37457Y127749D01*
X38458Y127480D01*
X39495D01*
X40496Y127749D01*
X41394Y128267D01*
X42127Y129000D01*
X42645Y129898D01*
X42913Y130899D01*
Y131936D01*
X42645Y132937D01*
X42127Y133835D01*
X41394Y134568D01*
X40496Y135086D01*
X39495Y135354D01*
D02*
G37*
G36*
X102717Y127059D02*
X102091D01*
X101512Y126819D01*
X101446Y126753D01*
X92579D01*
X92156Y126670D01*
X91798Y126430D01*
X81116Y115748D01*
X80789D01*
X80210Y115508D01*
X79767Y115065D01*
X79528Y114486D01*
Y113860D01*
X79767Y113281D01*
X80056Y112992D01*
X79767Y112703D01*
X79528Y112124D01*
Y111498D01*
X79767Y110919D01*
X80210Y110476D01*
X80789Y110236D01*
X81416D01*
X81994Y110476D01*
X82437Y110919D01*
X82677Y111498D01*
Y111542D01*
X86960Y115825D01*
X99307D01*
X99373Y115325D01*
X98480Y115086D01*
X97583Y114568D01*
X96850Y113835D01*
X96331Y112937D01*
X96063Y111936D01*
Y110899D01*
X96331Y109898D01*
X96850Y109000D01*
X97583Y108267D01*
X98480Y107749D01*
X99482Y107480D01*
X100518D01*
X101520Y107749D01*
X102417Y108267D01*
X103150Y109000D01*
X103669Y109898D01*
X103780Y110313D01*
X108071D01*
Y108661D01*
X113189D01*
Y114173D01*
X108071D01*
Y112521D01*
X103780D01*
X103669Y112937D01*
X103150Y113835D01*
X102417Y114568D01*
X101520Y115086D01*
X100627Y115325D01*
X100693Y115825D01*
X101633D01*
X101864Y115594D01*
X102443Y115354D01*
X103069D01*
X103648Y115594D01*
X104091Y116037D01*
X104331Y116616D01*
Y117243D01*
X104091Y117821D01*
X103648Y118264D01*
X103276Y118418D01*
X103116Y118966D01*
X103150Y119000D01*
X103669Y119898D01*
X103780Y120314D01*
X108071D01*
Y118661D01*
X113189D01*
Y124173D01*
X108071D01*
Y122521D01*
X103780D01*
X103669Y122937D01*
X103284Y123603D01*
X103296Y124149D01*
X103739Y124592D01*
X103979Y125171D01*
Y125797D01*
X103739Y126376D01*
X103296Y126819D01*
X102717Y127059D01*
D02*
G37*
G36*
X39495Y125354D02*
X38458D01*
X37457Y125086D01*
X36559Y124568D01*
X35826Y123835D01*
X35308Y122937D01*
X35039Y121936D01*
Y120899D01*
X35308Y119898D01*
X35826Y119000D01*
X36559Y118267D01*
X37457Y117749D01*
X38458Y117480D01*
X39495D01*
X40496Y117749D01*
X41394Y118267D01*
X42127Y119000D01*
X42645Y119898D01*
X42913Y120899D01*
Y121936D01*
X42645Y122937D01*
X42127Y123835D01*
X41394Y124568D01*
X40496Y125086D01*
X39495Y125354D01*
D02*
G37*
G36*
X181273Y119642D02*
X180144D01*
X179054Y119350D01*
X178076Y118785D01*
X177278Y117987D01*
X176713Y117009D01*
X176421Y115919D01*
Y114790D01*
X176713Y113699D01*
X177278Y112722D01*
X178076Y111924D01*
X179054Y111359D01*
X180144Y111067D01*
X181273D01*
X182363Y111359D01*
X183341Y111924D01*
X184139Y112722D01*
X184704Y113699D01*
X184996Y114790D01*
Y115919D01*
X184704Y117009D01*
X184139Y117987D01*
X183341Y118785D01*
X182363Y119350D01*
X181273Y119642D01*
D02*
G37*
G36*
X151352D02*
X150223D01*
X149133Y119350D01*
X148155Y118785D01*
X147357Y117987D01*
X146792Y117009D01*
X146500Y115919D01*
Y114790D01*
X146792Y113699D01*
X147357Y112722D01*
X148155Y111924D01*
X149133Y111359D01*
X150223Y111067D01*
X151352D01*
X152442Y111359D01*
X153420Y111924D01*
X154218Y112722D01*
X154783Y113699D01*
X155075Y114790D01*
Y115919D01*
X154783Y117009D01*
X154218Y117987D01*
X153420Y118785D01*
X152442Y119350D01*
X151352Y119642D01*
D02*
G37*
G36*
X39495Y115354D02*
X38458D01*
X37457Y115086D01*
X36559Y114568D01*
X35826Y113835D01*
X35308Y112937D01*
X35039Y111936D01*
Y110899D01*
X35308Y109898D01*
X35826Y109000D01*
X36559Y108267D01*
X37457Y107749D01*
X38458Y107480D01*
X39495D01*
X40496Y107749D01*
X41394Y108267D01*
X42127Y109000D01*
X42645Y109898D01*
X42913Y110899D01*
Y111936D01*
X42645Y112937D01*
X42127Y113835D01*
X41394Y114568D01*
X40496Y115086D01*
X39495Y115354D01*
D02*
G37*
G36*
X134171Y106693D02*
X133545D01*
X132966Y106453D01*
X132735Y106222D01*
X128289D01*
X128057Y106453D01*
X127479Y106693D01*
X126852D01*
X126273Y106453D01*
X125830Y106010D01*
X125591Y105431D01*
Y104805D01*
X125830Y104226D01*
X126273Y103783D01*
X126852Y103543D01*
X127479D01*
X128057Y103783D01*
X128289Y104014D01*
X132735D01*
X132966Y103783D01*
X133545Y103543D01*
X134171D01*
X134750Y103783D01*
X135193Y104226D01*
X135433Y104805D01*
Y105431D01*
X135193Y106010D01*
X134750Y106453D01*
X134171Y106693D01*
D02*
G37*
G36*
X100518Y105354D02*
X99482D01*
X98480Y105086D01*
X97583Y104568D01*
X96850Y103835D01*
X96331Y102937D01*
X96063Y101936D01*
Y100899D01*
X96331Y99898D01*
X96850Y99000D01*
X97583Y98267D01*
X98480Y97749D01*
X99482Y97480D01*
X100518D01*
X101520Y97749D01*
X102417Y98267D01*
X103150Y99000D01*
X103669Y99898D01*
X103780Y100313D01*
X108071D01*
Y98662D01*
X113189D01*
Y104173D01*
X108071D01*
Y102521D01*
X103780D01*
X103669Y102937D01*
X103150Y103835D01*
X102417Y104568D01*
X101520Y105086D01*
X100518Y105354D01*
D02*
G37*
G36*
X39495D02*
X38458D01*
X37457Y105086D01*
X36559Y104568D01*
X35826Y103835D01*
X35308Y102937D01*
X35039Y101936D01*
Y100899D01*
X35308Y99898D01*
X35826Y99000D01*
X36559Y98267D01*
X37457Y97749D01*
X38458Y97480D01*
X39495D01*
X40496Y97749D01*
X41394Y98267D01*
X42127Y99000D01*
X42645Y99898D01*
X42913Y100899D01*
Y101936D01*
X42645Y102937D01*
X42127Y103835D01*
X41394Y104568D01*
X40496Y105086D01*
X39495Y105354D01*
D02*
G37*
G36*
Y95354D02*
X38458D01*
X37457Y95086D01*
X36559Y94568D01*
X35826Y93835D01*
X35308Y92937D01*
X35039Y91936D01*
Y90899D01*
X35308Y89898D01*
X35826Y89000D01*
X36559Y88267D01*
X37457Y87749D01*
X38458Y87480D01*
X39495D01*
X40496Y87749D01*
X41394Y88267D01*
X42127Y89000D01*
X42645Y89898D01*
X42913Y90899D01*
Y91936D01*
X42645Y92937D01*
X42127Y93835D01*
X41394Y94568D01*
X40496Y95086D01*
X39495Y95354D01*
D02*
G37*
G36*
X158949Y77500D02*
X157949D01*
X156983Y77241D01*
X156116Y76741D01*
X155409Y76034D01*
X154909Y75167D01*
X154650Y74201D01*
Y73201D01*
X154909Y72235D01*
X154988Y72097D01*
X153404Y70513D01*
X151341D01*
X151133Y71013D01*
X151489Y71368D01*
X151989Y72235D01*
X152248Y73201D01*
Y74201D01*
X151989Y75167D01*
X151489Y76034D01*
X150782Y76741D01*
X149915Y77241D01*
X148949Y77500D01*
X147949D01*
X146983Y77241D01*
X146116Y76741D01*
X145409Y76034D01*
X144909Y75167D01*
X144867Y75014D01*
X68800D01*
X68799Y75013D01*
X51771D01*
X51729Y75167D01*
X51229Y76034D01*
X50522Y76741D01*
X49655Y77241D01*
X48689Y77500D01*
X47689D01*
X46723Y77241D01*
X45856Y76741D01*
X45149Y76034D01*
X44649Y75167D01*
X44390Y74201D01*
Y73201D01*
X44649Y72234D01*
X45149Y71368D01*
X45504Y71013D01*
X45297Y70513D01*
X43233D01*
X41650Y72097D01*
X41729Y72234D01*
X41988Y73201D01*
Y74201D01*
X41729Y75167D01*
X41229Y76034D01*
X40522Y76741D01*
X39655Y77241D01*
X38689Y77500D01*
X37689D01*
X36723Y77241D01*
X35856Y76741D01*
X35149Y76034D01*
X34649Y75167D01*
X34390Y74201D01*
Y73201D01*
X34649Y72234D01*
X35149Y71368D01*
X35856Y70661D01*
X36723Y70161D01*
X37689Y69902D01*
X38689D01*
X39655Y70161D01*
X39793Y70240D01*
X41762Y68272D01*
X42188Y67987D01*
X42690Y67887D01*
X47203D01*
X47269Y67387D01*
X46723Y67241D01*
X45856Y66741D01*
X45149Y66034D01*
X44649Y65167D01*
X44390Y64201D01*
Y63201D01*
X44649Y62234D01*
X45149Y61368D01*
X45504Y61013D01*
X45297Y60513D01*
X43233D01*
X41650Y62097D01*
X41729Y62234D01*
X41988Y63201D01*
Y64201D01*
X41729Y65167D01*
X41229Y66034D01*
X40522Y66741D01*
X39655Y67241D01*
X38689Y67500D01*
X37689D01*
X36723Y67241D01*
X35856Y66741D01*
X35149Y66034D01*
X34649Y65167D01*
X34390Y64201D01*
Y63201D01*
X34649Y62234D01*
X35149Y61368D01*
X35856Y60661D01*
X36723Y60160D01*
X37689Y59902D01*
X38689D01*
X39655Y60160D01*
X39793Y60240D01*
X41762Y58272D01*
X42188Y57987D01*
X42690Y57887D01*
X47203D01*
X47269Y57387D01*
X46723Y57241D01*
X45856Y56741D01*
X45149Y56034D01*
X44649Y55167D01*
X44390Y54201D01*
Y53201D01*
X44649Y52234D01*
X45149Y51368D01*
X45504Y51013D01*
X45297Y50513D01*
X43233D01*
X41650Y52096D01*
X41729Y52234D01*
X41988Y53201D01*
Y54201D01*
X41729Y55167D01*
X41229Y56034D01*
X40522Y56741D01*
X39655Y57241D01*
X38689Y57500D01*
X37689D01*
X36723Y57241D01*
X35856Y56741D01*
X35149Y56034D01*
X34649Y55167D01*
X34390Y54201D01*
Y53201D01*
X34649Y52234D01*
X35149Y51368D01*
X35856Y50661D01*
X36723Y50160D01*
X37689Y49902D01*
X38689D01*
X39655Y50160D01*
X39793Y50240D01*
X41762Y48272D01*
X42188Y47987D01*
X42690Y47887D01*
X47203D01*
X47269Y47387D01*
X46723Y47241D01*
X45856Y46741D01*
X45149Y46034D01*
X44649Y45167D01*
X44390Y44201D01*
Y43201D01*
X44649Y42234D01*
X45149Y41368D01*
X45342Y41175D01*
X45151Y40713D01*
X43033D01*
X41650Y42096D01*
X41729Y42234D01*
X41988Y43201D01*
Y44201D01*
X41729Y45167D01*
X41229Y46034D01*
X40522Y46741D01*
X39655Y47241D01*
X38689Y47500D01*
X37689D01*
X36723Y47241D01*
X35856Y46741D01*
X35149Y46034D01*
X34649Y45167D01*
X34390Y44201D01*
Y43201D01*
X34649Y42234D01*
X35149Y41368D01*
X35856Y40661D01*
X36723Y40161D01*
X37689Y39902D01*
X38689D01*
X39655Y40161D01*
X39793Y40240D01*
X41562Y38472D01*
X41987Y38187D01*
X42490Y38087D01*
X154148D01*
X154650Y38187D01*
X155076Y38472D01*
X156845Y40240D01*
X156983Y40161D01*
X157949Y39902D01*
X158949D01*
X159915Y40161D01*
X160782Y40661D01*
X161489Y41368D01*
X161989Y42235D01*
X162248Y43201D01*
Y44201D01*
X161989Y45167D01*
X161489Y46034D01*
X160782Y46741D01*
X159915Y47241D01*
X158949Y47500D01*
X157949D01*
X156983Y47241D01*
X156116Y46741D01*
X155409Y46034D01*
X154909Y45167D01*
X154650Y44201D01*
Y43201D01*
X154909Y42235D01*
X154988Y42097D01*
X153604Y40713D01*
X151487D01*
X151295Y41175D01*
X151489Y41368D01*
X151989Y42235D01*
X152248Y43201D01*
Y44201D01*
X151989Y45167D01*
X151489Y46034D01*
X150782Y46741D01*
X149915Y47241D01*
X149370Y47387D01*
X149436Y47887D01*
X153948D01*
X154450Y47987D01*
X154876Y48272D01*
X156845Y50240D01*
X156983Y50161D01*
X157949Y49902D01*
X158949D01*
X159915Y50161D01*
X160782Y50661D01*
X161489Y51368D01*
X161989Y52235D01*
X162248Y53201D01*
Y54201D01*
X161989Y55167D01*
X161489Y56034D01*
X160782Y56741D01*
X159915Y57241D01*
X158949Y57500D01*
X157949D01*
X156983Y57241D01*
X156116Y56741D01*
X155409Y56034D01*
X154909Y55167D01*
X154650Y54201D01*
Y53201D01*
X154909Y52235D01*
X154988Y52097D01*
X153404Y50513D01*
X151341D01*
X151133Y51013D01*
X151489Y51368D01*
X151989Y52235D01*
X152248Y53201D01*
Y54201D01*
X151989Y55167D01*
X151489Y56034D01*
X150782Y56741D01*
X149915Y57241D01*
X149370Y57387D01*
X149436Y57887D01*
X153948D01*
X154450Y57987D01*
X154876Y58272D01*
X156845Y60240D01*
X156983Y60161D01*
X157949Y59902D01*
X158949D01*
X159915Y60161D01*
X160782Y60661D01*
X161489Y61368D01*
X161989Y62235D01*
X162248Y63201D01*
Y64201D01*
X161989Y65167D01*
X161489Y66034D01*
X160782Y66741D01*
X159915Y67241D01*
X158949Y67500D01*
X157949D01*
X156983Y67241D01*
X156116Y66741D01*
X155409Y66034D01*
X154909Y65167D01*
X154650Y64201D01*
Y63201D01*
X154909Y62235D01*
X154988Y62097D01*
X153404Y60513D01*
X151341D01*
X151133Y61013D01*
X151489Y61368D01*
X151989Y62235D01*
X152248Y63201D01*
Y64201D01*
X151989Y65167D01*
X151489Y66034D01*
X150782Y66741D01*
X149915Y67241D01*
X149370Y67387D01*
X149436Y67887D01*
X153948D01*
X154450Y67987D01*
X154876Y68272D01*
X156845Y70240D01*
X156983Y70161D01*
X157949Y69902D01*
X158949D01*
X159915Y70161D01*
X160782Y70661D01*
X161489Y71368D01*
X161989Y72235D01*
X162248Y73201D01*
Y74201D01*
X161989Y75167D01*
X161489Y76034D01*
X160782Y76741D01*
X159915Y77241D01*
X158949Y77500D01*
D02*
G37*
G36*
Y37500D02*
X158949D01*
Y34201D01*
X162248D01*
Y34201D01*
X161989Y35167D01*
X161489Y36034D01*
X160782Y36741D01*
X159915Y37241D01*
X158949Y37500D01*
D02*
G37*
G36*
X148949D02*
X148949D01*
Y34201D01*
X152248D01*
Y34201D01*
X151989Y35167D01*
X151489Y36034D01*
X150782Y36741D01*
X149915Y37241D01*
X148949Y37500D01*
D02*
G37*
G36*
X157949D02*
X157949D01*
X156983Y37241D01*
X156116Y36741D01*
X155409Y36034D01*
X154909Y35167D01*
X154650Y34201D01*
Y34201D01*
X157949D01*
Y37500D01*
D02*
G37*
G36*
X147949D02*
X147949D01*
X146983Y37241D01*
X146116Y36741D01*
X145409Y36034D01*
X144909Y35167D01*
X144650Y34201D01*
Y34201D01*
X147949D01*
Y37500D01*
D02*
G37*
G36*
X48689Y37500D02*
X48689D01*
Y34201D01*
X51988D01*
Y34201D01*
X51729Y35167D01*
X51229Y36034D01*
X50522Y36741D01*
X49655Y37241D01*
X48689Y37500D01*
D02*
G37*
G36*
X38689D02*
X38689D01*
Y34201D01*
X41988D01*
Y34201D01*
X41729Y35167D01*
X41229Y36034D01*
X40522Y36741D01*
X39655Y37241D01*
X38689Y37500D01*
D02*
G37*
G36*
X47689D02*
X47689D01*
X46723Y37241D01*
X45856Y36741D01*
X45149Y36034D01*
X44649Y35167D01*
X44390Y34201D01*
Y34201D01*
X47689D01*
Y37500D01*
D02*
G37*
G36*
X37689D02*
X37689D01*
X36723Y37241D01*
X35856Y36741D01*
X35149Y36034D01*
X34649Y35167D01*
X34390Y34201D01*
Y34201D01*
X37689D01*
Y37500D01*
D02*
G37*
G36*
X162248Y33201D02*
X158949D01*
Y29902D01*
X158949D01*
X159915Y30161D01*
X160782Y30661D01*
X161489Y31368D01*
X161989Y32235D01*
X162248Y33201D01*
Y33201D01*
D02*
G37*
G36*
X157949D02*
X154650D01*
Y33201D01*
X154909Y32235D01*
X155409Y31368D01*
X156116Y30661D01*
X156983Y30161D01*
X157949Y29902D01*
X157949D01*
Y33201D01*
D02*
G37*
G36*
X152248D02*
X148949D01*
Y29902D01*
X148949D01*
X149915Y30161D01*
X150782Y30661D01*
X151489Y31368D01*
X151989Y32235D01*
X152248Y33201D01*
Y33201D01*
D02*
G37*
G36*
X147949D02*
X144650D01*
Y33201D01*
X144909Y32235D01*
X145409Y31368D01*
X146116Y30661D01*
X146983Y30161D01*
X147949Y29902D01*
X147949D01*
Y33201D01*
D02*
G37*
G36*
X51988Y33201D02*
X48689D01*
Y29902D01*
X48689D01*
X49655Y30160D01*
X50522Y30661D01*
X51229Y31368D01*
X51729Y32234D01*
X51988Y33201D01*
Y33201D01*
D02*
G37*
G36*
X47689D02*
X44390D01*
Y33201D01*
X44649Y32234D01*
X45149Y31368D01*
X45856Y30661D01*
X46723Y30160D01*
X47689Y29902D01*
X47689D01*
Y33201D01*
D02*
G37*
G36*
X41988D02*
X38689D01*
Y29902D01*
X38689D01*
X39655Y30160D01*
X40522Y30661D01*
X41229Y31368D01*
X41729Y32234D01*
X41988Y33201D01*
Y33201D01*
D02*
G37*
G36*
X37689D02*
X34390D01*
Y33201D01*
X34649Y32234D01*
X35149Y31368D01*
X35856Y30661D01*
X36723Y30160D01*
X37689Y29902D01*
X37689D01*
Y33201D01*
D02*
G37*
G36*
X162248Y27500D02*
X154650D01*
Y25014D01*
X152031D01*
X151989Y25167D01*
X151489Y26034D01*
X150782Y26741D01*
X149915Y27241D01*
X148949Y27500D01*
X147949D01*
X146983Y27241D01*
X146116Y26741D01*
X145409Y26034D01*
X144909Y25167D01*
X144867Y25014D01*
X68800D01*
X68799Y25013D01*
X51771D01*
X51729Y25167D01*
X51229Y26034D01*
X50522Y26741D01*
X49655Y27241D01*
X48689Y27500D01*
X47689D01*
X46723Y27241D01*
X45856Y26741D01*
X45149Y26034D01*
X44649Y25167D01*
X44607Y25013D01*
X41988D01*
Y27500D01*
X34390D01*
Y19902D01*
X41988D01*
Y22388D01*
X44607D01*
X44649Y22234D01*
X45149Y21368D01*
X45856Y20661D01*
X46723Y20161D01*
X47689Y19902D01*
X48689D01*
X49655Y20161D01*
X50522Y20661D01*
X51229Y21368D01*
X51729Y22234D01*
X51771Y22388D01*
X68800D01*
X68801Y22388D01*
X144867D01*
X144909Y22235D01*
X145409Y21368D01*
X146116Y20661D01*
X146983Y20161D01*
X147949Y19902D01*
X148949D01*
X149915Y20161D01*
X150782Y20661D01*
X151489Y21368D01*
X151989Y22235D01*
X152031Y22388D01*
X154650D01*
Y19902D01*
X162248D01*
Y27500D01*
D02*
G37*
%LPD*%
G36*
X97099Y124084D02*
X96850Y123835D01*
X96331Y122937D01*
X96063Y121936D01*
Y120899D01*
X96331Y119898D01*
X96850Y119000D01*
X97317Y118533D01*
X97110Y118033D01*
X87177D01*
X86985Y118495D01*
X93036Y124546D01*
X96907D01*
X97099Y124084D01*
D02*
G37*
G36*
X144909Y72235D02*
X145409Y71368D01*
X145764Y71013D01*
X145557Y70513D01*
X51081D01*
X50874Y71013D01*
X51229Y71368D01*
X51729Y72234D01*
X51771Y72388D01*
X68800D01*
X68801Y72388D01*
X144867D01*
X144909Y72235D01*
D02*
G37*
G36*
X147528Y67387D02*
X146983Y67241D01*
X146116Y66741D01*
X145409Y66034D01*
X144909Y65167D01*
X144867Y65014D01*
X68800D01*
X68799Y65013D01*
X51771D01*
X51729Y65167D01*
X51229Y66034D01*
X50522Y66741D01*
X49655Y67241D01*
X49110Y67387D01*
X49175Y67887D01*
X147462D01*
X147528Y67387D01*
D02*
G37*
G36*
X144909Y62235D02*
X145409Y61368D01*
X145764Y61013D01*
X145557Y60513D01*
X51081D01*
X50874Y61013D01*
X51229Y61368D01*
X51729Y62234D01*
X51771Y62388D01*
X68800D01*
X68801Y62388D01*
X144867D01*
X144909Y62235D01*
D02*
G37*
G36*
X147528Y57387D02*
X146983Y57241D01*
X146116Y56741D01*
X145409Y56034D01*
X144909Y55167D01*
X144867Y55014D01*
X68800D01*
X68799Y55013D01*
X51771D01*
X51729Y55167D01*
X51229Y56034D01*
X50522Y56741D01*
X49655Y57241D01*
X49110Y57387D01*
X49175Y57887D01*
X147462D01*
X147528Y57387D01*
D02*
G37*
G36*
X144909Y52235D02*
X145409Y51368D01*
X145764Y51013D01*
X145557Y50513D01*
X51081D01*
X50874Y51013D01*
X51229Y51368D01*
X51729Y52234D01*
X51771Y52388D01*
X68800D01*
X68801Y52388D01*
X144867D01*
X144909Y52235D01*
D02*
G37*
G36*
X147528Y47387D02*
X146983Y47241D01*
X146116Y46741D01*
X145409Y46034D01*
X144909Y45167D01*
X144867Y45014D01*
X68800D01*
X68799Y45013D01*
X51771D01*
X51729Y45167D01*
X51229Y46034D01*
X50522Y46741D01*
X49655Y47241D01*
X49110Y47387D01*
X49175Y47887D01*
X147462D01*
X147528Y47387D01*
D02*
G37*
G36*
X144909Y42235D02*
X145409Y41368D01*
X145603Y41175D01*
X145411Y40713D01*
X51227D01*
X51036Y41175D01*
X51229Y41368D01*
X51729Y42234D01*
X51771Y42388D01*
X68800D01*
X68801Y42388D01*
X144867D01*
X144909Y42235D01*
D02*
G37*
D11*
X117906Y92394D02*
Y101575D01*
Y110441D02*
Y131213D01*
X117087Y101575D02*
X117906Y102394D01*
Y110441D01*
Y101575D02*
X120472D01*
X117087D02*
X117906D01*
X116929Y101417D02*
X117087Y101575D01*
X105619Y136114D02*
X119252D01*
X119359Y136007D02*
X126764Y143412D01*
Y164611D01*
X126772Y164619D01*
Y185450D01*
X122020Y190202D02*
X126772Y185450D01*
X127953Y184269D01*
Y195706D01*
X131692Y199445D01*
X116929Y151417D02*
Y161417D01*
X117906Y131213D02*
X118110Y131417D01*
X116929Y91417D02*
X117906Y92394D01*
X118110Y131417D02*
Y134740D01*
X119359Y135988D01*
Y136007D01*
X148449Y23701D02*
X158449D01*
X68800D02*
X148449D01*
X154148Y39400D02*
X158449Y43701D01*
X42490Y39400D02*
X154148D01*
X68800Y43701D02*
X148449D01*
X42690Y49200D02*
X153948D01*
X158449Y53701D01*
X68800D02*
X148449D01*
X153948Y59200D02*
X158449Y63701D01*
X42690Y59200D02*
X153948D01*
X68800Y63701D02*
X148449D01*
X42690Y69200D02*
X153948D01*
X158449Y73701D01*
X68800D02*
X148449D01*
X116929Y141417D02*
Y151417D01*
X118201Y137533D02*
X119359Y136375D01*
Y136007D02*
Y136375D01*
X116929Y141417D02*
X118201Y140146D01*
Y137533D02*
Y140146D01*
X131692Y199445D02*
Y213978D01*
X119291Y226378D02*
X131692Y213978D01*
X119291Y226378D02*
Y226747D01*
X118898Y227140D02*
X119291Y226747D01*
X118898Y227140D02*
Y253150D01*
X83071Y127559D02*
X91732Y136220D01*
X105512D01*
X38189Y43701D02*
X42490Y39400D01*
X38189Y63701D02*
X42690Y59200D01*
X38189Y53701D02*
X42690Y49200D01*
X38189Y73701D02*
X42690Y69200D01*
X68800Y23701D02*
X68800Y23701D01*
X48189Y23701D02*
X68800D01*
Y73701D02*
X68800Y73701D01*
X48189Y73701D02*
X68800D01*
Y53701D02*
X68800Y53701D01*
X48189Y53701D02*
X68800D01*
Y43701D02*
X68800Y43701D01*
X48189Y43701D02*
X68800D01*
Y63701D02*
X68800Y63701D01*
X48189Y63701D02*
X68800D01*
X38189Y23701D02*
X48189D01*
D16*
X99606Y228346D02*
X106299D01*
D17*
X100000Y101417D02*
X110630D01*
X138807Y152826D02*
X138878Y152897D01*
X131799Y150000D02*
X136909D01*
X138779Y150295D02*
X138878Y150394D01*
X131693Y158268D02*
X138878D01*
X131799Y155512D02*
X138878D01*
X131870Y152826D02*
X138807D01*
X136909Y150000D02*
X137205Y150295D01*
X138779D01*
X127165Y105118D02*
X133858D01*
X81102Y114173D02*
X92579Y125650D01*
X102239D02*
X102404Y125484D01*
X92579Y125650D02*
X102239D01*
X124016Y200787D02*
X127854D01*
X131799Y152756D02*
X131870Y152826D01*
X112106Y89020D02*
X114512Y86614D01*
X133858D01*
X110630Y91417D02*
X112106Y89941D01*
Y89020D02*
Y89941D01*
X100000Y91417D02*
X110630D01*
X100000Y111417D02*
X110630D01*
X100000Y121417D02*
X110630D01*
X100000Y131417D02*
X110630D01*
X100000Y141417D02*
X110630D01*
X100000Y151417D02*
X110630D01*
X100000Y161417D02*
X110630D01*
X81877Y112303D02*
X86503Y116929D01*
X81861Y112303D02*
X81877D01*
X81102Y111811D02*
X81369D01*
X81861Y112303D01*
X86503Y116929D02*
X102756D01*
D20*
X110630Y161417D02*
D03*
X116929D02*
D03*
Y151417D02*
D03*
X110630D02*
D03*
X116929Y141417D02*
D03*
X110630D02*
D03*
X116929Y131417D02*
D03*
X110630D02*
D03*
X116929Y101417D02*
D03*
X110630D02*
D03*
X116929Y111417D02*
D03*
X110630D02*
D03*
X116929Y121417D02*
D03*
X110630D02*
D03*
X116929Y91417D02*
D03*
X110630D02*
D03*
D57*
X180709Y169685D02*
D03*
X150787D02*
D03*
X180709Y115354D02*
D03*
X150787D02*
D03*
D58*
X148449Y73701D02*
D03*
Y63701D02*
D03*
Y53701D02*
D03*
Y43701D02*
D03*
Y33701D02*
D03*
Y23701D02*
D03*
X158449Y73701D02*
D03*
Y63701D02*
D03*
Y53701D02*
D03*
Y43701D02*
D03*
Y33701D02*
D03*
X38189Y33701D02*
D03*
Y43701D02*
D03*
Y53701D02*
D03*
Y63701D02*
D03*
Y73701D02*
D03*
X48189Y23701D02*
D03*
Y33701D02*
D03*
Y43701D02*
D03*
Y53701D02*
D03*
Y63701D02*
D03*
Y73701D02*
D03*
D59*
X158449Y23701D02*
D03*
X38189Y23701D02*
D03*
D60*
X100000Y161417D02*
D03*
Y151417D02*
D03*
Y131417D02*
D03*
Y111417D02*
D03*
Y101417D02*
D03*
Y121417D02*
D03*
Y141417D02*
D03*
X38976Y91417D02*
D03*
Y101417D02*
D03*
Y121417D02*
D03*
Y141417D02*
D03*
Y151417D02*
D03*
Y131417D02*
D03*
Y111417D02*
D03*
D61*
X100000Y91417D02*
D03*
X38976Y161417D02*
D03*
D62*
X124803Y110630D02*
D03*
X120472Y101575D02*
D03*
X21260Y270472D02*
D03*
X49606Y250000D02*
D03*
X85039Y159843D02*
D03*
Y136221D02*
D03*
X157480Y83858D02*
D03*
X43701Y81496D02*
D03*
X107087Y80315D02*
D03*
X94882Y79921D02*
D03*
X125197D02*
D03*
X122441Y131496D02*
D03*
X121260Y143307D02*
D03*
X103937Y146063D02*
D03*
X122020Y190202D02*
D03*
X123622Y217717D02*
D03*
X122673Y186058D02*
D03*
X118898Y253150D02*
D03*
X64961Y214173D02*
D03*
X37008Y228740D02*
D03*
X23622Y202756D02*
D03*
X99606Y228346D02*
D03*
X106299D02*
D03*
X83071Y127559D02*
D03*
X88189D02*
D03*
X76378Y115748D02*
D03*
X61417Y83858D02*
D03*
X98425Y173622D02*
D03*
X11024Y332677D02*
D03*
X21654Y322441D02*
D03*
X109843Y247638D02*
D03*
X99213Y207087D02*
D03*
X119291Y226378D02*
D03*
D63*
X138878Y158268D02*
D03*
Y155512D02*
D03*
Y150394D02*
D03*
Y152897D02*
D03*
X133858Y105118D02*
D03*
X127165D02*
D03*
X133858Y86614D02*
D03*
X102404Y125484D02*
D03*
X127854Y200787D02*
D03*
X124016D02*
D03*
X131799Y152756D02*
D03*
Y150000D02*
D03*
X131693Y158268D02*
D03*
X131799Y155512D02*
D03*
X68852Y120482D02*
D03*
X58323Y122496D02*
D03*
X78707Y41542D02*
D03*
X78740Y46063D02*
D03*
X78346Y56299D02*
D03*
Y51575D02*
D03*
X74803Y66142D02*
D03*
X75009Y61486D02*
D03*
X81102Y111811D02*
D03*
X102756Y116929D02*
D03*
X81102Y114173D02*
D03*
M02*
