G04*
G04 #@! TF.GenerationSoftware,Altium Limited,Altium Designer,21.1.1 (26)*
G04*
G04 Layer_Color=8388736*
%FSLAX25Y25*%
%MOIN*%
G70*
G04*
G04 #@! TF.SameCoordinates,A0B2FF02-B728-4D00-99DE-4778D014F070*
G04*
G04*
G04 #@! TF.FilePolarity,Negative*
G04*
G01*
G75*
%ADD21R,0.12598X0.03937*%
%ADD22R,0.11811X0.10236*%
%ADD23R,0.11811X0.14173*%
%ADD24R,0.07498X0.02236*%
G04:AMPARAMS|DCode=25|XSize=74.98mil|YSize=22.36mil|CornerRadius=11.18mil|HoleSize=0mil|Usage=FLASHONLY|Rotation=0.000|XOffset=0mil|YOffset=0mil|HoleType=Round|Shape=RoundedRectangle|*
%AMROUNDEDRECTD25*
21,1,0.07498,0.00000,0,0,0.0*
21,1,0.05262,0.02236,0,0,0.0*
1,1,0.02236,0.02631,0.00000*
1,1,0.02236,-0.02631,0.00000*
1,1,0.02236,-0.02631,0.00000*
1,1,0.02236,0.02631,0.00000*
%
%ADD25ROUNDEDRECTD25*%
%ADD26R,0.07480X0.04331*%
%ADD32R,0.06102X0.02362*%
%ADD38R,0.04343X0.04737*%
%ADD39R,0.04540X0.04343*%
%ADD40O,0.07690X0.03162*%
%ADD41R,0.05564X0.07965*%
%ADD42C,0.04737*%
%ADD43R,0.03950X0.03950*%
%ADD44R,0.03556X0.04343*%
%ADD45R,0.03556X0.03162*%
G04:AMPARAMS|DCode=46|XSize=69.81mil|YSize=24.14mil|CornerRadius=8.04mil|HoleSize=0mil|Usage=FLASHONLY|Rotation=0.000|XOffset=0mil|YOffset=0mil|HoleType=Round|Shape=RoundedRectangle|*
%AMROUNDEDRECTD46*
21,1,0.06981,0.00807,0,0,0.0*
21,1,0.05374,0.02414,0,0,0.0*
1,1,0.01607,0.02687,-0.00404*
1,1,0.01607,-0.02687,-0.00404*
1,1,0.01607,-0.02687,0.00404*
1,1,0.01607,0.02687,0.00404*
%
%ADD46ROUNDEDRECTD46*%
%ADD47R,0.04737X0.04343*%
%ADD48R,0.04343X0.03556*%
%ADD49R,0.03950X0.03950*%
%ADD50C,0.07800*%
%ADD51C,0.06824*%
%ADD52R,0.06824X0.06824*%
%ADD53C,0.07099*%
%ADD54R,0.07099X0.07099*%
D21*
X175984Y287402D02*
D03*
X149213D02*
D03*
X175984Y303150D02*
D03*
X149213D02*
D03*
X175984Y261811D02*
D03*
X149213D02*
D03*
X175984Y277559D02*
D03*
X149213D02*
D03*
X175984Y211024D02*
D03*
X149213D02*
D03*
X175984Y226772D02*
D03*
X149213D02*
D03*
Y251969D02*
D03*
X175984D02*
D03*
X149213Y236221D02*
D03*
X175984D02*
D03*
D22*
X21654Y333071D02*
D03*
D23*
X105906D02*
D03*
D24*
X49997Y270492D02*
D03*
D25*
Y265492D02*
D03*
Y260492D02*
D03*
Y255492D02*
D03*
X69689D02*
D03*
Y260492D02*
D03*
Y265492D02*
D03*
Y270492D02*
D03*
D26*
X35827Y275394D02*
D03*
Y265551D02*
D03*
D32*
X44882Y222461D02*
D03*
Y217461D02*
D03*
Y212461D02*
D03*
Y207461D02*
D03*
X23622D02*
D03*
Y212461D02*
D03*
Y217461D02*
D03*
Y222461D02*
D03*
D38*
X143307Y87402D02*
D03*
X137008D02*
D03*
X144882Y142126D02*
D03*
X138583D02*
D03*
X76378Y81496D02*
D03*
X70079D02*
D03*
X131102Y116929D02*
D03*
X124803D02*
D03*
X114173Y151417D02*
D03*
X107874D02*
D03*
X114173Y141417D02*
D03*
X107874D02*
D03*
X114173Y91417D02*
D03*
X107874D02*
D03*
X114173Y101417D02*
D03*
X107874D02*
D03*
X114173Y111417D02*
D03*
X107874D02*
D03*
X114173Y121417D02*
D03*
X107874D02*
D03*
X114173Y161417D02*
D03*
X107874D02*
D03*
X114173Y131417D02*
D03*
X107874D02*
D03*
X114567Y283465D02*
D03*
X108268D02*
D03*
X82283Y270472D02*
D03*
X88583D02*
D03*
X52362Y206693D02*
D03*
X58661D02*
D03*
X52362Y212598D02*
D03*
X58661D02*
D03*
Y218504D02*
D03*
X52362D02*
D03*
Y224409D02*
D03*
X58661D02*
D03*
X18110Y161417D02*
D03*
X24409D02*
D03*
X18110Y141418D02*
D03*
X24409D02*
D03*
X18110Y151417D02*
D03*
X24409D02*
D03*
Y101417D02*
D03*
X18110D02*
D03*
X24409Y111417D02*
D03*
X18110D02*
D03*
Y131417D02*
D03*
X24409D02*
D03*
Y121417D02*
D03*
X18110D02*
D03*
X24409Y91417D02*
D03*
X18110D02*
D03*
X125197Y125984D02*
D03*
X131496D02*
D03*
X94882Y240551D02*
D03*
X88583D02*
D03*
X74803D02*
D03*
X81102D02*
D03*
X119685Y172441D02*
D03*
X125984D02*
D03*
X119685Y178740D02*
D03*
X125984D02*
D03*
X119685Y212205D02*
D03*
X125984D02*
D03*
X119685Y205905D02*
D03*
X125984D02*
D03*
D39*
X99213Y271063D02*
D03*
Y283465D02*
D03*
Y253346D02*
D03*
Y265748D02*
D03*
D40*
X111319Y207067D02*
D03*
Y212067D02*
D03*
Y217067D02*
D03*
Y222067D02*
D03*
X92618Y207067D02*
D03*
Y212067D02*
D03*
Y217067D02*
D03*
Y222067D02*
D03*
Y188602D02*
D03*
Y183602D02*
D03*
Y178602D02*
D03*
Y173602D02*
D03*
X111319Y188602D02*
D03*
Y183602D02*
D03*
Y178602D02*
D03*
Y173602D02*
D03*
D41*
X73819Y44094D02*
D03*
X62402D02*
D03*
Y53150D02*
D03*
X73819D02*
D03*
D42*
X99213Y293307D02*
D03*
X120866Y259843D02*
D03*
X36614Y257874D02*
D03*
X77953Y262598D02*
D03*
D43*
X11417Y111417D02*
D03*
X5118D02*
D03*
X5118Y141417D02*
D03*
X11417D02*
D03*
X5118Y151417D02*
D03*
X11417D02*
D03*
X5118Y161417D02*
D03*
X11417D02*
D03*
X11417Y101417D02*
D03*
X5118D02*
D03*
X11417Y91417D02*
D03*
X5118D02*
D03*
X5118Y131417D02*
D03*
X11417D02*
D03*
X11417Y121417D02*
D03*
X5118D02*
D03*
D44*
X46850Y228740D02*
D03*
X41339D02*
D03*
X88583Y122835D02*
D03*
X83071D02*
D03*
X27165Y275197D02*
D03*
X21654D02*
D03*
X27165Y265748D02*
D03*
X21654D02*
D03*
X65158Y64567D02*
D03*
X70669D02*
D03*
X65158Y60039D02*
D03*
X70669D02*
D03*
D45*
X114567Y274803D02*
D03*
Y267323D02*
D03*
X106693Y271063D02*
D03*
D46*
X61713Y116831D02*
D03*
Y114272D02*
D03*
Y111713D02*
D03*
Y109154D02*
D03*
Y106594D02*
D03*
Y104035D02*
D03*
Y101476D02*
D03*
Y98917D02*
D03*
Y96358D02*
D03*
Y93799D02*
D03*
Y91240D02*
D03*
Y88681D02*
D03*
X84311D02*
D03*
Y91240D02*
D03*
Y93799D02*
D03*
Y96358D02*
D03*
Y98917D02*
D03*
Y101476D02*
D03*
Y104035D02*
D03*
Y106594D02*
D03*
Y109154D02*
D03*
Y111713D02*
D03*
Y114272D02*
D03*
Y116831D02*
D03*
D47*
X3937Y207087D02*
D03*
Y213386D02*
D03*
X9843Y207087D02*
D03*
Y213386D02*
D03*
X15748Y207087D02*
D03*
Y213386D02*
D03*
X3937Y218898D02*
D03*
Y225197D02*
D03*
X9843Y218898D02*
D03*
Y225197D02*
D03*
X15748Y218898D02*
D03*
Y225197D02*
D03*
X61721Y123909D02*
D03*
Y130209D02*
D03*
X69004Y123909D02*
D03*
Y130209D02*
D03*
X76287Y123909D02*
D03*
Y130209D02*
D03*
Y137689D02*
D03*
Y143988D02*
D03*
X61721Y137689D02*
D03*
Y143988D02*
D03*
X69004Y137689D02*
D03*
Y143988D02*
D03*
X83071Y175984D02*
D03*
Y169685D02*
D03*
X75787D02*
D03*
Y175984D02*
D03*
X68504Y169685D02*
D03*
Y175984D02*
D03*
X75787Y188583D02*
D03*
Y194882D02*
D03*
X68504Y188583D02*
D03*
Y194882D02*
D03*
X83071Y188583D02*
D03*
Y194882D02*
D03*
Y222047D02*
D03*
Y228346D02*
D03*
X68504Y222047D02*
D03*
Y228346D02*
D03*
X75787Y222047D02*
D03*
Y228346D02*
D03*
X68504Y203150D02*
D03*
Y209449D02*
D03*
X75787Y203150D02*
D03*
Y209449D02*
D03*
X83071Y203150D02*
D03*
Y209449D02*
D03*
X81102Y254724D02*
D03*
Y248425D02*
D03*
X88583Y254724D02*
D03*
Y248425D02*
D03*
X64173Y29921D02*
D03*
Y36220D02*
D03*
D48*
X114567Y253543D02*
D03*
Y248031D02*
D03*
X118898Y189764D02*
D03*
Y184252D02*
D03*
Y223228D02*
D03*
Y217716D02*
D03*
D49*
X71260Y29921D02*
D03*
Y36220D02*
D03*
D50*
X180709Y169685D02*
D03*
X150787D02*
D03*
X180709Y115354D02*
D03*
X150787D02*
D03*
D51*
X148449Y73701D02*
D03*
Y63701D02*
D03*
Y53701D02*
D03*
Y43701D02*
D03*
Y33701D02*
D03*
Y23701D02*
D03*
X158449Y73701D02*
D03*
Y63701D02*
D03*
Y53701D02*
D03*
Y43701D02*
D03*
Y33701D02*
D03*
X38189Y33701D02*
D03*
Y43701D02*
D03*
Y53701D02*
D03*
Y63701D02*
D03*
Y73701D02*
D03*
X48189Y23701D02*
D03*
Y33701D02*
D03*
Y43701D02*
D03*
Y53701D02*
D03*
Y63701D02*
D03*
Y73701D02*
D03*
D52*
X158449Y23701D02*
D03*
X38189Y23701D02*
D03*
D53*
X100000Y161417D02*
D03*
Y151417D02*
D03*
Y131417D02*
D03*
Y111417D02*
D03*
Y101417D02*
D03*
Y121417D02*
D03*
Y141417D02*
D03*
X38976Y91417D02*
D03*
Y101417D02*
D03*
Y121417D02*
D03*
Y141417D02*
D03*
Y151417D02*
D03*
Y131417D02*
D03*
Y111417D02*
D03*
D54*
X100000Y91417D02*
D03*
X38976Y161417D02*
D03*
M02*
