G04*
G04 #@! TF.GenerationSoftware,Altium Limited,Altium Designer,21.1.1 (26)*
G04*
G04 Layer_Color=32896*
%FSLAX25Y25*%
%MOIN*%
G70*
G04*
G04 #@! TF.SameCoordinates,A0B2FF02-B728-4D00-99DE-4778D014F070*
G04*
G04*
G04 #@! TF.FilePolarity,Positive*
G04*
G01*
G75*
%ADD11C,0.01000*%
%ADD16C,0.00787*%
%ADD64C,0.00013*%
G36*
X73215Y349371D02*
X73215Y349370D01*
X73244Y349371D01*
X74001Y349334D01*
X74134Y349324D01*
X74372Y349310D01*
X74824Y349234D01*
X74955Y349210D01*
X75085Y349184D01*
X75386Y349125D01*
X75679Y349025D01*
X75679Y349025D01*
X75679Y349025D01*
X76002Y348915D01*
X76306Y348766D01*
X76426Y348708D01*
X76761Y348503D01*
X77121Y348195D01*
X77429Y347834D01*
X77606Y347545D01*
Y347545D01*
X77674Y347429D01*
X77805Y347113D01*
X77854Y346991D01*
X77884Y346867D01*
X77999Y346389D01*
X78046Y345786D01*
X78047Y345655D01*
X78047Y345653D01*
X78047D01*
X78040Y345521D01*
X78008Y344950D01*
X77928Y344480D01*
X77927Y344480D01*
X77852Y344101D01*
X77633Y343457D01*
X77545Y343279D01*
X77544Y343280D01*
X77339Y342863D01*
X76925Y342244D01*
X76801Y342103D01*
X76800Y342104D01*
X76438Y341691D01*
X75828Y341156D01*
X75608Y341009D01*
X75614Y340978D01*
X75703Y340957D01*
X75735Y340945D01*
X75746Y340940D01*
X76197Y340753D01*
X76649Y340476D01*
X77053Y340131D01*
X77370Y339760D01*
X77442Y339647D01*
X77511Y339534D01*
X77621Y339355D01*
X77859Y338781D01*
X78004Y338177D01*
X78052Y337558D01*
X78042Y337428D01*
X78042D01*
X78039Y337294D01*
X78009Y336753D01*
X77964Y336488D01*
X77970Y336478D01*
X77828Y335885D01*
X77648Y335452D01*
Y335452D01*
X77649Y335452D01*
X77397Y334942D01*
X76967Y334299D01*
X76953Y334296D01*
X76953D01*
X76776Y334058D01*
X76188Y333410D01*
X75943Y333187D01*
X75851Y333104D01*
Y333104D01*
X75726Y332991D01*
X75731Y332978D01*
X75731Y332977D01*
X75731Y332977D01*
X75733Y332972D01*
X75733Y332972D01*
X75738Y332970D01*
X75903D01*
X76026Y332970D01*
X77708D01*
Y331590D01*
X64408D01*
Y332970D01*
X74090D01*
X74095Y332972D01*
X74096Y332970D01*
X74292Y333115D01*
X75001Y333757D01*
X75643Y334466D01*
X76012Y334964D01*
X76019Y334959D01*
X76305Y335425D01*
X76523Y335953D01*
X76657Y336509D01*
X76699Y337048D01*
X76699D01*
X76702Y337147D01*
X76699Y337181D01*
X76661Y337669D01*
X76539Y338178D01*
X76536Y338183D01*
X76487Y338307D01*
X76469Y338367D01*
X76435Y338429D01*
X76298Y338686D01*
X76069Y338965D01*
X75847Y339147D01*
X75851Y339154D01*
X75851Y339154D01*
X75833Y339169D01*
X75735Y339222D01*
X75353Y339426D01*
X74860Y339576D01*
X74831Y339584D01*
X74728Y339594D01*
X74727Y339592D01*
X74091Y339686D01*
X73227Y339728D01*
X73213Y339729D01*
X73095Y339723D01*
X72962Y339718D01*
X64403D01*
Y341098D01*
X74085D01*
X74089Y341100D01*
X74090Y341099D01*
X74315Y341266D01*
X74952Y341843D01*
X75529Y342480D01*
X76013Y343132D01*
X76009Y343134D01*
X76266Y343554D01*
X76504Y344127D01*
X76648Y344729D01*
X76683Y345172D01*
X76695Y345299D01*
X76695D01*
X76695Y345303D01*
X76685Y345454D01*
X76677Y345588D01*
X76656Y345861D01*
X76656D01*
X76646Y345971D01*
X76641Y345993D01*
X76611Y346116D01*
X76611Y346116D01*
X76554Y346355D01*
X76551Y346354D01*
X76512Y346480D01*
X76483Y346578D01*
X76471Y346615D01*
X76383Y346779D01*
Y346779D01*
X76382Y346781D01*
X76382Y346781D01*
X76320Y346896D01*
X76281Y346969D01*
X76281D01*
X76275Y346976D01*
X76202Y347065D01*
X76199Y347069D01*
X76196Y347072D01*
X76063Y347236D01*
X75847Y347412D01*
X75848Y347413D01*
X75848Y347413D01*
X75804Y347450D01*
X75667Y347523D01*
X75666Y347524D01*
Y347524D01*
X75468Y347630D01*
X75466Y347626D01*
X75245Y347718D01*
X75245Y347718D01*
X75143Y347761D01*
X75131Y347764D01*
X75131Y347764D01*
X75122Y347766D01*
X75003Y347798D01*
X74949Y347816D01*
X74867Y347832D01*
X74737Y347859D01*
X74452Y347915D01*
Y347915D01*
X74319Y347934D01*
X74274Y347942D01*
X74145Y347966D01*
X73949Y347976D01*
X73816Y347985D01*
X73227Y348014D01*
X73115Y348020D01*
X73095Y348019D01*
X72966Y348008D01*
X64408D01*
Y349293D01*
X64503Y349387D01*
X73215Y349371D01*
D02*
G37*
G36*
X73215Y327753D02*
X73215Y327751D01*
X73238Y327752D01*
X74001Y327715D01*
X74134Y327704D01*
Y327704D01*
X74280Y327695D01*
X74823Y327603D01*
X74954Y327575D01*
X75241Y327518D01*
X75678Y327370D01*
X75805Y327327D01*
X76157Y327181D01*
X76604Y326907D01*
X77002Y326567D01*
X77342Y326168D01*
X77613Y325728D01*
X77612Y325727D01*
X77612Y325727D01*
X77612D01*
X77816Y325234D01*
X77849Y325106D01*
X77886Y324977D01*
X78004Y324380D01*
X78046Y323753D01*
X78047Y323640D01*
X78045Y323620D01*
X78045D01*
X78039Y323488D01*
X78008Y322922D01*
X77952Y322594D01*
X77929Y322463D01*
X77855Y322091D01*
X77680Y321576D01*
X77636Y321452D01*
X77580Y321333D01*
X77311Y320787D01*
X76936Y320226D01*
X76930Y320225D01*
X76802Y320045D01*
X76173Y319341D01*
X75943Y319136D01*
X75851Y319054D01*
X75726Y318942D01*
X75731Y318927D01*
X75731Y318927D01*
X75733Y318922D01*
X75738Y318920D01*
X75902Y318920D01*
X75902D01*
X76026Y318920D01*
X83206Y318912D01*
Y317532D01*
X64408D01*
Y318912D01*
X74124D01*
X74128Y318913D01*
X74132Y318909D01*
X74756Y319475D01*
X75426Y320214D01*
X75951Y320922D01*
X76020Y321015D01*
X76029Y321031D01*
X76022Y321036D01*
X76264Y321430D01*
X76506Y322014D01*
X76653Y322627D01*
X76701Y323232D01*
X76701D01*
X76705Y323347D01*
X76704Y323365D01*
X76652Y324025D01*
X76521Y324572D01*
X76493Y324687D01*
X76487Y324702D01*
X76437Y324827D01*
X76435Y324837D01*
X76225Y325229D01*
X75943Y325572D01*
X75821Y325672D01*
X75821Y325672D01*
X75718Y325756D01*
X75631Y325827D01*
X75163Y326078D01*
X74704Y326217D01*
X74704Y326217D01*
X73975Y326341D01*
X73228Y326383D01*
X73193Y326385D01*
X73095Y326379D01*
X72963Y326374D01*
X64408D01*
Y327753D01*
X73215D01*
X73215Y327753D01*
D02*
G37*
G36*
X72092Y314125D02*
X73112Y313974D01*
X74003Y313750D01*
X74007Y313743D01*
Y313743D01*
X74007Y313743D01*
X74549Y313559D01*
X75279Y313199D01*
X75956Y312747D01*
X76194Y312539D01*
X76194Y312538D01*
X76479Y312288D01*
X76919Y311786D01*
X77290Y311231D01*
X77567Y310669D01*
X77563Y310658D01*
X77697Y310334D01*
X77891Y309659D01*
X78009Y308966D01*
X78045Y308318D01*
X78044Y308184D01*
X78048Y308050D01*
X77999Y307302D01*
X77841Y306506D01*
X77588Y305764D01*
X77585Y305762D01*
X77585D01*
X77585Y305762D01*
X77300Y305183D01*
X76928Y304626D01*
X76486Y304122D01*
X76216Y303886D01*
X76216Y303885D01*
X75979Y303677D01*
X75305Y303227D01*
X74578Y302868D01*
X74032Y302683D01*
X74032D01*
X74028Y302675D01*
X73117Y302447D01*
X72099Y302296D01*
X71071Y302245D01*
X70043Y302296D01*
X69025Y302447D01*
X68114Y302675D01*
X68110Y302683D01*
X67908Y302742D01*
X67247Y303015D01*
X66621Y303361D01*
X66038Y303775D01*
X65907Y303892D01*
X65908Y303894D01*
X65619Y304147D01*
X65187Y304640D01*
X64823Y305185D01*
X64543Y305754D01*
X64547Y305765D01*
X64447Y306006D01*
X64240Y306726D01*
X64114Y307465D01*
X64072Y308213D01*
X64114Y308961D01*
X64240Y309700D01*
X64447Y310420D01*
X64547Y310661D01*
Y310661D01*
Y310661D01*
D01*
X64543Y310671D01*
X64821Y311234D01*
X65195Y311793D01*
X65639Y312300D01*
X65917Y312544D01*
X65915Y312546D01*
X66034Y312652D01*
X66611Y313062D01*
X67231Y313404D01*
X67885Y313675D01*
X68118Y313742D01*
Y313742D01*
X68123Y313751D01*
X69013Y313974D01*
X70033Y314125D01*
X71062Y314176D01*
X72092Y314125D01*
D02*
G37*
G36*
X85706Y326180D02*
X85831Y326157D01*
X85927Y326138D01*
X86114Y326013D01*
X86239Y325826D01*
X86282Y325608D01*
X86282Y325608D01*
X86282D01*
X86285Y325606D01*
Y319698D01*
X86274Y319568D01*
X86274Y319566D01*
X86319Y319336D01*
X86449Y319142D01*
X86450Y319141D01*
X86645Y319010D01*
X86875Y318965D01*
X86875Y318965D01*
X87004Y318976D01*
X107974D01*
X108103Y318959D01*
X108369Y318924D01*
X108738Y318771D01*
X109055Y318528D01*
X109055Y318528D01*
X109055Y318528D01*
X109298Y318211D01*
X109451Y317842D01*
X109503Y317447D01*
X109503Y317447D01*
Y299769D01*
X109503Y299768D01*
X109451Y299373D01*
X109298Y299004D01*
X109055Y298688D01*
X109055Y298688D01*
X109055Y298687D01*
X108738Y298445D01*
X108369Y298292D01*
X108101Y298256D01*
X107974Y298240D01*
X107840Y298240D01*
X86863D01*
Y298251D01*
X86633Y298205D01*
X86439Y298075D01*
X86308Y297880D01*
X86263Y297650D01*
X86263Y297647D01*
X86273Y297517D01*
Y282986D01*
X86272D01*
X86228Y282766D01*
X86103Y282579D01*
X85998Y282509D01*
X85916Y282454D01*
X85695Y282410D01*
X85474Y282454D01*
X85287Y282579D01*
X85217Y282683D01*
X85163Y282766D01*
X85119Y282986D01*
X85117D01*
Y297867D01*
X85117Y297867D01*
X85169Y298258D01*
X85322Y298628D01*
X85493Y298851D01*
X85573Y298951D01*
X85883Y299189D01*
X86252Y299342D01*
X86649Y299394D01*
X86663Y299392D01*
X86663Y299394D01*
X86663Y299394D01*
X107630D01*
X107759Y299383D01*
X107759Y299383D01*
X107990Y299429D01*
X108186Y299559D01*
X108317Y299755D01*
X108362Y299984D01*
X108352Y299984D01*
X108352Y299984D01*
Y317232D01*
X108352Y317232D01*
X108362Y317232D01*
X108317Y317460D01*
X108186Y317656D01*
X107990Y317787D01*
X107759Y317833D01*
X107759Y317822D01*
X86782D01*
X86649Y317822D01*
X86519Y317839D01*
X86252Y317874D01*
X85883Y318027D01*
X85565Y318270D01*
X85322Y318588D01*
X85169Y318957D01*
X85117Y319351D01*
X85117D01*
Y325606D01*
X85119Y325608D01*
Y325608D01*
X85163Y325826D01*
X85221Y325913D01*
X85293Y326017D01*
X85474Y326138D01*
X85582Y326159D01*
X85701Y326181D01*
X85706Y326180D01*
D02*
G37*
G36*
X108954Y293911D02*
X109131Y293837D01*
X109283Y293721D01*
X109399Y293569D01*
X109473Y293392D01*
X109497Y293202D01*
X109492Y293156D01*
X109503Y293155D01*
Y276704D01*
X109503Y276704D01*
X109451Y276308D01*
X109298Y275940D01*
X109055Y275623D01*
X109055Y275623D01*
X109055Y275623D01*
X108738Y275380D01*
X108369Y275227D01*
X107974Y275175D01*
X107974Y275175D01*
X92744D01*
Y275177D01*
X92523Y275221D01*
X92441Y275276D01*
X92336Y275346D01*
X92211Y275533D01*
X92193Y275627D01*
X92168Y275753D01*
X92167D01*
X92211Y275973D01*
X92335Y276159D01*
X92522Y276284D01*
X92741Y276327D01*
X92744Y276327D01*
X92744Y276329D01*
X92744Y276329D01*
X107756D01*
X107767Y276318D01*
X107998Y276364D01*
X108194Y276495D01*
X108325Y276691D01*
X108371Y276922D01*
X108360D01*
Y291923D01*
X108371Y292053D01*
X108372Y292055D01*
X108373Y292057D01*
X108322Y292179D01*
X108199Y292230D01*
X108198Y292229D01*
X108100Y292189D01*
X107996Y292107D01*
X86355Y276136D01*
X86352Y276136D01*
X86352Y276136D01*
X86296Y276052D01*
X86288Y276009D01*
X86287Y276007D01*
Y259288D01*
X86277Y259158D01*
X86276Y259155D01*
X86322Y258925D01*
X86452Y258731D01*
Y258731D01*
X86452Y258730D01*
X86647Y258600D01*
X86877Y258554D01*
X86877D01*
X87007Y258565D01*
X108810D01*
X108810Y258563D01*
X109031Y258519D01*
X109218Y258394D01*
X109343Y258207D01*
X109386Y257989D01*
X109386D01*
X109361Y257860D01*
X109343Y257769D01*
X109288Y257687D01*
X109218Y257582D01*
X109031Y257457D01*
X108810Y257413D01*
Y257411D01*
X86649D01*
Y257411D01*
X86519Y257428D01*
X86252Y257463D01*
X85883Y257616D01*
X85565Y257860D01*
X85322Y258177D01*
X85169Y258546D01*
X85117Y258940D01*
X85117D01*
Y275999D01*
X85124Y276007D01*
Y276007D01*
X85164Y276307D01*
X85302Y276641D01*
X85523Y276928D01*
X85679Y277048D01*
Y277048D01*
X85682Y277066D01*
X108287Y293768D01*
X108288Y293768D01*
X108295Y293759D01*
X108397Y293837D01*
X108574Y293911D01*
X108764Y293936D01*
X108954Y293911D01*
D02*
G37*
G36*
X65768Y287169D02*
X65768Y287045D01*
Y286887D01*
X65769Y286885D01*
X65770Y286882D01*
X65770Y286882D01*
X65771Y286882D01*
X65771Y286882D01*
X65773Y286881D01*
X65775Y286880D01*
X65775Y286880D01*
X65775Y286880D01*
X65776Y286880D01*
X65778Y286881D01*
X65780Y286881D01*
X65902Y286982D01*
X65902D01*
X65998Y287060D01*
X81376Y299706D01*
X83206D01*
Y286615D01*
X81844D01*
Y298004D01*
Y298146D01*
Y298286D01*
X81842Y298288D01*
X81842Y298290D01*
X81842Y298290D01*
X81841Y298290D01*
X81841Y298291D01*
X81839Y298292D01*
X81837Y298293D01*
X81837Y298293D01*
X81836Y298293D01*
X81834Y298292D01*
X81832Y298291D01*
X81710Y298191D01*
X81614Y298113D01*
X66219Y285489D01*
X64408D01*
Y300063D01*
X65768D01*
Y287169D01*
D02*
G37*
G36*
X73095Y282887D02*
X73095Y282881D01*
X73180Y282886D01*
X73983Y282841D01*
X74777Y282706D01*
X75158Y282596D01*
X75159Y282600D01*
X75286Y282570D01*
X75837Y282341D01*
X76347Y282029D01*
X76718Y281712D01*
X76810Y281618D01*
X77146Y281225D01*
X77472Y280694D01*
X77704Y280134D01*
X77699Y280123D01*
X77870Y279530D01*
X78006Y278729D01*
X78051Y277919D01*
X78042Y277748D01*
X78045Y277614D01*
X78030Y277254D01*
X78024Y277121D01*
X78007Y276786D01*
X78007Y276786D01*
X77997Y276603D01*
X77959Y276343D01*
X77942Y276210D01*
X77893Y275926D01*
X77893Y275926D01*
X77893D01*
X77848Y275662D01*
X77815Y275532D01*
X77784Y275377D01*
X77712Y275165D01*
X77712Y275165D01*
X77638Y274947D01*
X77595Y274822D01*
X77589Y274805D01*
X77548Y274697D01*
X77454Y274506D01*
X77402Y274383D01*
X77199Y274051D01*
X77131Y273942D01*
X77049Y273840D01*
X76781Y273526D01*
X76386Y273189D01*
X75920Y272903D01*
X75679Y272804D01*
Y272804D01*
X75556Y272752D01*
X75384Y272681D01*
X75371Y272687D01*
X75174Y272620D01*
X75044Y272588D01*
X74917Y272562D01*
X74471Y272473D01*
X74415Y272488D01*
X74337Y272560D01*
Y273810D01*
X74549Y273831D01*
X74997Y273966D01*
X75409Y274187D01*
X75770Y274483D01*
X76041Y274814D01*
X76067Y274845D01*
X76111Y274925D01*
X76111D01*
X76218Y275126D01*
X76225Y275123D01*
X76317Y275344D01*
X76317D01*
X76413Y275578D01*
X76415Y275577D01*
X76425Y275601D01*
X76450Y275704D01*
X76479Y275827D01*
X76490Y275833D01*
X76520Y275986D01*
X76544Y276110D01*
X76545Y276111D01*
X76545Y276112D01*
X76569Y276233D01*
X76603Y276402D01*
X76599Y276407D01*
X76628Y276583D01*
X76645Y276684D01*
X76649Y276713D01*
X76649D01*
X76660Y276911D01*
X76669Y277044D01*
X76697Y277629D01*
X76703Y277743D01*
X76702Y277761D01*
X76701Y277895D01*
X76706Y277974D01*
X76660Y278682D01*
X76521Y279377D01*
X76381Y279791D01*
X76386Y279793D01*
X76386Y279793D01*
X76365Y279861D01*
X76335Y279917D01*
X76135Y280292D01*
X75824Y280670D01*
X75630Y280830D01*
X75530Y280912D01*
X75207Y281110D01*
X74787Y281284D01*
X74378Y281382D01*
X74344Y281390D01*
X74245Y281398D01*
X74112Y281413D01*
X73710Y281466D01*
X72749Y281508D01*
X72703Y281510D01*
X72703D01*
X72629Y281506D01*
X72625Y281497D01*
X72624Y281497D01*
X72622Y281492D01*
X72622Y281492D01*
Y281492D01*
X72622Y279900D01*
X72621D01*
X72621Y279890D01*
X72601Y279267D01*
X72597Y279133D01*
X72592Y278999D01*
X72575Y278539D01*
X72567Y278406D01*
X72561Y278273D01*
X72561Y278272D01*
X72511Y277851D01*
X72495Y277719D01*
X72480Y277586D01*
X72412Y277070D01*
X72411Y277070D01*
X72387Y276892D01*
X72292Y276462D01*
X72292D01*
X72265Y276331D01*
X72155Y275892D01*
X72155Y275892D01*
X72155D01*
X72102Y275683D01*
X71988Y275363D01*
X71948Y275235D01*
X71798Y274872D01*
X71746Y274749D01*
X71494Y274237D01*
X71414Y274118D01*
X71341Y274010D01*
X71145Y273690D01*
X70737Y273212D01*
X70260Y272805D01*
X69724Y272477D01*
X69144Y272236D01*
X68534Y272090D01*
X67936Y272043D01*
X67846Y272045D01*
X67803Y272049D01*
Y272049D01*
X67669Y272049D01*
X67191Y272087D01*
X66642Y272219D01*
X66396Y272321D01*
X66274Y272371D01*
Y272371D01*
X66121Y272435D01*
X65651Y272723D01*
X65232Y273081D01*
X65093Y273243D01*
X65094Y273243D01*
X64871Y273504D01*
X64551Y274027D01*
X64385Y274426D01*
X64342Y274553D01*
X64237Y274861D01*
X64110Y275501D01*
X64073Y276059D01*
X64070Y276191D01*
X64072Y276324D01*
X64113Y277143D01*
X64164Y277488D01*
X64178Y277621D01*
X64306Y278264D01*
X64438Y278652D01*
X64480Y278775D01*
X64526Y278901D01*
X64759Y279465D01*
X65045Y279982D01*
X65115Y280096D01*
Y280096D01*
X65353Y280492D01*
X65901Y281232D01*
X65947Y281282D01*
X66030Y281374D01*
X66133Y281487D01*
X66124Y281505D01*
X66119Y281507D01*
X65971Y281507D01*
X64408D01*
Y282887D01*
X73095D01*
X73095Y282887D01*
D02*
G37*
G36*
X78026Y270047D02*
X78051Y269775D01*
Y269519D01*
X78048Y269516D01*
Y269516D01*
X77998Y268753D01*
X77968Y268601D01*
X77972Y268596D01*
X77825Y267985D01*
X77648Y267558D01*
X77648Y267558D01*
X77410Y267075D01*
X77060Y266552D01*
X76980Y266445D01*
X76881Y266306D01*
X76346Y265707D01*
X76087Y265476D01*
X75995Y265393D01*
X75867Y265279D01*
X75870Y265267D01*
X75870Y265267D01*
X75873Y265262D01*
X75878Y265260D01*
X75881D01*
X75884Y265259D01*
X75886Y265260D01*
X76046D01*
X76170Y265260D01*
X77708D01*
Y263880D01*
X64408D01*
Y265260D01*
X73937D01*
X73940Y265261D01*
X73943Y265256D01*
X74035Y265307D01*
X74058Y265323D01*
X74655Y265747D01*
X74845Y265917D01*
X74945Y266006D01*
X74946Y266006D01*
X74946Y266006D01*
X75045Y266095D01*
X75266Y266292D01*
X75758Y266843D01*
X75829Y266936D01*
X75847Y266957D01*
X75906Y267044D01*
X76208Y267497D01*
X76455Y267997D01*
X76450Y267999D01*
X76559Y268262D01*
X76664Y268697D01*
X76689Y269018D01*
X76699Y269143D01*
X76699Y269148D01*
X76691Y269279D01*
Y269523D01*
X76701Y269653D01*
X76702Y269668D01*
X76690Y269786D01*
X76673Y269961D01*
X76763Y270060D01*
X78026Y270047D01*
D02*
G37*
G36*
X65533Y260847D02*
X65584Y260775D01*
X65584Y260770D01*
X65583Y260711D01*
X65583Y260711D01*
X65582Y260681D01*
X65582Y260680D01*
X65582Y260650D01*
X65582Y260594D01*
Y260594D01*
Y260396D01*
X65574Y260265D01*
X65570Y260219D01*
X65577Y260131D01*
X65617Y259633D01*
X65628Y259586D01*
X65658Y259457D01*
X65667Y259390D01*
X65691Y259330D01*
X65777Y259123D01*
X65911Y258949D01*
X65953Y258894D01*
X66004Y258855D01*
X66005Y258857D01*
X66005Y258857D01*
X66005Y258857D01*
X66006Y258857D01*
X66148Y258740D01*
X66444Y258582D01*
X66763Y258485D01*
X66764Y258493D01*
X67204Y258405D01*
X67946Y258356D01*
X68082Y258365D01*
X68082Y258365D01*
Y258365D01*
X68086Y258370D01*
X76343D01*
X76348Y258372D01*
X76351Y258377D01*
Y260570D01*
X77711D01*
Y258377D01*
X77713Y258372D01*
X77718Y258370D01*
X81199D01*
Y256990D01*
X77715D01*
X77710Y256988D01*
X77708Y256983D01*
Y255275D01*
X76348D01*
Y256983D01*
X76346Y256988D01*
X76341Y256990D01*
X68199D01*
X68199Y256990D01*
X68199Y256996D01*
X68076Y256991D01*
X66885Y257037D01*
X66455Y257088D01*
X66455Y257089D01*
X66237Y257106D01*
X65747Y257224D01*
X65336Y257394D01*
X65219Y257460D01*
Y257460D01*
X65107Y257520D01*
X64843Y257736D01*
X64627Y258000D01*
X64478Y258279D01*
X64481Y258287D01*
X64389Y258510D01*
X64261Y259042D01*
X64218Y259587D01*
X64229Y259726D01*
X64219Y259854D01*
X64220Y259903D01*
X64221Y259962D01*
Y259962D01*
X64222Y260004D01*
X64237Y260138D01*
X64237Y260138D01*
X64248Y260314D01*
X64246Y260448D01*
X64249Y260491D01*
X64259Y260608D01*
X64270Y260726D01*
X64288Y260896D01*
X65467Y260898D01*
X65533Y260847D01*
D02*
G37*
G36*
X83206Y250647D02*
X64408D01*
Y252027D01*
X83206D01*
Y250647D01*
D02*
G37*
G36*
X72283Y245785D02*
X72284Y245792D01*
X72284Y245792D01*
X83206D01*
Y244412D01*
X72341D01*
X72340Y244414D01*
X72340D01*
X71999Y244429D01*
X70855Y244379D01*
X69720Y244229D01*
X68849Y244036D01*
X68848Y244037D01*
X68753Y244018D01*
X68719Y244007D01*
X68143Y243811D01*
X67565Y243526D01*
X67030Y243168D01*
X66839Y243002D01*
X66741Y242916D01*
X66741Y242916D01*
X66741Y242916D01*
X66736Y242921D01*
X66695Y242886D01*
X66643Y242825D01*
X66310Y242435D01*
X66000Y241930D01*
X65773Y241382D01*
X65699Y241075D01*
X65699Y241074D01*
X65698Y241075D01*
X65610Y240723D01*
X65458Y239698D01*
X65409Y238696D01*
X65407Y238662D01*
X65412Y238563D01*
X65408Y238456D01*
X65457Y237450D01*
X65605Y236453D01*
X65699Y236077D01*
X65731Y235947D01*
X65769Y235788D01*
X66005Y235220D01*
X66326Y234695D01*
X66724Y234229D01*
X66732Y234235D01*
X67075Y233934D01*
X67600Y233583D01*
X68166Y233304D01*
X68710Y233120D01*
X68763Y233102D01*
X68840Y233086D01*
X68840Y233087D01*
X69764Y232882D01*
X70884Y232734D01*
X72012Y232685D01*
X72340Y232699D01*
X72340Y232699D01*
Y232699D01*
X72341Y232701D01*
X83206D01*
Y231321D01*
X72286D01*
X72106Y231322D01*
X72100Y231327D01*
X71536Y231344D01*
Y231344D01*
X71402Y231348D01*
X70963Y231361D01*
X70963Y231361D01*
Y231361D01*
X70954Y231353D01*
X70392Y231382D01*
X70380Y231395D01*
X70020Y231412D01*
X69073Y231553D01*
X68494Y231698D01*
X68494Y231698D01*
Y231698D01*
X68493Y231698D01*
X67976Y231846D01*
X67249Y232147D01*
X66781Y232406D01*
Y232406D01*
X66781D01*
X66771Y232404D01*
X66288Y232727D01*
X65825Y233134D01*
X65455Y233555D01*
X65376Y233663D01*
Y233663D01*
X65303Y233772D01*
X65028Y234184D01*
X64672Y234905D01*
X64420Y235647D01*
X64428Y235660D01*
X64264Y236313D01*
X64114Y237326D01*
X64064Y238349D01*
X64074Y238555D01*
X64076Y238556D01*
X64062Y238845D01*
X64109Y239797D01*
X64249Y240739D01*
X64480Y241664D01*
X64635Y242095D01*
X64633Y242096D01*
X64697Y242284D01*
X64991Y242880D01*
X65360Y243432D01*
X65798Y243932D01*
X66233Y244313D01*
X66238Y244312D01*
X66238Y244312D01*
Y244312D01*
X66652Y244605D01*
X67273Y244949D01*
X67928Y245220D01*
X68609Y245416D01*
X68818Y245452D01*
X68819Y245451D01*
X69519Y245590D01*
X70805Y245742D01*
X72098Y245793D01*
X72283Y245785D01*
D02*
G37*
G36*
X54747Y189331D02*
X46890D01*
Y216219D01*
X54747D01*
Y189331D01*
D02*
G37*
G36*
X39127Y360630D02*
Y297743D01*
D01*
Y360630D01*
X46208D01*
Y311744D01*
D01*
Y360630D01*
X60089D01*
Y220079D01*
X46208D01*
X39127D01*
X30469D01*
Y266104D01*
X36372D01*
Y267285D01*
X33383Y268283D01*
X36372Y269269D01*
Y270419D01*
X32328Y268936D01*
X31600Y268666D01*
X31593D01*
X31581Y268660D01*
X31562Y268654D01*
X31537Y268641D01*
X31474Y268616D01*
X31392Y268578D01*
X31304Y268534D01*
X31210Y268491D01*
X31122Y268440D01*
X31040Y268390D01*
X31034Y268384D01*
X31009Y268365D01*
X30972Y268340D01*
X30928Y268302D01*
X30877Y268258D01*
X30827Y268208D01*
X30777Y268145D01*
X30727Y268082D01*
X30720Y268076D01*
X30708Y268051D01*
X30683Y268013D01*
X30658Y267969D01*
X30626Y267906D01*
X30595Y267831D01*
X30563Y267750D01*
X30538Y267661D01*
Y267649D01*
X30526Y267618D01*
X30519Y267567D01*
X30507Y267498D01*
X30494Y267417D01*
X30482Y267322D01*
X30475Y267216D01*
X30469Y267096D01*
Y267040D01*
X30475Y266977D01*
Y266902D01*
X30488Y266801D01*
X30501Y266701D01*
X30513Y266588D01*
X30538Y266475D01*
X31411Y266374D01*
Y266387D01*
X31405Y266418D01*
X31392Y266468D01*
X31386Y266531D01*
X31373Y266600D01*
X31361Y266682D01*
X31354Y266839D01*
Y266877D01*
X31361Y266902D01*
X31367Y266971D01*
X31386Y267059D01*
X31411Y267147D01*
X31455Y267247D01*
X31512Y267335D01*
X31587Y267410D01*
X31600Y267417D01*
X31631Y267442D01*
X31675Y267473D01*
X31744Y267517D01*
X31826Y267561D01*
X31926Y267611D01*
X32033Y267655D01*
X32158Y267693D01*
X36372Y266104D01*
X30469D01*
Y220079D01*
X16929D01*
Y360630D01*
X30469D01*
Y297925D01*
D01*
Y360630D01*
X39127D01*
D02*
G37*
%LPC*%
G36*
X77964Y336488D02*
X77964Y336488D01*
D01*
X77964Y336488D01*
D02*
G37*
G36*
X71076Y312794D02*
X70188Y312750D01*
X69309Y312620D01*
X68617Y312446D01*
X68493Y312404D01*
X68118Y312277D01*
X67527Y311985D01*
X66979Y311619D01*
X66844Y311501D01*
X66844Y311499D01*
X66844Y311498D01*
X66589Y311281D01*
X66201Y310826D01*
X65889Y310316D01*
X65778Y310049D01*
X65770Y310052D01*
X65579Y309489D01*
X65456Y308873D01*
X65420Y308317D01*
X65415Y308245D01*
X65420Y308184D01*
X65415Y308115D01*
X65457Y307482D01*
X65580Y306860D01*
X65771Y306299D01*
X65778Y306302D01*
X65889Y306035D01*
X66201Y305525D01*
X66589Y305070D01*
X66844Y304853D01*
X66844Y304852D01*
X66844Y304852D01*
X66844Y304851D01*
X66975Y304735D01*
X67513Y304376D01*
X68094Y304089D01*
X68616Y303912D01*
X68617Y303915D01*
X69252Y303756D01*
X70160Y303622D01*
X71076Y303576D01*
X71993Y303622D01*
X72901Y303756D01*
X73535Y303915D01*
X73536Y303912D01*
X74044Y304084D01*
X74606Y304362D01*
X75126Y304709D01*
X75289Y304852D01*
X75389Y304939D01*
X75390Y304939D01*
X75509Y305041D01*
X75905Y305504D01*
X76223Y306024D01*
X76338Y306302D01*
X76343Y306300D01*
X76525Y306836D01*
X76657Y307500D01*
X76701Y308176D01*
X76657Y308851D01*
X76525Y309515D01*
X76343Y310051D01*
X76338Y310049D01*
X76223Y310327D01*
X75905Y310847D01*
X75509Y311310D01*
X75389Y311412D01*
X75289Y311500D01*
Y311500D01*
X75289D01*
X75123Y311645D01*
X74592Y311999D01*
X74019Y312282D01*
X73536Y312446D01*
X73536Y312446D01*
X72843Y312620D01*
X71964Y312750D01*
X71076Y312794D01*
D02*
G37*
G36*
X64547Y305765D02*
Y305765D01*
D01*
Y305765D01*
D02*
G37*
G36*
X71255Y281507D02*
X67786D01*
X67781Y281505D01*
X67781Y281506D01*
X67511Y281261D01*
X66960Y280652D01*
X66960Y280647D01*
X66809Y280479D01*
X66325Y279796D01*
X66198Y279567D01*
X66198Y279566D01*
X65961Y279137D01*
X65687Y278476D01*
X65639Y278308D01*
X65639D01*
Y278308D01*
X65640Y278305D01*
X65567Y278091D01*
X65454Y277523D01*
X65417Y276946D01*
X65414Y276927D01*
X65414Y276924D01*
X65425Y276741D01*
X65432Y276609D01*
X65432D01*
X65449Y276303D01*
X65460Y276170D01*
X65468Y276052D01*
X65476Y276011D01*
X65477Y276011D01*
X65506Y275866D01*
X65531Y275736D01*
X65531Y275736D01*
X65532Y275735D01*
X65532D01*
X65532Y275734D01*
X65558Y275604D01*
X65585Y275469D01*
X65593Y275464D01*
X65649Y275229D01*
X65750Y274985D01*
X65750Y274985D01*
X65750D01*
X65857Y274726D01*
X66083Y274358D01*
X66080Y274356D01*
X66340Y274039D01*
X66666Y273772D01*
X67038Y273573D01*
X67441Y273451D01*
X67861Y273410D01*
X67939Y273413D01*
X67987Y273408D01*
X68073Y273416D01*
X68518Y273460D01*
X69028Y273615D01*
X69498Y273866D01*
X69910Y274204D01*
X70248Y274616D01*
X70402Y274904D01*
X70403Y274905D01*
X70520Y275096D01*
X70569Y275215D01*
X70625Y275337D01*
X70672Y275432D01*
X70715Y275558D01*
X70715Y275558D01*
X70842Y275933D01*
X70841Y275933D01*
X70958Y276336D01*
X70959Y276336D01*
X70996Y276466D01*
X71047Y276765D01*
X71055Y276770D01*
X71124Y277237D01*
X71124Y277238D01*
X71125Y277237D01*
X71190Y277733D01*
X71190D01*
X71187Y277737D01*
X71222Y278036D01*
X71226Y278127D01*
X71233Y278260D01*
X71269Y279274D01*
X71273Y279377D01*
X71272Y279406D01*
X71262Y279536D01*
Y281500D01*
X71260Y281505D01*
X71255Y281507D01*
D02*
G37*
G36*
X75371Y272687D02*
X75371D01*
D01*
X75371D01*
D02*
G37*
G36*
X49656Y214251D02*
X48930D01*
Y213525D01*
X49656D01*
Y214251D01*
D02*
G37*
G36*
X51735Y213214D02*
D01*
Y212775D01*
X51731Y212800D01*
X51727Y212824D01*
X51718Y212886D01*
X51702Y212960D01*
X51677Y213041D01*
X51640Y213128D01*
X51595Y213214D01*
D01*
X50964Y212988D01*
X50968Y212980D01*
X50985Y212955D01*
X51001Y212923D01*
X51025Y212877D01*
X51046Y212824D01*
X51066Y212767D01*
X51079Y212709D01*
X51083Y212648D01*
Y212623D01*
X51079Y212595D01*
X51071Y212558D01*
X51062Y212517D01*
X51046Y212476D01*
X51025Y212431D01*
X50997Y212390D01*
X50993Y212386D01*
X50980Y212373D01*
X50960Y212353D01*
X50927Y212328D01*
X50886Y212303D01*
X50833Y212275D01*
X50771Y212246D01*
X50693Y212222D01*
X50689D01*
X50681Y212217D01*
X50669D01*
X50648Y212213D01*
X50624Y212209D01*
X50587Y212205D01*
X50546Y212197D01*
X50497Y212193D01*
X50439Y212189D01*
X50374Y212180D01*
X50300Y212176D01*
X50214Y212172D01*
X50119Y212168D01*
X50017D01*
X49902Y212164D01*
X49775D01*
X48930D01*
Y211438D01*
X51735D01*
Y213214D01*
D02*
G37*
G36*
X52715Y210668D02*
X48930D01*
Y209905D01*
X51415Y208372D01*
X48930D01*
Y207666D01*
X52715D01*
Y210668D01*
D02*
G37*
G36*
X50665Y207236D02*
X49939D01*
Y205809D01*
X50665D01*
Y207236D01*
D02*
G37*
G36*
X52715Y205153D02*
X48930D01*
Y204427D01*
X52715D01*
Y205153D01*
D02*
G37*
G36*
X51735Y203870D02*
D01*
Y202640D01*
X51731Y202677D01*
Y202726D01*
X51727Y202775D01*
X51718Y202833D01*
X51706Y202951D01*
X51686Y203070D01*
X51657Y203185D01*
X51636Y203234D01*
X51616Y203284D01*
Y203288D01*
X51612Y203296D01*
X51604Y203308D01*
X51595Y203320D01*
X51571Y203365D01*
X51538Y203415D01*
X51493Y203472D01*
X51444Y203525D01*
X51386Y203579D01*
X51325Y203620D01*
X51317Y203624D01*
X51304Y203628D01*
X51292Y203636D01*
X51271Y203644D01*
X51243Y203653D01*
X51214Y203661D01*
X51177Y203669D01*
X51136Y203677D01*
X51091Y203685D01*
X51038Y203694D01*
X50976Y203702D01*
X50911Y203710D01*
X50841Y203714D01*
X50763Y203718D01*
X50677D01*
X49828Y203706D01*
X49824D01*
X49812D01*
X49795D01*
X49771D01*
X49738D01*
X49705D01*
X49627Y203710D01*
X49541Y203714D01*
X49451Y203718D01*
X49369Y203726D01*
X49328Y203734D01*
X49295Y203739D01*
X49287D01*
X49267Y203747D01*
X49230Y203755D01*
X49185Y203767D01*
X49131Y203784D01*
X49070Y203808D01*
X49000Y203837D01*
X48930Y203870D01*
D01*
Y203152D01*
X48935D01*
X48943Y203148D01*
X48959Y203140D01*
X48984Y203132D01*
X49012Y203124D01*
X49049Y203107D01*
X49094Y203095D01*
X49144Y203079D01*
X49148D01*
X49156Y203074D01*
X49180Y203070D01*
X49209Y203062D01*
X49222Y203058D01*
X49230Y203054D01*
X49222Y203046D01*
X49201Y203021D01*
X49168Y202984D01*
X49127Y202935D01*
X49086Y202878D01*
X49041Y202808D01*
X48996Y202734D01*
X48959Y202656D01*
Y202652D01*
X48955Y202648D01*
X48951Y202636D01*
X48947Y202619D01*
X48930Y202578D01*
X48914Y202521D01*
X48898Y202455D01*
X48881Y202377D01*
X48873Y202295D01*
X48869Y202205D01*
Y202164D01*
X48873Y202135D01*
X48877Y202099D01*
X48881Y202058D01*
X48889Y202012D01*
X48898Y201963D01*
X48922Y201857D01*
X48963Y201746D01*
X48992Y201689D01*
X49021Y201635D01*
X49053Y201586D01*
X49094Y201537D01*
X49099Y201533D01*
X49107Y201525D01*
X49119Y201516D01*
X49135Y201500D01*
X49160Y201480D01*
X49185Y201459D01*
X49217Y201438D01*
X49254Y201418D01*
X49295Y201393D01*
X49336Y201373D01*
X49439Y201332D01*
X49492Y201315D01*
X49549Y201307D01*
X49611Y201299D01*
X49677Y201295D01*
X48869D01*
X51735D01*
Y203870D01*
D02*
G37*
G36*
X52715Y200746D02*
X52042D01*
Y200020D01*
X51673D01*
Y200746D01*
X48930D01*
Y200020D01*
X52715D01*
Y200746D01*
D02*
G37*
G36*
X51735Y199704D02*
D01*
Y199266D01*
X51731Y199290D01*
X51727Y199315D01*
X51718Y199376D01*
X51702Y199450D01*
X51677Y199532D01*
X51640Y199618D01*
X51595Y199704D01*
D01*
X50964Y199479D01*
X50968Y199470D01*
X50985Y199446D01*
X51001Y199413D01*
X51025Y199368D01*
X51046Y199315D01*
X51066Y199257D01*
X51079Y199200D01*
X51083Y199138D01*
Y199114D01*
X51079Y199085D01*
X51071Y199048D01*
X51062Y199007D01*
X51046Y198966D01*
X51025Y198921D01*
X50997Y198880D01*
X50993Y198876D01*
X50980Y198864D01*
X50960Y198843D01*
X50927Y198819D01*
X50886Y198794D01*
X50833Y198765D01*
X50771Y198737D01*
X50693Y198712D01*
X50689D01*
X50681Y198708D01*
X50669D01*
X50648Y198704D01*
X50624Y198700D01*
X50587Y198696D01*
X50546Y198687D01*
X50497Y198683D01*
X50439Y198679D01*
X50374Y198671D01*
X50300Y198667D01*
X50214Y198663D01*
X50119Y198659D01*
X50017D01*
X49902Y198655D01*
X49775D01*
X48930D01*
Y197929D01*
X51735D01*
Y199704D01*
D02*
G37*
G36*
Y197367D02*
D01*
Y196092D01*
X51731Y196121D01*
X51727Y196166D01*
X51723Y196215D01*
X51714Y196277D01*
X51702Y196342D01*
X51686Y196412D01*
X51661Y196490D01*
X51636Y196568D01*
X51604Y196646D01*
X51563Y196728D01*
X51517Y196806D01*
X51464Y196883D01*
X51399Y196957D01*
X51329Y197027D01*
X51325Y197031D01*
X51308Y197043D01*
X51288Y197060D01*
X51255Y197080D01*
X51210Y197109D01*
X51157Y197138D01*
X51095Y197170D01*
X51025Y197203D01*
X50943Y197236D01*
X50849Y197265D01*
X50751Y197293D01*
X50640Y197318D01*
X50517Y197338D01*
X50386Y197355D01*
X50247Y197367D01*
X50095D01*
Y195551D01*
X50091D01*
X50082D01*
X50062D01*
X50042Y195555D01*
X50013Y195559D01*
X49980Y195563D01*
X49910Y195575D01*
X49828Y195596D01*
X49742Y195625D01*
X49660Y195666D01*
X49586Y195723D01*
Y195727D01*
X49578Y195731D01*
X49558Y195752D01*
X49529Y195789D01*
X49500Y195838D01*
X49468Y195899D01*
X49439Y195973D01*
X49418Y196055D01*
X49414Y196100D01*
X49410Y196145D01*
Y196174D01*
X49414Y196203D01*
X49422Y196244D01*
X49431Y196289D01*
X49447Y196334D01*
X49472Y196383D01*
X49500Y196428D01*
X49504Y196432D01*
X49517Y196449D01*
X49541Y196469D01*
X49574Y196494D01*
X49615Y196527D01*
X49668Y196555D01*
X49730Y196584D01*
X49804Y196609D01*
X49681Y197330D01*
X49677D01*
X49664Y197322D01*
X49644Y197314D01*
X49615Y197306D01*
X49582Y197289D01*
X49545Y197269D01*
X49500Y197248D01*
X49455Y197224D01*
X49357Y197162D01*
X49258Y197084D01*
X49160Y196994D01*
X49115Y196941D01*
X49074Y196888D01*
X49070Y196883D01*
X49066Y196875D01*
X49053Y196859D01*
X49041Y196834D01*
X49025Y196806D01*
X49008Y196769D01*
X48992Y196728D01*
X48971Y196683D01*
X48951Y196629D01*
X48935Y196572D01*
X48918Y196510D01*
X48902Y196445D01*
X48889Y196375D01*
X48877Y196297D01*
X48873Y196219D01*
X48869Y196137D01*
Y196104D01*
X48873Y196068D01*
X48877Y196018D01*
X48881Y195961D01*
X48893Y195891D01*
X48906Y195817D01*
X48926Y195735D01*
X48951Y195649D01*
X48984Y195563D01*
X49021Y195477D01*
X49066Y195387D01*
X49119Y195305D01*
X49180Y195223D01*
X49250Y195149D01*
X49332Y195079D01*
X49336Y195075D01*
X49349Y195067D01*
X49369Y195055D01*
X49402Y195038D01*
X49439Y195018D01*
X49480Y194993D01*
X49533Y194969D01*
X49591Y194944D01*
X49656Y194920D01*
X49730Y194895D01*
X49808Y194870D01*
X49890Y194850D01*
X49980Y194833D01*
X50074Y194821D01*
X50177Y194813D01*
X50279Y194809D01*
X48869D01*
X51735D01*
Y197367D01*
D02*
G37*
G36*
X52776Y194382D02*
D01*
Y192894D01*
X52772Y192939D01*
X52768Y193001D01*
X52760Y193066D01*
X52752Y193144D01*
X52735Y193226D01*
X52719Y193308D01*
X52698Y193398D01*
X52674Y193489D01*
X52645Y193575D01*
X52608Y193661D01*
X52563Y193747D01*
X52518Y193825D01*
X52460Y193895D01*
X52456Y193899D01*
X52448Y193911D01*
X52428Y193927D01*
X52403Y193952D01*
X52374Y193981D01*
X52333Y194009D01*
X52288Y194042D01*
X52239Y194079D01*
X52182Y194112D01*
X52120Y194145D01*
X52051Y194177D01*
X51977Y194206D01*
X51899Y194235D01*
X51813Y194255D01*
X51723Y194268D01*
X51628Y194276D01*
X51600Y193513D01*
X51604D01*
X51612Y193509D01*
X51628D01*
X51645Y193505D01*
X51669Y193497D01*
X51698Y193489D01*
X51759Y193468D01*
X51825Y193439D01*
X51895Y193403D01*
X51960Y193357D01*
X52014Y193300D01*
X52018Y193292D01*
X52034Y193271D01*
X52055Y193234D01*
X52079Y193181D01*
X52104Y193111D01*
X52124Y193029D01*
X52141Y192931D01*
X52145Y192816D01*
Y192763D01*
X52141Y192734D01*
X52137Y192701D01*
X52128Y192623D01*
X52112Y192542D01*
X52087Y192451D01*
X52051Y192369D01*
X52005Y192291D01*
X52001Y192287D01*
X51989Y192275D01*
X51968Y192254D01*
X51944Y192234D01*
X51911Y192209D01*
X51870Y192193D01*
X51825Y192177D01*
X51772Y192173D01*
X51768D01*
X51751D01*
X51723Y192177D01*
X51694Y192185D01*
X51657Y192201D01*
X51616Y192218D01*
X51579Y192246D01*
X51542Y192283D01*
X51538Y192291D01*
X51530Y192300D01*
X51522Y192316D01*
X51509Y192332D01*
X51497Y192357D01*
X51481Y192390D01*
X51464Y192427D01*
X51448Y192468D01*
X51427Y192517D01*
X51407Y192574D01*
X51386Y192640D01*
X51362Y192714D01*
X51337Y192796D01*
X51313Y192886D01*
X51288Y192984D01*
Y192992D01*
X51284Y193009D01*
X51276Y193038D01*
X51267Y193075D01*
X51255Y193124D01*
X51239Y193173D01*
X51222Y193234D01*
X51206Y193296D01*
X51165Y193431D01*
X51120Y193567D01*
X51095Y193632D01*
X51071Y193698D01*
X51042Y193755D01*
X51017Y193808D01*
Y193813D01*
X51009Y193821D01*
X51001Y193833D01*
X50993Y193853D01*
X50960Y193903D01*
X50919Y193964D01*
X50862Y194030D01*
X50796Y194099D01*
X50718Y194169D01*
X50632Y194231D01*
X50628D01*
X50620Y194239D01*
X50607Y194243D01*
X50587Y194255D01*
X50562Y194268D01*
X50533Y194280D01*
X50501Y194292D01*
X50464Y194309D01*
X50423Y194321D01*
X50378Y194333D01*
X50275Y194358D01*
X50156Y194374D01*
X50029Y194382D01*
X49996D01*
X49976Y194378D01*
X49947D01*
X49910Y194374D01*
X49873Y194366D01*
X49832Y194358D01*
X49738Y194337D01*
X49636Y194305D01*
X49529Y194259D01*
X49472Y194231D01*
X49418Y194198D01*
X49414D01*
X49406Y194190D01*
X49390Y194177D01*
X49373Y194165D01*
X49349Y194145D01*
X49320Y194124D01*
X49258Y194067D01*
X49193Y193993D01*
X49119Y193907D01*
X49053Y193804D01*
X48996Y193685D01*
Y193681D01*
X48992Y193669D01*
X48984Y193653D01*
X48976Y193628D01*
X48963Y193595D01*
X48955Y193554D01*
X48943Y193509D01*
X48930Y193460D01*
X48914Y193403D01*
X48902Y193341D01*
X48893Y193271D01*
X48881Y193198D01*
X48873Y193124D01*
X48865Y193038D01*
X48861Y192952D01*
Y192829D01*
X48865Y192792D01*
Y192742D01*
X48869Y192685D01*
X48877Y192615D01*
X48889Y192537D01*
X48902Y192455D01*
X48918Y192365D01*
X48943Y192275D01*
X48967Y192185D01*
X49000Y192095D01*
X49037Y192004D01*
X49082Y191918D01*
X49131Y191836D01*
X49189Y191758D01*
X49193Y191754D01*
X49205Y191742D01*
X49226Y191721D01*
X49250Y191697D01*
X49287Y191668D01*
X49328Y191631D01*
X49377Y191594D01*
X49435Y191558D01*
X49500Y191516D01*
X49570Y191475D01*
X49652Y191439D01*
X49738Y191402D01*
X49832Y191369D01*
X49931Y191340D01*
X50042Y191316D01*
X50156Y191299D01*
X48861D01*
D01*
X52776D01*
Y194382D01*
D02*
G37*
%LPD*%
G36*
X51735Y211438D02*
X51673D01*
Y212111D01*
X51280D01*
X51284Y212115D01*
X51292Y212119D01*
X51304Y212127D01*
X51325Y212140D01*
X51374Y212172D01*
X51431Y212213D01*
X51493Y212263D01*
X51550Y212312D01*
X51604Y212365D01*
X51628Y212394D01*
X51645Y212418D01*
X51649Y212426D01*
X51657Y212443D01*
X51673Y212472D01*
X51690Y212509D01*
X51706Y212558D01*
X51723Y212611D01*
X51731Y212668D01*
X51735Y212734D01*
Y211438D01*
D02*
G37*
G36*
X52715Y208404D02*
X50173Y209962D01*
X52715D01*
Y208404D01*
D02*
G37*
G36*
X50242Y202992D02*
X50238Y202972D01*
X50226Y202939D01*
X50214Y202890D01*
X50197Y202828D01*
X50177Y202750D01*
X50156Y202660D01*
X50132Y202554D01*
Y202550D01*
X50128Y202541D01*
Y202525D01*
X50119Y202504D01*
X50107Y202455D01*
X50095Y202394D01*
X50074Y202328D01*
X50054Y202263D01*
X50033Y202205D01*
X50021Y202181D01*
X50009Y202160D01*
X50005Y202156D01*
X49992Y202140D01*
X49968Y202115D01*
X49939Y202090D01*
X49902Y202066D01*
X49857Y202041D01*
X49808Y202025D01*
X49755Y202021D01*
X49746D01*
X49730D01*
X49701Y202025D01*
X49664Y202033D01*
X49623Y202049D01*
X49578Y202066D01*
X49537Y202095D01*
X49492Y202131D01*
X49488Y202135D01*
X49476Y202152D01*
X49455Y202176D01*
X49439Y202209D01*
X49418Y202254D01*
X49398Y202304D01*
X49385Y202361D01*
X49381Y202422D01*
Y202431D01*
X49385Y202455D01*
X49390Y202492D01*
X49398Y202541D01*
X49414Y202599D01*
X49435Y202664D01*
X49468Y202730D01*
X49509Y202796D01*
X49513Y202800D01*
X49525Y202816D01*
X49545Y202841D01*
X49574Y202865D01*
X49611Y202898D01*
X49652Y202927D01*
X49697Y202951D01*
X49746Y202972D01*
X49750D01*
X49767Y202976D01*
X49791Y202980D01*
X49824Y202988D01*
X49873Y202992D01*
X49935Y202996D01*
X50009Y203001D01*
X50099D01*
X50247D01*
X50242Y202992D01*
D02*
G37*
G36*
X50862Y202996D02*
X50907Y202988D01*
X50956Y202976D01*
X51005Y202956D01*
X51054Y202931D01*
X51091Y202894D01*
X51095Y202890D01*
X51103Y202873D01*
X51120Y202845D01*
X51136Y202808D01*
X51153Y202755D01*
X51169Y202685D01*
X51173Y202644D01*
X51177Y202603D01*
X51181Y202554D01*
Y202468D01*
X51177Y202431D01*
X51173Y202390D01*
X51161Y202341D01*
X51148Y202287D01*
X51128Y202238D01*
X51103Y202193D01*
X51099Y202189D01*
X51087Y202176D01*
X51071Y202156D01*
X51042Y202131D01*
X51005Y202103D01*
X50956Y202074D01*
X50898Y202045D01*
X50833Y202021D01*
X50952Y201369D01*
X50956D01*
X50968Y201373D01*
X50989Y201381D01*
X51017Y201389D01*
X51050Y201402D01*
X51087Y201418D01*
X51173Y201459D01*
X51271Y201512D01*
X51370Y201578D01*
X51460Y201656D01*
X51505Y201701D01*
X51542Y201750D01*
X51546Y201754D01*
X51550Y201762D01*
X51559Y201779D01*
X51571Y201799D01*
X51587Y201828D01*
X51604Y201865D01*
X51620Y201906D01*
X51640Y201951D01*
X51657Y202008D01*
X51673Y202066D01*
X51690Y202131D01*
X51706Y202205D01*
X51718Y202283D01*
X51727Y202369D01*
X51735Y202459D01*
Y201295D01*
X49718D01*
X49759Y201299D01*
X49816Y201307D01*
X49882Y201324D01*
X49951Y201340D01*
X50021Y201369D01*
X50091Y201406D01*
X50095D01*
X50099Y201410D01*
X50119Y201426D01*
X50152Y201451D01*
X50193Y201488D01*
X50238Y201529D01*
X50283Y201582D01*
X50328Y201643D01*
X50365Y201713D01*
Y201717D01*
X50370Y201721D01*
X50374Y201734D01*
X50382Y201750D01*
X50390Y201771D01*
X50402Y201795D01*
X50410Y201828D01*
X50423Y201861D01*
X50435Y201898D01*
X50451Y201943D01*
X50464Y201992D01*
X50480Y202041D01*
X50493Y202099D01*
X50509Y202160D01*
X50525Y202222D01*
X50538Y202291D01*
Y202295D01*
X50542Y202312D01*
X50546Y202341D01*
X50554Y202373D01*
X50562Y202414D01*
X50570Y202464D01*
X50583Y202517D01*
X50595Y202574D01*
X50624Y202689D01*
X50652Y202808D01*
X50669Y202861D01*
X50685Y202915D01*
X50702Y202960D01*
X50718Y203001D01*
X50788D01*
X50792D01*
X50796D01*
X50825D01*
X50862Y202996D01*
D02*
G37*
G36*
X51735Y197929D02*
X51673D01*
Y198601D01*
X51280D01*
X51284Y198605D01*
X51292Y198609D01*
X51304Y198618D01*
X51325Y198630D01*
X51374Y198663D01*
X51431Y198704D01*
X51493Y198753D01*
X51550Y198802D01*
X51604Y198855D01*
X51628Y198884D01*
X51645Y198909D01*
X51649Y198917D01*
X51657Y198933D01*
X51673Y198962D01*
X51690Y198999D01*
X51706Y199048D01*
X51723Y199101D01*
X51731Y199159D01*
X51735Y199224D01*
Y197929D01*
D02*
G37*
G36*
X50591Y196642D02*
X50616Y196637D01*
X50644Y196633D01*
X50714Y196621D01*
X50792Y196600D01*
X50870Y196572D01*
X50948Y196535D01*
X51013Y196482D01*
X51021Y196473D01*
X51038Y196453D01*
X51066Y196420D01*
X51099Y196375D01*
X51128Y196322D01*
X51157Y196256D01*
X51173Y196182D01*
X51181Y196104D01*
Y196080D01*
X51177Y196063D01*
X51173Y196022D01*
X51161Y195965D01*
X51140Y195904D01*
X51108Y195838D01*
X51062Y195776D01*
X51038Y195744D01*
X51005Y195715D01*
X50997Y195707D01*
X50972Y195690D01*
X50935Y195666D01*
X50882Y195637D01*
X50816Y195608D01*
X50734Y195584D01*
X50644Y195567D01*
X50538Y195563D01*
Y196646D01*
X50542D01*
X50550D01*
X50566D01*
X50591Y196642D01*
D02*
G37*
G36*
X51735Y194809D02*
X50308D01*
X50345Y194813D01*
X50390D01*
X50447Y194821D01*
X50517Y194829D01*
X50587Y194837D01*
X50669Y194854D01*
X50751Y194870D01*
X50837Y194895D01*
X50927Y194924D01*
X51017Y194956D01*
X51103Y194997D01*
X51190Y195047D01*
X51271Y195100D01*
X51345Y195161D01*
X51349Y195166D01*
X51362Y195178D01*
X51382Y195198D01*
X51407Y195227D01*
X51436Y195260D01*
X51468Y195305D01*
X51505Y195354D01*
X51542Y195407D01*
X51575Y195469D01*
X51612Y195539D01*
X51645Y195612D01*
X51673Y195694D01*
X51698Y195776D01*
X51718Y195867D01*
X51731Y195965D01*
X51735Y196063D01*
Y194809D01*
D02*
G37*
G36*
X50074Y193616D02*
X50103Y193612D01*
X50140Y193599D01*
X50181Y193587D01*
X50218Y193567D01*
X50255Y193538D01*
X50259Y193534D01*
X50271Y193521D01*
X50287Y193501D01*
X50312Y193476D01*
X50337Y193435D01*
X50365Y193390D01*
X50390Y193333D01*
X50419Y193263D01*
X50423Y193255D01*
Y193247D01*
X50427Y193234D01*
X50431Y193218D01*
X50439Y193193D01*
X50447Y193169D01*
X50456Y193136D01*
X50468Y193099D01*
X50480Y193054D01*
X50493Y193005D01*
X50509Y192947D01*
X50525Y192886D01*
X50542Y192816D01*
X50562Y192738D01*
X50583Y192652D01*
Y192644D01*
X50591Y192623D01*
X50599Y192595D01*
X50611Y192554D01*
X50624Y192500D01*
X50644Y192443D01*
X50665Y192382D01*
X50685Y192316D01*
X50743Y192173D01*
X50804Y192029D01*
X50841Y191963D01*
X50878Y191898D01*
X50915Y191840D01*
X50956Y191791D01*
X50960Y191787D01*
X50972Y191775D01*
X50989Y191758D01*
X51013Y191738D01*
X51042Y191709D01*
X51079Y191681D01*
X51120Y191648D01*
X51169Y191619D01*
X51222Y191586D01*
X51280Y191553D01*
X51345Y191525D01*
X51411Y191496D01*
X51481Y191475D01*
X51559Y191459D01*
X51636Y191447D01*
X51718Y191443D01*
X51723D01*
X51731D01*
X51747D01*
X51768Y191447D01*
X51792D01*
X51825Y191451D01*
X51895Y191463D01*
X51977Y191484D01*
X52071Y191512D01*
X52165Y191553D01*
X52260Y191607D01*
X52264D01*
X52272Y191615D01*
X52284Y191623D01*
X52301Y191635D01*
X52346Y191676D01*
X52403Y191726D01*
X52465Y191795D01*
X52526Y191873D01*
X52588Y191972D01*
X52641Y192078D01*
Y192082D01*
X52645Y192090D01*
X52653Y192111D01*
X52661Y192131D01*
X52674Y192164D01*
X52682Y192197D01*
X52694Y192238D01*
X52711Y192287D01*
X52723Y192341D01*
X52735Y192394D01*
X52743Y192455D01*
X52756Y192521D01*
X52764Y192595D01*
X52772Y192665D01*
X52776Y192824D01*
Y191299D01*
X50156D01*
X50230Y192041D01*
X50226D01*
X50214Y192045D01*
X50193Y192050D01*
X50169Y192054D01*
X50136Y192062D01*
X50103Y192074D01*
X50021Y192099D01*
X49931Y192136D01*
X49837Y192185D01*
X49750Y192242D01*
X49714Y192275D01*
X49677Y192312D01*
Y192316D01*
X49668Y192320D01*
X49660Y192332D01*
X49648Y192349D01*
X49636Y192369D01*
X49623Y192398D01*
X49607Y192427D01*
X49591Y192459D01*
X49558Y192542D01*
X49533Y192636D01*
X49513Y192746D01*
X49504Y192869D01*
Y192906D01*
X49509Y192931D01*
Y192964D01*
X49513Y192997D01*
X49525Y193079D01*
X49541Y193169D01*
X49570Y193263D01*
X49607Y193353D01*
X49632Y193394D01*
X49660Y193431D01*
Y193435D01*
X49668Y193439D01*
X49689Y193460D01*
X49722Y193493D01*
X49763Y193526D01*
X49816Y193558D01*
X49882Y193591D01*
X49951Y193612D01*
X49988Y193620D01*
X50025D01*
X50029D01*
X50050D01*
X50074Y193616D01*
D02*
G37*
%LPC*%
G36*
X52205Y329033D02*
Y327080D01*
X52199Y327124D01*
X52193Y327193D01*
X52187Y327268D01*
X52174Y327362D01*
X52155Y327463D01*
X52130Y327570D01*
X52092Y327689D01*
X52055Y327808D01*
X52004Y327928D01*
X51942Y328053D01*
X51873Y328172D01*
X51791Y328292D01*
X51690Y328405D01*
X51584Y328512D01*
X51577Y328518D01*
X51552Y328537D01*
X51521Y328562D01*
X51471Y328593D01*
X51402Y328637D01*
X51320Y328681D01*
X51226Y328731D01*
X51119Y328782D01*
X50993Y328832D01*
X50849Y328876D01*
X50698Y328920D01*
X50529Y328958D01*
X50340Y328989D01*
X50139Y329014D01*
X49926Y329033D01*
X49693D01*
Y326251D01*
X49687D01*
X49675D01*
X49643D01*
X49612Y326257D01*
X49568Y326263D01*
X49518Y326270D01*
X49411Y326289D01*
X49285Y326320D01*
X49153Y326364D01*
X49028Y326427D01*
X48915Y326515D01*
Y326521D01*
X48902Y326527D01*
X48871Y326558D01*
X48827Y326615D01*
X48783Y326690D01*
X48733Y326785D01*
X48689Y326898D01*
X48657Y327023D01*
X48651Y327092D01*
X48645Y327161D01*
Y327205D01*
X48651Y327249D01*
X48663Y327312D01*
X48676Y327381D01*
X48701Y327450D01*
X48739Y327526D01*
X48783Y327595D01*
X48789Y327601D01*
X48808Y327626D01*
X48846Y327658D01*
X48896Y327695D01*
X48959Y327745D01*
X49040Y327789D01*
X49134Y327833D01*
X49248Y327871D01*
X49059Y328976D01*
X49053D01*
X49034Y328964D01*
X49003Y328951D01*
X48959Y328939D01*
X48908Y328913D01*
X48852Y328882D01*
X48783Y328851D01*
X48714Y328813D01*
X48563Y328719D01*
X48412Y328600D01*
X48262Y328461D01*
X48193Y328380D01*
X48130Y328298D01*
X48123Y328292D01*
X48117Y328279D01*
X48098Y328254D01*
X48079Y328216D01*
X48054Y328172D01*
X48029Y328116D01*
X48004Y328053D01*
X47973Y327984D01*
X47941Y327902D01*
X47916Y327815D01*
X47891Y327720D01*
X47866Y327620D01*
X47847Y327513D01*
X47828Y327394D01*
X47822Y327274D01*
X47816Y327149D01*
Y327099D01*
X47822Y327042D01*
X47828Y326967D01*
X47835Y326879D01*
X47853Y326772D01*
X47872Y326659D01*
X47904Y326533D01*
X47941Y326401D01*
X47991Y326270D01*
X48048Y326138D01*
X48117Y326000D01*
X48199Y325874D01*
X48293Y325748D01*
X48400Y325635D01*
X48525Y325529D01*
X48532Y325522D01*
X48550Y325510D01*
X48582Y325491D01*
X48632Y325466D01*
X48689Y325434D01*
X48751Y325397D01*
X48833Y325359D01*
X48921Y325321D01*
X49021Y325284D01*
X49134Y325246D01*
X49254Y325208D01*
X49379Y325177D01*
X49518Y325152D01*
X49662Y325133D01*
X49819Y325120D01*
X49976Y325114D01*
X47816D01*
X52205D01*
Y329033D01*
D02*
G37*
G36*
X53706Y324342D02*
X47910D01*
Y323312D01*
X48519D01*
X48507Y323299D01*
X48488Y323287D01*
X48469Y323268D01*
X48400Y323211D01*
X48324Y323142D01*
X48236Y323048D01*
X48142Y322948D01*
X48061Y322828D01*
X47985Y322703D01*
Y322696D01*
X47979Y322690D01*
X47973Y322665D01*
X47960Y322640D01*
X47929Y322571D01*
X47904Y322483D01*
X47872Y322376D01*
X47841Y322257D01*
X47822Y322131D01*
X47816Y321999D01*
Y321968D01*
X47822Y321930D01*
Y321880D01*
X47835Y321817D01*
X47847Y321742D01*
X47866Y321660D01*
X47891Y321572D01*
X47916Y321478D01*
X47954Y321377D01*
X48004Y321277D01*
X48061Y321170D01*
X48123Y321070D01*
X48205Y320963D01*
X48293Y320863D01*
X48393Y320762D01*
X48400Y320756D01*
X48419Y320743D01*
X48456Y320712D01*
X48500Y320680D01*
X48563Y320643D01*
X48632Y320599D01*
X48720Y320555D01*
X48814Y320505D01*
X48927Y320454D01*
X49047Y320410D01*
X49185Y320366D01*
X49329Y320329D01*
X49486Y320297D01*
X49656Y320272D01*
X49838Y320253D01*
X50026Y320247D01*
X47816D01*
X53706D01*
Y324342D01*
D02*
G37*
G36*
X36467Y319472D02*
D01*
Y318121D01*
X36460Y318190D01*
X36448Y318285D01*
X36435Y318385D01*
X36410Y318498D01*
X36372Y318618D01*
X36328Y318730D01*
Y318737D01*
X36322Y318743D01*
X36303Y318781D01*
X36278Y318837D01*
X36234Y318900D01*
X36190Y318975D01*
X36127Y319051D01*
X36064Y319126D01*
X35989Y319189D01*
X35983Y319195D01*
X35952Y319214D01*
X35914Y319239D01*
X35857Y319277D01*
X35788Y319315D01*
X35707Y319346D01*
X35619Y319384D01*
X35524Y319409D01*
X35512D01*
X35474Y319421D01*
X35418Y319428D01*
X35336Y319440D01*
X35229Y319453D01*
X35104Y319459D01*
X34953Y319472D01*
X32171D01*
Y318360D01*
X34312D01*
X34319D01*
X34344D01*
X34375D01*
X34426D01*
X34476D01*
X34538Y318354D01*
X34677D01*
X34827Y318341D01*
X34972Y318329D01*
X35041Y318322D01*
X35097Y318310D01*
X35148Y318297D01*
X35192Y318285D01*
X35198D01*
X35223Y318272D01*
X35261Y318253D01*
X35305Y318228D01*
X35355Y318197D01*
X35411Y318159D01*
X35462Y318109D01*
X35506Y318052D01*
X35512Y318046D01*
X35524Y318027D01*
X35543Y317989D01*
X35562Y317946D01*
X35581Y317889D01*
X35600Y317826D01*
X35612Y317757D01*
X35619Y317675D01*
Y317625D01*
X35612Y317575D01*
X35600Y317500D01*
X35581Y317424D01*
X35550Y317336D01*
X35512Y317242D01*
X35455Y317154D01*
X35449Y317142D01*
X35424Y317117D01*
X35393Y317079D01*
X35342Y317029D01*
X35286Y316978D01*
X35210Y316928D01*
X35129Y316884D01*
X35035Y316846D01*
X35022Y316840D01*
X35010D01*
X34984Y316834D01*
X34953Y316828D01*
X34915Y316821D01*
X34871Y316815D01*
X34821Y316809D01*
X34758Y316796D01*
X34689Y316790D01*
X34608Y316784D01*
X34520Y316777D01*
X34426Y316771D01*
X34319D01*
X34199Y316765D01*
X34074D01*
X32171D01*
Y315653D01*
X36372D01*
Y316683D01*
X35750D01*
X35757Y316689D01*
X35782Y316708D01*
X35820Y316740D01*
X35864Y316784D01*
X35914Y316834D01*
X35977Y316903D01*
X36039Y316972D01*
X36108Y317060D01*
X36178Y317154D01*
X36240Y317261D01*
X36303Y317374D01*
X36353Y317493D01*
X36404Y317625D01*
X36435Y317763D01*
X36460Y317908D01*
X36467Y318059D01*
Y315653D01*
D01*
Y319472D01*
D02*
G37*
G36*
X52205Y319644D02*
D01*
Y317760D01*
X52199Y317817D01*
Y317892D01*
X52193Y317968D01*
X52180Y318055D01*
X52161Y318237D01*
X52130Y318420D01*
X52086Y318596D01*
X52055Y318671D01*
X52023Y318746D01*
Y318753D01*
X52017Y318765D01*
X52004Y318784D01*
X51992Y318803D01*
X51954Y318872D01*
X51904Y318947D01*
X51835Y319035D01*
X51759Y319117D01*
X51672Y319198D01*
X51577Y319261D01*
X51565Y319268D01*
X51546Y319274D01*
X51527Y319286D01*
X51496Y319299D01*
X51452Y319311D01*
X51408Y319324D01*
X51351Y319337D01*
X51288Y319349D01*
X51219Y319362D01*
X51138Y319374D01*
X51044Y319387D01*
X50943Y319399D01*
X50836Y319406D01*
X50717Y319412D01*
X50585D01*
X49285Y319393D01*
X49279D01*
X49260D01*
X49235D01*
X49197D01*
X49147D01*
X49097D01*
X48978Y319399D01*
X48846Y319406D01*
X48707Y319412D01*
X48582Y319424D01*
X48519Y319437D01*
X48469Y319443D01*
X48456D01*
X48425Y319456D01*
X48368Y319468D01*
X48299Y319487D01*
X48218Y319512D01*
X48123Y319550D01*
X48017Y319594D01*
X47910Y319644D01*
Y318545D01*
X47916D01*
X47929Y318539D01*
X47954Y318526D01*
X47991Y318514D01*
X48035Y318501D01*
X48092Y318476D01*
X48161Y318457D01*
X48236Y318432D01*
X48243D01*
X48255Y318426D01*
X48293Y318420D01*
X48337Y318407D01*
X48356Y318401D01*
X48368Y318394D01*
X48356Y318382D01*
X48324Y318344D01*
X48274Y318288D01*
X48211Y318212D01*
X48149Y318125D01*
X48079Y318018D01*
X48010Y317905D01*
X47954Y317785D01*
Y317779D01*
X47948Y317773D01*
X47941Y317754D01*
X47935Y317729D01*
X47910Y317666D01*
X47885Y317578D01*
X47860Y317478D01*
X47835Y317358D01*
X47822Y317233D01*
X47816Y317095D01*
Y317032D01*
X47822Y316988D01*
X47828Y316931D01*
X47835Y316868D01*
X47847Y316799D01*
X47860Y316724D01*
X47897Y316561D01*
X47960Y316391D01*
X48004Y316303D01*
X48048Y316222D01*
X48098Y316146D01*
X48161Y316071D01*
X48167Y316065D01*
X48180Y316052D01*
X48199Y316039D01*
X48224Y316014D01*
X48262Y315983D01*
X48299Y315952D01*
X48349Y315920D01*
X48406Y315889D01*
X48469Y315851D01*
X48532Y315820D01*
X48689Y315757D01*
X48770Y315732D01*
X48858Y315719D01*
X48952Y315707D01*
X49053Y315700D01*
X52205D01*
Y319644D01*
D02*
G37*
G36*
Y315512D02*
D01*
Y314840D01*
X52199Y314878D01*
X52193Y314915D01*
X52180Y315010D01*
X52155Y315123D01*
X52118Y315248D01*
X52061Y315380D01*
X51992Y315512D01*
X51025Y315167D01*
X51031Y315154D01*
X51056Y315116D01*
X51081Y315066D01*
X51119Y314997D01*
X51150Y314915D01*
X51182Y314827D01*
X51201Y314740D01*
X51207Y314645D01*
Y314608D01*
X51201Y314564D01*
X51188Y314507D01*
X51175Y314444D01*
X51150Y314382D01*
X51119Y314313D01*
X51075Y314250D01*
X51069Y314243D01*
X51050Y314225D01*
X51019Y314193D01*
X50968Y314156D01*
X50905Y314118D01*
X50824Y314074D01*
X50730Y314030D01*
X50610Y313992D01*
X50604D01*
X50591Y313986D01*
X50573D01*
X50541Y313980D01*
X50503Y313973D01*
X50447Y313967D01*
X50384Y313955D01*
X50309Y313948D01*
X50221Y313942D01*
X50120Y313929D01*
X50007Y313923D01*
X49876Y313917D01*
X49731Y313911D01*
X49574D01*
X49398Y313904D01*
X49204D01*
X47910D01*
Y312793D01*
X52111D01*
Y313823D01*
X51508D01*
X51515Y313829D01*
X51527Y313835D01*
X51546Y313848D01*
X51577Y313867D01*
X51653Y313917D01*
X51741Y313980D01*
X51835Y314055D01*
X51923Y314130D01*
X52004Y314212D01*
X52042Y314256D01*
X52067Y314294D01*
X52074Y314306D01*
X52086Y314331D01*
X52111Y314375D01*
X52136Y314432D01*
X52161Y314507D01*
X52187Y314589D01*
X52199Y314677D01*
X52205Y314777D01*
Y313330D01*
Y315512D01*
D02*
G37*
G36*
X36467Y314529D02*
Y313179D01*
X36460Y313248D01*
X36448Y313342D01*
X36435Y313443D01*
X36410Y313556D01*
X36372Y313675D01*
X36328Y313788D01*
Y313794D01*
X36322Y313801D01*
X36303Y313838D01*
X36278Y313895D01*
X36234Y313958D01*
X36190Y314033D01*
X36127Y314108D01*
X36064Y314184D01*
X35989Y314247D01*
X35983Y314253D01*
X35952Y314272D01*
X35914Y314297D01*
X35857Y314335D01*
X35788Y314372D01*
X35707Y314404D01*
X35619Y314441D01*
X35524Y314466D01*
X35512D01*
X35474Y314479D01*
X35418Y314485D01*
X35336Y314498D01*
X35229Y314510D01*
X35104Y314517D01*
X34953Y314529D01*
X32171D01*
Y313418D01*
X34312D01*
X34319D01*
X34344D01*
X34375D01*
X34426D01*
X34476D01*
X34538Y313411D01*
X34677D01*
X34827Y313399D01*
X34972Y313386D01*
X35041Y313380D01*
X35097Y313367D01*
X35148Y313355D01*
X35192Y313342D01*
X35198D01*
X35223Y313330D01*
X35261Y313311D01*
X35305Y313286D01*
X35355Y313254D01*
X35411Y313217D01*
X35462Y313166D01*
X35506Y313110D01*
X35512Y313104D01*
X35524Y313085D01*
X35543Y313047D01*
X35562Y313003D01*
X35581Y312947D01*
X35600Y312884D01*
X35612Y312815D01*
X35619Y312733D01*
Y312683D01*
X35612Y312633D01*
X35600Y312557D01*
X35581Y312482D01*
X35550Y312394D01*
X35512Y312300D01*
X35455Y312212D01*
X35449Y312199D01*
X35424Y312174D01*
X35393Y312137D01*
X35342Y312086D01*
X35286Y312036D01*
X35210Y311986D01*
X35129Y311942D01*
X35035Y311904D01*
X35022Y311898D01*
X35010D01*
X34984Y311892D01*
X34953Y311885D01*
X34915Y311879D01*
X34871Y311873D01*
X34821Y311866D01*
X34758Y311854D01*
X34689Y311848D01*
X34608Y311841D01*
X34520Y311835D01*
X34426Y311829D01*
X34319D01*
X34199Y311823D01*
X34074D01*
X32171D01*
Y310711D01*
X36372D01*
Y311741D01*
X35750D01*
X35757Y311747D01*
X35782Y311766D01*
X35820Y311797D01*
X35864Y311841D01*
X35914Y311892D01*
X35977Y311961D01*
X36039Y312030D01*
X36108Y312118D01*
X36178Y312212D01*
X36240Y312319D01*
X36303Y312432D01*
X36353Y312551D01*
X36404Y312683D01*
X36435Y312821D01*
X36460Y312965D01*
X36467Y313116D01*
Y314529D01*
D02*
G37*
G36*
X52205Y311744D02*
D01*
Y309452D01*
X52199Y309489D01*
X52193Y309546D01*
X52187Y309609D01*
X52168Y309690D01*
X52149Y309772D01*
X52118Y309866D01*
X52086Y309967D01*
X52036Y310073D01*
X51986Y310180D01*
X51916Y310287D01*
X51841Y310394D01*
X51747Y310501D01*
X51640Y310601D01*
X51521Y310701D01*
X52111D01*
Y311744D01*
X52205D01*
X48218D01*
X48155Y311738D01*
X48086D01*
X48010Y311731D01*
X47922D01*
X47747Y311713D01*
X47565Y311694D01*
X47389Y311662D01*
X47313Y311644D01*
X47238Y311618D01*
X47232D01*
X47219Y311612D01*
X47200Y311606D01*
X47175Y311593D01*
X47112Y311568D01*
X47024Y311530D01*
X46937Y311480D01*
X46836Y311418D01*
X46742Y311348D01*
X46660Y311273D01*
X46654Y311260D01*
X46622Y311235D01*
X46585Y311185D01*
X46541Y311116D01*
X46484Y311034D01*
X46428Y310934D01*
X46378Y310815D01*
X46327Y310683D01*
Y310676D01*
X46321Y310664D01*
X46315Y310645D01*
X46308Y310614D01*
X46302Y310582D01*
X46290Y310538D01*
X46277Y310482D01*
X46271Y310425D01*
X46258Y310362D01*
X46246Y310293D01*
X46227Y310130D01*
X46214Y309948D01*
X46208Y309747D01*
Y309647D01*
X46214Y309571D01*
X46221Y309483D01*
X46227Y309383D01*
X46239Y309276D01*
X46252Y309157D01*
X46296Y308906D01*
X46327Y308780D01*
X46365Y308661D01*
X46409Y308541D01*
X46459Y308428D01*
X46516Y308321D01*
X46578Y308233D01*
X46585Y308227D01*
X46597Y308215D01*
X46616Y308190D01*
X46648Y308164D01*
X46679Y308133D01*
X46723Y308095D01*
X46773Y308051D01*
X46830Y308014D01*
X46892Y307970D01*
X46968Y307926D01*
X47125Y307857D01*
X47213Y307832D01*
X47307Y307806D01*
X47407Y307794D01*
X47508Y307788D01*
X47521D01*
X47546D01*
X47590D01*
X47640Y307794D01*
X47483Y309062D01*
X47477D01*
X47445Y309069D01*
X47407Y309081D01*
X47363Y309094D01*
X47313Y309113D01*
X47263Y309138D01*
X47219Y309169D01*
X47181Y309207D01*
X47175Y309213D01*
X47163Y309238D01*
X47144Y309276D01*
X47119Y309326D01*
X47093Y309395D01*
X47075Y309483D01*
X47062Y309584D01*
X47056Y309703D01*
Y309772D01*
X47062Y309810D01*
Y309854D01*
X47075Y309948D01*
X47087Y310055D01*
X47112Y310161D01*
X47144Y310268D01*
X47188Y310356D01*
X47194Y310362D01*
X47207Y310381D01*
X47225Y310406D01*
X47257Y310438D01*
X47294Y310475D01*
X47345Y310513D01*
X47401Y310544D01*
X47470Y310576D01*
X47477D01*
X47502Y310582D01*
X47533Y310595D01*
X47590Y310607D01*
X47659Y310614D01*
X47747Y310626D01*
X47853Y310632D01*
X47979D01*
X48601D01*
X48594Y310626D01*
X48569Y310607D01*
X48538Y310582D01*
X48494Y310544D01*
X48444Y310494D01*
X48381Y310432D01*
X48318Y310362D01*
X48255Y310287D01*
X48193Y310199D01*
X48130Y310105D01*
X48073Y309998D01*
X48017Y309885D01*
X47973Y309772D01*
X47941Y309640D01*
X47916Y309508D01*
X47910Y309370D01*
Y309332D01*
X47916Y309289D01*
X47922Y309232D01*
X47935Y309163D01*
X47948Y309075D01*
X47973Y308987D01*
X47998Y308887D01*
X48035Y308780D01*
X48086Y308673D01*
X48142Y308560D01*
X48211Y308453D01*
X48293Y308340D01*
X48387Y308233D01*
X48500Y308127D01*
X48626Y308032D01*
X48632Y308026D01*
X48651Y308014D01*
X48682Y307995D01*
X48726Y307976D01*
X48783Y307945D01*
X48852Y307913D01*
X48927Y307875D01*
X49015Y307844D01*
X49109Y307806D01*
X49216Y307769D01*
X49335Y307737D01*
X49461Y307712D01*
X49593Y307687D01*
X49731Y307668D01*
X49876Y307656D01*
X50033Y307649D01*
X46208D01*
Y290361D01*
D01*
Y307649D01*
X52205D01*
Y311744D01*
D02*
G37*
G36*
X32171Y309869D02*
Y308770D01*
X32177D01*
X32190Y308764D01*
X32215Y308752D01*
X32253Y308739D01*
X32296Y308727D01*
X32353Y308701D01*
X32422Y308682D01*
X32498Y308657D01*
X32504D01*
X32516Y308651D01*
X32554Y308645D01*
X32598Y308632D01*
X32617Y308626D01*
X32629Y308620D01*
X32617Y308607D01*
X32585Y308570D01*
X32535Y308513D01*
X32472Y308438D01*
X32410Y308350D01*
X32340Y308243D01*
X32271Y308130D01*
X32215Y308011D01*
Y308004D01*
X32209Y307998D01*
X32202Y307979D01*
X32196Y307954D01*
X32171Y307891D01*
X32146Y307803D01*
X32121Y307703D01*
X32096Y307583D01*
X32083Y307458D01*
X32077Y307320D01*
Y305926D01*
D01*
Y307257D01*
X32083Y307213D01*
X32089Y307156D01*
X32096Y307094D01*
X32108Y307025D01*
X32121Y306949D01*
X32158Y306786D01*
X32221Y306616D01*
X32265Y306528D01*
X32309Y306447D01*
X32359Y306371D01*
X32422Y306296D01*
X32428Y306290D01*
X32441Y306277D01*
X32460Y306265D01*
X32485Y306240D01*
X32523Y306208D01*
X32560Y306177D01*
X32610Y306145D01*
X32667Y306114D01*
X32730Y306076D01*
X32793Y306045D01*
X32950Y305982D01*
X33031Y305957D01*
X33119Y305944D01*
X33213Y305932D01*
X33314Y305926D01*
X36467D01*
X33377D01*
X33439Y305932D01*
X33527Y305944D01*
X33628Y305970D01*
X33735Y305995D01*
X33841Y306039D01*
X33948Y306095D01*
X33955D01*
X33961Y306101D01*
X33992Y306126D01*
X34042Y306164D01*
X34105Y306221D01*
X34174Y306284D01*
X34243Y306365D01*
X34312Y306459D01*
X34369Y306566D01*
Y306572D01*
X34375Y306579D01*
X34381Y306598D01*
X34394Y306623D01*
X34407Y306654D01*
X34426Y306692D01*
X34438Y306742D01*
X34457Y306792D01*
X34476Y306849D01*
X34501Y306918D01*
X34520Y306993D01*
X34545Y307069D01*
X34564Y307156D01*
X34589Y307251D01*
X34614Y307345D01*
X34633Y307452D01*
Y307458D01*
X34639Y307483D01*
X34645Y307527D01*
X34658Y307577D01*
X34670Y307640D01*
X34683Y307715D01*
X34702Y307797D01*
X34721Y307885D01*
X34765Y308061D01*
X34808Y308243D01*
X34834Y308325D01*
X34859Y308406D01*
X34884Y308475D01*
X34909Y308538D01*
X35016D01*
X35022D01*
X35028D01*
X35072D01*
X35129Y308532D01*
X35198Y308519D01*
X35273Y308500D01*
X35349Y308469D01*
X35424Y308431D01*
X35480Y308375D01*
X35487Y308368D01*
X35499Y308343D01*
X35524Y308299D01*
X35550Y308243D01*
X35575Y308161D01*
X35600Y308054D01*
X35606Y307992D01*
X35612Y307929D01*
X35619Y307854D01*
Y307722D01*
X35612Y307665D01*
X35606Y307602D01*
X35587Y307527D01*
X35568Y307445D01*
X35537Y307370D01*
X35499Y307301D01*
X35493Y307295D01*
X35474Y307276D01*
X35449Y307244D01*
X35405Y307207D01*
X35349Y307163D01*
X35273Y307119D01*
X35185Y307075D01*
X35085Y307037D01*
X35267Y306039D01*
X35273D01*
X35292Y306045D01*
X35324Y306058D01*
X35368Y306070D01*
X35418Y306089D01*
X35474Y306114D01*
X35606Y306177D01*
X35757Y306258D01*
X35908Y306359D01*
X36046Y306478D01*
X36115Y306547D01*
X36171Y306623D01*
X36178Y306629D01*
X36184Y306642D01*
X36196Y306667D01*
X36215Y306698D01*
X36240Y306742D01*
X36266Y306799D01*
X36291Y306861D01*
X36322Y306930D01*
X36347Y307018D01*
X36372Y307106D01*
X36397Y307207D01*
X36423Y307320D01*
X36441Y307439D01*
X36454Y307571D01*
X36467Y307709D01*
Y307985D01*
X36460Y308042D01*
Y308117D01*
X36454Y308193D01*
X36441Y308281D01*
X36423Y308463D01*
X36391Y308645D01*
X36347Y308821D01*
X36316Y308896D01*
X36284Y308971D01*
Y308978D01*
X36278Y308990D01*
X36266Y309009D01*
X36253Y309028D01*
X36215Y309097D01*
X36165Y309172D01*
X36096Y309260D01*
X36021Y309342D01*
X35933Y309423D01*
X35838Y309486D01*
X35826Y309493D01*
X35807Y309499D01*
X35788Y309511D01*
X35757Y309524D01*
X35713Y309537D01*
X35669Y309549D01*
X35612Y309562D01*
X35550Y309574D01*
X35480Y309587D01*
X35399Y309599D01*
X35305Y309612D01*
X35204Y309625D01*
X35097Y309631D01*
X34978Y309637D01*
X34846D01*
X33546Y309618D01*
X33540D01*
X33521D01*
X33496D01*
X33458D01*
X33408D01*
X33358D01*
X33239Y309625D01*
X33107Y309631D01*
X32969Y309637D01*
X32843Y309650D01*
X32780Y309662D01*
X32730Y309668D01*
X32717D01*
X32686Y309681D01*
X32629Y309694D01*
X32560Y309712D01*
X32479Y309738D01*
X32384Y309775D01*
X32278Y309819D01*
X32171Y309869D01*
D02*
G37*
G36*
X52205Y307021D02*
Y305294D01*
X52199Y305332D01*
Y305389D01*
X52187Y305451D01*
X52174Y305521D01*
X52155Y305602D01*
X52136Y305696D01*
X52105Y305791D01*
X52067Y305891D01*
X52017Y305992D01*
X51960Y306098D01*
X51898Y306205D01*
X51816Y306306D01*
X51728Y306406D01*
X51628Y306506D01*
X51621Y306513D01*
X51603Y306532D01*
X51571Y306557D01*
X51521Y306588D01*
X51464Y306626D01*
X51395Y306670D01*
X51307Y306714D01*
X51213Y306764D01*
X51106Y306814D01*
X50987Y306858D01*
X50855Y306902D01*
X50711Y306940D01*
X50560Y306971D01*
X50397Y307003D01*
X50221Y307015D01*
X50033Y307021D01*
X49989D01*
X49932Y307015D01*
X49857D01*
X49769Y307009D01*
X49668Y306996D01*
X49555Y306978D01*
X49430Y306959D01*
X49304Y306927D01*
X49166Y306896D01*
X49034Y306852D01*
X48896Y306802D01*
X48764Y306745D01*
X48632Y306676D01*
X48507Y306594D01*
X48393Y306506D01*
X48387Y306500D01*
X48368Y306481D01*
X48343Y306456D01*
X48305Y306412D01*
X48262Y306362D01*
X48211Y306306D01*
X48161Y306237D01*
X48105Y306155D01*
X48048Y306073D01*
X47998Y305973D01*
X47948Y305872D01*
X47904Y305759D01*
X47872Y305646D01*
X47841Y305521D01*
X47822Y305395D01*
X47816Y305257D01*
Y305200D01*
X47822Y305131D01*
X47835Y305043D01*
X47847Y304949D01*
X47872Y304842D01*
X47910Y304729D01*
X47954Y304623D01*
X47960Y304610D01*
X47979Y304572D01*
X48017Y304516D01*
X48067Y304440D01*
X48130Y304352D01*
X48211Y304252D01*
X48312Y304145D01*
X48425Y304032D01*
X46315D01*
Y302921D01*
X52111D01*
Y303957D01*
X51496D01*
X51502Y303969D01*
X51540Y303994D01*
X51603Y304039D01*
X51672Y304101D01*
X51753Y304177D01*
X51841Y304271D01*
X51929Y304378D01*
X52004Y304497D01*
Y304503D01*
X52011Y304516D01*
X52023Y304535D01*
X52036Y304560D01*
X52048Y304591D01*
X52067Y304629D01*
X52105Y304723D01*
X52143Y304836D01*
X52174Y304968D01*
X52199Y305112D01*
X52205Y305263D01*
Y303056D01*
Y307021D01*
D02*
G37*
G36*
X27620Y304613D02*
X27551D01*
X27520Y304607D01*
X27476D01*
X27382Y304594D01*
X27262Y304575D01*
X27137Y304550D01*
X27005Y304519D01*
X26873Y304469D01*
X26867D01*
X26861Y304462D01*
X26835Y304456D01*
X26810Y304444D01*
X26779Y304425D01*
X26741Y304406D01*
X26647Y304362D01*
X26540Y304299D01*
X26415Y304224D01*
X26276Y304130D01*
X26132Y304023D01*
X26120Y304010D01*
X26082Y303985D01*
X26025Y303928D01*
X25944Y303859D01*
X25894Y303809D01*
X25837Y303759D01*
X25780Y303696D01*
X25711Y303633D01*
X25642Y303558D01*
X25561Y303476D01*
X25479Y303389D01*
X25391Y303294D01*
X25385Y303288D01*
X25372Y303269D01*
X25347Y303244D01*
X25316Y303213D01*
X25278Y303169D01*
X25234Y303118D01*
X25134Y303012D01*
X25027Y302899D01*
X24920Y302792D01*
X24870Y302742D01*
X24826Y302698D01*
X24782Y302660D01*
X24750Y302629D01*
X24744Y302622D01*
X24725Y302604D01*
X24694Y302578D01*
X24656Y302547D01*
X24606Y302516D01*
X24556Y302478D01*
X24449Y302402D01*
Y304613D01*
X23419D01*
Y300719D01*
X29234D01*
X23425D01*
X23444Y300726D01*
X23476D01*
X23520Y300732D01*
X23570Y300745D01*
X23633Y300757D01*
X23702Y300770D01*
X23777Y300788D01*
X23947Y300839D01*
X24135Y300908D01*
X24330Y300990D01*
X24524Y301096D01*
X24531Y301103D01*
X24550Y301109D01*
X24581Y301134D01*
X24619Y301159D01*
X24669Y301197D01*
X24738Y301247D01*
X24807Y301304D01*
X24895Y301373D01*
X24989Y301448D01*
X25090Y301542D01*
X25209Y301643D01*
X25328Y301756D01*
X25460Y301881D01*
X25605Y302026D01*
X25755Y302176D01*
X25912Y302346D01*
X25919Y302352D01*
X25944Y302377D01*
X25981Y302415D01*
X26025Y302465D01*
X26082Y302528D01*
X26145Y302591D01*
X26220Y302666D01*
X26295Y302742D01*
X26452Y302905D01*
X26609Y303056D01*
X26678Y303118D01*
X26748Y303181D01*
X26810Y303232D01*
X26861Y303269D01*
X26867D01*
X26873Y303282D01*
X26892Y303288D01*
X26917Y303307D01*
X26986Y303344D01*
X27074Y303389D01*
X27175Y303426D01*
X27288Y303464D01*
X27413Y303489D01*
X27539Y303502D01*
X27545D01*
X27558D01*
X27577D01*
X27602D01*
X27664Y303489D01*
X27752Y303476D01*
X27840Y303451D01*
X27934Y303420D01*
X28029Y303370D01*
X28110Y303301D01*
X28117Y303294D01*
X28142Y303263D01*
X28173Y303219D01*
X28211Y303156D01*
X28249Y303075D01*
X28280Y302980D01*
X28305Y302873D01*
X28311Y302748D01*
Y302691D01*
X28299Y302629D01*
X28286Y302547D01*
X28261Y302459D01*
X28223Y302365D01*
X28167Y302271D01*
X28098Y302189D01*
X28085Y302183D01*
X28060Y302158D01*
X28010Y302126D01*
X27934Y302082D01*
X27840Y302045D01*
X27721Y302007D01*
X27577Y301975D01*
X27495Y301963D01*
X27407Y301957D01*
X27514Y300851D01*
X27526D01*
X27551Y300858D01*
X27602Y300864D01*
X27664Y300876D01*
X27740Y300889D01*
X27828Y300908D01*
X27922Y300933D01*
X28022Y300964D01*
X28129Y301002D01*
X28236Y301046D01*
X28349Y301096D01*
X28456Y301153D01*
X28563Y301216D01*
X28663Y301291D01*
X28751Y301373D01*
X28833Y301467D01*
X28839Y301473D01*
X28851Y301492D01*
X28870Y301523D01*
X28895Y301561D01*
X28927Y301611D01*
X28958Y301674D01*
X28996Y301743D01*
X29033Y301825D01*
X29071Y301919D01*
X29109Y302013D01*
X29140Y302120D01*
X29172Y302239D01*
X29197Y302359D01*
X29216Y302490D01*
X29228Y302629D01*
X29234Y302773D01*
Y302855D01*
X29228Y302918D01*
X29222Y302987D01*
X29209Y303068D01*
X29197Y303162D01*
X29178Y303263D01*
X29153Y303370D01*
X29121Y303476D01*
X29084Y303589D01*
X29040Y303702D01*
X28983Y303809D01*
X28920Y303916D01*
X28851Y304023D01*
X28770Y304117D01*
X28763Y304123D01*
X28751Y304136D01*
X28719Y304161D01*
X28688Y304192D01*
X28644Y304230D01*
X28588Y304274D01*
X28525Y304318D01*
X28449Y304368D01*
X28374Y304412D01*
X28286Y304456D01*
X28192Y304500D01*
X28091Y304538D01*
X27978Y304569D01*
X27865Y304594D01*
X27746Y304607D01*
X27620Y304613D01*
D02*
G37*
G36*
X32171Y301467D02*
D01*
D01*
D01*
D02*
G37*
G36*
Y301448D02*
Y301429D01*
D01*
Y301448D01*
D02*
G37*
G36*
Y301366D02*
Y301335D01*
D01*
Y301366D01*
D02*
G37*
G36*
Y301329D02*
Y301310D01*
D01*
Y301329D01*
D02*
G37*
G36*
Y301272D02*
Y301266D01*
D01*
Y301272D01*
D02*
G37*
G36*
Y301247D02*
Y301228D01*
D01*
Y301247D01*
D02*
G37*
G36*
Y301222D02*
Y301216D01*
D01*
Y301222D01*
D02*
G37*
G36*
Y301178D02*
Y301159D01*
D01*
Y301178D01*
D02*
G37*
G36*
Y301140D02*
Y301134D01*
D01*
Y301140D01*
D02*
G37*
G36*
Y300964D02*
Y300933D01*
D01*
Y300964D01*
D02*
G37*
G36*
Y300889D02*
Y300864D01*
D01*
Y300889D01*
D02*
G37*
G36*
Y300858D02*
Y300851D01*
D01*
Y300858D01*
D02*
G37*
G36*
Y300845D02*
Y300795D01*
D01*
Y300845D01*
D02*
G37*
G36*
Y300773D02*
Y300770D01*
D01*
Y300773D01*
D02*
G37*
G36*
Y300760D02*
Y300745D01*
D01*
Y300760D01*
D02*
G37*
G36*
Y300738D02*
Y300732D01*
D01*
Y300738D01*
D02*
G37*
G36*
Y300666D02*
Y300654D01*
D01*
Y300666D01*
D02*
G37*
G36*
Y300647D02*
Y300628D01*
D01*
Y300647D01*
D02*
G37*
G36*
Y300622D02*
Y300616D01*
D01*
Y300622D01*
D02*
G37*
G36*
Y300610D02*
Y300603D01*
D01*
Y300610D01*
D02*
G37*
G36*
Y300566D02*
Y300522D01*
D01*
Y300566D01*
D02*
G37*
G36*
Y300421D02*
Y300393D01*
D01*
Y300421D01*
D02*
G37*
G36*
Y300387D02*
Y300371D01*
D01*
Y300387D01*
D02*
G37*
G36*
Y300343D02*
Y300333D01*
D01*
Y300343D01*
D02*
G37*
G36*
Y300330D02*
Y300311D01*
D01*
Y300330D01*
D02*
G37*
G36*
Y300236D02*
Y300217D01*
D01*
Y300236D01*
D02*
G37*
G36*
Y300211D02*
Y300192D01*
D01*
Y300211D01*
D02*
G37*
G36*
Y300164D02*
Y300157D01*
D01*
Y300164D01*
D02*
G37*
G36*
Y300154D02*
Y300135D01*
D01*
Y300154D01*
D02*
G37*
G36*
Y300126D02*
Y300123D01*
D01*
Y300126D01*
D02*
G37*
G36*
Y300117D02*
Y300110D01*
D01*
Y300117D01*
D02*
G37*
G36*
Y300101D02*
Y300098D01*
D01*
Y300101D01*
D02*
G37*
G36*
Y300092D02*
Y300073D01*
D01*
Y300092D01*
D02*
G37*
G36*
Y300066D02*
Y300063D01*
D01*
Y300066D01*
D02*
G37*
G36*
X36467Y305109D02*
X32171D01*
Y301473D01*
X34469D01*
X34476D01*
X34495D01*
X34526D01*
X34570D01*
X34620D01*
X34677D01*
X34802Y301467D01*
X34934Y301461D01*
X35066Y301448D01*
X35122Y301442D01*
X35179Y301429D01*
X35223Y301423D01*
X35261Y301410D01*
X35267D01*
X35292Y301398D01*
X35324Y301385D01*
X35361Y301366D01*
X35449Y301310D01*
X35493Y301272D01*
X35531Y301228D01*
X35537Y301222D01*
X35543Y301203D01*
X35556Y301178D01*
X35575Y301140D01*
X35594Y301090D01*
X35606Y301033D01*
X35612Y300964D01*
X35619Y300889D01*
Y300845D01*
X35612Y300795D01*
X35600Y300732D01*
X35581Y300663D01*
X35556Y300588D01*
X35524Y300506D01*
X35474Y300424D01*
X35468Y300418D01*
X35449Y300393D01*
X35418Y300355D01*
X35374Y300311D01*
X35317Y300267D01*
X35248Y300217D01*
X35166Y300173D01*
X35072Y300135D01*
X35060Y300129D01*
X35047D01*
X35022Y300123D01*
X34997Y300117D01*
X34959Y300110D01*
X34915Y300098D01*
X34871Y300092D01*
X34815Y300085D01*
X34752Y300073D01*
X34677Y300066D01*
X34601Y300060D01*
X34513Y300054D01*
X34419D01*
X34319Y300047D01*
X34212D01*
X32171D01*
Y298936D01*
X36372D01*
Y299960D01*
X35794D01*
X35801Y299966D01*
X35826Y299985D01*
X35857Y300016D01*
X35901Y300060D01*
X35952Y300110D01*
X36008Y300173D01*
X36071Y300249D01*
X36134Y300330D01*
X36196Y300418D01*
X36253Y300518D01*
X36309Y300625D01*
X36360Y300738D01*
X36404Y300864D01*
X36435Y300990D01*
X36460Y301128D01*
X36467Y301266D01*
Y299256D01*
Y301266D01*
Y301335D01*
X36460Y301366D01*
Y301410D01*
X36448Y301504D01*
X36423Y301611D01*
X36397Y301730D01*
X36353Y301850D01*
X36297Y301963D01*
Y301969D01*
X36291Y301975D01*
X36266Y302013D01*
X36228Y302070D01*
X36171Y302139D01*
X36102Y302214D01*
X36014Y302296D01*
X35914Y302377D01*
X35794Y302453D01*
X35801Y302459D01*
X35807Y302465D01*
X35826Y302478D01*
X35851Y302503D01*
X35908Y302559D01*
X35983Y302629D01*
X36064Y302723D01*
X36152Y302823D01*
X36228Y302930D01*
X36297Y303049D01*
Y303056D01*
X36303Y303062D01*
X36316Y303081D01*
X36322Y303106D01*
X36353Y303169D01*
X36385Y303257D01*
X36410Y303357D01*
X36441Y303476D01*
X36460Y303602D01*
X36467Y303734D01*
Y303809D01*
X36460Y303853D01*
X36454Y303897D01*
X36441Y304004D01*
X36423Y304123D01*
X36385Y304255D01*
X36341Y304387D01*
X36278Y304513D01*
Y304519D01*
X36272Y304525D01*
X36240Y304563D01*
X36196Y304619D01*
X36140Y304695D01*
X36058Y304770D01*
X35964Y304852D01*
X35851Y304927D01*
X35725Y304990D01*
X35713Y304996D01*
X35694Y305002D01*
X35675Y305009D01*
X35644Y305015D01*
X35606Y305028D01*
X35568Y305040D01*
X35518Y305053D01*
X35455Y305059D01*
X35393Y305071D01*
X35324Y305084D01*
X35242Y305090D01*
X35160Y305097D01*
X35066Y305103D01*
X34959Y305109D01*
X36467D01*
D02*
G37*
G36*
X45049Y301329D02*
X39233D01*
Y300217D01*
X43410D01*
X43403Y300211D01*
X43385Y300192D01*
X43353Y300154D01*
X43315Y300110D01*
X43271Y300054D01*
X43215Y299978D01*
X43152Y299903D01*
X43089Y299809D01*
X43020Y299708D01*
X42951Y299602D01*
X42882Y299482D01*
X42813Y299357D01*
X42744Y299225D01*
X42681Y299080D01*
X42625Y298936D01*
X42568Y298785D01*
X39233D01*
X45049D01*
Y301329D01*
D02*
G37*
G36*
X52111Y301803D02*
X47910D01*
Y300773D01*
X48532D01*
X48525Y300760D01*
X48507Y300748D01*
X48481Y300729D01*
X48419Y300679D01*
X48343Y300610D01*
X48262Y300522D01*
X48167Y300421D01*
X48086Y300296D01*
X48004Y300164D01*
Y300157D01*
X47998Y300145D01*
X47985Y300126D01*
X47973Y300101D01*
X47960Y300063D01*
X47948Y300026D01*
X47910Y299925D01*
X47879Y299812D01*
X47847Y299674D01*
X47822Y299529D01*
X47816Y299379D01*
Y299310D01*
X47822Y299272D01*
X47828Y299228D01*
X47841Y299128D01*
X47860Y299008D01*
X47891Y298883D01*
X47935Y298751D01*
X47998Y298619D01*
Y298612D01*
X48004Y298606D01*
X48017Y298587D01*
X48035Y298562D01*
X48073Y298506D01*
X48136Y298437D01*
X48205Y298355D01*
X48299Y298273D01*
X48400Y298198D01*
X48519Y298135D01*
X48525D01*
X48538Y298129D01*
X48557Y298123D01*
X48582Y298110D01*
X48613Y298104D01*
X48657Y298091D01*
X48707Y298079D01*
X48764Y298066D01*
X48827Y298047D01*
X48896Y298035D01*
X48971Y298022D01*
X49053Y298016D01*
X49141Y298003D01*
X49241Y297997D01*
X49448Y297991D01*
X47816D01*
X52111D01*
Y301803D01*
D02*
G37*
G36*
X36467Y297925D02*
X36372D01*
D01*
X36467D01*
D02*
G37*
G36*
X27620Y300110D02*
X27551D01*
X27520Y300104D01*
X27476D01*
X27382Y300092D01*
X27262Y300073D01*
X27137Y300047D01*
X27005Y300016D01*
X26873Y299966D01*
X26867D01*
X26861Y299960D01*
X26835Y299953D01*
X26810Y299941D01*
X26779Y299922D01*
X26741Y299903D01*
X26647Y299859D01*
X26540Y299796D01*
X26415Y299721D01*
X26276Y299627D01*
X26132Y299520D01*
X26120Y299507D01*
X26082Y299482D01*
X26025Y299426D01*
X25944Y299357D01*
X25894Y299307D01*
X25837Y299256D01*
X25780Y299193D01*
X25711Y299131D01*
X25642Y299055D01*
X25561Y298974D01*
X25479Y298886D01*
X25391Y298792D01*
X25385Y298785D01*
X25372Y298766D01*
X25347Y298741D01*
X25316Y298710D01*
X25278Y298666D01*
X25234Y298616D01*
X25134Y298509D01*
X25027Y298396D01*
X24920Y298289D01*
X24870Y298239D01*
X24826Y298195D01*
X24782Y298157D01*
X24750Y298126D01*
X24744Y298119D01*
X24725Y298101D01*
X24694Y298076D01*
X24656Y298044D01*
X24606Y298013D01*
X24556Y297975D01*
X24449Y297900D01*
Y300110D01*
X23419D01*
Y296217D01*
X29234D01*
X23425D01*
X23444Y296223D01*
X23476D01*
X23520Y296229D01*
X23570Y296242D01*
X23633Y296254D01*
X23702Y296267D01*
X23777Y296286D01*
X23947Y296336D01*
X24135Y296405D01*
X24330Y296487D01*
X24524Y296593D01*
X24531Y296600D01*
X24550Y296606D01*
X24581Y296631D01*
X24619Y296656D01*
X24669Y296694D01*
X24738Y296744D01*
X24807Y296801D01*
X24895Y296870D01*
X24989Y296945D01*
X25090Y297039D01*
X25209Y297140D01*
X25328Y297253D01*
X25460Y297378D01*
X25605Y297523D01*
X25755Y297674D01*
X25912Y297843D01*
X25919Y297849D01*
X25944Y297875D01*
X25981Y297912D01*
X26025Y297963D01*
X26082Y298025D01*
X26145Y298088D01*
X26220Y298164D01*
X26295Y298239D01*
X26452Y298402D01*
X26609Y298553D01*
X26678Y298616D01*
X26748Y298678D01*
X26810Y298729D01*
X26861Y298766D01*
X26867D01*
X26873Y298779D01*
X26892Y298785D01*
X26917Y298804D01*
X26986Y298842D01*
X27074Y298886D01*
X27175Y298923D01*
X27288Y298961D01*
X27413Y298986D01*
X27539Y298999D01*
X27545D01*
X27558D01*
X27577D01*
X27602D01*
X27664Y298986D01*
X27752Y298974D01*
X27840Y298949D01*
X27934Y298917D01*
X28029Y298867D01*
X28110Y298798D01*
X28117Y298792D01*
X28142Y298760D01*
X28173Y298716D01*
X28211Y298653D01*
X28249Y298572D01*
X28280Y298478D01*
X28305Y298371D01*
X28311Y298245D01*
Y298189D01*
X28299Y298126D01*
X28286Y298044D01*
X28261Y297956D01*
X28223Y297862D01*
X28167Y297768D01*
X28098Y297686D01*
X28085Y297680D01*
X28060Y297655D01*
X28010Y297623D01*
X27934Y297580D01*
X27840Y297542D01*
X27721Y297504D01*
X27577Y297473D01*
X27495Y297460D01*
X27407Y297454D01*
X27514Y296349D01*
X27526D01*
X27551Y296355D01*
X27602Y296361D01*
X27664Y296374D01*
X27740Y296386D01*
X27828Y296405D01*
X27922Y296430D01*
X28022Y296462D01*
X28129Y296499D01*
X28236Y296543D01*
X28349Y296593D01*
X28456Y296650D01*
X28563Y296713D01*
X28663Y296788D01*
X28751Y296870D01*
X28833Y296964D01*
X28839Y296970D01*
X28851Y296989D01*
X28870Y297021D01*
X28895Y297058D01*
X28927Y297109D01*
X28958Y297171D01*
X28996Y297240D01*
X29033Y297322D01*
X29071Y297416D01*
X29109Y297510D01*
X29140Y297617D01*
X29172Y297737D01*
X29197Y297856D01*
X29216Y297988D01*
X29228Y298126D01*
X29234Y298270D01*
Y298352D01*
X29228Y298415D01*
X29222Y298484D01*
X29209Y298565D01*
X29197Y298660D01*
X29178Y298760D01*
X29153Y298867D01*
X29121Y298974D01*
X29084Y299087D01*
X29040Y299200D01*
X28983Y299307D01*
X28920Y299413D01*
X28851Y299520D01*
X28770Y299614D01*
X28763Y299621D01*
X28751Y299633D01*
X28719Y299658D01*
X28688Y299690D01*
X28644Y299727D01*
X28588Y299771D01*
X28525Y299815D01*
X28449Y299865D01*
X28374Y299909D01*
X28286Y299953D01*
X28192Y299997D01*
X28091Y300035D01*
X27978Y300066D01*
X27865Y300092D01*
X27746Y300104D01*
X27620Y300110D01*
D02*
G37*
G36*
X45049Y297743D02*
D01*
Y295896D01*
X45042Y295940D01*
Y295997D01*
X45030Y296066D01*
X45017Y296148D01*
X44998Y296242D01*
X44973Y296342D01*
X44942Y296443D01*
X44904Y296550D01*
X44854Y296663D01*
X44798Y296769D01*
X44728Y296876D01*
X44647Y296983D01*
X44553Y297083D01*
X44446Y297178D01*
X44440Y297184D01*
X44414Y297203D01*
X44370Y297228D01*
X44308Y297266D01*
X44232Y297309D01*
X44132Y297360D01*
X44019Y297410D01*
X43881Y297460D01*
X43730Y297510D01*
X43554Y297567D01*
X43359Y297611D01*
X43146Y297655D01*
X42913Y297692D01*
X42656Y297718D01*
X42380Y297737D01*
X42085Y297743D01*
X45049D01*
X41971D01*
X41928Y297737D01*
X41877D01*
X41815D01*
X41683Y297724D01*
X41526Y297711D01*
X41356Y297692D01*
X41174Y297674D01*
X40979Y297642D01*
X40785Y297605D01*
X40584Y297554D01*
X40389Y297504D01*
X40207Y297435D01*
X40025Y297360D01*
X39861Y297272D01*
X39717Y297171D01*
X39711Y297165D01*
X39692Y297152D01*
X39661Y297121D01*
X39623Y297083D01*
X39579Y297039D01*
X39529Y296977D01*
X39478Y296907D01*
X39422Y296832D01*
X39365Y296744D01*
X39315Y296644D01*
X39265Y296537D01*
X39221Y296418D01*
X39183Y296292D01*
X39152Y296154D01*
X39133Y296009D01*
X39127Y295859D01*
Y295821D01*
X39133Y295777D01*
X39139Y295721D01*
X39145Y295645D01*
X39158Y295564D01*
X39183Y295469D01*
X39208Y295369D01*
X39240Y295262D01*
X39284Y295155D01*
X39340Y295042D01*
X39397Y294929D01*
X39472Y294816D01*
X39560Y294703D01*
X39661Y294597D01*
X39773Y294496D01*
X39780Y294490D01*
X39805Y294477D01*
X39843Y294446D01*
X39899Y294414D01*
X39974Y294377D01*
X40069Y294333D01*
X40182Y294289D01*
X40307Y294238D01*
X40458Y294188D01*
X40628Y294144D01*
X40816Y294100D01*
X41030Y294063D01*
X41262Y294031D01*
X41519Y294006D01*
X41796Y293987D01*
X42097Y293981D01*
X39127D01*
Y293171D01*
D01*
Y293981D01*
X42210D01*
X42254Y293987D01*
X42304D01*
X42361D01*
X42499Y294000D01*
X42650Y294012D01*
X42819Y294031D01*
X43001Y294050D01*
X43196Y294081D01*
X43391Y294119D01*
X43586Y294163D01*
X43780Y294220D01*
X43968Y294283D01*
X44144Y294358D01*
X44308Y294446D01*
X44452Y294546D01*
X44458Y294552D01*
X44477Y294571D01*
X44509Y294597D01*
X44546Y294634D01*
X44590Y294684D01*
X44640Y294741D01*
X44697Y294810D01*
X44754Y294885D01*
X44804Y294973D01*
X44860Y295074D01*
X44911Y295181D01*
X44954Y295300D01*
X44992Y295425D01*
X45024Y295564D01*
X45042Y295708D01*
X45049Y295859D01*
Y293981D01*
D01*
Y297743D01*
D02*
G37*
G36*
X26270Y295614D02*
X26157D01*
X26113Y295607D01*
X26063D01*
X26000D01*
X25868Y295595D01*
X25711Y295582D01*
X25542Y295564D01*
X25360Y295545D01*
X25165Y295513D01*
X24970Y295476D01*
X24769Y295425D01*
X24575Y295375D01*
X24393Y295306D01*
X24210Y295231D01*
X24047Y295143D01*
X23903Y295042D01*
X23896Y295036D01*
X23878Y295023D01*
X23846Y294992D01*
X23809Y294954D01*
X23765Y294911D01*
X23714Y294848D01*
X23664Y294779D01*
X23607Y294703D01*
X23551Y294615D01*
X23501Y294515D01*
X23450Y294408D01*
X23407Y294289D01*
X23369Y294163D01*
X23337Y294025D01*
X23319Y293881D01*
X23312Y293730D01*
Y295614D01*
D01*
Y291852D01*
X29234D01*
X26396D01*
X26440Y291858D01*
X26490D01*
X26547D01*
X26685Y291871D01*
X26835Y291883D01*
X27005Y291902D01*
X27187Y291921D01*
X27382Y291953D01*
X27577Y291990D01*
X27771Y292034D01*
X27966Y292091D01*
X28154Y292154D01*
X28330Y292229D01*
X28493Y292317D01*
X28638Y292417D01*
X28644Y292424D01*
X28663Y292442D01*
X28694Y292467D01*
X28732Y292505D01*
X28776Y292555D01*
X28826Y292612D01*
X28883Y292681D01*
X28939Y292756D01*
X28989Y292844D01*
X29046Y292945D01*
X29096Y293052D01*
X29140Y293171D01*
X29178Y293297D01*
X29209Y293435D01*
X29228Y293579D01*
X29234Y293730D01*
Y293767D01*
X29228Y293811D01*
Y293868D01*
X29216Y293937D01*
X29203Y294019D01*
X29184Y294113D01*
X29159Y294213D01*
X29128Y294314D01*
X29090Y294421D01*
X29040Y294534D01*
X28983Y294640D01*
X28914Y294747D01*
X28833Y294854D01*
X28738Y294954D01*
X28631Y295049D01*
X28625Y295055D01*
X28600Y295074D01*
X28556Y295099D01*
X28493Y295136D01*
X28418Y295181D01*
X28317Y295231D01*
X28205Y295281D01*
X28066Y295331D01*
X27916Y295381D01*
X27740Y295438D01*
X27545Y295482D01*
X27332Y295526D01*
X27099Y295564D01*
X26842Y295589D01*
X26565Y295607D01*
X26270Y295614D01*
D02*
G37*
G36*
X47910Y297470D02*
D01*
Y292854D01*
D01*
Y297470D01*
D02*
G37*
G36*
D02*
X46308D01*
Y292854D01*
X47031D01*
Y297470D01*
X47910D01*
D02*
G37*
G36*
X34187Y293171D02*
X33955D01*
Y290389D01*
X33948D01*
X33936D01*
X33904D01*
X33873Y290395D01*
X33829Y290401D01*
X33779Y290408D01*
X33672Y290426D01*
X33546Y290458D01*
X33414Y290502D01*
X33289Y290565D01*
X33176Y290653D01*
Y290659D01*
X33163Y290665D01*
X33132Y290697D01*
X33088Y290753D01*
X33044Y290828D01*
X32994Y290923D01*
X32950Y291036D01*
X32918Y291161D01*
X32912Y291230D01*
X32906Y291300D01*
Y291343D01*
X32912Y291387D01*
X32925Y291450D01*
X32937Y291519D01*
X32962Y291588D01*
X33000Y291664D01*
X33044Y291733D01*
X33050Y291739D01*
X33069Y291764D01*
X33107Y291796D01*
X33157Y291833D01*
X33220Y291883D01*
X33301Y291928D01*
X33395Y291971D01*
X33509Y292009D01*
X33320Y293114D01*
X33314D01*
X33295Y293102D01*
X33264Y293089D01*
X33220Y293077D01*
X33169Y293052D01*
X33113Y293020D01*
X33044Y292989D01*
X32975Y292951D01*
X32824Y292857D01*
X32673Y292738D01*
X32523Y292599D01*
X32454Y292518D01*
X32391Y292436D01*
X32384Y292430D01*
X32378Y292417D01*
X32359Y292392D01*
X32340Y292354D01*
X32315Y292311D01*
X32290Y292254D01*
X32265Y292191D01*
X32234Y292122D01*
X32202Y292040D01*
X32177Y291953D01*
X32152Y291858D01*
X32127Y291758D01*
X32108Y291651D01*
X32089Y291532D01*
X32083Y291412D01*
X32077Y291287D01*
Y291375D01*
Y291237D01*
X32083Y291180D01*
X32089Y291105D01*
X32096Y291017D01*
X32114Y290910D01*
X32133Y290797D01*
X32165Y290671D01*
X32202Y290540D01*
X32253Y290408D01*
X32309Y290276D01*
X32378Y290138D01*
X32460Y290012D01*
X32554Y289886D01*
X32661Y289773D01*
X32786Y289667D01*
X32793Y289660D01*
X32811Y289648D01*
X32843Y289629D01*
X32893Y289604D01*
X32950Y289573D01*
X33013Y289535D01*
X33094Y289497D01*
X33182Y289459D01*
X33283Y289422D01*
X33395Y289384D01*
X33515Y289346D01*
X33641Y289315D01*
X33779Y289290D01*
X33923Y289271D01*
X34080Y289259D01*
X34237Y289252D01*
X32077D01*
X36467D01*
Y291218D01*
X36460Y291262D01*
X36454Y291331D01*
X36448Y291406D01*
X36435Y291500D01*
X36416Y291601D01*
X36391Y291708D01*
X36353Y291827D01*
X36316Y291946D01*
X36266Y292066D01*
X36203Y292191D01*
X36134Y292311D01*
X36052Y292430D01*
X35952Y292543D01*
X35845Y292650D01*
X35838Y292656D01*
X35813Y292675D01*
X35782Y292700D01*
X35732Y292731D01*
X35663Y292775D01*
X35581Y292819D01*
X35487Y292869D01*
X35380Y292920D01*
X35254Y292970D01*
X35110Y293014D01*
X34959Y293058D01*
X34790Y293096D01*
X34601Y293127D01*
X34400Y293152D01*
X34187Y293171D01*
D02*
G37*
G36*
X53706Y292615D02*
D01*
Y289632D01*
X51615D01*
X51621Y289638D01*
X51640Y289657D01*
X51672Y289682D01*
X51709Y289720D01*
X51753Y289770D01*
X51803Y289833D01*
X51854Y289896D01*
X51910Y289978D01*
X51967Y290059D01*
X52017Y290153D01*
X52067Y290254D01*
X52111Y290361D01*
X52149Y290474D01*
X52180Y290593D01*
X52199Y290712D01*
X52205Y290844D01*
Y290876D01*
X52199Y290919D01*
Y290970D01*
X52187Y291039D01*
X52174Y291114D01*
X52161Y291196D01*
X52136Y291290D01*
X52105Y291390D01*
X52067Y291491D01*
X52023Y291598D01*
X51967Y291705D01*
X51904Y291811D01*
X51829Y291912D01*
X51747Y292019D01*
X51647Y292113D01*
X51640Y292119D01*
X51621Y292132D01*
X51590Y292157D01*
X51546Y292194D01*
X51490Y292232D01*
X51414Y292270D01*
X51332Y292320D01*
X51238Y292364D01*
X51131Y292408D01*
X51012Y292458D01*
X50880Y292496D01*
X50742Y292540D01*
X50585Y292571D01*
X50422Y292596D01*
X50240Y292609D01*
X50051Y292615D01*
X53706D01*
X47816D01*
X50007D01*
X49951Y292609D01*
X49876D01*
X49788Y292603D01*
X49681Y292590D01*
X49568Y292571D01*
X49442Y292552D01*
X49310Y292521D01*
X49172Y292490D01*
X49034Y292446D01*
X48902Y292395D01*
X48764Y292339D01*
X48632Y292270D01*
X48507Y292188D01*
X48393Y292100D01*
X48387Y292094D01*
X48368Y292075D01*
X48343Y292050D01*
X48305Y292012D01*
X48262Y291962D01*
X48211Y291899D01*
X48161Y291830D01*
X48105Y291755D01*
X48048Y291667D01*
X47998Y291573D01*
X47948Y291472D01*
X47904Y291359D01*
X47872Y291246D01*
X47841Y291121D01*
X47822Y290995D01*
X47816Y290857D01*
Y290794D01*
X47828Y290725D01*
X47841Y290637D01*
X47860Y290524D01*
X47891Y290405D01*
X47935Y290279D01*
X47991Y290147D01*
Y290141D01*
X47998Y290135D01*
X48010Y290116D01*
X48023Y290091D01*
X48067Y290028D01*
X48130Y289946D01*
X48205Y289852D01*
X48293Y289752D01*
X48400Y289651D01*
X48525Y289550D01*
X47910D01*
Y288521D01*
X47816D01*
X53706D01*
Y292615D01*
D02*
G37*
G36*
X29234Y291105D02*
D01*
Y289346D01*
X29228Y289409D01*
X29222Y289478D01*
X29209Y289560D01*
X29197Y289654D01*
X29178Y289755D01*
X29153Y289861D01*
X29121Y289968D01*
X29084Y290081D01*
X29040Y290194D01*
X28983Y290301D01*
X28920Y290408D01*
X28851Y290514D01*
X28770Y290609D01*
X28763Y290615D01*
X28751Y290628D01*
X28719Y290653D01*
X28688Y290684D01*
X28644Y290722D01*
X28588Y290766D01*
X28525Y290810D01*
X28449Y290860D01*
X28374Y290904D01*
X28286Y290948D01*
X28192Y290992D01*
X28091Y291029D01*
X27978Y291061D01*
X27865Y291086D01*
X27746Y291098D01*
X27620Y291105D01*
X27551D01*
X27520Y291098D01*
X27476D01*
X27382Y291086D01*
X27262Y291067D01*
X27137Y291042D01*
X27005Y291011D01*
X26873Y290960D01*
X26867D01*
X26861Y290954D01*
X26835Y290948D01*
X26810Y290935D01*
X26779Y290916D01*
X26741Y290898D01*
X26647Y290854D01*
X26540Y290791D01*
X26415Y290715D01*
X26276Y290621D01*
X26132Y290514D01*
X26120Y290502D01*
X26082Y290477D01*
X26025Y290420D01*
X25944Y290351D01*
X25894Y290301D01*
X25837Y290251D01*
X25780Y290188D01*
X25711Y290125D01*
X25642Y290050D01*
X25561Y289968D01*
X25479Y289880D01*
X25391Y289786D01*
X25385Y289780D01*
X25372Y289761D01*
X25347Y289736D01*
X25316Y289704D01*
X25278Y289660D01*
X25234Y289610D01*
X25134Y289503D01*
X25027Y289390D01*
X24920Y289284D01*
X24870Y289233D01*
X24826Y289189D01*
X24782Y289152D01*
X24750Y289120D01*
X24744Y289114D01*
X24725Y289095D01*
X24694Y289070D01*
X24656Y289039D01*
X24606Y289007D01*
X24556Y288970D01*
X24449Y288894D01*
Y291105D01*
X23419D01*
Y287211D01*
X29234D01*
Y291105D01*
D02*
G37*
G36*
X43435Y293535D02*
D01*
X39233Y291865D01*
Y289177D01*
Y290866D01*
X43435Y289177D01*
Y293535D01*
D02*
G37*
G36*
X37967Y288442D02*
X32171D01*
Y287331D01*
X36372D01*
Y288442D01*
X36937D01*
Y287331D01*
X37967D01*
Y288442D01*
D02*
G37*
G36*
X41249Y288813D02*
X41017D01*
Y286031D01*
X41011D01*
X40998D01*
X40967D01*
X40935Y286037D01*
X40891Y286043D01*
X40841Y286049D01*
X40734Y286068D01*
X40609Y286100D01*
X40477Y286144D01*
X40351Y286206D01*
X40238Y286294D01*
Y286301D01*
X40226Y286307D01*
X40194Y286338D01*
X40150Y286395D01*
X40106Y286470D01*
X40056Y286564D01*
X40012Y286677D01*
X39981Y286803D01*
X39974Y286872D01*
X39968Y286941D01*
Y286985D01*
X39974Y287029D01*
X39987Y287092D01*
X40000Y287161D01*
X40025Y287230D01*
X40062Y287305D01*
X40106Y287374D01*
X40113Y287381D01*
X40132Y287406D01*
X40169Y287437D01*
X40219Y287475D01*
X40282Y287525D01*
X40364Y287569D01*
X40458Y287613D01*
X40571Y287651D01*
X40383Y288756D01*
X40376D01*
X40358Y288743D01*
X40326Y288731D01*
X40282Y288718D01*
X40232Y288693D01*
X40175Y288662D01*
X40106Y288631D01*
X40037Y288593D01*
X39887Y288499D01*
X39736Y288379D01*
X39585Y288241D01*
X39516Y288159D01*
X39453Y288078D01*
X39447Y288071D01*
X39441Y288059D01*
X39422Y288034D01*
X39403Y287996D01*
X39378Y287952D01*
X39353Y287896D01*
X39328Y287833D01*
X39296Y287764D01*
X39265Y287682D01*
X39240Y287594D01*
X39215Y287500D01*
X39189Y287400D01*
X39171Y287293D01*
X39152Y287174D01*
X39145Y287054D01*
X39139Y286929D01*
Y286878D01*
X39145Y286822D01*
X39152Y286747D01*
X39158Y286659D01*
X39177Y286552D01*
X39196Y286439D01*
X39227Y286313D01*
X39265Y286181D01*
X39315Y286049D01*
X39372Y285917D01*
X39441Y285779D01*
X39522Y285654D01*
X39617Y285528D01*
X39723Y285415D01*
X39849Y285308D01*
X39855Y285302D01*
X39874Y285290D01*
X39905Y285271D01*
X39956Y285246D01*
X40012Y285214D01*
X40075Y285176D01*
X40157Y285139D01*
X40244Y285101D01*
X40345Y285063D01*
X40458Y285026D01*
X40577Y284988D01*
X40703Y284957D01*
X40841Y284932D01*
X40986Y284913D01*
X41142Y284900D01*
X41300Y284894D01*
X39139D01*
X43529D01*
X41344D01*
X41400Y284900D01*
X41469D01*
X41557Y284913D01*
X41664Y284925D01*
X41770Y284938D01*
X41896Y284963D01*
X42022Y284988D01*
X42154Y285026D01*
X42292Y285070D01*
X42430Y285120D01*
X42562Y285183D01*
X42694Y285258D01*
X42819Y285340D01*
X42932Y285434D01*
X42939Y285440D01*
X42957Y285459D01*
X42989Y285490D01*
X43027Y285534D01*
X43071Y285585D01*
X43121Y285654D01*
X43177Y285729D01*
X43234Y285811D01*
X43284Y285905D01*
X43341Y286012D01*
X43391Y286125D01*
X43435Y286250D01*
X43472Y286376D01*
X43504Y286514D01*
X43523Y286665D01*
X43529Y286816D01*
Y286859D01*
X43523Y286904D01*
X43516Y286973D01*
X43510Y287048D01*
X43498Y287142D01*
X43479Y287243D01*
X43454Y287349D01*
X43416Y287469D01*
X43378Y287588D01*
X43328Y287707D01*
X43265Y287833D01*
X43196Y287952D01*
X43115Y288071D01*
X43014Y288185D01*
X42907Y288291D01*
X42901Y288298D01*
X42876Y288316D01*
X42844Y288342D01*
X42794Y288373D01*
X42725Y288417D01*
X42643Y288461D01*
X42549Y288511D01*
X42443Y288561D01*
X42317Y288612D01*
X42173Y288656D01*
X42022Y288700D01*
X41852Y288737D01*
X41664Y288769D01*
X41463Y288794D01*
X41249Y288813D01*
D02*
G37*
G36*
X52205Y287779D02*
D01*
Y285927D01*
X52199Y285977D01*
X52193Y286046D01*
X52187Y286115D01*
X52180Y286203D01*
X52161Y286291D01*
X52124Y286486D01*
X52067Y286687D01*
X52030Y286787D01*
X51986Y286888D01*
X51929Y286982D01*
X51873Y287070D01*
X51866Y287076D01*
X51860Y287089D01*
X51841Y287114D01*
X51810Y287145D01*
X51778Y287183D01*
X51734Y287227D01*
X51684Y287271D01*
X51628Y287321D01*
X51559Y287371D01*
X51483Y287428D01*
X51402Y287484D01*
X51314Y287535D01*
X51213Y287591D01*
X51113Y287635D01*
X50993Y287685D01*
X50874Y287723D01*
X50679Y286630D01*
X50686D01*
X50692D01*
X50730Y286618D01*
X50792Y286599D01*
X50862Y286580D01*
X50937Y286542D01*
X51019Y286498D01*
X51094Y286442D01*
X51163Y286373D01*
X51169Y286367D01*
X51188Y286335D01*
X51219Y286297D01*
X51251Y286235D01*
X51276Y286166D01*
X51307Y286078D01*
X51326Y285977D01*
X51332Y285864D01*
Y285826D01*
X51326Y285795D01*
Y285764D01*
X51320Y285720D01*
X51295Y285626D01*
X51263Y285519D01*
X51213Y285412D01*
X51138Y285305D01*
X51094Y285255D01*
X51044Y285205D01*
X51037D01*
X51031Y285192D01*
X51012Y285180D01*
X50987Y285167D01*
X50956Y285148D01*
X50918Y285129D01*
X50868Y285104D01*
X50818Y285085D01*
X50755Y285060D01*
X50679Y285035D01*
X50604Y285016D01*
X50516Y284998D01*
X50422Y284985D01*
X50315Y284972D01*
X50202Y284960D01*
X50083D01*
X50077D01*
X50051D01*
X50014D01*
X49963Y284966D01*
X49901D01*
X49832Y284972D01*
X49756Y284979D01*
X49668Y284991D01*
X49499Y285023D01*
X49323Y285060D01*
X49241Y285092D01*
X49160Y285123D01*
X49090Y285161D01*
X49028Y285205D01*
X49021D01*
X49015Y285217D01*
X48978Y285249D01*
X48934Y285305D01*
X48877Y285387D01*
X48820Y285481D01*
X48770Y285594D01*
X48733Y285732D01*
X48726Y285808D01*
X48720Y285883D01*
Y285933D01*
X48733Y285996D01*
X48745Y286065D01*
X48764Y286147D01*
X48795Y286235D01*
X48839Y286316D01*
X48896Y286398D01*
X48902Y286404D01*
X48934Y286429D01*
X48978Y286467D01*
X49040Y286511D01*
X49128Y286555D01*
X49235Y286605D01*
X49367Y286649D01*
X49518Y286687D01*
X49329Y287779D01*
X52205D01*
X49323D01*
X49298Y287773D01*
X49260Y287761D01*
X49204Y287742D01*
X49141Y287723D01*
X49072Y287698D01*
X48990Y287667D01*
X48902Y287629D01*
X48720Y287541D01*
X48626Y287491D01*
X48532Y287428D01*
X48437Y287359D01*
X48349Y287290D01*
X48268Y287208D01*
X48193Y287120D01*
X48186Y287114D01*
X48174Y287101D01*
X48155Y287070D01*
X48136Y287032D01*
X48105Y286982D01*
X48073Y286926D01*
X48042Y286856D01*
X48004Y286781D01*
X47966Y286693D01*
X47935Y286599D01*
X47904Y286492D01*
X47872Y286373D01*
X47853Y286253D01*
X47835Y286122D01*
X47822Y285983D01*
X47816Y285833D01*
Y285795D01*
X47822Y285745D01*
Y285682D01*
X47835Y285607D01*
X47847Y285512D01*
X47866Y285412D01*
X47891Y285305D01*
X47916Y285192D01*
X47954Y285073D01*
X48004Y284953D01*
X48061Y284828D01*
X48123Y284709D01*
X48205Y284589D01*
X48293Y284476D01*
X48393Y284369D01*
X48400Y284363D01*
X48419Y284344D01*
X48456Y284319D01*
X48500Y284282D01*
X48563Y284244D01*
X48632Y284200D01*
X48720Y284150D01*
X48814Y284099D01*
X48921Y284043D01*
X49040Y283999D01*
X49172Y283949D01*
X49317Y283911D01*
X49474Y283873D01*
X49637Y283848D01*
X49813Y283829D01*
X50001Y283823D01*
X50045D01*
X50102Y283829D01*
X50171D01*
X50259Y283842D01*
X50359Y283855D01*
X50472Y283867D01*
X50598Y283892D01*
X50723Y283924D01*
X50855Y283955D01*
X50987Y283999D01*
X51125Y284055D01*
X51257Y284118D01*
X51389Y284187D01*
X51508Y284275D01*
X51621Y284369D01*
X51628Y284376D01*
X51647Y284395D01*
X51678Y284426D01*
X51716Y284470D01*
X51759Y284526D01*
X51803Y284589D01*
X51860Y284671D01*
X51916Y284759D01*
X51967Y284859D01*
X52023Y284972D01*
X52067Y285092D01*
X52118Y285224D01*
X52149Y285368D01*
X52180Y285519D01*
X52199Y285682D01*
X52205Y285852D01*
Y283823D01*
D01*
Y287779D01*
D02*
G37*
G36*
X29310Y287017D02*
D01*
X23319Y285566D01*
Y287017D01*
D01*
Y284749D01*
X29310D01*
D01*
X23319D01*
X29310Y286181D01*
Y287017D01*
D02*
G37*
G36*
X37917Y286502D02*
Y283594D01*
X33151D01*
Y286502D01*
X32171D01*
Y282426D01*
X37917D01*
Y286502D01*
D02*
G37*
G36*
X25360Y284517D02*
X25291D01*
X25240Y284511D01*
X25177Y284505D01*
X25102Y284492D01*
X25021Y284479D01*
X24933Y284467D01*
X24832Y284442D01*
X24732Y284417D01*
X24625Y284379D01*
X24518Y284341D01*
X24405Y284291D01*
X24298Y284234D01*
X24185Y284172D01*
X24079Y284096D01*
X24072Y284090D01*
X24047Y284071D01*
X24010Y284040D01*
X23959Y283990D01*
X23903Y283933D01*
X23834Y283864D01*
X23765Y283782D01*
X23695Y283688D01*
X23626Y283581D01*
X23557Y283462D01*
X23488Y283336D01*
X23432Y283198D01*
X23381Y283048D01*
X23344Y282884D01*
X23319Y282708D01*
X23312Y282526D01*
Y284517D01*
D01*
Y280617D01*
X29140D01*
X24901D01*
X25021Y281722D01*
X25014D01*
X25002D01*
X24983Y281729D01*
X24958Y281735D01*
X24889Y281748D01*
X24807Y281773D01*
X24706Y281810D01*
X24612Y281861D01*
X24512Y281923D01*
X24424Y281999D01*
X24418Y282011D01*
X24393Y282043D01*
X24355Y282087D01*
X24317Y282156D01*
X24273Y282231D01*
X24242Y282325D01*
X24217Y282426D01*
X24204Y282539D01*
Y282570D01*
X24210Y282595D01*
X24217Y282664D01*
X24242Y282746D01*
X24273Y282840D01*
X24323Y282934D01*
X24393Y283035D01*
X24437Y283085D01*
X24487Y283129D01*
X24493D01*
X24499Y283142D01*
X24518Y283154D01*
X24537Y283167D01*
X24568Y283186D01*
X24606Y283205D01*
X24650Y283230D01*
X24700Y283255D01*
X24757Y283274D01*
X24820Y283299D01*
X24889Y283318D01*
X24964Y283336D01*
X25052Y283349D01*
X25140Y283362D01*
X25240Y283374D01*
X25341D01*
X25347D01*
X25366D01*
X25391D01*
X25429Y283368D01*
X25473D01*
X25523Y283362D01*
X25642Y283343D01*
X25774Y283318D01*
X25906Y283274D01*
X26032Y283211D01*
X26145Y283129D01*
X26151D01*
X26157Y283117D01*
X26189Y283085D01*
X26233Y283035D01*
X26283Y282960D01*
X26327Y282872D01*
X26371Y282765D01*
X26402Y282646D01*
X26415Y282576D01*
Y282464D01*
X26408Y282426D01*
X26402Y282382D01*
X26390Y282338D01*
X26364Y282219D01*
X26314Y282087D01*
X26276Y282011D01*
X26239Y281942D01*
X26189Y281867D01*
X26132Y281792D01*
X26069Y281716D01*
X25994Y281647D01*
X26120Y280749D01*
X29140Y281321D01*
Y284260D01*
X28098D01*
Y282156D01*
X27112Y281980D01*
Y281986D01*
X27118Y281999D01*
X27131Y282018D01*
X27143Y282043D01*
X27156Y282080D01*
X27175Y282118D01*
X27206Y282212D01*
X27244Y282332D01*
X27269Y282457D01*
X27294Y282595D01*
X27300Y282740D01*
Y282771D01*
X27294Y282809D01*
Y282865D01*
X27281Y282928D01*
X27269Y283004D01*
X27256Y283085D01*
X27231Y283173D01*
X27206Y283274D01*
X27168Y283374D01*
X27124Y283475D01*
X27074Y283581D01*
X27011Y283688D01*
X26936Y283795D01*
X26854Y283895D01*
X26760Y283996D01*
X26754Y284002D01*
X26735Y284021D01*
X26704Y284046D01*
X26660Y284078D01*
X26609Y284115D01*
X26547Y284159D01*
X26471Y284209D01*
X26383Y284260D01*
X26289Y284303D01*
X26182Y284354D01*
X26063Y284398D01*
X25944Y284435D01*
X25806Y284467D01*
X25667Y284492D01*
X25517Y284511D01*
X25360Y284517D01*
D02*
G37*
G36*
X39233Y284592D02*
Y279380D01*
X45030D01*
Y281993D01*
X45024Y282068D01*
Y282156D01*
X45017Y282256D01*
X45011Y282357D01*
X44992Y282583D01*
X44961Y282803D01*
X44948Y282909D01*
X44923Y283016D01*
X44898Y283110D01*
X44873Y283192D01*
Y283198D01*
X44867Y283211D01*
X44854Y283230D01*
X44842Y283261D01*
X44823Y283299D01*
X44804Y283336D01*
X44747Y283437D01*
X44666Y283544D01*
X44571Y283650D01*
X44452Y283764D01*
X44314Y283864D01*
X44308D01*
X44295Y283876D01*
X44276Y283889D01*
X44245Y283902D01*
X44207Y283927D01*
X44163Y283946D01*
X44107Y283971D01*
X44050Y283996D01*
X43918Y284040D01*
X43761Y284084D01*
X43592Y284109D01*
X43403Y284121D01*
X43397D01*
X43372D01*
X43341D01*
X43297Y284115D01*
X43240Y284109D01*
X43177Y284103D01*
X43102Y284090D01*
X43027Y284071D01*
X42851Y284027D01*
X42763Y283996D01*
X42675Y283958D01*
X42581Y283914D01*
X42493Y283864D01*
X42405Y283807D01*
X42323Y283738D01*
X42317Y283732D01*
X42304Y283719D01*
X42285Y283701D01*
X42254Y283669D01*
X42223Y283625D01*
X42185Y283575D01*
X42141Y283519D01*
X42097Y283450D01*
X42047Y283374D01*
X42003Y283293D01*
X41959Y283198D01*
X41915Y283091D01*
X41877Y282979D01*
X41840Y282859D01*
X41808Y282727D01*
X41783Y282589D01*
Y282595D01*
X41770Y282608D01*
X41764Y282627D01*
X41745Y282652D01*
X41701Y282721D01*
X41639Y282809D01*
X41570Y282909D01*
X41488Y283016D01*
X41394Y283123D01*
X41300Y283217D01*
X41287Y283230D01*
X41268Y283242D01*
X41249Y283261D01*
X41218Y283286D01*
X41180Y283318D01*
X41136Y283355D01*
X41086Y283393D01*
X41023Y283437D01*
X40954Y283487D01*
X40879Y283544D01*
X40791Y283600D01*
X40697Y283663D01*
X40590Y283732D01*
X40483Y283807D01*
X40358Y283883D01*
X39233Y284592D01*
D02*
G37*
G36*
X47910Y283522D02*
D01*
Y278906D01*
D01*
Y279082D01*
D01*
Y283522D01*
D02*
G37*
G36*
D02*
X46308D01*
Y278906D01*
X47031D01*
Y283522D01*
X47910D01*
D02*
G37*
G36*
X52205Y279082D02*
D01*
Y278410D01*
X52199Y278447D01*
X52193Y278485D01*
X52180Y278579D01*
X52155Y278692D01*
X52118Y278818D01*
X52061Y278950D01*
X51992Y279082D01*
X51025Y278736D01*
X51031Y278724D01*
X51056Y278686D01*
X51081Y278636D01*
X51119Y278567D01*
X51150Y278485D01*
X51182Y278397D01*
X51201Y278309D01*
X51207Y278215D01*
Y278177D01*
X51201Y278133D01*
X51188Y278077D01*
X51175Y278014D01*
X51150Y277951D01*
X51119Y277882D01*
X51075Y277819D01*
X51069Y277813D01*
X51050Y277794D01*
X51019Y277763D01*
X50968Y277725D01*
X50905Y277688D01*
X50824Y277644D01*
X50730Y277600D01*
X50610Y277562D01*
X50604D01*
X50591Y277556D01*
X50573D01*
X50541Y277549D01*
X50503Y277543D01*
X50447Y277537D01*
X50384Y277524D01*
X50309Y277518D01*
X50221Y277512D01*
X50120Y277499D01*
X50007Y277493D01*
X49876Y277487D01*
X49731Y277480D01*
X49574D01*
X49398Y277474D01*
X49204D01*
X47910D01*
Y276362D01*
X52111D01*
Y277392D01*
X51508D01*
X51515Y277399D01*
X51527Y277405D01*
X51546Y277417D01*
X51577Y277436D01*
X51653Y277487D01*
X51741Y277549D01*
X51835Y277625D01*
X51923Y277700D01*
X52004Y277782D01*
X52042Y277826D01*
X52067Y277863D01*
X52074Y277876D01*
X52086Y277901D01*
X52111Y277945D01*
X52136Y278002D01*
X52161Y278077D01*
X52187Y278159D01*
X52199Y278246D01*
X52205Y278347D01*
Y276711D01*
Y279082D01*
D02*
G37*
G36*
X29234Y279857D02*
D01*
Y278011D01*
X29228Y278055D01*
Y278112D01*
X29216Y278181D01*
X29203Y278262D01*
X29184Y278356D01*
X29159Y278457D01*
X29128Y278557D01*
X29090Y278664D01*
X29040Y278777D01*
X28983Y278884D01*
X28914Y278991D01*
X28833Y279097D01*
X28738Y279198D01*
X28631Y279292D01*
X28625Y279298D01*
X28600Y279317D01*
X28556Y279342D01*
X28493Y279380D01*
X28418Y279424D01*
X28317Y279474D01*
X28205Y279524D01*
X28066Y279575D01*
X27916Y279625D01*
X27740Y279681D01*
X27545Y279725D01*
X27332Y279769D01*
X27099Y279807D01*
X26842Y279832D01*
X26565Y279851D01*
X26270Y279857D01*
X26157D01*
X26113Y279851D01*
X26063D01*
X26000D01*
X25868Y279838D01*
X25711Y279826D01*
X25542Y279807D01*
X25360Y279788D01*
X25165Y279757D01*
X24970Y279719D01*
X24769Y279669D01*
X24575Y279619D01*
X24393Y279550D01*
X24210Y279474D01*
X24047Y279386D01*
X23903Y279286D01*
X23896Y279280D01*
X23878Y279267D01*
X23846Y279236D01*
X23809Y279198D01*
X23765Y279154D01*
X23714Y279091D01*
X23664Y279022D01*
X23607Y278947D01*
X23551Y278859D01*
X23501Y278758D01*
X23450Y278651D01*
X23407Y278532D01*
X23369Y278407D01*
X23337Y278269D01*
X23319Y278124D01*
X23312Y277973D01*
Y277936D01*
X23319Y277892D01*
X23325Y277835D01*
X23331Y277760D01*
X23344Y277678D01*
X23369Y277584D01*
X23394Y277484D01*
X23425Y277377D01*
X23469Y277270D01*
X23526Y277157D01*
X23582Y277044D01*
X23658Y276931D01*
X23746Y276818D01*
X23846Y276711D01*
X23959Y276611D01*
X23966Y276604D01*
X23991Y276592D01*
X24028Y276560D01*
X24085Y276529D01*
X24160Y276491D01*
X24254Y276447D01*
X24367Y276403D01*
X24493Y276353D01*
X24644Y276303D01*
X24813Y276259D01*
X25002Y276215D01*
X25215Y276177D01*
X25448Y276146D01*
X25705Y276121D01*
X25981Y276102D01*
X26283Y276096D01*
X23312D01*
D01*
X29234D01*
Y279857D01*
D02*
G37*
G36*
X34187Y279229D02*
X33955D01*
Y276447D01*
X33948D01*
X33936D01*
X33904D01*
X33873Y276453D01*
X33829Y276460D01*
X33779Y276466D01*
X33672Y276485D01*
X33546Y276516D01*
X33414Y276560D01*
X33289Y276623D01*
X33176Y276711D01*
Y276717D01*
X33163Y276724D01*
X33132Y276755D01*
X33088Y276812D01*
X33044Y276887D01*
X32994Y276981D01*
X32950Y277094D01*
X32918Y277220D01*
X32912Y277289D01*
X32906Y277358D01*
Y277402D01*
X32912Y277446D01*
X32925Y277509D01*
X32937Y277578D01*
X32962Y277647D01*
X33000Y277722D01*
X33044Y277791D01*
X33050Y277798D01*
X33069Y277823D01*
X33107Y277854D01*
X33157Y277892D01*
X33220Y277942D01*
X33301Y277986D01*
X33395Y278030D01*
X33509Y278067D01*
X33320Y279173D01*
X33314D01*
X33295Y279160D01*
X33264Y279148D01*
X33220Y279135D01*
X33169Y279110D01*
X33113Y279079D01*
X33044Y279047D01*
X32975Y279010D01*
X32824Y278915D01*
X32673Y278796D01*
X32523Y278658D01*
X32454Y278576D01*
X32391Y278495D01*
X32384Y278488D01*
X32378Y278476D01*
X32359Y278451D01*
X32340Y278413D01*
X32315Y278369D01*
X32290Y278312D01*
X32265Y278250D01*
X32234Y278181D01*
X32202Y278099D01*
X32177Y278011D01*
X32152Y277917D01*
X32127Y277816D01*
X32108Y277710D01*
X32089Y277590D01*
X32083Y277471D01*
X32077Y277345D01*
Y277295D01*
X32083Y277238D01*
X32089Y277163D01*
X32096Y277075D01*
X32114Y276969D01*
X32133Y276855D01*
X32165Y276730D01*
X32202Y276598D01*
X32253Y276466D01*
X32309Y276334D01*
X32378Y276196D01*
X32460Y276070D01*
X32554Y275945D01*
X32661Y275832D01*
X32786Y275725D01*
X32793Y275719D01*
X32811Y275706D01*
X32843Y275687D01*
X32893Y275662D01*
X32950Y275631D01*
X33013Y275593D01*
X33094Y275555D01*
X33182Y275518D01*
X33283Y275480D01*
X33395Y275443D01*
X33515Y275405D01*
X33641Y275373D01*
X33779Y275348D01*
X33923Y275329D01*
X34080Y275317D01*
X34237Y275311D01*
X32077D01*
X36467D01*
X34281D01*
X34337Y275317D01*
X34407D01*
X34495Y275329D01*
X34601Y275342D01*
X34708Y275355D01*
X34834Y275380D01*
X34959Y275405D01*
X35091Y275443D01*
X35229Y275486D01*
X35368Y275537D01*
X35499Y275600D01*
X35631Y275675D01*
X35757Y275757D01*
X35870Y275851D01*
X35876Y275857D01*
X35895Y275876D01*
X35926Y275907D01*
X35964Y275951D01*
X36008Y276001D01*
X36058Y276070D01*
X36115Y276146D01*
X36171Y276227D01*
X36222Y276322D01*
X36278Y276428D01*
X36328Y276541D01*
X36372Y276667D01*
X36410Y276793D01*
X36441Y276931D01*
X36460Y277082D01*
X36467Y277232D01*
Y277276D01*
X36460Y277320D01*
X36454Y277389D01*
X36448Y277465D01*
X36435Y277559D01*
X36416Y277659D01*
X36391Y277766D01*
X36353Y277885D01*
X36316Y278005D01*
X36266Y278124D01*
X36203Y278250D01*
X36134Y278369D01*
X36052Y278488D01*
X35952Y278601D01*
X35845Y278708D01*
X35838Y278714D01*
X35813Y278733D01*
X35782Y278758D01*
X35732Y278790D01*
X35663Y278834D01*
X35581Y278878D01*
X35487Y278928D01*
X35380Y278978D01*
X35254Y279028D01*
X35110Y279072D01*
X34959Y279116D01*
X34790Y279154D01*
X34601Y279185D01*
X34400Y279210D01*
X34187Y279229D01*
D02*
G37*
G36*
X49926Y275502D02*
X49693D01*
Y272720D01*
X49687D01*
X49675D01*
X49643D01*
X49612Y272726D01*
X49568Y272733D01*
X49518Y272739D01*
X49411Y272758D01*
X49285Y272789D01*
X49153Y272833D01*
X49028Y272896D01*
X48915Y272984D01*
Y272990D01*
X48902Y272996D01*
X48871Y273028D01*
X48827Y273084D01*
X48783Y273160D01*
X48733Y273254D01*
X48689Y273367D01*
X48657Y273493D01*
X48651Y273562D01*
X48645Y273631D01*
Y273675D01*
X48651Y273719D01*
X48663Y273781D01*
X48676Y273850D01*
X48701Y273920D01*
X48739Y273995D01*
X48783Y274064D01*
X48789Y274070D01*
X48808Y274095D01*
X48846Y274127D01*
X48896Y274165D01*
X48959Y274215D01*
X49040Y274259D01*
X49134Y274303D01*
X49248Y274340D01*
X49059Y275446D01*
X49053D01*
X49034Y275433D01*
X49003Y275420D01*
X48959Y275408D01*
X48908Y275383D01*
X48852Y275351D01*
X48783Y275320D01*
X48714Y275282D01*
X48563Y275188D01*
X48412Y275069D01*
X48262Y274931D01*
X48193Y274849D01*
X48130Y274767D01*
X48123Y274761D01*
X48117Y274748D01*
X48098Y274723D01*
X48079Y274686D01*
X48054Y274642D01*
X48029Y274585D01*
X48004Y274522D01*
X47973Y274453D01*
X47941Y274372D01*
X47916Y274284D01*
X47891Y274190D01*
X47866Y274089D01*
X47847Y273982D01*
X47828Y273863D01*
X47822Y273744D01*
X47816Y273618D01*
Y273568D01*
X47822Y273511D01*
X47828Y273436D01*
X47835Y273348D01*
X47853Y273241D01*
X47872Y273128D01*
X47904Y273003D01*
X47941Y272871D01*
X47991Y272739D01*
X48048Y272607D01*
X48117Y272469D01*
X48199Y272343D01*
X48293Y272218D01*
X48400Y272105D01*
X48525Y271998D01*
X48532Y271992D01*
X48550Y271979D01*
X48582Y271960D01*
X48632Y271935D01*
X48689Y271904D01*
X48751Y271866D01*
X48833Y271828D01*
X48921Y271791D01*
X49021Y271753D01*
X49134Y271715D01*
X49254Y271678D01*
X49379Y271646D01*
X49518Y271621D01*
X49662Y271602D01*
X49819Y271590D01*
X49976Y271583D01*
X47816D01*
X52205D01*
Y271866D01*
Y271583D01*
X50020D01*
X50077Y271590D01*
X50146D01*
X50234Y271602D01*
X50340Y271615D01*
X50447Y271627D01*
X50573Y271653D01*
X50698Y271678D01*
X50830Y271715D01*
X50968Y271759D01*
X51106Y271810D01*
X51238Y271872D01*
X51370Y271948D01*
X51496Y272029D01*
X51609Y272124D01*
X51615Y272130D01*
X51634Y272149D01*
X51665Y272180D01*
X51703Y272224D01*
X51747Y272274D01*
X51797Y272343D01*
X51854Y272419D01*
X51910Y272500D01*
X51960Y272594D01*
X52017Y272701D01*
X52067Y272814D01*
X52111Y272940D01*
X52149Y273065D01*
X52180Y273204D01*
X52199Y273354D01*
X52205Y273505D01*
Y271866D01*
Y273505D01*
Y273549D01*
X52199Y273593D01*
X52193Y273662D01*
X52187Y273737D01*
X52174Y273832D01*
X52155Y273932D01*
X52130Y274039D01*
X52092Y274158D01*
X52055Y274277D01*
X52004Y274397D01*
X51942Y274522D01*
X51873Y274642D01*
X51791Y274761D01*
X51690Y274874D01*
X51584Y274981D01*
X51577Y274987D01*
X51552Y275006D01*
X51521Y275031D01*
X51471Y275062D01*
X51402Y275107D01*
X51320Y275150D01*
X51226Y275201D01*
X51119Y275251D01*
X50993Y275301D01*
X50849Y275345D01*
X50698Y275389D01*
X50529Y275427D01*
X50340Y275458D01*
X50139Y275483D01*
X49926Y275502D01*
D02*
G37*
G36*
X32171Y274972D02*
Y271090D01*
X37967D01*
Y272202D01*
X34890D01*
X36372Y273502D01*
Y274871D01*
X34834Y273433D01*
X32171Y274972D01*
D02*
G37*
G36*
X36372Y297925D02*
X32479D01*
X32416Y297919D01*
X32347D01*
X32271Y297912D01*
X32184D01*
X32008Y297894D01*
X31826Y297875D01*
X31650Y297843D01*
X31574Y297824D01*
X31499Y297799D01*
X31493D01*
X31480Y297793D01*
X31461Y297787D01*
X31436Y297774D01*
X31373Y297749D01*
X31286Y297711D01*
X31198Y297661D01*
X31097Y297598D01*
X31003Y297529D01*
X30921Y297454D01*
X30915Y297441D01*
X30883Y297416D01*
X30846Y297366D01*
X30802Y297297D01*
X30745Y297215D01*
X30689Y297115D01*
X30639Y296995D01*
X30588Y296864D01*
Y296857D01*
X30582Y296845D01*
X30576Y296826D01*
X30569Y296795D01*
X30563Y296763D01*
X30551Y296719D01*
X30538Y296663D01*
X30532Y296606D01*
X30519Y296543D01*
X30507Y296474D01*
X30488Y296311D01*
X30475Y296129D01*
X30469Y295928D01*
Y295827D01*
X30475Y295752D01*
X30482Y295664D01*
X30488Y295564D01*
X30501Y295457D01*
X30513Y295338D01*
X30557Y295086D01*
X30588Y294961D01*
X30626Y294841D01*
X30670Y294722D01*
X30720Y294609D01*
X30777Y294502D01*
X30840Y294414D01*
X30846Y294408D01*
X30858Y294395D01*
X30877Y294370D01*
X30909Y294345D01*
X30940Y294314D01*
X30984Y294276D01*
X31034Y294232D01*
X31091Y294195D01*
X31154Y294151D01*
X31229Y294107D01*
X31386Y294038D01*
X31474Y294012D01*
X31568Y293987D01*
X31668Y293975D01*
X31769Y293969D01*
X31782D01*
X31807D01*
X31851D01*
X31901Y293975D01*
X31744Y295243D01*
X31738D01*
X31706Y295250D01*
X31668Y295262D01*
X31625Y295275D01*
X31574Y295294D01*
X31524Y295319D01*
X31480Y295350D01*
X31442Y295388D01*
X31436Y295394D01*
X31424Y295419D01*
X31405Y295457D01*
X31380Y295507D01*
X31354Y295576D01*
X31336Y295664D01*
X31323Y295765D01*
X31317Y295884D01*
Y295953D01*
X31323Y295991D01*
Y296035D01*
X31336Y296129D01*
X31348Y296236D01*
X31373Y296342D01*
X31405Y296449D01*
X31449Y296537D01*
X31455Y296543D01*
X31468Y296562D01*
X31486Y296587D01*
X31518Y296619D01*
X31556Y296656D01*
X31606Y296694D01*
X31662Y296725D01*
X31731Y296757D01*
X31738D01*
X31763Y296763D01*
X31794Y296776D01*
X31851Y296788D01*
X31920Y296795D01*
X32008Y296807D01*
X32114Y296813D01*
X32240D01*
X32862D01*
X32855Y296807D01*
X32830Y296788D01*
X32799Y296763D01*
X32755Y296725D01*
X32705Y296675D01*
X32642Y296612D01*
X32579Y296543D01*
X32516Y296468D01*
X32454Y296380D01*
X32391Y296286D01*
X32334Y296179D01*
X32278Y296066D01*
X32234Y295953D01*
X32202Y295821D01*
X32177Y295689D01*
X32171Y295551D01*
Y295513D01*
X32177Y295469D01*
X32184Y295413D01*
X32196Y295344D01*
X32209Y295256D01*
X32234Y295168D01*
X32259Y295068D01*
X32296Y294961D01*
X32347Y294854D01*
X32403Y294741D01*
X32472Y294634D01*
X32554Y294521D01*
X32648Y294414D01*
X32761Y294308D01*
X32887Y294213D01*
X32893Y294207D01*
X32912Y294195D01*
X32943Y294176D01*
X32987Y294157D01*
X33044Y294126D01*
X33113Y294094D01*
X33188Y294056D01*
X33276Y294025D01*
X33370Y293987D01*
X33477Y293950D01*
X33597Y293918D01*
X33722Y293893D01*
X33854Y293868D01*
X33992Y293849D01*
X34137Y293837D01*
X34294Y293830D01*
X30469D01*
Y270419D01*
D01*
Y293830D01*
X36467D01*
Y295633D01*
X36460Y295670D01*
X36454Y295727D01*
X36448Y295790D01*
X36429Y295871D01*
X36410Y295953D01*
X36378Y296047D01*
X36347Y296148D01*
X36297Y296254D01*
X36247Y296361D01*
X36178Y296468D01*
X36102Y296575D01*
X36008Y296681D01*
X35901Y296782D01*
X35782Y296882D01*
X36372D01*
Y297925D01*
D02*
G37*
G36*
X52205Y271031D02*
D01*
Y269304D01*
X52199Y269341D01*
Y269398D01*
X52187Y269461D01*
X52174Y269530D01*
X52155Y269612D01*
X52136Y269706D01*
X52105Y269800D01*
X52067Y269900D01*
X52017Y270001D01*
X51960Y270108D01*
X51898Y270214D01*
X51816Y270315D01*
X51728Y270415D01*
X51628Y270516D01*
X51621Y270522D01*
X51603Y270541D01*
X51571Y270566D01*
X51521Y270597D01*
X51464Y270635D01*
X51395Y270679D01*
X51307Y270723D01*
X51213Y270773D01*
X51106Y270824D01*
X50987Y270867D01*
X50855Y270912D01*
X50711Y270949D01*
X50560Y270981D01*
X50397Y271012D01*
X50221Y271024D01*
X50033Y271031D01*
X49989D01*
X49932Y271024D01*
X49857D01*
X49769Y271018D01*
X49668Y271006D01*
X49555Y270987D01*
X49430Y270968D01*
X49304Y270937D01*
X49166Y270905D01*
X49034Y270861D01*
X48896Y270811D01*
X48764Y270754D01*
X48632Y270685D01*
X48507Y270604D01*
X48393Y270516D01*
X48387Y270510D01*
X48368Y270491D01*
X48343Y270466D01*
X48305Y270422D01*
X48262Y270371D01*
X48211Y270315D01*
X48161Y270246D01*
X48105Y270164D01*
X48048Y270082D01*
X47998Y269982D01*
X47948Y269882D01*
X47904Y269769D01*
X47872Y269655D01*
X47841Y269530D01*
X47822Y269404D01*
X47816Y269266D01*
Y269210D01*
X47822Y269141D01*
X47835Y269053D01*
X47847Y268958D01*
X47872Y268852D01*
X47910Y268739D01*
X47954Y268632D01*
X47960Y268619D01*
X47979Y268582D01*
X48017Y268525D01*
X48067Y268450D01*
X48130Y268362D01*
X48211Y268261D01*
X48312Y268155D01*
X48425Y268041D01*
X46315D01*
Y266930D01*
X52111D01*
Y267966D01*
X51496D01*
X51502Y267979D01*
X51540Y268004D01*
X51603Y268048D01*
X51672Y268111D01*
X51753Y268186D01*
X51841Y268280D01*
X51929Y268387D01*
X52004Y268506D01*
Y268513D01*
X52011Y268525D01*
X52023Y268544D01*
X52036Y268569D01*
X52048Y268600D01*
X52067Y268638D01*
X52105Y268732D01*
X52143Y268845D01*
X52174Y268977D01*
X52199Y269122D01*
X52205Y269272D01*
Y266930D01*
D01*
Y271031D01*
D02*
G37*
G36*
X37967Y265646D02*
Y265533D01*
X36988D01*
Y262405D01*
X35707D01*
Y265313D01*
X34727D01*
Y262405D01*
X33151D01*
Y265646D01*
X32171D01*
Y261237D01*
X37967D01*
Y265646D01*
D02*
G37*
G36*
X47910Y266421D02*
D01*
Y261806D01*
D01*
Y266421D01*
D02*
G37*
G36*
D02*
X46308D01*
Y261806D01*
X47031D01*
Y266421D01*
X47910D01*
D02*
G37*
G36*
X53706Y261730D02*
D01*
Y261604D01*
X52796D01*
X48890Y258439D01*
Y261730D01*
X47910D01*
Y257026D01*
X48965D01*
X52727Y260072D01*
Y257378D01*
X53706D01*
Y257026D01*
D01*
Y261730D01*
D02*
G37*
G36*
Y256292D02*
X50397D01*
X50303Y256285D01*
X50196D01*
X50077Y256279D01*
X49838Y256266D01*
X49593Y256248D01*
X49474Y256235D01*
X49367Y256223D01*
X49266Y256210D01*
X49178Y256191D01*
X49172D01*
X49160Y256185D01*
X49134Y256179D01*
X49109Y256172D01*
X49072Y256160D01*
X49028Y256147D01*
X48927Y256109D01*
X48808Y256066D01*
X48689Y256003D01*
X48569Y255927D01*
X48450Y255839D01*
X48444D01*
X48437Y255827D01*
X48400Y255796D01*
X48349Y255739D01*
X48280Y255664D01*
X48205Y255563D01*
X48130Y255450D01*
X48048Y255312D01*
X47979Y255161D01*
Y255155D01*
X47973Y255142D01*
X47960Y255117D01*
X47954Y255086D01*
X47941Y255042D01*
X47922Y254992D01*
X47910Y254929D01*
X47891Y254860D01*
X47872Y254784D01*
X47860Y254703D01*
X47847Y254609D01*
X47828Y254514D01*
X47822Y254408D01*
X47809Y254295D01*
X47803Y254175D01*
Y253968D01*
X47809Y253911D01*
Y253842D01*
X47816Y253767D01*
X47822Y253679D01*
X47828Y253585D01*
X47847Y253378D01*
X47885Y253170D01*
X47929Y252970D01*
X47960Y252875D01*
X47991Y252794D01*
Y252787D01*
X47998Y252775D01*
X48010Y252750D01*
X48029Y252725D01*
X48048Y252687D01*
X48067Y252643D01*
X48130Y252549D01*
X48199Y252442D01*
X48280Y252329D01*
X48381Y252216D01*
X48488Y252115D01*
X48494D01*
X48500Y252103D01*
X48519Y252090D01*
X48544Y252078D01*
X48601Y252034D01*
X48682Y251983D01*
X48783Y251927D01*
X48890Y251870D01*
X49009Y251827D01*
X49134Y251789D01*
X49141D01*
X49160Y251783D01*
X49185Y251776D01*
X49229Y251770D01*
X49279Y251764D01*
X49342Y251751D01*
X49417Y251745D01*
X49505Y251732D01*
X49599Y251720D01*
X49712Y251713D01*
X49832Y251701D01*
X49963Y251695D01*
X50108Y251688D01*
X50259Y251682D01*
X50428Y251676D01*
X53706D01*
Y256292D01*
D02*
G37*
%LPD*%
G36*
X50453Y327921D02*
X50491Y327915D01*
X50535Y327909D01*
X50642Y327890D01*
X50761Y327858D01*
X50880Y327815D01*
X51000Y327758D01*
X51100Y327676D01*
X51113Y327664D01*
X51138Y327632D01*
X51182Y327582D01*
X51232Y327513D01*
X51276Y327431D01*
X51320Y327331D01*
X51345Y327218D01*
X51358Y327099D01*
Y327061D01*
X51351Y327036D01*
X51345Y326973D01*
X51326Y326885D01*
X51295Y326791D01*
X51245Y326690D01*
X51175Y326596D01*
X51138Y326546D01*
X51088Y326502D01*
X51075Y326489D01*
X51037Y326464D01*
X50981Y326427D01*
X50899Y326383D01*
X50799Y326339D01*
X50673Y326301D01*
X50535Y326276D01*
X50372Y326270D01*
Y327928D01*
X50378D01*
X50390D01*
X50416D01*
X50453Y327921D01*
D02*
G37*
G36*
X52205Y325114D02*
X50020D01*
X50077Y325120D01*
X50146D01*
X50234Y325133D01*
X50340Y325146D01*
X50447Y325158D01*
X50573Y325183D01*
X50698Y325208D01*
X50830Y325246D01*
X50968Y325290D01*
X51106Y325340D01*
X51238Y325403D01*
X51370Y325478D01*
X51496Y325560D01*
X51609Y325654D01*
X51615Y325660D01*
X51634Y325679D01*
X51665Y325711D01*
X51703Y325755D01*
X51747Y325805D01*
X51797Y325874D01*
X51854Y325949D01*
X51910Y326031D01*
X51960Y326125D01*
X52017Y326232D01*
X52067Y326345D01*
X52111Y326471D01*
X52149Y326596D01*
X52180Y326734D01*
X52199Y326885D01*
X52205Y327036D01*
Y325114D01*
D02*
G37*
G36*
X50114Y323230D02*
X50171D01*
X50240Y323224D01*
X50315Y323218D01*
X50397Y323205D01*
X50566Y323174D01*
X50742Y323123D01*
X50899Y323061D01*
X50975Y323017D01*
X51037Y322973D01*
X51044D01*
X51050Y322960D01*
X51088Y322929D01*
X51138Y322872D01*
X51201Y322791D01*
X51257Y322696D01*
X51307Y322583D01*
X51345Y322451D01*
X51351Y322382D01*
X51358Y322307D01*
Y322269D01*
X51351Y322244D01*
X51339Y322169D01*
X51320Y322075D01*
X51282Y321974D01*
X51226Y321861D01*
X51188Y321805D01*
X51144Y321754D01*
X51094Y321698D01*
X51037Y321648D01*
X51031D01*
X51025Y321635D01*
X51006Y321622D01*
X50981Y321604D01*
X50943Y321585D01*
X50905Y321566D01*
X50855Y321541D01*
X50805Y321516D01*
X50742Y321491D01*
X50673Y321465D01*
X50591Y321447D01*
X50510Y321428D01*
X50422Y321409D01*
X50321Y321396D01*
X50215Y321390D01*
X50102Y321384D01*
X50095D01*
X50070D01*
X50039D01*
X49995D01*
X49938Y321390D01*
X49876Y321396D01*
X49800D01*
X49731Y321409D01*
X49568Y321428D01*
X49411Y321459D01*
X49254Y321503D01*
X49191Y321534D01*
X49128Y321566D01*
X49122Y321572D01*
X49109Y321579D01*
X49090Y321597D01*
X49059Y321616D01*
X48990Y321679D01*
X48915Y321761D01*
X48833Y321867D01*
X48764Y321993D01*
X48733Y322068D01*
X48714Y322144D01*
X48701Y322225D01*
X48695Y322313D01*
Y322351D01*
X48701Y322376D01*
X48714Y322451D01*
X48733Y322539D01*
X48770Y322640D01*
X48833Y322753D01*
X48864Y322803D01*
X48908Y322860D01*
X48959Y322916D01*
X49015Y322966D01*
X49021Y322973D01*
X49028Y322979D01*
X49053Y322991D01*
X49078Y323010D01*
X49109Y323029D01*
X49153Y323054D01*
X49204Y323079D01*
X49260Y323105D01*
X49323Y323130D01*
X49398Y323148D01*
X49480Y323174D01*
X49568Y323193D01*
X49662Y323211D01*
X49762Y323224D01*
X49876Y323236D01*
X49995D01*
X50001D01*
X50026D01*
X50064D01*
X50114Y323230D01*
D02*
G37*
G36*
X53706Y320247D02*
X50077D01*
X50127Y320253D01*
X50202D01*
X50290Y320260D01*
X50390Y320272D01*
X50510Y320291D01*
X50629Y320310D01*
X50761Y320335D01*
X50893Y320366D01*
X51025Y320410D01*
X51163Y320454D01*
X51295Y320511D01*
X51420Y320580D01*
X51540Y320655D01*
X51647Y320743D01*
X51653Y320749D01*
X51672Y320768D01*
X51697Y320794D01*
X51734Y320831D01*
X51778Y320881D01*
X51822Y320944D01*
X51873Y321013D01*
X51929Y321089D01*
X51979Y321177D01*
X52030Y321277D01*
X52074Y321377D01*
X52118Y321491D01*
X52155Y321610D01*
X52180Y321736D01*
X52199Y321874D01*
X52205Y322012D01*
Y322043D01*
X52199Y322081D01*
Y322131D01*
X52187Y322194D01*
X52174Y322263D01*
X52155Y322338D01*
X52130Y322426D01*
X52099Y322520D01*
X52061Y322621D01*
X52011Y322722D01*
X51954Y322822D01*
X51891Y322929D01*
X51810Y323029D01*
X51722Y323130D01*
X51615Y323230D01*
X53706D01*
Y320247D01*
D02*
G37*
G36*
X49920Y318300D02*
X49913Y318269D01*
X49894Y318219D01*
X49876Y318143D01*
X49850Y318049D01*
X49819Y317930D01*
X49788Y317792D01*
X49750Y317628D01*
Y317622D01*
X49744Y317610D01*
Y317584D01*
X49731Y317553D01*
X49712Y317478D01*
X49693Y317383D01*
X49662Y317283D01*
X49631Y317182D01*
X49599Y317095D01*
X49580Y317057D01*
X49562Y317025D01*
X49555Y317019D01*
X49536Y316994D01*
X49499Y316956D01*
X49455Y316919D01*
X49398Y316881D01*
X49329Y316843D01*
X49254Y316818D01*
X49172Y316812D01*
X49160D01*
X49134D01*
X49090Y316818D01*
X49034Y316831D01*
X48971Y316856D01*
X48902Y316881D01*
X48839Y316925D01*
X48770Y316982D01*
X48764Y316988D01*
X48745Y317013D01*
X48714Y317051D01*
X48689Y317101D01*
X48657Y317170D01*
X48626Y317245D01*
X48607Y317333D01*
X48601Y317427D01*
Y317440D01*
X48607Y317478D01*
X48613Y317534D01*
X48626Y317610D01*
X48651Y317697D01*
X48682Y317798D01*
X48733Y317898D01*
X48795Y317999D01*
X48802Y318005D01*
X48820Y318030D01*
X48852Y318068D01*
X48896Y318106D01*
X48952Y318156D01*
X49015Y318200D01*
X49084Y318237D01*
X49160Y318269D01*
X49166D01*
X49191Y318275D01*
X49229Y318282D01*
X49279Y318294D01*
X49354Y318300D01*
X49448Y318307D01*
X49562Y318313D01*
X49700D01*
X49926D01*
X49920Y318300D01*
D02*
G37*
G36*
X50868Y318307D02*
X50937Y318294D01*
X51012Y318275D01*
X51088Y318244D01*
X51163Y318206D01*
X51219Y318150D01*
X51226Y318143D01*
X51238Y318118D01*
X51263Y318074D01*
X51288Y318018D01*
X51314Y317936D01*
X51339Y317829D01*
X51345Y317766D01*
X51351Y317704D01*
X51358Y317628D01*
Y317496D01*
X51351Y317440D01*
X51345Y317377D01*
X51326Y317302D01*
X51307Y317220D01*
X51276Y317145D01*
X51238Y317076D01*
X51232Y317070D01*
X51213Y317051D01*
X51188Y317019D01*
X51144Y316982D01*
X51088Y316938D01*
X51012Y316894D01*
X50924Y316850D01*
X50824Y316812D01*
X51006Y315813D01*
X51012D01*
X51031Y315820D01*
X51062Y315832D01*
X51106Y315845D01*
X51157Y315864D01*
X51213Y315889D01*
X51345Y315952D01*
X51496Y316033D01*
X51647Y316134D01*
X51785Y316253D01*
X51854Y316322D01*
X51910Y316398D01*
X51916Y316404D01*
X51923Y316416D01*
X51935Y316441D01*
X51954Y316473D01*
X51979Y316517D01*
X52004Y316573D01*
X52030Y316636D01*
X52061Y316705D01*
X52086Y316793D01*
X52111Y316881D01*
X52136Y316982D01*
X52161Y317095D01*
X52180Y317214D01*
X52193Y317346D01*
X52205Y317484D01*
Y315700D01*
X49116D01*
X49178Y315707D01*
X49266Y315719D01*
X49367Y315744D01*
X49474Y315770D01*
X49580Y315813D01*
X49687Y315870D01*
X49693D01*
X49700Y315876D01*
X49731Y315901D01*
X49781Y315939D01*
X49844Y315996D01*
X49913Y316058D01*
X49982Y316140D01*
X50051Y316234D01*
X50108Y316341D01*
Y316347D01*
X50114Y316354D01*
X50120Y316372D01*
X50133Y316398D01*
X50146Y316429D01*
X50164Y316467D01*
X50177Y316517D01*
X50196Y316567D01*
X50215Y316624D01*
X50240Y316693D01*
X50259Y316768D01*
X50284Y316843D01*
X50303Y316931D01*
X50328Y317025D01*
X50353Y317120D01*
X50372Y317227D01*
Y317233D01*
X50378Y317258D01*
X50384Y317302D01*
X50397Y317352D01*
X50409Y317415D01*
X50422Y317490D01*
X50441Y317572D01*
X50460Y317660D01*
X50503Y317836D01*
X50547Y318018D01*
X50573Y318099D01*
X50598Y318181D01*
X50623Y318250D01*
X50648Y318313D01*
X50755D01*
X50761D01*
X50767D01*
X50811D01*
X50868Y318307D01*
D02*
G37*
G36*
X50177Y310645D02*
X50234D01*
X50296Y310639D01*
X50365Y310626D01*
X50434Y310620D01*
X50591Y310589D01*
X50755Y310538D01*
X50905Y310469D01*
X50975Y310432D01*
X51037Y310381D01*
X51044D01*
X51050Y310369D01*
X51088Y310331D01*
X51138Y310275D01*
X51201Y310193D01*
X51257Y310099D01*
X51307Y309979D01*
X51345Y309847D01*
X51351Y309772D01*
X51358Y309697D01*
Y309659D01*
X51351Y309634D01*
X51339Y309559D01*
X51320Y309464D01*
X51282Y309364D01*
X51226Y309257D01*
X51188Y309201D01*
X51150Y309144D01*
X51100Y309094D01*
X51044Y309044D01*
X51037D01*
X51031Y309031D01*
X51012Y309018D01*
X50987Y309006D01*
X50956Y308987D01*
X50912Y308962D01*
X50868Y308937D01*
X50811Y308918D01*
X50748Y308893D01*
X50679Y308868D01*
X50598Y308849D01*
X50516Y308824D01*
X50422Y308811D01*
X50321Y308799D01*
X50215Y308786D01*
X50095D01*
X50089D01*
X50064D01*
X50033D01*
X49989Y308792D01*
X49932D01*
X49869Y308799D01*
X49794Y308805D01*
X49718Y308818D01*
X49562Y308849D01*
X49398Y308893D01*
X49248Y308956D01*
X49178Y309000D01*
X49116Y309044D01*
X49109Y309050D01*
X49103Y309056D01*
X49065Y309088D01*
X49021Y309144D01*
X48965Y309220D01*
X48908Y309314D01*
X48858Y309420D01*
X48820Y309540D01*
X48814Y309609D01*
X48808Y309678D01*
Y309716D01*
X48814Y309747D01*
X48820Y309778D01*
X48827Y309822D01*
X48846Y309916D01*
X48883Y310023D01*
X48940Y310143D01*
X48978Y310199D01*
X49021Y310256D01*
X49065Y310312D01*
X49122Y310369D01*
X49128Y310375D01*
X49134Y310381D01*
X49153Y310394D01*
X49185Y310413D01*
X49216Y310432D01*
X49254Y310457D01*
X49304Y310482D01*
X49361Y310513D01*
X49423Y310538D01*
X49492Y310563D01*
X49574Y310589D01*
X49656Y310607D01*
X49750Y310626D01*
X49850Y310639D01*
X49957Y310651D01*
X50070D01*
X50077D01*
X50102D01*
X50133D01*
X50177Y310645D01*
D02*
G37*
G36*
X52205Y307649D02*
X50077D01*
X50133Y307656D01*
X50208D01*
X50296Y307662D01*
X50397Y307675D01*
X50510Y307693D01*
X50629Y307712D01*
X50761Y307737D01*
X50893Y307775D01*
X51025Y307813D01*
X51157Y307863D01*
X51288Y307920D01*
X51414Y307989D01*
X51533Y308064D01*
X51647Y308152D01*
X51653Y308158D01*
X51672Y308177D01*
X51697Y308202D01*
X51734Y308246D01*
X51778Y308290D01*
X51822Y308353D01*
X51873Y308422D01*
X51929Y308504D01*
X51979Y308585D01*
X52030Y308686D01*
X52074Y308786D01*
X52118Y308899D01*
X52155Y309018D01*
X52180Y309144D01*
X52199Y309276D01*
X52205Y309414D01*
Y307649D01*
D02*
G37*
G36*
X34181Y308525D02*
X34174Y308494D01*
X34155Y308444D01*
X34137Y308368D01*
X34111Y308274D01*
X34080Y308155D01*
X34049Y308017D01*
X34011Y307854D01*
Y307847D01*
X34005Y307835D01*
Y307810D01*
X33992Y307778D01*
X33973Y307703D01*
X33955Y307609D01*
X33923Y307508D01*
X33892Y307408D01*
X33860Y307320D01*
X33841Y307282D01*
X33823Y307251D01*
X33816Y307244D01*
X33797Y307219D01*
X33760Y307182D01*
X33716Y307144D01*
X33659Y307106D01*
X33590Y307069D01*
X33515Y307043D01*
X33433Y307037D01*
X33421D01*
X33395D01*
X33352Y307043D01*
X33295Y307056D01*
X33232Y307081D01*
X33163Y307106D01*
X33100Y307150D01*
X33031Y307207D01*
X33025Y307213D01*
X33006Y307238D01*
X32975Y307276D01*
X32950Y307326D01*
X32918Y307395D01*
X32887Y307470D01*
X32868Y307558D01*
X32862Y307653D01*
Y307665D01*
X32868Y307703D01*
X32874Y307759D01*
X32887Y307835D01*
X32912Y307923D01*
X32943Y308023D01*
X32994Y308124D01*
X33056Y308224D01*
X33063Y308230D01*
X33081Y308256D01*
X33113Y308293D01*
X33157Y308331D01*
X33213Y308381D01*
X33276Y308425D01*
X33345Y308463D01*
X33421Y308494D01*
X33427D01*
X33452Y308500D01*
X33490Y308507D01*
X33540Y308519D01*
X33615Y308525D01*
X33709Y308532D01*
X33823Y308538D01*
X33961D01*
X34187D01*
X34181Y308525D01*
D02*
G37*
G36*
X50127Y305878D02*
X50183D01*
X50246Y305872D01*
X50315Y305860D01*
X50390Y305853D01*
X50547Y305822D01*
X50711Y305772D01*
X50868Y305703D01*
X50937Y305665D01*
X51000Y305615D01*
X51006D01*
X51012Y305602D01*
X51050Y305564D01*
X51100Y305508D01*
X51163Y305433D01*
X51226Y305338D01*
X51276Y305225D01*
X51314Y305100D01*
X51320Y305031D01*
X51326Y304955D01*
Y304918D01*
X51320Y304886D01*
X51314Y304855D01*
X51307Y304811D01*
X51288Y304717D01*
X51251Y304610D01*
X51194Y304497D01*
X51157Y304440D01*
X51113Y304384D01*
X51062Y304327D01*
X51006Y304277D01*
X51000D01*
X50993Y304264D01*
X50975Y304252D01*
X50949Y304233D01*
X50912Y304214D01*
X50874Y304195D01*
X50824Y304170D01*
X50774Y304145D01*
X50711Y304120D01*
X50642Y304095D01*
X50566Y304076D01*
X50485Y304057D01*
X50390Y304039D01*
X50296Y304026D01*
X50190Y304020D01*
X50077Y304013D01*
X50070D01*
X50045D01*
X50007D01*
X49963Y304020D01*
X49901D01*
X49832Y304026D01*
X49762Y304039D01*
X49681Y304051D01*
X49511Y304082D01*
X49335Y304133D01*
X49172Y304202D01*
X49097Y304239D01*
X49028Y304290D01*
X49021Y304296D01*
X49015Y304302D01*
X48978Y304340D01*
X48921Y304403D01*
X48864Y304484D01*
X48802Y304585D01*
X48745Y304698D01*
X48707Y304836D01*
X48701Y304905D01*
X48695Y304980D01*
Y305018D01*
X48701Y305043D01*
X48714Y305112D01*
X48733Y305206D01*
X48770Y305307D01*
X48827Y305414D01*
X48858Y305464D01*
X48902Y305521D01*
X48946Y305571D01*
X49003Y305621D01*
X49009Y305627D01*
X49015Y305634D01*
X49034Y305646D01*
X49059Y305665D01*
X49097Y305684D01*
X49134Y305703D01*
X49185Y305728D01*
X49248Y305753D01*
X49310Y305778D01*
X49386Y305803D01*
X49467Y305822D01*
X49562Y305841D01*
X49662Y305860D01*
X49775Y305872D01*
X49894Y305885D01*
X50020D01*
X50026D01*
X50051D01*
X50083D01*
X50127Y305878D01*
D02*
G37*
G36*
X34721Y303991D02*
X34777D01*
X34909Y303985D01*
X35041Y303966D01*
X35179Y303947D01*
X35236Y303935D01*
X35292Y303916D01*
X35342Y303897D01*
X35380Y303878D01*
X35393Y303872D01*
X35418Y303847D01*
X35455Y303816D01*
X35499Y303765D01*
X35543Y303696D01*
X35581Y303615D01*
X35606Y303520D01*
X35619Y303407D01*
Y303370D01*
X35612Y303326D01*
X35600Y303263D01*
X35581Y303200D01*
X35556Y303125D01*
X35524Y303049D01*
X35474Y302968D01*
X35468Y302961D01*
X35449Y302936D01*
X35411Y302899D01*
X35368Y302855D01*
X35311Y302804D01*
X35236Y302754D01*
X35154Y302710D01*
X35054Y302673D01*
X35041Y302666D01*
X35022D01*
X35003Y302660D01*
X34972Y302654D01*
X34934Y302647D01*
X34896Y302635D01*
X34846Y302629D01*
X34790Y302622D01*
X34721Y302610D01*
X34651Y302604D01*
X34576Y302597D01*
X34488Y302591D01*
X34394D01*
X34294Y302585D01*
X34187D01*
X32171D01*
Y303998D01*
X34570D01*
X34576D01*
X34595D01*
X34626D01*
X34670D01*
X34721Y303991D01*
D02*
G37*
G36*
X45049Y298785D02*
X43579D01*
Y298792D01*
X43586Y298804D01*
X43592Y298829D01*
X43604Y298861D01*
X43623Y298905D01*
X43642Y298949D01*
X43667Y299005D01*
X43698Y299068D01*
X43768Y299206D01*
X43862Y299363D01*
X43975Y299539D01*
X44113Y299727D01*
X44119Y299733D01*
X44132Y299752D01*
X44151Y299778D01*
X44182Y299809D01*
X44220Y299853D01*
X44270Y299897D01*
X44320Y299947D01*
X44383Y300004D01*
X44521Y300123D01*
X44678Y300236D01*
X44854Y300343D01*
X44948Y300387D01*
X45049Y300424D01*
Y298785D01*
D02*
G37*
G36*
X52111Y299102D02*
X50177D01*
X50164D01*
X50139D01*
X50095D01*
X50039D01*
X49963D01*
X49888Y299109D01*
X49800D01*
X49712D01*
X49524Y299115D01*
X49430Y299121D01*
X49348Y299128D01*
X49266Y299134D01*
X49197Y299140D01*
X49134Y299146D01*
X49090Y299159D01*
X49084Y299165D01*
X49059Y299171D01*
X49021Y299190D01*
X48978Y299209D01*
X48927Y299240D01*
X48877Y299278D01*
X48827Y299322D01*
X48777Y299379D01*
X48770Y299385D01*
X48758Y299410D01*
X48739Y299442D01*
X48720Y299492D01*
X48701Y299554D01*
X48682Y299624D01*
X48670Y299705D01*
X48663Y299793D01*
Y299843D01*
X48670Y299894D01*
X48682Y299963D01*
X48701Y300038D01*
X48726Y300126D01*
X48764Y300214D01*
X48814Y300296D01*
X48820Y300308D01*
X48846Y300333D01*
X48877Y300371D01*
X48921Y300421D01*
X48978Y300471D01*
X49047Y300522D01*
X49122Y300566D01*
X49204Y300603D01*
X49216Y300610D01*
X49229D01*
X49254Y300616D01*
X49285Y300622D01*
X49323Y300628D01*
X49373Y300641D01*
X49430Y300647D01*
X49499Y300654D01*
X49580Y300666D01*
X49675Y300672D01*
X49781Y300679D01*
X49894Y300685D01*
X50026D01*
X50171Y300691D01*
X50334D01*
X52111D01*
Y299102D01*
D02*
G37*
G36*
X42430Y296575D02*
X42530D01*
X42643Y296568D01*
X42876Y296556D01*
X43102Y296537D01*
X43215Y296524D01*
X43315Y296512D01*
X43403Y296493D01*
X43485Y296474D01*
X43491D01*
X43504Y296468D01*
X43523Y296462D01*
X43548Y296455D01*
X43611Y296437D01*
X43692Y296405D01*
X43780Y296367D01*
X43862Y296323D01*
X43937Y296273D01*
X43994Y296217D01*
X44000Y296210D01*
X44012Y296192D01*
X44038Y296154D01*
X44063Y296116D01*
X44082Y296060D01*
X44107Y295997D01*
X44119Y295934D01*
X44126Y295859D01*
Y295827D01*
X44119Y295790D01*
X44107Y295739D01*
X44094Y295683D01*
X44069Y295620D01*
X44038Y295564D01*
X43994Y295501D01*
X43987Y295495D01*
X43968Y295476D01*
X43937Y295444D01*
X43887Y295413D01*
X43824Y295375D01*
X43749Y295331D01*
X43648Y295294D01*
X43535Y295256D01*
X43529D01*
X43516Y295250D01*
X43491Y295243D01*
X43454Y295237D01*
X43403Y295231D01*
X43347Y295218D01*
X43271Y295212D01*
X43190Y295199D01*
X43096Y295187D01*
X42989Y295181D01*
X42869Y295168D01*
X42738Y295162D01*
X42599Y295155D01*
X42436Y295149D01*
X42267Y295143D01*
X42085D01*
X42072D01*
X42041D01*
X41990D01*
X41921D01*
X41833Y295149D01*
X41739D01*
X41639D01*
X41526Y295155D01*
X41293Y295168D01*
X41061Y295187D01*
X40948Y295199D01*
X40847Y295212D01*
X40760Y295224D01*
X40678Y295243D01*
X40672D01*
X40659Y295250D01*
X40640Y295256D01*
X40615Y295262D01*
X40552Y295281D01*
X40477Y295312D01*
X40389Y295350D01*
X40307Y295394D01*
X40232Y295444D01*
X40175Y295501D01*
X40169Y295507D01*
X40157Y295526D01*
X40138Y295564D01*
X40113Y295607D01*
X40088Y295658D01*
X40069Y295721D01*
X40056Y295783D01*
X40050Y295859D01*
Y295890D01*
X40056Y295928D01*
X40069Y295978D01*
X40081Y296035D01*
X40100Y296097D01*
X40132Y296154D01*
X40175Y296217D01*
X40182Y296223D01*
X40200Y296242D01*
X40232Y296273D01*
X40282Y296305D01*
X40345Y296349D01*
X40420Y296386D01*
X40521Y296424D01*
X40634Y296462D01*
X40640D01*
X40653Y296468D01*
X40678Y296474D01*
X40716Y296480D01*
X40766Y296487D01*
X40822Y296499D01*
X40891Y296512D01*
X40973Y296524D01*
X41067Y296531D01*
X41174Y296543D01*
X41293Y296556D01*
X41425Y296562D01*
X41570Y296568D01*
X41727Y296575D01*
X41902Y296581D01*
X42085D01*
X42097D01*
X42129D01*
X42179D01*
X42248D01*
X42329D01*
X42430Y296575D01*
D02*
G37*
G36*
X26616Y294446D02*
X26716D01*
X26829Y294440D01*
X27062Y294427D01*
X27288Y294408D01*
X27401Y294395D01*
X27501Y294383D01*
X27589Y294364D01*
X27671Y294345D01*
X27677D01*
X27689Y294339D01*
X27708Y294333D01*
X27733Y294326D01*
X27796Y294308D01*
X27878Y294276D01*
X27966Y294238D01*
X28047Y294195D01*
X28123Y294144D01*
X28179Y294088D01*
X28186Y294081D01*
X28198Y294063D01*
X28223Y294025D01*
X28249Y293987D01*
X28267Y293931D01*
X28292Y293868D01*
X28305Y293805D01*
X28311Y293730D01*
Y293698D01*
X28305Y293661D01*
X28292Y293611D01*
X28280Y293554D01*
X28255Y293491D01*
X28223Y293435D01*
X28179Y293372D01*
X28173Y293366D01*
X28154Y293347D01*
X28123Y293315D01*
X28073Y293284D01*
X28010Y293246D01*
X27934Y293202D01*
X27834Y293165D01*
X27721Y293127D01*
X27715D01*
X27702Y293121D01*
X27677Y293114D01*
X27639Y293108D01*
X27589Y293102D01*
X27533Y293089D01*
X27457Y293083D01*
X27376Y293070D01*
X27281Y293058D01*
X27175Y293052D01*
X27055Y293039D01*
X26923Y293033D01*
X26785Y293026D01*
X26622Y293020D01*
X26452Y293014D01*
X26270D01*
X26258D01*
X26226D01*
X26176D01*
X26107D01*
X26019Y293020D01*
X25925D01*
X25824D01*
X25711Y293026D01*
X25479Y293039D01*
X25247Y293058D01*
X25134Y293070D01*
X25033Y293083D01*
X24945Y293096D01*
X24863Y293114D01*
X24857D01*
X24845Y293121D01*
X24826Y293127D01*
X24801Y293133D01*
X24738Y293152D01*
X24663Y293183D01*
X24575Y293221D01*
X24493Y293265D01*
X24418Y293315D01*
X24361Y293372D01*
X24355Y293378D01*
X24342Y293397D01*
X24323Y293435D01*
X24298Y293479D01*
X24273Y293529D01*
X24254Y293592D01*
X24242Y293654D01*
X24236Y293730D01*
Y293761D01*
X24242Y293799D01*
X24254Y293849D01*
X24267Y293906D01*
X24286Y293969D01*
X24317Y294025D01*
X24361Y294088D01*
X24367Y294094D01*
X24386Y294113D01*
X24418Y294144D01*
X24468Y294176D01*
X24531Y294220D01*
X24606Y294257D01*
X24706Y294295D01*
X24820Y294333D01*
X24826D01*
X24838Y294339D01*
X24863Y294345D01*
X24901Y294352D01*
X24951Y294358D01*
X25008Y294370D01*
X25077Y294383D01*
X25159Y294395D01*
X25253Y294402D01*
X25360Y294414D01*
X25479Y294427D01*
X25611Y294433D01*
X25755Y294440D01*
X25912Y294446D01*
X26088Y294452D01*
X26270D01*
X26283D01*
X26314D01*
X26364D01*
X26434D01*
X26515D01*
X26616Y294446D01*
D02*
G37*
G36*
X23319Y293648D02*
X23325Y293592D01*
X23331Y293516D01*
X23344Y293435D01*
X23369Y293340D01*
X23394Y293240D01*
X23425Y293133D01*
X23469Y293026D01*
X23526Y292913D01*
X23582Y292800D01*
X23658Y292687D01*
X23746Y292574D01*
X23846Y292467D01*
X23959Y292367D01*
X23966Y292361D01*
X23991Y292348D01*
X24028Y292317D01*
X24085Y292285D01*
X24160Y292248D01*
X24254Y292204D01*
X24367Y292160D01*
X24493Y292110D01*
X24644Y292059D01*
X24813Y292015D01*
X25002Y291971D01*
X25215Y291934D01*
X25448Y291902D01*
X25705Y291877D01*
X25981Y291858D01*
X26283Y291852D01*
X23312D01*
Y293692D01*
X23319Y293648D01*
D02*
G37*
G36*
X34714Y292059D02*
X34752Y292053D01*
X34796Y292047D01*
X34903Y292028D01*
X35022Y291997D01*
X35141Y291953D01*
X35261Y291896D01*
X35361Y291814D01*
X35374Y291802D01*
X35399Y291771D01*
X35443Y291720D01*
X35493Y291651D01*
X35537Y291569D01*
X35581Y291469D01*
X35606Y291356D01*
X35619Y291237D01*
Y291199D01*
X35612Y291174D01*
X35606Y291111D01*
X35587Y291023D01*
X35556Y290929D01*
X35506Y290828D01*
X35436Y290734D01*
X35399Y290684D01*
X35349Y290640D01*
X35336Y290628D01*
X35298Y290602D01*
X35242Y290565D01*
X35160Y290521D01*
X35060Y290477D01*
X34934Y290439D01*
X34796Y290414D01*
X34633Y290408D01*
Y292066D01*
X34639D01*
X34651D01*
X34677D01*
X34714Y292059D01*
D02*
G37*
G36*
X36467Y289252D02*
X34281D01*
X34337Y289259D01*
X34407D01*
X34495Y289271D01*
X34601Y289284D01*
X34708Y289296D01*
X34834Y289321D01*
X34959Y289346D01*
X35091Y289384D01*
X35229Y289428D01*
X35368Y289478D01*
X35499Y289541D01*
X35631Y289616D01*
X35757Y289698D01*
X35870Y289792D01*
X35876Y289798D01*
X35895Y289817D01*
X35926Y289849D01*
X35964Y289893D01*
X36008Y289943D01*
X36058Y290012D01*
X36115Y290087D01*
X36171Y290169D01*
X36222Y290263D01*
X36278Y290370D01*
X36328Y290483D01*
X36372Y290609D01*
X36410Y290734D01*
X36441Y290872D01*
X36460Y291023D01*
X36467Y291174D01*
Y289252D01*
D02*
G37*
G36*
X50114Y291472D02*
X50171D01*
X50240Y291466D01*
X50315Y291460D01*
X50397Y291447D01*
X50566Y291416D01*
X50742Y291365D01*
X50899Y291303D01*
X50975Y291259D01*
X51037Y291215D01*
X51044D01*
X51050Y291202D01*
X51088Y291164D01*
X51138Y291108D01*
X51201Y291033D01*
X51257Y290932D01*
X51307Y290819D01*
X51345Y290687D01*
X51351Y290618D01*
X51358Y290543D01*
Y290505D01*
X51351Y290474D01*
X51339Y290405D01*
X51320Y290310D01*
X51282Y290204D01*
X51226Y290091D01*
X51188Y290034D01*
X51150Y289984D01*
X51100Y289927D01*
X51044Y289877D01*
X51037D01*
X51031Y289864D01*
X51012Y289852D01*
X50987Y289833D01*
X50956Y289814D01*
X50912Y289795D01*
X50868Y289770D01*
X50811Y289745D01*
X50748Y289720D01*
X50679Y289695D01*
X50604Y289676D01*
X50516Y289657D01*
X50422Y289638D01*
X50321Y289626D01*
X50215Y289620D01*
X50102Y289613D01*
X50095D01*
X50070D01*
X50039D01*
X49995Y289620D01*
X49938D01*
X49876Y289626D01*
X49813Y289632D01*
X49737Y289638D01*
X49580Y289664D01*
X49417Y289701D01*
X49266Y289745D01*
X49197Y289777D01*
X49134Y289814D01*
X49128Y289821D01*
X49116Y289827D01*
X49097Y289846D01*
X49065Y289864D01*
X48996Y289934D01*
X48915Y290021D01*
X48833Y290128D01*
X48764Y290260D01*
X48733Y290335D01*
X48714Y290417D01*
X48701Y290499D01*
X48695Y290587D01*
Y290624D01*
X48701Y290650D01*
X48714Y290719D01*
X48733Y290807D01*
X48770Y290901D01*
X48827Y291007D01*
X48864Y291064D01*
X48908Y291114D01*
X48952Y291164D01*
X49009Y291215D01*
X49015Y291221D01*
X49021Y291227D01*
X49040Y291240D01*
X49072Y291259D01*
X49103Y291278D01*
X49141Y291296D01*
X49191Y291321D01*
X49248Y291347D01*
X49317Y291372D01*
X49386Y291397D01*
X49467Y291416D01*
X49555Y291435D01*
X49656Y291453D01*
X49762Y291466D01*
X49876Y291478D01*
X49995D01*
X50001D01*
X50026D01*
X50064D01*
X50114Y291472D01*
D02*
G37*
G36*
X27664Y289981D02*
X27752Y289968D01*
X27840Y289943D01*
X27934Y289912D01*
X28029Y289861D01*
X28110Y289792D01*
X28117Y289786D01*
X28142Y289755D01*
X28173Y289711D01*
X28211Y289648D01*
X28249Y289566D01*
X28280Y289472D01*
X28305Y289365D01*
X28311Y289240D01*
Y289183D01*
X28299Y289120D01*
X28286Y289039D01*
X28261Y288951D01*
X28223Y288857D01*
X28167Y288762D01*
X28098Y288681D01*
X28085Y288674D01*
X28060Y288649D01*
X28010Y288618D01*
X27934Y288574D01*
X27840Y288536D01*
X27721Y288499D01*
X27577Y288467D01*
X27495Y288455D01*
X27407Y288448D01*
X27514Y287343D01*
X27526D01*
X27551Y287349D01*
X27602Y287356D01*
X27664Y287368D01*
X27740Y287381D01*
X27828Y287400D01*
X27922Y287425D01*
X28022Y287456D01*
X28129Y287494D01*
X28236Y287538D01*
X28349Y287588D01*
X28456Y287645D01*
X28563Y287707D01*
X28663Y287783D01*
X28751Y287864D01*
X28833Y287959D01*
X28839Y287965D01*
X28851Y287984D01*
X28870Y288015D01*
X28895Y288053D01*
X28927Y288103D01*
X28958Y288166D01*
X28996Y288235D01*
X29033Y288316D01*
X29071Y288411D01*
X29109Y288505D01*
X29140Y288612D01*
X29172Y288731D01*
X29197Y288850D01*
X29216Y288982D01*
X29228Y289120D01*
X29234Y289265D01*
Y287211D01*
X23425D01*
X23444Y287217D01*
X23476D01*
X23520Y287224D01*
X23570Y287236D01*
X23633Y287249D01*
X23702Y287261D01*
X23777Y287280D01*
X23947Y287331D01*
X24135Y287400D01*
X24330Y287481D01*
X24524Y287588D01*
X24531Y287594D01*
X24550Y287601D01*
X24581Y287626D01*
X24619Y287651D01*
X24669Y287688D01*
X24738Y287739D01*
X24807Y287795D01*
X24895Y287864D01*
X24989Y287940D01*
X25090Y288034D01*
X25209Y288134D01*
X25328Y288247D01*
X25460Y288373D01*
X25605Y288517D01*
X25755Y288668D01*
X25912Y288838D01*
X25919Y288844D01*
X25944Y288869D01*
X25981Y288907D01*
X26025Y288957D01*
X26082Y289020D01*
X26145Y289083D01*
X26220Y289158D01*
X26295Y289233D01*
X26452Y289397D01*
X26609Y289547D01*
X26678Y289610D01*
X26748Y289673D01*
X26810Y289723D01*
X26861Y289761D01*
X26867D01*
X26873Y289773D01*
X26892Y289780D01*
X26917Y289798D01*
X26986Y289836D01*
X27074Y289880D01*
X27175Y289918D01*
X27288Y289955D01*
X27413Y289981D01*
X27539Y289993D01*
X27545D01*
X27558D01*
X27577D01*
X27602D01*
X27664Y289981D01*
D02*
G37*
G36*
X43435Y290345D02*
X41287Y291136D01*
X40571Y291362D01*
X40577D01*
X40584Y291369D01*
X40615Y291375D01*
X40665Y291394D01*
X40722Y291412D01*
X40778Y291431D01*
X40841Y291450D01*
X40891Y291463D01*
X40929Y291475D01*
X40935D01*
X40960Y291488D01*
X40998Y291494D01*
X41042Y291513D01*
X41099Y291532D01*
X41155Y291551D01*
X41287Y291595D01*
X43435Y292392D01*
Y290345D01*
D02*
G37*
G36*
X41777Y287701D02*
X41815Y287695D01*
X41859Y287688D01*
X41965Y287670D01*
X42085Y287638D01*
X42204Y287594D01*
X42323Y287538D01*
X42424Y287456D01*
X42436Y287444D01*
X42461Y287412D01*
X42505Y287362D01*
X42555Y287293D01*
X42599Y287211D01*
X42643Y287111D01*
X42669Y286998D01*
X42681Y286878D01*
Y286841D01*
X42675Y286816D01*
X42669Y286753D01*
X42650Y286665D01*
X42618Y286571D01*
X42568Y286470D01*
X42499Y286376D01*
X42461Y286326D01*
X42411Y286282D01*
X42399Y286269D01*
X42361Y286244D01*
X42304Y286206D01*
X42223Y286162D01*
X42122Y286119D01*
X41997Y286081D01*
X41859Y286056D01*
X41695Y286049D01*
Y287707D01*
X41701D01*
X41714D01*
X41739D01*
X41777Y287701D01*
D02*
G37*
G36*
X24901Y280617D02*
D01*
D01*
D01*
D02*
G37*
G36*
X23319Y282394D02*
X23325Y282325D01*
X23337Y282244D01*
X23350Y282156D01*
X23369Y282062D01*
X23419Y281854D01*
X23450Y281741D01*
X23494Y281634D01*
X23545Y281522D01*
X23601Y281415D01*
X23664Y281314D01*
X23739Y281214D01*
X23746Y281207D01*
X23758Y281195D01*
X23783Y281170D01*
X23821Y281132D01*
X23865Y281095D01*
X23915Y281050D01*
X23978Y281000D01*
X24047Y280950D01*
X24129Y280900D01*
X24217Y280850D01*
X24311Y280799D01*
X24411Y280749D01*
X24524Y280705D01*
X24644Y280667D01*
X24769Y280642D01*
X24901Y280617D01*
X23312D01*
Y282451D01*
X23319Y282394D01*
D02*
G37*
G36*
X43429Y282909D02*
X43498Y282897D01*
X43573Y282878D01*
X43648Y282847D01*
X43724Y282809D01*
X43799Y282759D01*
X43805Y282752D01*
X43830Y282727D01*
X43862Y282696D01*
X43893Y282646D01*
X43937Y282583D01*
X43968Y282507D01*
X44000Y282413D01*
X44025Y282313D01*
Y282307D01*
X44031Y282281D01*
Y282231D01*
X44038Y282200D01*
Y282105D01*
X44044Y282043D01*
Y281892D01*
X44050Y281804D01*
Y280548D01*
X42574D01*
Y281616D01*
X42581Y281691D01*
Y281861D01*
X42593Y282043D01*
X42606Y282212D01*
X42612Y282288D01*
X42618Y282357D01*
X42631Y282419D01*
X42643Y282464D01*
X42650Y282476D01*
X42656Y282501D01*
X42675Y282539D01*
X42700Y282583D01*
X42731Y282639D01*
X42775Y282696D01*
X42826Y282746D01*
X42888Y282796D01*
X42895Y282803D01*
X42920Y282815D01*
X42957Y282834D01*
X43008Y282859D01*
X43071Y282878D01*
X43146Y282897D01*
X43234Y282909D01*
X43328Y282916D01*
X43334D01*
X43341D01*
X43378D01*
X43429Y282909D01*
D02*
G37*
G36*
X40496Y282344D02*
X40502Y282338D01*
X40527Y282325D01*
X40558Y282300D01*
X40602Y282269D01*
X40659Y282237D01*
X40716Y282193D01*
X40854Y282099D01*
X40998Y281993D01*
X41136Y281892D01*
X41199Y281842D01*
X41256Y281798D01*
X41306Y281760D01*
X41344Y281722D01*
X41350Y281716D01*
X41375Y281697D01*
X41400Y281660D01*
X41438Y281616D01*
X41482Y281565D01*
X41519Y281503D01*
X41557Y281440D01*
X41582Y281371D01*
X41588Y281364D01*
X41595Y281333D01*
X41607Y281289D01*
X41620Y281226D01*
X41632Y281145D01*
X41639Y281044D01*
X41651Y280925D01*
Y280548D01*
X39233D01*
Y283192D01*
X40496Y282344D01*
D02*
G37*
G36*
X26616Y278689D02*
X26716D01*
X26829Y278683D01*
X27062Y278670D01*
X27288Y278651D01*
X27401Y278639D01*
X27501Y278626D01*
X27589Y278608D01*
X27671Y278589D01*
X27677D01*
X27689Y278583D01*
X27708Y278576D01*
X27733Y278570D01*
X27796Y278551D01*
X27878Y278520D01*
X27966Y278482D01*
X28047Y278438D01*
X28123Y278388D01*
X28179Y278331D01*
X28186Y278325D01*
X28198Y278306D01*
X28223Y278269D01*
X28249Y278231D01*
X28267Y278174D01*
X28292Y278112D01*
X28305Y278049D01*
X28311Y277973D01*
Y277942D01*
X28305Y277904D01*
X28292Y277854D01*
X28280Y277798D01*
X28255Y277735D01*
X28223Y277678D01*
X28179Y277615D01*
X28173Y277609D01*
X28154Y277590D01*
X28123Y277559D01*
X28073Y277527D01*
X28010Y277490D01*
X27934Y277446D01*
X27834Y277408D01*
X27721Y277370D01*
X27715D01*
X27702Y277364D01*
X27677Y277358D01*
X27639Y277352D01*
X27589Y277345D01*
X27533Y277333D01*
X27457Y277326D01*
X27376Y277314D01*
X27281Y277301D01*
X27175Y277295D01*
X27055Y277283D01*
X26923Y277276D01*
X26785Y277270D01*
X26622Y277264D01*
X26452Y277257D01*
X26270D01*
X26258D01*
X26226D01*
X26176D01*
X26107D01*
X26019Y277264D01*
X25925D01*
X25824D01*
X25711Y277270D01*
X25479Y277283D01*
X25247Y277301D01*
X25134Y277314D01*
X25033Y277326D01*
X24945Y277339D01*
X24863Y277358D01*
X24857D01*
X24845Y277364D01*
X24826Y277370D01*
X24801Y277377D01*
X24738Y277396D01*
X24663Y277427D01*
X24575Y277465D01*
X24493Y277509D01*
X24418Y277559D01*
X24361Y277615D01*
X24355Y277622D01*
X24342Y277641D01*
X24323Y277678D01*
X24298Y277722D01*
X24273Y277772D01*
X24254Y277835D01*
X24242Y277898D01*
X24236Y277973D01*
Y278005D01*
X24242Y278042D01*
X24254Y278093D01*
X24267Y278149D01*
X24286Y278212D01*
X24317Y278269D01*
X24361Y278331D01*
X24367Y278338D01*
X24386Y278356D01*
X24418Y278388D01*
X24468Y278419D01*
X24531Y278463D01*
X24606Y278501D01*
X24706Y278538D01*
X24820Y278576D01*
X24826D01*
X24838Y278583D01*
X24863Y278589D01*
X24901Y278595D01*
X24951Y278601D01*
X25008Y278614D01*
X25077Y278626D01*
X25159Y278639D01*
X25253Y278645D01*
X25360Y278658D01*
X25479Y278670D01*
X25611Y278677D01*
X25755Y278683D01*
X25912Y278689D01*
X26088Y278696D01*
X26270D01*
X26283D01*
X26314D01*
X26364D01*
X26434D01*
X26515D01*
X26616Y278689D01*
D02*
G37*
G36*
X29234Y276096D02*
X26396D01*
X26440Y276102D01*
X26490D01*
X26547D01*
X26685Y276114D01*
X26835Y276127D01*
X27005Y276146D01*
X27187Y276165D01*
X27382Y276196D01*
X27577Y276234D01*
X27771Y276278D01*
X27966Y276334D01*
X28154Y276397D01*
X28330Y276472D01*
X28493Y276560D01*
X28638Y276661D01*
X28644Y276667D01*
X28663Y276686D01*
X28694Y276711D01*
X28732Y276749D01*
X28776Y276799D01*
X28826Y276855D01*
X28883Y276924D01*
X28939Y277000D01*
X28989Y277088D01*
X29046Y277188D01*
X29096Y277295D01*
X29140Y277414D01*
X29178Y277540D01*
X29209Y277678D01*
X29228Y277823D01*
X29234Y277973D01*
Y276096D01*
D02*
G37*
G36*
X34714Y278118D02*
X34752Y278112D01*
X34796Y278105D01*
X34903Y278086D01*
X35022Y278055D01*
X35141Y278011D01*
X35261Y277955D01*
X35361Y277873D01*
X35374Y277860D01*
X35399Y277829D01*
X35443Y277779D01*
X35493Y277710D01*
X35537Y277628D01*
X35581Y277527D01*
X35606Y277414D01*
X35619Y277295D01*
Y277257D01*
X35612Y277232D01*
X35606Y277169D01*
X35587Y277082D01*
X35556Y276987D01*
X35506Y276887D01*
X35436Y276793D01*
X35399Y276742D01*
X35349Y276698D01*
X35336Y276686D01*
X35298Y276661D01*
X35242Y276623D01*
X35160Y276579D01*
X35060Y276535D01*
X34934Y276498D01*
X34796Y276472D01*
X34633Y276466D01*
Y278124D01*
X34639D01*
X34651D01*
X34677D01*
X34714Y278118D01*
D02*
G37*
G36*
X50453Y274391D02*
X50491Y274384D01*
X50535Y274378D01*
X50642Y274359D01*
X50761Y274328D01*
X50880Y274284D01*
X51000Y274227D01*
X51100Y274146D01*
X51113Y274133D01*
X51138Y274102D01*
X51182Y274051D01*
X51232Y273982D01*
X51276Y273901D01*
X51320Y273800D01*
X51345Y273687D01*
X51358Y273568D01*
Y273530D01*
X51351Y273505D01*
X51345Y273442D01*
X51326Y273354D01*
X51295Y273260D01*
X51245Y273160D01*
X51175Y273065D01*
X51138Y273015D01*
X51088Y272971D01*
X51075Y272959D01*
X51037Y272934D01*
X50981Y272896D01*
X50899Y272852D01*
X50799Y272808D01*
X50673Y272770D01*
X50535Y272745D01*
X50372Y272739D01*
Y274397D01*
X50378D01*
X50390D01*
X50416D01*
X50453Y274391D01*
D02*
G37*
G36*
X34055Y272717D02*
X33515Y272202D01*
X32171D01*
Y273772D01*
X34055Y272717D01*
D02*
G37*
G36*
X34438Y296826D02*
X34495D01*
X34557Y296820D01*
X34626Y296807D01*
X34696Y296801D01*
X34852Y296769D01*
X35016Y296719D01*
X35166Y296650D01*
X35236Y296612D01*
X35298Y296562D01*
X35305D01*
X35311Y296550D01*
X35349Y296512D01*
X35399Y296455D01*
X35462Y296374D01*
X35518Y296280D01*
X35568Y296160D01*
X35606Y296028D01*
X35612Y295953D01*
X35619Y295878D01*
Y295840D01*
X35612Y295815D01*
X35600Y295739D01*
X35581Y295645D01*
X35543Y295545D01*
X35487Y295438D01*
X35449Y295381D01*
X35411Y295325D01*
X35361Y295275D01*
X35305Y295224D01*
X35298D01*
X35292Y295212D01*
X35273Y295199D01*
X35248Y295187D01*
X35217Y295168D01*
X35173Y295143D01*
X35129Y295118D01*
X35072Y295099D01*
X35010Y295074D01*
X34940Y295049D01*
X34859Y295030D01*
X34777Y295005D01*
X34683Y294992D01*
X34582Y294980D01*
X34476Y294967D01*
X34356D01*
X34350D01*
X34325D01*
X34294D01*
X34250Y294973D01*
X34193D01*
X34130Y294980D01*
X34055Y294986D01*
X33980Y294998D01*
X33823Y295030D01*
X33659Y295074D01*
X33509Y295136D01*
X33439Y295181D01*
X33377Y295224D01*
X33370Y295231D01*
X33364Y295237D01*
X33327Y295268D01*
X33283Y295325D01*
X33226Y295400D01*
X33169Y295495D01*
X33119Y295601D01*
X33081Y295721D01*
X33075Y295790D01*
X33069Y295859D01*
Y295896D01*
X33075Y295928D01*
X33081Y295959D01*
X33088Y296003D01*
X33107Y296097D01*
X33144Y296204D01*
X33201Y296323D01*
X33239Y296380D01*
X33283Y296437D01*
X33327Y296493D01*
X33383Y296550D01*
X33389Y296556D01*
X33395Y296562D01*
X33414Y296575D01*
X33446Y296593D01*
X33477Y296612D01*
X33515Y296638D01*
X33565Y296663D01*
X33622Y296694D01*
X33684Y296719D01*
X33753Y296744D01*
X33835Y296769D01*
X33917Y296788D01*
X34011Y296807D01*
X34111Y296820D01*
X34218Y296832D01*
X34331D01*
X34337D01*
X34363D01*
X34394D01*
X34438Y296826D01*
D02*
G37*
G36*
X36467Y293830D02*
X34337D01*
X34394Y293837D01*
X34469D01*
X34557Y293843D01*
X34658Y293855D01*
X34771Y293874D01*
X34890Y293893D01*
X35022Y293918D01*
X35154Y293956D01*
X35286Y293994D01*
X35418Y294044D01*
X35550Y294100D01*
X35675Y294169D01*
X35794Y294245D01*
X35908Y294333D01*
X35914Y294339D01*
X35933Y294358D01*
X35958Y294383D01*
X35996Y294427D01*
X36039Y294471D01*
X36083Y294534D01*
X36134Y294603D01*
X36190Y294684D01*
X36240Y294766D01*
X36291Y294866D01*
X36335Y294967D01*
X36378Y295080D01*
X36416Y295199D01*
X36441Y295325D01*
X36460Y295457D01*
X36467Y295595D01*
Y293830D01*
D02*
G37*
G36*
X50127Y269888D02*
X50183D01*
X50246Y269882D01*
X50315Y269869D01*
X50390Y269863D01*
X50547Y269831D01*
X50711Y269781D01*
X50868Y269712D01*
X50937Y269674D01*
X51000Y269624D01*
X51006D01*
X51012Y269612D01*
X51050Y269574D01*
X51100Y269517D01*
X51163Y269442D01*
X51226Y269348D01*
X51276Y269235D01*
X51314Y269109D01*
X51320Y269040D01*
X51326Y268965D01*
Y268927D01*
X51320Y268896D01*
X51314Y268864D01*
X51307Y268820D01*
X51288Y268726D01*
X51251Y268619D01*
X51194Y268506D01*
X51157Y268450D01*
X51113Y268393D01*
X51062Y268337D01*
X51006Y268286D01*
X51000D01*
X50993Y268274D01*
X50975Y268261D01*
X50949Y268243D01*
X50912Y268224D01*
X50874Y268205D01*
X50824Y268180D01*
X50774Y268155D01*
X50711Y268129D01*
X50642Y268104D01*
X50566Y268085D01*
X50485Y268067D01*
X50390Y268048D01*
X50296Y268035D01*
X50190Y268029D01*
X50077Y268023D01*
X50070D01*
X50045D01*
X50007D01*
X49963Y268029D01*
X49901D01*
X49832Y268035D01*
X49762Y268048D01*
X49681Y268060D01*
X49511Y268092D01*
X49335Y268142D01*
X49172Y268211D01*
X49097Y268249D01*
X49028Y268299D01*
X49021Y268305D01*
X49015Y268312D01*
X48978Y268349D01*
X48921Y268412D01*
X48864Y268494D01*
X48802Y268594D01*
X48745Y268707D01*
X48707Y268845D01*
X48701Y268914D01*
X48695Y268990D01*
Y269027D01*
X48701Y269053D01*
X48714Y269122D01*
X48733Y269216D01*
X48770Y269316D01*
X48827Y269423D01*
X48858Y269473D01*
X48902Y269530D01*
X48946Y269580D01*
X49003Y269630D01*
X49009Y269637D01*
X49015Y269643D01*
X49034Y269655D01*
X49059Y269674D01*
X49097Y269693D01*
X49134Y269712D01*
X49185Y269737D01*
X49248Y269762D01*
X49310Y269787D01*
X49386Y269812D01*
X49467Y269831D01*
X49562Y269850D01*
X49662Y269869D01*
X49775Y269882D01*
X49894Y269894D01*
X50020D01*
X50026D01*
X50051D01*
X50083D01*
X50127Y269888D01*
D02*
G37*
G36*
X53706Y252844D02*
X50560D01*
X50554D01*
X50529D01*
X50491D01*
X50441D01*
X50378D01*
X50309D01*
X50234Y252850D01*
X50158D01*
X49989D01*
X49832Y252863D01*
X49756D01*
X49693Y252869D01*
X49637Y252875D01*
X49587Y252882D01*
X49580D01*
X49574Y252888D01*
X49555D01*
X49530Y252900D01*
X49461Y252919D01*
X49379Y252957D01*
X49292Y253001D01*
X49197Y253064D01*
X49103Y253145D01*
X49015Y253239D01*
Y253246D01*
X49009Y253252D01*
X48996Y253271D01*
X48984Y253290D01*
X48946Y253353D01*
X48908Y253440D01*
X48871Y253554D01*
X48833Y253685D01*
X48808Y253836D01*
X48802Y254012D01*
Y254062D01*
X48808Y254094D01*
Y254138D01*
X48814Y254182D01*
X48827Y254295D01*
X48852Y254414D01*
X48890Y254539D01*
X48934Y254659D01*
X49003Y254766D01*
X49009Y254778D01*
X49040Y254803D01*
X49084Y254847D01*
X49141Y254897D01*
X49210Y254948D01*
X49298Y254998D01*
X49392Y255042D01*
X49499Y255067D01*
X49505D01*
X49511D01*
X49530Y255073D01*
X49555D01*
X49593Y255080D01*
X49631Y255086D01*
X49681Y255092D01*
X49737Y255098D01*
X49800D01*
X49876Y255105D01*
X49957Y255111D01*
X50045Y255117D01*
X50146D01*
X50252Y255123D01*
X50365D01*
X50491D01*
X53706D01*
Y252844D01*
D02*
G37*
D11*
X128725Y93730D02*
X127937Y94517D01*
X126363D01*
X125576Y93730D01*
Y92943D01*
X126363Y92156D01*
X125576Y91369D01*
Y90582D01*
X126363Y89795D01*
X127937D01*
X128725Y90582D01*
Y91369D01*
X127937Y92156D01*
X128725Y92943D01*
Y93730D01*
X127937Y92156D02*
X126363D01*
X128725Y129795D02*
X127150D01*
X127937D01*
Y134518D01*
X128725Y133730D01*
X121640Y129795D02*
X124789D01*
X121640Y132943D01*
Y133730D01*
X122427Y134518D01*
X124002D01*
X124789Y133730D01*
X128725Y159795D02*
X127150D01*
X127937D01*
Y164517D01*
X128725Y163730D01*
X121640Y164517D02*
X124789D01*
Y162156D01*
X123214Y162943D01*
X122427D01*
X121640Y162156D01*
Y160582D01*
X122427Y159795D01*
X124002D01*
X124789Y160582D01*
X128725Y119795D02*
X127150D01*
X127937D01*
Y124518D01*
X128725Y123730D01*
X124789Y119795D02*
X123214D01*
X124002D01*
Y124518D01*
X124789Y123730D01*
X129906Y149819D02*
X128331D01*
X129118D01*
Y154542D01*
X129906Y153755D01*
X123608Y149819D02*
Y154542D01*
X125970Y152180D01*
X122821D01*
X128725Y109795D02*
X127150D01*
X127937D01*
Y114517D01*
X128725Y113730D01*
X124789D02*
X124002Y114517D01*
X122427D01*
X121640Y113730D01*
Y110582D01*
X122427Y109795D01*
X124002D01*
X124789Y110582D01*
Y113730D01*
X128725Y100582D02*
X127937Y99795D01*
X126363D01*
X125576Y100582D01*
Y103730D01*
X126363Y104517D01*
X127937D01*
X128725Y103730D01*
Y102943D01*
X127937Y102156D01*
X125576D01*
X128725Y139795D02*
X127150D01*
X127937D01*
Y144518D01*
X128725Y143730D01*
X124789D02*
X124002Y144518D01*
X122427D01*
X121640Y143730D01*
Y142943D01*
X122427Y142156D01*
X123214D01*
X122427D01*
X121640Y141369D01*
Y140582D01*
X122427Y139795D01*
X124002D01*
X124789Y140582D01*
X185337Y14023D02*
X181338Y8025D01*
Y14023D02*
X185337Y8025D01*
X175340D02*
X179339D01*
X175340Y12023D01*
Y13023D01*
X176340Y14023D01*
X178339D01*
X179339Y13023D01*
D16*
X158843Y16201D02*
G03*
X158843Y16201I-394J0D01*
G01*
X164433Y15709D02*
X196441D01*
Y81693D01*
X164433D02*
X196441D01*
X164433Y15709D02*
Y81693D01*
X20866Y189764D02*
Y215748D01*
Y189764D02*
X46850D01*
Y215748D01*
X20866D02*
X46850D01*
X113583Y162992D02*
X113976D01*
X113583Y159843D02*
X113976D01*
X113583Y149843D02*
X113976D01*
X113583Y152992D02*
X113976D01*
X113583Y139843D02*
X113976D01*
X113583Y142992D02*
X113976D01*
X113583Y129843D02*
X113976D01*
X113583Y132992D02*
X113976D01*
X113583Y99843D02*
X113976D01*
X113583Y102992D02*
X113976D01*
X113583Y109843D02*
X113976D01*
X113583Y112992D02*
X113976D01*
X113583Y119843D02*
X113976D01*
X113583Y122992D02*
X113976D01*
X113583Y89843D02*
X113976D01*
X113583Y92992D02*
X113976D01*
D64*
X70962Y231345D02*
G03*
X71535Y231324I1458J32723D01*
G01*
X108810Y257404D02*
G03*
X109224Y257575I0J586D01*
G01*
X64211Y259727D02*
G03*
X64463Y258279I3491J-140D01*
G01*
X65667Y259459D02*
G03*
X66010Y258862I1068J217D01*
G01*
D02*
G03*
X66766Y258500I1088J1300D01*
G01*
X86295Y259158D02*
G03*
X86464Y258744I583J-3D01*
G01*
D02*
G03*
X86877Y258572I413J411D01*
G01*
X109396Y257989D02*
G03*
X108810Y258572I-586J-3D01*
G01*
X64228Y260315D02*
G03*
X64218Y260139I5762J-408D01*
G01*
X65606Y260906D02*
G03*
X65601Y260872I1331J-195D01*
G01*
Y260872D02*
G03*
X65595Y260806I1486J-178D01*
G01*
X65595Y260806D02*
G03*
X65593Y260773I1715J-129D01*
G01*
X76993Y266435D02*
G03*
X77665Y267550I-4814J3661D01*
G01*
X76683Y269653D02*
G03*
X76650Y270068I-2412J15D01*
G01*
X77983Y268599D02*
G03*
X78058Y269516I-6159J967D01*
G01*
X74330Y272447D02*
G03*
X75048Y272573I-581J5396D01*
G01*
X75377Y272669D02*
G03*
X75687Y272785I-1284J3881D01*
G01*
X75048Y272573D02*
G03*
X75377Y272669I-1095J4401D01*
G01*
X64323Y274546D02*
G03*
X65079Y273230I3713J1257D01*
G01*
X71358Y274000D02*
G03*
X71816Y274865I-4935J3165D01*
G01*
X74330Y273816D02*
G03*
X76101Y274931I-246J2354D01*
G01*
X77141Y273936D02*
G03*
X77472Y274498I-3030J2164D01*
G01*
X76249Y273083D02*
G03*
X77141Y273936I-1809J2784D01*
G01*
X77472Y274498D02*
G03*
X77610Y274816I-4042J1939D01*
G01*
X65459Y276304D02*
G03*
X65492Y276013I5816J513D01*
G01*
X65433Y276927D02*
G03*
X65439Y276609I7520J-3D01*
G01*
X65439Y276609D02*
G03*
X65459Y276304I6618J277D01*
G01*
X65539Y275736D02*
G03*
X65598Y275473I4486J875D01*
G01*
X65598Y275473D02*
G03*
X65757Y274988I3737J954D01*
G01*
X70834Y275935D02*
G03*
X70946Y276339I-6773J2091D01*
G01*
Y276339D02*
G03*
X71040Y276773I-8232J2018D01*
G01*
X70559Y275220D02*
G03*
X70705Y275562I-4495J2120D01*
G01*
D02*
G03*
X70834Y275935I-5535J2121D01*
G01*
X72172Y275887D02*
G03*
X72312Y276458I-9754J2694D01*
G01*
X72312Y276458D02*
G03*
X72426Y277067I-11664J2505D01*
G01*
X72006Y275356D02*
G03*
X72172Y275887I-8119J2819D01*
G01*
X77913Y275922D02*
G03*
X77977Y276341I-8015J1440D01*
G01*
X76538Y276111D02*
G03*
X76590Y276403I-5845J1199D01*
G01*
X77977Y276341D02*
G03*
X78022Y276784I-9437J1194D01*
G01*
X76590Y276403D02*
G03*
X76631Y276715I-6955J1070D01*
G01*
X76631D02*
G03*
X76660Y277045I-8226J893D01*
G01*
X77830Y275528D02*
G03*
X77913Y275922I-6781J1627D01*
G01*
X77729Y275160D02*
G03*
X77830Y275528I-5718J1764D01*
G01*
X76310Y275347D02*
G03*
X76398Y275583I-3358J1378D01*
G01*
X76398Y275583D02*
G03*
X76474Y275837I-4059J1345D01*
G01*
X76474Y275837D02*
G03*
X76538Y276111I-4884J1289D01*
G01*
X85667Y277064D02*
G03*
X85110Y276007I835J-1116D01*
G01*
X86359Y276130D02*
G03*
X86295Y276007I233J-200D01*
G01*
X92330Y276167D02*
G03*
X92158Y275753I411J-413D01*
G01*
X92744Y276336D02*
G03*
X92330Y276167I-3J-583D01*
G01*
X92330Y275340D02*
G03*
X92744Y275168I414J414D01*
G01*
X92158Y275753D02*
G03*
X92330Y275340I586J0D01*
G01*
X107767Y276336D02*
G03*
X108181Y276508I0J586D01*
G01*
X109060Y275618D02*
G03*
X109510Y276704I-1086J1086D01*
G01*
X64463Y278782D02*
G03*
X64145Y277491I5762J-2103D01*
G01*
X71117Y277238D02*
G03*
X71177Y277734I-11902J1695D01*
G01*
X71177Y277734D02*
G03*
X71220Y278261I-14156J1419D01*
G01*
X72515Y277716D02*
G03*
X72579Y278405I-16409J1862D01*
G01*
X72579Y278405D02*
G03*
X72617Y279133I-19296J1376D01*
G01*
X78049Y277253D02*
G03*
X78058Y277747I-12901J473D01*
G01*
X66969Y280644D02*
G03*
X66205Y279562I5677J-4820D01*
G01*
X85281Y282572D02*
G03*
X85695Y282401I414J414D01*
G01*
X86109Y282572D02*
G03*
X86281Y282986I-414J414D01*
G01*
X85695Y282401D02*
G03*
X86109Y282572I0J586D01*
G01*
X85110Y282986D02*
G03*
X85281Y282572I586J0D01*
G01*
X108269Y292193D02*
G03*
X108107Y292179I-70J-137D01*
G01*
X109510Y293155D02*
G03*
X109101Y293869I-746J47D01*
G01*
X86863Y298233D02*
G03*
X86450Y298061I0J-583D01*
G01*
D02*
G03*
X86281Y297647I413J-411D01*
G01*
X86663Y299401D02*
G03*
X85567Y298957I-14J-1539D01*
G01*
X107759Y299401D02*
G03*
X108344Y299984I0J586D01*
G01*
X109060Y298683D02*
G03*
X109510Y299769I-1086J1086D01*
G01*
X85110Y319351D02*
G03*
X86649Y317815I1539J3D01*
G01*
X86292Y319568D02*
G03*
X86462Y319155I583J-3D01*
G01*
X86462Y319155D02*
G03*
X86875Y318983I413J411D01*
G01*
X76943Y320215D02*
G03*
X77645Y321448I-4539J3404D01*
G01*
X77972Y322591D02*
G03*
X78058Y323620I-6368J1053D01*
G01*
X75816Y325666D02*
G03*
X74701Y326202I-1690J-2090D01*
G01*
X77864Y325110D02*
G03*
X77622Y325731I-3554J-1028D01*
G01*
X85706Y326191D02*
G03*
X85286Y326024I-11J-585D01*
G01*
X86292Y325608D02*
G03*
X85706Y326191I-586J-3D01*
G01*
X85286Y326024D02*
G03*
X85110Y325608I409J-419D01*
G01*
X75685Y327388D02*
G03*
X74958Y327595I-1833J-5055D01*
G01*
X74958Y327595D02*
G03*
X74135Y327719I-1484J-7044D01*
G01*
X77665Y335445D02*
G03*
X77983Y336485I-3936J1771D01*
G01*
X76683Y337048D02*
G03*
X76477Y338303I-3319J99D01*
G01*
X76815Y342092D02*
G03*
X77562Y343272I-4404J3617D01*
G01*
X76678Y345299D02*
G03*
X76670Y345587I-4850J4D01*
G01*
X75841Y347404D02*
G03*
X75663Y347517I-1202J-1696D01*
G01*
D02*
G03*
X75463Y347619I-1219J-2154D01*
G01*
X75463Y347619D02*
G03*
X75242Y347708I-1230J-2722D01*
G01*
X78058Y345653D02*
G03*
X77864Y346995I-4332J60D01*
G01*
X76377Y346776D02*
G03*
X76268Y346960I-1729J-894D01*
G01*
X77864Y346995D02*
G03*
X77622Y347554I-2987J-962D01*
G01*
X76644Y345859D02*
G03*
X76603Y346114I-3442J-433D01*
G01*
D02*
G03*
X76544Y346352I-2887J-584D01*
G01*
X76544D02*
G03*
X76469Y346573I-2422J-704D01*
G01*
Y346573D02*
G03*
X76377Y346776I-2040J-804D01*
G01*
X73815Y347977D02*
G03*
X73095Y348001I-700J-10244D01*
G01*
X74958Y349230D02*
G03*
X74135Y349341I-1475J-7803D01*
G01*
X74735Y347851D02*
G03*
X74450Y347905I-1137J-5254D01*
G01*
X75685Y349044D02*
G03*
X74958Y349230I-1809J-5555D01*
G01*
X74999Y347786D02*
G03*
X74735Y347851I-1198J-4255D01*
G01*
X74450Y347905D02*
G03*
X74143Y347947I-1032J-6431D01*
G01*
X71536Y231324D02*
G03*
X72100Y231315I773J28627D01*
G01*
X65363Y233653D02*
G03*
X66771Y232390I3792J2811D01*
G01*
X68843Y233099D02*
G03*
X72339Y232708I3169J12529D01*
G01*
X72339Y244405D02*
G03*
X68851Y244026I-341J-13101D01*
G01*
X72284Y245799D02*
G03*
X68815Y245470I-186J-16489D01*
G01*
X66453Y257069D02*
G03*
X68199Y256983I1623J15101D01*
G01*
X65210Y257443D02*
G03*
X66453Y257069I1529J2834D01*
G01*
X66766Y258500D02*
G03*
X68082Y258377I1181J5547D01*
G01*
X73937Y265267D02*
G03*
X74941Y266011I-3507J5778D01*
G01*
X75816Y266945D02*
G03*
X76444Y268002I-3914J3038D01*
G01*
X66267Y272355D02*
G03*
X67803Y272034I1488J3287D01*
G01*
X66094Y274365D02*
G03*
X67940Y273428I1767J1195D01*
G01*
X65492Y276013D02*
G03*
X65539Y275736I5108J710D01*
G01*
X76212Y275129D02*
G03*
X76310Y275347I-2767J1393D01*
G01*
X107974Y275168D02*
G03*
X109060Y275618I0J1536D01*
G01*
X108181Y276508D02*
G03*
X108353Y276922I-414J414D01*
G01*
X76374Y279788D02*
G03*
X75524Y280904I-2314J-882D01*
G01*
X76728Y281723D02*
G03*
X75164Y282615I-2619J-2774D01*
G01*
Y282615D02*
G03*
X73095Y282894I-1984J-6909D01*
G01*
X74244Y281389D02*
G03*
X72629Y281492I-1541J-11429D01*
G01*
X109101Y293869D02*
G03*
X108283Y293774I-337J-667D01*
G01*
X66849Y304857D02*
G03*
X68620Y303924I3138J3802D01*
G01*
X73533D02*
G03*
X75284Y304857I-1321J4584D01*
G01*
X68620Y312436D02*
G03*
X66849Y311494I1425J-4812D01*
G01*
X75284Y311494D02*
G03*
X73533Y312436I-3133J-3723D01*
G01*
X109060Y318533D02*
G03*
X107974Y318983I-1086J-1086D01*
G01*
X76469Y324696D02*
G03*
X75816Y325666I-2129J-727D01*
G01*
X74135Y327719D02*
G03*
X73215Y327760I-898J-9702D01*
G01*
X75738Y332977D02*
G03*
X76968Y334285I-5852J6735D01*
G01*
X76477Y338303D02*
G03*
X75841Y339139I-1713J-642D01*
G01*
X74726Y339583D02*
G03*
X73095Y339711I-1513J-8807D01*
G01*
X76268Y346960D02*
G03*
X75841Y347404I-1416J-935D01*
G01*
X76315Y348783D02*
G03*
X75685Y349044I-1987J-3910D01*
G01*
X74135Y349341D02*
G03*
X73215Y349378I-891J-10776D01*
G01*
X74143Y347947D02*
G03*
X73815Y347977I-875J-7801D01*
G01*
X68489Y231679D02*
G03*
X70379Y231375I2487J9437D01*
G01*
X66738Y234242D02*
G03*
X68843Y233099I3274J3520D01*
G01*
X68851Y244026D02*
G03*
X66746Y242911I1176J-4764D01*
G01*
X67940Y273428D02*
G03*
X70396Y274909I48J2699D01*
G01*
X77459Y339658D02*
G03*
X75618Y340994I-2798J-1920D01*
G01*
X68104Y302666D02*
G03*
X74037Y302666I2967J10067D01*
G01*
X68620Y303924D02*
G03*
X73533Y303924I2457J9006D01*
G01*
Y312436D02*
G03*
X68620Y312436I-2457J-8699D01*
G01*
X74012Y313760D02*
G03*
X68112Y313760I-2950J-10089D01*
G01*
X64410Y235655D02*
G03*
X65363Y233653I5947J1604D01*
G01*
X64058Y238555D02*
G03*
X64410Y235655I10440J-206D01*
G01*
X65706Y236079D02*
G03*
X66738Y234242I3793J921D01*
G01*
X66746Y242911D02*
G03*
X65706Y241073I2619J-2696D01*
G01*
X64463Y258279D02*
G03*
X65210Y257443I1611J687D01*
G01*
X65589Y260265D02*
G03*
X65667Y259459I3725J-46D01*
G01*
X85110Y258940D02*
G03*
X86649Y257404I1539J3D01*
G01*
X109224Y257575D02*
G03*
X109396Y257989I-414J414D01*
G01*
X74941Y266011D02*
G03*
X75816Y266945I-4336J4942D01*
G01*
X77665Y267550D02*
G03*
X77983Y268599I-3957J1772D01*
G01*
X76444Y268002D02*
G03*
X76683Y269148I-2596J1141D01*
G01*
X64058Y276191D02*
G03*
X64323Y274546I4999J-39D01*
G01*
X65098Y280106D02*
G03*
X64463Y278782I6255J-3817D01*
G01*
X64145Y277491D02*
G03*
X64058Y276191I9449J-1281D01*
G01*
X66205Y279562D02*
G03*
X65648Y278305I5506J-3194D01*
G01*
X65757Y274988D02*
G03*
X66094Y274365I2837J1133D01*
G01*
X71220Y278261D02*
G03*
X71255Y279406I-18102J1116D01*
G01*
X71040Y276773D02*
G03*
X71117Y277238I-9935J1890D01*
G01*
X70396Y274909D02*
G03*
X70559Y275220I-3632J2101D01*
G01*
X72426Y277067D02*
G03*
X72515Y277716I-13873J2233D01*
G01*
X72617Y279133D02*
G03*
X72629Y279900I-22560J758D01*
G01*
X75524Y280904D02*
G03*
X74244Y281389I-1633J-2376D01*
G01*
X76101Y274931D02*
G03*
X76212Y275129I-2276J1400D01*
G01*
X77715Y280128D02*
G03*
X76728Y281723I-3782J-1237D01*
G01*
X78058Y277747D02*
G03*
X77715Y280128I-7248J171D01*
G01*
X76683Y277761D02*
G03*
X76374Y279788I-5397J213D01*
G01*
X78022Y276784D02*
G03*
X78049Y277253I-11060J875D01*
G01*
X76660Y277045D02*
G03*
X76683Y277761I-10448J698D01*
G01*
X77610Y274816D02*
G03*
X77729Y275160I-4810J1864D01*
G01*
X85567Y298957D02*
G03*
X85110Y297867I1081J-1095D01*
G01*
X65784Y306305D02*
G03*
X66849Y304857I3500J1460D01*
G01*
Y311494D02*
G03*
X65784Y310047I2434J-2907D01*
G01*
X78058Y308184D02*
G03*
X77581Y310665I-6276J81D01*
G01*
X74124Y318919D02*
G03*
X76014Y321041I-6554J7742D01*
G01*
X76683Y323232D02*
G03*
X76469Y324696I-4312J115D01*
G01*
X78058Y323620D02*
G03*
X77864Y325110I-5308J68D01*
G01*
X77645Y321448D02*
G03*
X77972Y322591I-4659J1948D01*
G01*
X108344Y317232D02*
G03*
X107759Y317815I-586J-3D01*
G01*
X109510Y317447D02*
G03*
X109060Y318533I-1536J0D01*
G01*
X75841Y339139D02*
G03*
X74726Y339583I-1552J-2279D01*
G01*
X78058Y337427D02*
G03*
X77459Y339658I-3966J130D01*
G01*
X77983Y336485D02*
G03*
X78058Y337427I-6190J969D01*
G01*
X76968Y334285D02*
G03*
X77665Y335445I-4906J3738D01*
G01*
X75242Y347708D02*
G03*
X74999Y347786I-1226J-3417D01*
G01*
X77947Y344476D02*
G03*
X78058Y345653I-6301J1191D01*
G01*
X77622Y347554D02*
G03*
X76315Y348783I-2637J-1495D01*
G01*
X76670Y345587D02*
G03*
X76644Y345859I-4094J-240D01*
G01*
X77562Y343272D02*
G03*
X77947Y344476I-4735J2176D01*
G01*
X65427Y238563D02*
G03*
X65706Y236079I10246J-108D01*
G01*
X66771Y232390D02*
G03*
X68489Y231679I3522J6077D01*
G01*
X66227Y244327D02*
G03*
X64616Y242102I3162J-3987D01*
G01*
X65079Y273230D02*
G03*
X66267Y272355I2637J2334D01*
G01*
X75687Y272785D02*
G03*
X76249Y273083I-1406J3334D01*
G01*
X66119Y281500D02*
G03*
X65098Y280106I7033J-6219D01*
G01*
X65648Y278305D02*
G03*
X65433Y276927I4191J-1359D01*
G01*
X67786Y281500D02*
G03*
X66969Y280644I6667J-7180D01*
G01*
X71816Y274865D02*
G03*
X72006Y275356I-6731J2894D01*
G01*
X107974Y298233D02*
G03*
X109060Y298683I0J1536D01*
G01*
X108353Y292054D02*
G03*
X108269Y292193I-153J3D01*
G01*
X64529Y305758D02*
G03*
X65896Y303879I4632J1932D01*
G01*
X65896D02*
G03*
X68104Y302666I4119J4883D01*
G01*
X75284Y304857D02*
G03*
X76332Y306305I-2523J2931D01*
G01*
X74037Y302666D02*
G03*
X76229Y303871I-1831J5928D01*
G01*
X65784Y310047D02*
G03*
X65433Y308184I4436J-1801D01*
G01*
X65904Y312559D02*
G03*
X64529Y310668I3374J-3898D01*
G01*
X68112Y313760D02*
G03*
X65904Y312559I1858J-6045D01*
G01*
X76207Y312553D02*
G03*
X74012Y313760I-4039J-4742D01*
G01*
X76332Y310047D02*
G03*
X75284Y311494I-3571J-1484D01*
G01*
X75738Y318927D02*
G03*
X76943Y320215I-5517J6366D01*
G01*
X76014Y321041D02*
G03*
X76683Y323232I-3335J2216D01*
G01*
X74701Y326202D02*
G03*
X73095Y326366I-1508J-6805D01*
G01*
X76006Y334968D02*
G03*
X76683Y337048I-2947J2110D01*
G01*
X75618Y340994D02*
G03*
X76815Y342092I-3566J5083D01*
G01*
X76000Y343141D02*
G03*
X76678Y345299I-3254J2207D01*
G01*
X68815Y245470D02*
G03*
X66227Y244327I1202J-6220D01*
G01*
X76229Y303871D02*
G03*
X77595Y305758I-3367J3875D01*
G01*
X77581Y310665D02*
G03*
X76207Y312553I-4712J-1987D01*
G01*
X77622Y325731D02*
G03*
X75685Y327388I-2981J-1525D01*
G01*
X64616Y242102D02*
G03*
X64058Y238555I9155J-3257D01*
G01*
X64529Y310668D02*
G03*
X64529Y305758I6225J-2455D01*
G01*
X76332Y306305D02*
G03*
X76332Y310047I-4807J1871D01*
G01*
X77595Y305758D02*
G03*
X78058Y308184I-5743J2353D01*
G01*
X65706Y241073D02*
G03*
X65427Y238563I10263J-2411D01*
G01*
X75878Y265267D02*
G03*
X76993Y266435I-4599J5507D01*
G01*
X65433Y308184D02*
G03*
X65784Y306305I4832J-69D01*
G01*
X74085Y341105D02*
G03*
X76000Y343141I-5324J6929D01*
G01*
X74090Y332977D02*
G03*
X76006Y334968I-5981J7672D01*
G01*
X67803Y272034D02*
G03*
X71358Y274000I105J4008D01*
G01*
X70379Y231375D02*
X70962Y231345D01*
X72100Y231315D02*
X72286Y231314D01*
X76341Y255268D02*
X77715D01*
X64212Y259727D02*
Y259785D01*
X64212Y259844D01*
X64213Y259903D01*
X64213Y259962D02*
X64215Y260021D01*
X64216Y260080D01*
X64219Y260139D01*
X64228Y260315D02*
X64233Y260374D01*
X64242Y260491D01*
X64252Y260609D01*
X64263Y260727D01*
X64281Y260903D01*
X65591Y260741D02*
X65593Y260773D01*
X65590Y260710D02*
X65591Y260741D01*
X65589Y260680D02*
X65590Y260710D01*
X65589Y260651D02*
X65589Y260680D01*
X65589Y260594D02*
Y260651D01*
Y260265D02*
Y260594D01*
X76343Y260577D02*
X77718D01*
X78058Y269516D02*
Y269775D01*
X76650Y270068D02*
X78033Y270054D01*
X78058Y269775D01*
X76683Y269148D02*
Y269653D01*
X64401Y281500D02*
Y282894D01*
Y326366D02*
Y327760D01*
X64396Y339711D02*
Y341105D01*
X64401Y348001D02*
Y349395D01*
X77715Y256983D02*
X81206D01*
X77718Y258377D02*
X81206D01*
X64281Y260903D02*
X65606Y260906D01*
X64401Y281500D02*
X66119D01*
X64401Y285482D02*
X66222D01*
X81836Y286608D02*
X83214D01*
X64401Y300070D02*
X65776D01*
X81373Y299713D02*
X83214D01*
X75878Y265267D02*
X77715D01*
X67786Y281500D02*
X71255D01*
X75738Y318927D02*
X83214Y318919D01*
X75738Y332977D02*
X77715D01*
X72286Y231314D02*
X83214D01*
X72339Y232708D02*
X83214D01*
X72339Y244405D02*
X83214D01*
X72284Y245799D02*
X83214D01*
X64401Y250640D02*
X83214D01*
X64401Y252034D02*
X83214D01*
X86649Y257404D02*
X108810D01*
X68199Y256983D02*
X76341D01*
X86877Y258572D02*
X108810D01*
X68082Y258377D02*
X76343D01*
X64401Y263873D02*
X77715D01*
X64401Y265267D02*
X73937D01*
X92744Y276336D02*
X107767D01*
X92744Y275168D02*
X107973D01*
X64401Y282894D02*
X73095D01*
X86863Y298233D02*
X107973D01*
X86663Y299401D02*
X107759D01*
X64401Y317525D02*
X83214D01*
X86875Y318983D02*
X107973D01*
X86649Y317815D02*
X107759D01*
X64401Y318919D02*
X74124D01*
X64401Y327760D02*
X73215D01*
X64401Y326366D02*
X73095D01*
X64401Y331583D02*
X77715D01*
X64401Y332977D02*
X74090D01*
X64396Y341105D02*
X74085D01*
X64396Y339711D02*
X73095D01*
X64401Y349395D02*
X73215Y349378D01*
X64401Y348001D02*
X73095D01*
X83214Y231314D02*
Y232708D01*
Y244405D02*
Y245799D01*
X64401Y250640D02*
Y252034D01*
X83214Y250640D02*
Y252034D01*
X64401Y263873D02*
Y265267D01*
X64213Y259903D02*
X64213Y259962D01*
X77718Y258377D02*
Y260577D01*
X76343Y258377D02*
Y260577D01*
X77715Y263873D02*
Y265267D01*
X81206Y256983D02*
Y258377D01*
X74330Y272447D02*
Y273816D01*
X71255Y279406D02*
Y281500D01*
X72629Y279900D02*
Y281492D01*
X64401Y317525D02*
Y318919D01*
X83214Y317525D02*
Y318919D01*
X64401Y331583D02*
Y332977D01*
X77715Y331583D02*
Y332977D01*
Y255268D02*
Y256983D01*
X76341Y255268D02*
Y256983D01*
X86295Y259158D02*
Y276007D01*
X85110Y258940D02*
Y276007D01*
X65776Y286887D02*
Y300070D01*
X108344Y299984D02*
Y317232D01*
X109510Y299769D02*
Y317447D01*
X65776Y286887D02*
X81373Y299713D01*
X64401Y285482D02*
Y300070D01*
X81836Y286608D02*
Y298286D01*
X83214Y286608D02*
Y299713D01*
X86281Y282986D02*
Y297647D01*
X85110Y282986D02*
Y297867D01*
X86292Y319568D02*
Y325608D01*
X85110Y319351D02*
Y325608D01*
X109510Y276704D02*
Y293155D01*
X108353Y276922D02*
Y292054D01*
X85667Y277064D02*
X108283Y293774D01*
X86359Y276130D02*
X108107Y292179D01*
X66222Y285482D02*
X81836Y298286D01*
M02*
