M48
;Layer_Color=9474304
;FILE_FORMAT=2:5
INCH,TZ
;TYPE=PLATED
T1F00S00C0.01181
T2F00S00C0.02362
T3F00S00C0.04000
T4F00S00C0.04331
T5F00S00C0.04528
T6F00S00C0.05906
T7F00S00C0.17323
;TYPE=NON_PLATED
T8F00S00C0.04331
T9F00S00C0.06299
%
T01
X101378Y37795
Y40748
X104331
Y37795
X107283
Y40748
X112205Y33465
X153543Y31496
X183071Y33465
X188976Y39370
X185039Y46063
X202756Y33465
X198819Y14173
X216142Y42520
X215551Y47244
X256890Y43110
X259842Y37402
X257874Y33465
X283465Y15748
X310236Y34646
X306102Y47244
X293504Y64961
X290551
Y67913
X293504
X287598
Y64961
X287402Y61024
X268898Y62205
X265748
X257874Y64173
X254724
X267717Y70866
X272638Y99410
X296260Y97441
Y94488
X299213
Y97441
X302165
Y94488
X307087Y108268
X309646
X312205
X222835Y118110
X223228Y129921
X220079
X183071Y92520
X169291Y66929
X165354Y62992
X121063Y63976
Y61024
X118110
Y63976
X115157
Y61024
X125984Y88583
X121654Y97244
X123256Y124759
X122603Y128902
X108268Y127953
Y143701
X107480Y150787
X100394Y151575
Y143701
X88583
X70866Y142520
X96457Y155512
X106299Y162205
X133858Y157480
X141732Y145669
X144095Y176378
X135827Y179134
Y181496
X133858Y190551
Y192913
X120079Y194882
X90551Y193012
Y198130
Y203248
Y208366
X86614Y210925
Y205807
Y200689
Y195571
X88583Y188976
X94488Y187008
X92520Y181102
X153543Y114173
X15748Y125984
X7874Y124016
X23622Y133858
X37795Y153543
X41929
X33465Y198819
X50788Y219291
X77953Y227559
X99213Y227559
X104331Y218110
X92520Y240158
X112205Y246063
Y251969
Y257874
Y263779
Y269685
Y275590
Y281496
Y287402
X133858Y279528
X206142Y295590
X246063Y255906
X244094Y251969
X246063Y248031
X244094Y244094
X226378Y229331
X224410Y225394
X226378Y221457
X224410Y217520
X295079Y355118
X300079Y352362
X305118Y379921
X307087Y385827
X166142Y374016
X163386
X153543Y371654
T02
X230315Y92520
Y100394
X226378Y96457
Y104331
X192913Y82677
Y74803
X196850Y78740
Y70866
X41260Y287402
Y295276
X9882Y319685
Y324016
X61024Y295276
Y287402
X87008Y328740
X89882Y354331
X94882
X141732Y361811
X173228
X177165
X255079Y381890
X275079Y379921
X64882Y381890
X39882Y387795
X29882
X19882Y385827
X9882
T03
X24528Y30118
Y40118
Y50118
X34528
Y40118
Y30118
X73740
X83740
Y40118
Y50118
X73740
Y40118
Y60118
X83740
Y70118
X73740
Y80118
X83740
X34528
Y70118
X24528
Y80118
Y60118
X34528
X221260Y265748
X251181
X270472
X300394
T04
X7874Y181535
Y191535
Y201535
Y211535
Y221535
Y231535
Y241535
Y251535
T05
X26142Y245590
Y265591
Y305591
X76142Y315591
Y285591
Y265591
X156142Y275590
Y315591
X206142
Y275590
Y235591
X156142
T06
X235748Y33209
X285906
X79213Y113917
X29055
T07
X157480Y201772
Y351378
X260827Y231299
T08
X118110Y43307
X221457Y72835
T09
X196850Y43307
X300197Y72835
M30
